<?xml version="1.0" encoding="utf-8" standalone="no"?>
<!DOCTYPE svg PUBLIC "-//W3C//DTD SVG 1.1//EN"
  "http://www.w3.org/Graphics/SVG/1.1/DTD/svg11.dtd">
<svg xmlns:xlink="http://www.w3.org/1999/xlink" width="864pt" height="504pt" viewBox="0 0 864 504" xmlns="http://www.w3.org/2000/svg" version="1.1">
 <metadata>
  <rdf:RDF xmlns:dc="http://purl.org/dc/elements/1.1/" xmlns:cc="http://creativecommons.org/ns#" xmlns:rdf="http://www.w3.org/1999/02/22-rdf-syntax-ns#">
   <cc:Work>
    <dc:type rdf:resource="http://purl.org/dc/dcmitype/StillImage"/>
    <dc:date>2024-09-05T19:52:42.587587</dc:date>
    <dc:format>image/svg+xml</dc:format>
    <dc:creator>
     <cc:Agent>
      <dc:title>Matplotlib v3.7.5, https://matplotlib.org/</dc:title>
     </cc:Agent>
    </dc:creator>
   </cc:Work>
  </rdf:RDF>
 </metadata>
 <defs>
  <style type="text/css">*{stroke-linejoin: round; stroke-linecap: butt}</style>
 </defs>
 <g id="figure_1">
  <g id="patch_1">
   <path d="M 0 504 
L 864 504 
L 864 0 
L 0 0 
z
" style="fill: #ffffff"/>
  </g>
  <g id="axes_1">
   <g id="patch_2">
    <path d="M 78.63125 417.601572 
L 844.56 417.601572 
L 844.56 57.395 
L 78.63125 57.395 
z
" style="fill: #ffffff"/>
   </g>
   <g id="matplotlib.axis_1">
    <g id="xtick_1">
     <g id="line2d_1">
      <path d="M 113.446193 417.601572 
L 113.446193 57.395 
" clip-path="url(#p951efee544)" style="fill: none; stroke-dasharray: 5.55,2.4; stroke-dashoffset: 0; stroke: #cccccc; stroke-opacity: 0.5; stroke-width: 1.5"/>
     </g>
     <g id="text_1">
      <!-- 20春 -->
      <g style="fill: #262626" transform="translate(107.794863 453.833844) rotate(-45) scale(0.12 -0.12)">
       <defs>
        <path id="SimHei-32" d="M 2850 100 
L 300 100 
L 300 500 
Q 450 900 712 1237 
Q 975 1575 1475 2000 
Q 1850 2325 2012 2600 
Q 2175 2875 2175 3200 
Q 2175 3525 2037 3737 
Q 1900 3950 1600 3950 
Q 1350 3950 1162 3725 
Q 975 3500 975 2925 
L 400 2925 
Q 425 3650 737 4037 
Q 1050 4425 1625 4425 
Q 2175 4425 2475 4087 
Q 2775 3750 2775 3175 
Q 2775 2700 2500 2350 
Q 2225 2000 1825 1650 
Q 1375 1250 1200 1050 
Q 1025 850 875 575 
L 2850 575 
L 2850 100 
z
" transform="scale(0.015625)"/>
        <path id="SimHei-30" d="M 2975 2250 
Q 2975 1350 2650 700 
Q 2325 50 1600 50 
Q 875 50 537 700 
Q 200 1350 200 2250 
Q 200 3150 537 3787 
Q 875 4425 1600 4425 
Q 2325 4425 2650 3787 
Q 2975 3150 2975 2250 
z
M 2375 2250 
Q 2375 3050 2187 3500 
Q 2000 3950 1600 3950 
Q 1200 3950 1000 3500 
Q 800 3050 800 2250 
Q 800 1450 1000 987 
Q 1200 525 1600 525 
Q 2000 525 2187 987 
Q 2375 1450 2375 2250 
z
" transform="scale(0.015625)"/>
        <path id="SimHei-6625" d="M 3125 5275 
Q 3450 5175 3725 5150 
Q 3625 5100 3525 4650 
L 4725 4650 
Q 5175 4650 5675 4700 
L 5675 4250 
Q 5175 4275 4875 4275 
L 3450 4275 
Q 3400 4100 3325 3775 
L 4950 3775 
Q 5125 3775 5475 3800 
L 5475 3375 
Q 5025 3400 4875 3400 
L 3200 3400 
Q 3100 3125 2925 2850 
L 5050 2850 
Q 5475 2850 5925 2875 
L 5925 2450 
Q 5475 2475 4450 2475 
Q 4700 2125 5112 1862 
Q 5525 1600 6150 1450 
Q 5950 1275 5825 950 
Q 5325 1200 4900 1475 
L 4900 175 
Q 4900 -200 4925 -650 
L 4425 -650 
L 4425 -300 
L 2200 -300 
L 2200 -625 
L 1700 -625 
Q 1725 -175 1725 150 
L 1725 1550 
Q 1300 1225 750 875 
Q 600 1125 350 1300 
Q 825 1475 1287 1775 
Q 1750 2075 2125 2475 
L 1275 2475 
Q 1000 2475 575 2425 
L 575 2875 
Q 1000 2850 1325 2850 
L 2400 2850 
Q 2600 3125 2700 3400 
L 1850 3400 
Q 1600 3400 1125 3375 
L 1125 3800 
Q 1600 3775 1900 3775 
L 2850 3775 
Q 2925 4000 2975 4275 
L 1650 4275 
Q 1375 4275 900 4250 
L 900 4675 
Q 1375 4650 1800 4650 
L 3050 4650 
Q 3100 4900 3125 5275 
z
M 2700 2475 
Q 2375 2075 2100 1875 
L 4375 1875 
Q 4175 2075 3950 2475 
L 2700 2475 
z
M 2200 1500 
L 2200 1000 
L 4425 1000 
L 4425 1500 
L 2200 1500 
z
M 2200 625 
L 2200 75 
L 4425 75 
L 4425 625 
L 2200 625 
z
" transform="scale(0.015625)"/>
       </defs>
       <use xlink:href="#SimHei-32"/>
       <use xlink:href="#SimHei-30" x="50"/>
       <use xlink:href="#SimHei-6625" x="100"/>
      </g>
     </g>
    </g>
    <g id="xtick_2">
     <g id="line2d_2">
      <path d="M 252.705966 417.601572 
L 252.705966 57.395 
" clip-path="url(#p951efee544)" style="fill: none; stroke-dasharray: 5.55,2.4; stroke-dashoffset: 0; stroke: #cccccc; stroke-opacity: 0.5; stroke-width: 1.5"/>
     </g>
     <g id="text_2">
      <!-- 20秋 -->
      <g style="fill: #262626" transform="translate(246.971772 453.668115) rotate(-45) scale(0.12 -0.12)">
       <defs>
        <path id="SimHei-79cb" d="M 3350 2350 
Q 3100 2400 2900 2425 
Q 3125 3175 3225 3975 
Q 3450 3900 3750 3875 
Q 3650 3700 3550 3212 
Q 3450 2725 3350 2350 
z
M 6150 -250 
Q 5825 -350 5675 -625 
Q 5125 -100 4825 425 
Q 4525 950 4275 1725 
Q 4050 875 3662 325 
Q 3275 -225 2775 -650 
Q 2600 -425 2300 -300 
Q 3075 225 3462 937 
Q 3850 1650 3937 2375 
Q 4025 3100 4025 3837 
Q 4025 4575 4000 5150 
Q 4200 5150 4600 5100 
Q 4525 4850 4500 4375 
Q 4475 3900 4487 3312 
Q 4500 2725 4612 2137 
Q 4725 1550 5087 925 
Q 5450 300 6150 -250 
z
M 5300 2275 
Q 5050 2375 4825 2400 
Q 5125 3175 5225 3925 
Q 5425 3875 5750 3800 
Q 5650 3625 5537 3187 
Q 5425 2750 5300 2275 
z
M 1950 225 
Q 1950 -250 1975 -600 
L 1475 -600 
Q 1500 -275 1500 225 
L 1500 1950 
Q 1075 1125 575 425 
Q 475 700 250 875 
Q 650 1275 937 1762 
Q 1225 2250 1400 2800 
Q 725 2800 400 2775 
L 400 3225 
Q 675 3200 1500 3200 
L 1500 4250 
Q 875 4150 600 4075 
Q 500 4350 375 4525 
Q 775 4550 1500 4712 
Q 2225 4875 2650 5100 
Q 2775 4825 3000 4600 
Q 2625 4525 1950 4350 
L 1950 3200 
Q 2325 3200 2675 3225 
L 2675 2775 
Q 2300 2800 1950 2800 
L 1950 225 
z
M 1975 1975 
Q 2125 2100 2325 2275 
Q 2675 1775 2925 1375 
Q 2700 1250 2525 1100 
Q 2350 1475 1975 1975 
z
" transform="scale(0.015625)"/>
       </defs>
       <use xlink:href="#SimHei-32"/>
       <use xlink:href="#SimHei-30" x="50"/>
       <use xlink:href="#SimHei-79cb" x="100"/>
      </g>
     </g>
    </g>
    <g id="xtick_3">
     <g id="line2d_3">
      <path d="M 391.965739 417.601572 
L 391.965739 57.395 
" clip-path="url(#p951efee544)" style="fill: none; stroke-dasharray: 5.55,2.4; stroke-dashoffset: 0; stroke: #cccccc; stroke-opacity: 0.5; stroke-width: 1.5"/>
     </g>
     <g id="text_3">
      <!-- 21春 -->
      <g style="fill: #262626" transform="translate(386.314409 453.833844) rotate(-45) scale(0.12 -0.12)">
       <defs>
        <path id="SimHei-31" d="M 1950 100 
L 1375 100 
L 1375 3425 
L 625 3425 
L 625 3725 
Q 1075 3725 1325 3900 
Q 1575 4075 1650 4425 
L 1950 4425 
L 1950 100 
z
" transform="scale(0.015625)"/>
       </defs>
       <use xlink:href="#SimHei-32"/>
       <use xlink:href="#SimHei-31" x="50"/>
       <use xlink:href="#SimHei-6625" x="100"/>
      </g>
     </g>
    </g>
    <g id="xtick_4">
     <g id="line2d_4">
      <path d="M 531.225511 417.601572 
L 531.225511 57.395 
" clip-path="url(#p951efee544)" style="fill: none; stroke-dasharray: 5.55,2.4; stroke-dashoffset: 0; stroke: #cccccc; stroke-opacity: 0.5; stroke-width: 1.5"/>
     </g>
     <g id="text_4">
      <!-- 21秋 -->
      <g style="fill: #262626" transform="translate(525.491317 453.668115) rotate(-45) scale(0.12 -0.12)">
       <use xlink:href="#SimHei-32"/>
       <use xlink:href="#SimHei-31" x="50"/>
       <use xlink:href="#SimHei-79cb" x="100"/>
      </g>
     </g>
    </g>
    <g id="xtick_5">
     <g id="line2d_5">
      <path d="M 670.485284 417.601572 
L 670.485284 57.395 
" clip-path="url(#p951efee544)" style="fill: none; stroke-dasharray: 5.55,2.4; stroke-dashoffset: 0; stroke: #cccccc; stroke-opacity: 0.5; stroke-width: 1.5"/>
     </g>
     <g id="text_5">
      <!-- 22春 -->
      <g style="fill: #262626" transform="translate(664.833954 453.833844) rotate(-45) scale(0.12 -0.12)">
       <use xlink:href="#SimHei-32"/>
       <use xlink:href="#SimHei-32" x="50"/>
       <use xlink:href="#SimHei-6625" x="100"/>
      </g>
     </g>
    </g>
    <g id="xtick_6">
     <g id="line2d_6">
      <path d="M 809.745057 417.601572 
L 809.745057 57.395 
" clip-path="url(#p951efee544)" style="fill: none; stroke-dasharray: 5.55,2.4; stroke-dashoffset: 0; stroke: #cccccc; stroke-opacity: 0.5; stroke-width: 1.5"/>
     </g>
     <g id="text_6">
      <!-- 22秋 -->
      <g style="fill: #262626" transform="translate(804.010863 453.668115) rotate(-45) scale(0.12 -0.12)">
       <use xlink:href="#SimHei-32"/>
       <use xlink:href="#SimHei-32" x="50"/>
       <use xlink:href="#SimHei-79cb" x="100"/>
      </g>
     </g>
    </g>
    <g id="text_7">
     <!-- 时间 -->
     <g style="fill: #262626" transform="translate(445.595625 482.427649) scale(0.16 -0.16)">
      <defs>
       <path id="SimHei-65f6" d="M 2800 3825 
Q 3550 3800 4775 3800 
Q 4775 4550 4750 5200 
L 5275 5200 
Q 5250 4550 5250 3800 
Q 5600 3800 6000 3825 
L 6000 3350 
Q 5600 3375 5250 3375 
L 5250 25 
Q 5250 -350 4962 -450 
Q 4675 -550 4225 -600 
Q 4225 -300 3975 -25 
Q 4425 -75 4600 -50 
Q 4775 -25 4775 275 
L 4775 3375 
Q 3600 3375 2800 3350 
L 2800 3825 
z
M 3075 2475 
Q 3300 2575 3525 2700 
Q 3825 2175 4125 1575 
Q 3875 1500 3625 1350 
Q 3425 1950 3075 2475 
z
M 625 4550 
L 2575 4550 
Q 2550 3650 2550 2375 
Q 2550 1100 2575 375 
L 2075 375 
L 2075 850 
L 1125 850 
L 1125 25 
L 625 25 
Q 650 1175 650 2337 
Q 650 3500 625 4550 
z
M 1125 4125 
L 1125 2950 
L 2075 2950 
L 2075 4125 
L 1125 4125 
z
M 1125 2525 
L 1125 1275 
L 2075 1275 
L 2075 2525 
L 1125 2525 
z
" transform="scale(0.015625)"/>
       <path id="SimHei-95f4" d="M 1225 4950 
Q 1500 5150 1650 5225 
Q 1875 4925 2300 4300 
Q 2050 4175 1825 4025 
Q 1575 4525 1225 4950 
z
M 1250 500 
Q 1250 0 1275 -500 
L 775 -500 
Q 800 -25 800 525 
L 800 3100 
Q 800 3625 775 3975 
L 1275 3975 
Q 1250 3600 1250 3250 
L 1250 500 
z
M 2725 4825 
Q 3175 4800 3700 4800 
L 5600 4800 
Q 5575 4350 5575 3875 
L 5575 250 
Q 5600 -300 5287 -425 
Q 4975 -550 4600 -600 
Q 4575 -300 4400 -25 
Q 4850 -50 4987 25 
Q 5125 100 5125 350 
L 5125 4400 
L 3725 4400 
Q 3175 4400 2725 4375 
L 2725 4825 
z
M 2500 3100 
L 2500 2325 
L 3875 2325 
L 3875 3100 
L 2500 3100 
z
M 2500 1925 
L 2500 1025 
L 3875 1025 
L 3875 1925 
L 2500 1925 
z
M 2025 3500 
L 4350 3500 
Q 4325 3050 4325 2700 
L 4325 1400 
Q 4325 1075 4350 625 
L 2025 625 
Q 2050 1075 2050 1425 
L 2050 2700 
Q 2050 3050 2025 3500 
z
" transform="scale(0.015625)"/>
      </defs>
      <use xlink:href="#SimHei-65f6"/>
      <use xlink:href="#SimHei-95f4" x="100"/>
     </g>
    </g>
   </g>
   <g id="matplotlib.axis_2">
    <g id="ytick_1">
     <g id="line2d_7">
      <path d="M 78.63125 401.228546 
L 844.56 401.228546 
" clip-path="url(#p951efee544)" style="fill: none; stroke-dasharray: 5.55,2.4; stroke-dashoffset: 0; stroke: #cccccc; stroke-opacity: 0.5; stroke-width: 1.5"/>
     </g>
     <g id="text_8">
      <!-- 0 -->
      <g style="fill: #262626" transform="translate(57.88125 406.868195) scale(0.165 -0.165)">
       <use xlink:href="#SimHei-30"/>
      </g>
     </g>
    </g>
    <g id="ytick_2">
     <g id="line2d_8">
      <path d="M 78.63125 329.055792 
L 844.56 329.055792 
" clip-path="url(#p951efee544)" style="fill: none; stroke-dasharray: 5.55,2.4; stroke-dashoffset: 0; stroke: #cccccc; stroke-opacity: 0.5; stroke-width: 1.5"/>
     </g>
     <g id="text_9">
      <!-- 5 -->
      <g style="fill: #262626" transform="translate(57.88125 334.695441) scale(0.165 -0.165)">
       <defs>
        <path id="SimHei-35" d="M 2825 1650 
Q 2825 900 2462 475 
Q 2100 50 1500 50 
Q 975 50 637 400 
Q 300 750 275 1350 
L 850 1350 
Q 850 975 1025 750 
Q 1200 525 1525 525 
Q 1850 525 2037 800 
Q 2225 1075 2225 1650 
Q 2225 2150 2062 2387 
Q 1900 2625 1625 2625 
Q 1400 2625 1237 2525 
Q 1075 2425 925 2175 
L 425 2175 
L 575 4375 
L 2725 4375 
L 2725 3900 
L 1050 3900 
L 950 2750 
Q 1100 2900 1275 2975 
Q 1450 3050 1750 3050 
Q 2225 3050 2525 2687 
Q 2825 2325 2825 1650 
z
" transform="scale(0.015625)"/>
       </defs>
       <use xlink:href="#SimHei-35"/>
      </g>
     </g>
    </g>
    <g id="ytick_3">
     <g id="line2d_9">
      <path d="M 78.63125 256.883039 
L 844.56 256.883039 
" clip-path="url(#p951efee544)" style="fill: none; stroke-dasharray: 5.55,2.4; stroke-dashoffset: 0; stroke: #cccccc; stroke-opacity: 0.5; stroke-width: 1.5"/>
     </g>
     <g id="text_10">
      <!-- 10 -->
      <g style="fill: #262626" transform="translate(49.63125 262.522687) scale(0.165 -0.165)">
       <use xlink:href="#SimHei-31"/>
       <use xlink:href="#SimHei-30" x="50"/>
      </g>
     </g>
    </g>
    <g id="ytick_4">
     <g id="line2d_10">
      <path d="M 78.63125 184.710285 
L 844.56 184.710285 
" clip-path="url(#p951efee544)" style="fill: none; stroke-dasharray: 5.55,2.4; stroke-dashoffset: 0; stroke: #cccccc; stroke-opacity: 0.5; stroke-width: 1.5"/>
     </g>
     <g id="text_11">
      <!-- 15 -->
      <g style="fill: #262626" transform="translate(49.63125 190.349933) scale(0.165 -0.165)">
       <use xlink:href="#SimHei-31"/>
       <use xlink:href="#SimHei-35" x="50"/>
      </g>
     </g>
    </g>
    <g id="ytick_5">
     <g id="line2d_11">
      <path d="M 78.63125 112.537531 
L 844.56 112.537531 
" clip-path="url(#p951efee544)" style="fill: none; stroke-dasharray: 5.55,2.4; stroke-dashoffset: 0; stroke: #cccccc; stroke-opacity: 0.5; stroke-width: 1.5"/>
     </g>
     <g id="text_12">
      <!-- 20 -->
      <g style="fill: #262626" transform="translate(49.63125 118.17718) scale(0.165 -0.165)">
       <use xlink:href="#SimHei-32"/>
       <use xlink:href="#SimHei-30" x="50"/>
      </g>
     </g>
    </g>
    <g id="text_13">
     <!-- 叶绿素a(mg/m3) -->
     <g style="fill: #262626" transform="translate(32.56875 293.498286) rotate(-90) scale(0.16 -0.16)">
      <defs>
       <path id="SimHei-53f6" d="M 1000 4150 
L 1000 1575 
L 1900 1575 
L 1900 4150 
L 1000 4150 
z
M 500 4600 
L 2400 4600 
Q 2375 4075 2375 3575 
L 2375 1450 
Q 2375 925 2400 475 
L 1900 475 
L 1900 1125 
L 1000 1125 
L 1000 125 
L 500 125 
Q 525 625 525 1100 
L 525 3575 
Q 525 3925 500 4600 
z
M 2625 3200 
Q 2800 3175 3250 3175 
L 4100 3175 
L 4100 4425 
Q 4100 4925 4075 5125 
L 4650 5125 
Q 4600 4925 4600 4425 
L 4600 3175 
L 5450 3175 
Q 5900 3175 6025 3200 
L 6025 2700 
Q 5875 2725 5475 2725 
L 4600 2725 
L 4600 250 
Q 4600 -300 4625 -575 
L 4075 -575 
Q 4100 -300 4100 225 
L 4100 2725 
L 3275 2725 
Q 2800 2725 2625 2700 
L 2625 3200 
z
" transform="scale(0.015625)"/>
       <path id="SimHei-7eff" d="M 1250 5050 
Q 1525 4875 1800 4750 
Q 1600 4525 1375 4075 
Q 1150 3625 850 3100 
L 1575 3100 
Q 1850 3650 1950 4000 
Q 2175 3775 2450 3625 
Q 2275 3500 2037 3100 
Q 1800 2700 1175 1600 
Q 1375 1600 2200 1650 
Q 2175 1475 2175 1325 
Q 1875 1300 1475 1250 
Q 1075 1200 625 1100 
Q 575 1375 525 1600 
Q 750 1675 975 2012 
Q 1200 2350 1425 2775 
Q 1125 2775 900 2725 
Q 675 2675 450 2600 
Q 375 2825 275 3075 
Q 575 3275 837 3862 
Q 1100 4450 1250 5050 
z
M 400 425 
Q 950 450 1350 500 
Q 1750 550 2200 625 
Q 2175 400 2175 250 
Q 1975 200 1475 112 
Q 975 25 525 -100 
Q 475 150 400 425 
z
M 2700 1950 
Q 2900 2050 3100 2150 
Q 3175 2000 3425 1525 
Q 3250 1425 3050 1300 
Q 2925 1550 2700 1950 
z
M 4975 2875 
L 5025 3475 
L 3750 3475 
Q 3300 3475 2900 3450 
L 2900 3875 
Q 3275 3850 3725 3850 
L 5050 3850 
L 5100 4425 
L 3525 4425 
Q 3075 4425 2700 4400 
L 2700 4825 
Q 3075 4800 3525 4800 
L 5600 4800 
Q 5500 3975 5425 2875 
Q 5700 2875 6075 2900 
L 6075 2475 
Q 5675 2500 5275 2500 
L 4425 2500 
L 4425 2050 
Q 4600 1700 4775 1500 
Q 4925 1600 5112 1762 
Q 5300 1925 5550 2150 
Q 5700 1950 5900 1725 
Q 5775 1700 5525 1562 
Q 5275 1425 4975 1200 
Q 5175 925 5437 687 
Q 5700 450 6150 325 
Q 5900 0 5825 -250 
Q 5225 150 4975 475 
Q 4725 800 4425 1325 
L 4425 -50 
Q 4425 -425 4162 -512 
Q 3900 -600 3625 -650 
Q 3550 -375 3425 -125 
Q 3850 -125 3912 -37 
Q 3975 50 3975 250 
L 3975 1000 
Q 3675 700 3350 425 
Q 3025 150 2650 -75 
Q 2450 200 2300 375 
Q 2750 550 3137 825 
Q 3525 1100 3975 1500 
L 3975 2500 
L 3250 2500 
Q 2850 2500 2450 2475 
L 2450 2900 
Q 2875 2875 3250 2875 
L 4975 2875 
z
" transform="scale(0.015625)"/>
       <path id="SimHei-7d20" d="M 800 4600 
Q 1250 4575 1625 4575 
L 2950 4575 
Q 2950 4850 2925 5200 
L 3425 5200 
Q 3400 4900 3400 4575 
L 4850 4575 
Q 5250 4575 5650 4600 
L 5650 4200 
Q 5250 4225 4875 4225 
L 3400 4225 
L 3400 3775 
L 4550 3775 
Q 4900 3775 5350 3800 
L 5350 3425 
Q 4925 3450 4550 3450 
L 3400 3450 
L 3400 2975 
L 5175 2975 
Q 5525 2975 5975 3000 
L 5975 2625 
Q 5525 2650 5175 2650 
L 3200 2650 
Q 2875 2400 2475 2125 
Q 3125 2150 3725 2150 
Q 4025 2275 4425 2600 
Q 4675 2375 4925 2200 
Q 4500 2075 3950 1800 
Q 3400 1525 2775 1225 
Q 3750 1275 4750 1350 
Q 4600 1525 4475 1650 
Q 4675 1775 4875 1925 
Q 5450 1275 5700 950 
Q 5500 825 5300 650 
Q 5150 875 5000 1025 
Q 4050 975 3550 925 
L 3550 50 
Q 3550 -350 3312 -450 
Q 3075 -550 2600 -600 
Q 2575 -350 2425 -50 
Q 2750 -50 2912 -37 
Q 3075 -25 3100 200 
L 3100 900 
Q 2775 900 2250 837 
Q 1725 775 1275 675 
Q 1225 925 1125 1125 
Q 1525 1150 1787 1225 
Q 2050 1300 2375 1425 
Q 2700 1550 3125 1800 
Q 2525 1825 2212 1787 
Q 1900 1750 1500 1650 
Q 1450 1900 1350 2100 
Q 1725 2150 1987 2275 
Q 2250 2400 2550 2650 
L 1250 2650 
Q 850 2650 400 2625 
L 400 3000 
Q 850 2975 1225 2975 
L 2950 2975 
L 2950 3450 
L 1800 3450 
Q 1450 3450 1025 3425 
L 1025 3800 
Q 1450 3775 1775 3775 
L 2950 3775 
L 2950 4225 
L 1625 4225 
Q 1250 4225 800 4200 
L 800 4600 
z
M 2000 675 
Q 2200 450 2425 250 
Q 2075 150 1675 -75 
Q 1275 -300 775 -525 
Q 650 -300 425 -100 
Q 925 50 1300 237 
Q 1675 425 2000 675 
z
M 4150 200 
Q 4300 400 4400 625 
Q 5125 325 5925 -50 
Q 5750 -250 5625 -500 
Q 4875 -50 4150 200 
z
" transform="scale(0.015625)"/>
       <path id="SimHei-61" d="M 2900 100 
L 2300 100 
Q 2250 150 2225 237 
Q 2200 325 2200 450 
Q 2025 250 1775 150 
Q 1525 50 1250 50 
Q 850 50 575 250 
Q 300 450 300 825 
Q 300 1200 550 1425 
Q 800 1650 1325 1725 
Q 1675 1775 1937 1850 
Q 2200 1925 2200 2050 
Q 2200 2200 2087 2350 
Q 1975 2500 1600 2500 
Q 1300 2500 1162 2387 
Q 1025 2275 975 2075 
L 425 2075 
Q 475 2475 787 2712 
Q 1100 2950 1600 2950 
Q 2150 2950 2425 2700 
Q 2700 2450 2700 2000 
L 2700 625 
Q 2700 475 2750 350 
Q 2800 225 2900 100 
z
M 2200 1025 
L 2200 1525 
Q 2050 1475 1912 1437 
Q 1775 1400 1450 1350 
Q 1075 1300 962 1175 
Q 850 1050 850 875 
Q 850 725 962 612 
Q 1075 500 1300 500 
Q 1525 500 1787 625 
Q 2050 750 2200 1025 
z
" transform="scale(0.015625)"/>
       <path id="SimHei-28" d="M 3000 -225 
L 2725 -500 
Q 2100 100 1787 750 
Q 1475 1400 1475 2225 
Q 1475 3050 1787 3700 
Q 2100 4350 2725 4975 
L 3000 4700 
Q 2425 4150 2137 3562 
Q 1850 2975 1850 2225 
Q 1850 1475 2137 887 
Q 2425 300 3000 -225 
z
" transform="scale(0.015625)"/>
       <path id="SimHei-6d" d="M 3075 100 
L 2575 100 
L 2575 2125 
Q 2575 2275 2525 2375 
Q 2475 2475 2325 2475 
Q 2150 2475 2000 2287 
Q 1850 2100 1850 1800 
L 1850 100 
L 1350 100 
L 1350 2125 
Q 1350 2275 1300 2375 
Q 1250 2475 1100 2475 
Q 925 2475 775 2287 
Q 625 2100 625 1800 
L 625 100 
L 125 100 
L 125 2900 
L 625 2900 
L 625 2525 
Q 750 2725 925 2837 
Q 1100 2950 1300 2950 
Q 1500 2950 1637 2837 
Q 1775 2725 1825 2525 
Q 1950 2725 2112 2837 
Q 2275 2950 2475 2950 
Q 2775 2950 2925 2787 
Q 3075 2625 3075 2325 
L 3075 100 
z
" transform="scale(0.015625)"/>
       <path id="SimHei-67" d="M 3000 2475 
Q 2825 2525 2662 2537 
Q 2500 2550 2325 2500 
Q 2400 2425 2450 2312 
Q 2500 2200 2500 1975 
Q 2500 1550 2212 1275 
Q 1925 1000 1500 1000 
Q 1400 1000 1237 1037 
Q 1075 1075 975 1125 
Q 900 1075 875 1025 
Q 850 975 850 900 
Q 850 775 1025 712 
Q 1200 650 1650 650 
Q 2375 650 2637 450 
Q 2900 250 2900 -50 
Q 2900 -450 2512 -637 
Q 2125 -825 1600 -825 
Q 925 -825 600 -650 
Q 275 -475 275 -175 
Q 275 -25 400 125 
Q 525 275 725 375 
Q 575 450 487 562 
Q 400 675 400 850 
Q 400 1000 512 1112 
Q 625 1225 775 1300 
Q 650 1425 575 1600 
Q 500 1775 500 1975 
Q 500 2400 787 2675 
Q 1075 2950 1500 2950 
Q 1725 2950 1887 2887 
Q 2050 2825 2175 2700 
Q 2375 2850 2575 2912 
Q 2775 2975 3000 2950 
L 3000 2475 
z
M 2000 1975 
Q 2000 2225 1875 2375 
Q 1750 2525 1500 2525 
Q 1250 2525 1125 2375 
Q 1000 2225 1000 1975 
Q 1000 1725 1125 1575 
Q 1250 1425 1500 1425 
Q 1750 1425 1875 1575 
Q 2000 1725 2000 1975 
z
M 2425 -100 
Q 2425 0 2312 100 
Q 2200 200 1750 200 
Q 1650 200 1475 212 
Q 1300 225 1075 250 
Q 875 175 800 75 
Q 725 -25 725 -125 
Q 725 -275 925 -375 
Q 1125 -475 1625 -475 
Q 2050 -475 2237 -362 
Q 2425 -250 2425 -100 
z
" transform="scale(0.015625)"/>
       <path id="SimHei-2f" d="M 3025 4525 
L 375 -200 
L 125 -50 
L 2775 4675 
L 3025 4525 
z
" transform="scale(0.015625)"/>
       <path id="SimHei-33" d="M 2825 1300 
Q 2825 725 2462 387 
Q 2100 50 1550 50 
Q 1000 50 637 387 
Q 275 725 275 1425 
L 850 1425 
Q 850 950 1037 737 
Q 1225 525 1550 525 
Q 1875 525 2050 725 
Q 2225 925 2225 1350 
Q 2225 1700 2037 1900 
Q 1850 2100 1375 2100 
L 1375 2525 
Q 1775 2525 1962 2725 
Q 2150 2925 2150 3325 
Q 2150 3625 2012 3800 
Q 1875 3975 1575 3975 
Q 1275 3975 1112 3762 
Q 950 3550 925 3150 
L 375 3150 
Q 425 3725 737 4075 
Q 1050 4425 1575 4425 
Q 2125 4425 2425 4112 
Q 2725 3800 2725 3350 
Q 2725 2925 2575 2687 
Q 2425 2450 2075 2325 
Q 2425 2250 2625 1975 
Q 2825 1700 2825 1300 
z
" transform="scale(0.015625)"/>
       <path id="SimHei-29" d="M 1700 2225 
Q 1700 1400 1387 750 
Q 1075 100 450 -500 
L 175 -225 
Q 750 300 1037 887 
Q 1325 1475 1325 2225 
Q 1325 2975 1037 3562 
Q 750 4150 175 4700 
L 450 4975 
Q 1075 4350 1387 3700 
Q 1700 3050 1700 2225 
z
" transform="scale(0.015625)"/>
      </defs>
      <use xlink:href="#SimHei-53f6"/>
      <use xlink:href="#SimHei-7eff" x="100"/>
      <use xlink:href="#SimHei-7d20" x="200"/>
      <use xlink:href="#SimHei-61" x="300"/>
      <use xlink:href="#SimHei-28" x="350"/>
      <use xlink:href="#SimHei-6d" x="400"/>
      <use xlink:href="#SimHei-67" x="450"/>
      <use xlink:href="#SimHei-2f" x="500"/>
      <use xlink:href="#SimHei-6d" x="550"/>
      <use xlink:href="#SimHei-33" x="600"/>
      <use xlink:href="#SimHei-29" x="650"/>
     </g>
    </g>
   </g>
   <g id="PolyCollection_1"/>
   <g id="PolyCollection_2">
    <defs>
     <path id="m8923925eec" d="M 113.446193 -102.771454 
L 113.446193 -120.468213 
L 252.705966 -108.024026 
L 391.965739 -430.231974 
L 531.225511 -132.294922 
L 670.485284 -127.31019 
L 809.745057 -135.682229 
L 809.745057 -102.771454 
L 809.745057 -102.771454 
L 670.485284 -102.771454 
L 531.225511 -102.771454 
L 391.965739 -102.771454 
L 252.705966 -102.771454 
L 113.446193 -102.771454 
z
" style="stroke: #4c72b0; stroke-opacity: 0.2; stroke-width: 1.5"/>
    </defs>
    <g clip-path="url(#p951efee544)">
     <use xlink:href="#m8923925eec" x="0" y="504" style="fill: #4c72b0; fill-opacity: 0.2; stroke: #4c72b0; stroke-opacity: 0.2; stroke-width: 1.5"/>
    </g>
   </g>
   <g id="line2d_12">
    <path d="M 113.446193 383.531787 
L 252.705966 395.975974 
L 391.965739 73.768026 
L 531.225511 371.705078 
L 670.485284 376.68981 
L 809.745057 368.317771 
" clip-path="url(#p951efee544)" style="fill: none; stroke: #4c72b0; stroke-width: 2.5; stroke-linecap: round"/>
    <defs>
     <path id="m5157995ba1" d="M 0 4.5 
C 1.193414 4.5 2.338109 4.025852 3.181981 3.181981 
C 4.025852 2.338109 4.5 1.193414 4.5 0 
C 4.5 -1.193414 4.025852 -2.338109 3.181981 -3.181981 
C 2.338109 -4.025852 1.193414 -4.5 0 -4.5 
C -1.193414 -4.5 -2.338109 -4.025852 -3.181981 -3.181981 
C -4.025852 -2.338109 -4.5 -1.193414 -4.5 0 
C -4.5 1.193414 -4.025852 2.338109 -3.181981 3.181981 
C -2.338109 4.025852 -1.193414 4.5 0 4.5 
z
" style="stroke: #ffffff; stroke-width: 0.75"/>
    </defs>
    <g clip-path="url(#p951efee544)">
     <use xlink:href="#m5157995ba1" x="113.446193" y="383.531787" style="fill: #4c72b0; stroke: #ffffff; stroke-width: 0.75"/>
     <use xlink:href="#m5157995ba1" x="252.705966" y="395.975974" style="fill: #4c72b0; stroke: #ffffff; stroke-width: 0.75"/>
     <use xlink:href="#m5157995ba1" x="391.965739" y="73.768026" style="fill: #4c72b0; stroke: #ffffff; stroke-width: 0.75"/>
     <use xlink:href="#m5157995ba1" x="531.225511" y="371.705078" style="fill: #4c72b0; stroke: #ffffff; stroke-width: 0.75"/>
     <use xlink:href="#m5157995ba1" x="670.485284" y="376.68981" style="fill: #4c72b0; stroke: #ffffff; stroke-width: 0.75"/>
     <use xlink:href="#m5157995ba1" x="809.745057" y="368.317771" style="fill: #4c72b0; stroke: #ffffff; stroke-width: 0.75"/>
    </g>
   </g>
   <g id="patch_3">
    <path d="M 78.63125 417.601572 
L 78.63125 57.395 
" style="fill: none; stroke: #cccccc; stroke-width: 1.875; stroke-linejoin: miter; stroke-linecap: square"/>
   </g>
   <g id="patch_4">
    <path d="M 78.63125 417.601572 
L 844.56 417.601572 
" style="fill: none; stroke: #cccccc; stroke-width: 1.875; stroke-linejoin: miter; stroke-linecap: square"/>
   </g>
   <g id="text_14">
    <!-- 1.226 -->
    <g style="fill: #4c72b0" transform="translate(99.696193 381.969473) scale(0.11 -0.11)">
     <defs>
      <path id="SimHei-2e" d="M 1100 100 
L 525 100 
L 525 650 
L 1100 650 
L 1100 100 
z
" transform="scale(0.015625)"/>
      <path id="SimHei-36" d="M 2850 1550 
Q 2850 850 2550 450 
Q 2250 50 1650 50 
Q 1050 50 700 550 
Q 350 1050 350 2175 
Q 350 3200 712 3812 
Q 1075 4425 1750 4425 
Q 2225 4425 2512 4075 
Q 2800 3725 2800 3300 
L 2225 3300 
Q 2225 3550 2087 3750 
Q 1950 3950 1725 3950 
Q 1350 3950 1150 3562 
Q 950 3175 925 2375 
Q 1100 2700 1300 2825 
Q 1500 2950 1775 2950 
Q 2250 2950 2550 2575 
Q 2850 2200 2850 1550 
z
M 2250 1550 
Q 2250 2000 2100 2250 
Q 1950 2500 1675 2500 
Q 1350 2500 1162 2250 
Q 975 2000 975 1650 
Q 975 1100 1162 800 
Q 1350 500 1675 500 
Q 1900 500 2075 725 
Q 2250 950 2250 1550 
z
" transform="scale(0.015625)"/>
     </defs>
     <use xlink:href="#SimHei-31"/>
     <use xlink:href="#SimHei-2e" x="50"/>
     <use xlink:href="#SimHei-32" x="100"/>
     <use xlink:href="#SimHei-32" x="150"/>
     <use xlink:href="#SimHei-36" x="200"/>
    </g>
   </g>
   <g id="text_15">
    <!-- 0.364 -->
    <g style="fill: #4c72b0" transform="translate(238.955966 394.413659) scale(0.11 -0.11)">
     <defs>
      <path id="SimHei-34" d="M 2975 1200 
L 2450 1200 
L 2450 100 
L 1875 100 
L 1875 1200 
L 200 1200 
L 200 1675 
L 1875 4425 
L 2450 4425 
L 2450 1675 
L 2975 1675 
L 2975 1200 
z
M 1875 1675 
L 1875 3525 
L 750 1675 
L 1875 1675 
z
" transform="scale(0.015625)"/>
     </defs>
     <use xlink:href="#SimHei-30"/>
     <use xlink:href="#SimHei-2e" x="50"/>
     <use xlink:href="#SimHei-33" x="100"/>
     <use xlink:href="#SimHei-36" x="150"/>
     <use xlink:href="#SimHei-34" x="200"/>
    </g>
   </g>
   <g id="text_16">
    <!-- 22.686 -->
    <g style="fill: #4c72b0" transform="translate(375.465739 72.205712) scale(0.11 -0.11)">
     <defs>
      <path id="SimHei-38" d="M 2875 1325 
Q 2875 700 2525 375 
Q 2175 50 1575 50 
Q 975 50 625 375 
Q 275 700 275 1325 
Q 275 1650 475 1912 
Q 675 2175 1025 2300 
Q 725 2425 562 2650 
Q 400 2875 400 3225 
Q 400 3775 750 4100 
Q 1100 4425 1575 4425 
Q 2050 4425 2400 4100 
Q 2750 3775 2750 3225 
Q 2750 2875 2587 2650 
Q 2425 2425 2125 2300 
Q 2475 2175 2675 1912 
Q 2875 1650 2875 1325 
z
M 2200 3225 
Q 2200 3625 2025 3800 
Q 1850 3975 1575 3975 
Q 1300 3975 1125 3800 
Q 950 3625 950 3225 
Q 950 2825 1137 2662 
Q 1325 2500 1575 2500 
Q 1825 2500 2012 2662 
Q 2200 2825 2200 3225 
z
M 2300 1325 
Q 2300 1675 2112 1875 
Q 1925 2075 1575 2075 
Q 1225 2075 1037 1875 
Q 850 1675 850 1325 
Q 850 925 1050 712 
Q 1250 500 1575 500 
Q 1900 500 2100 712 
Q 2300 925 2300 1325 
z
" transform="scale(0.015625)"/>
     </defs>
     <use xlink:href="#SimHei-32"/>
     <use xlink:href="#SimHei-32" x="50"/>
     <use xlink:href="#SimHei-2e" x="100"/>
     <use xlink:href="#SimHei-36" x="150"/>
     <use xlink:href="#SimHei-38" x="200"/>
     <use xlink:href="#SimHei-36" x="250"/>
    </g>
   </g>
   <g id="text_17">
    <!-- 2.045 -->
    <g style="fill: #4c72b0" transform="translate(517.475511 370.142764) scale(0.11 -0.11)">
     <use xlink:href="#SimHei-32"/>
     <use xlink:href="#SimHei-2e" x="50"/>
     <use xlink:href="#SimHei-30" x="100"/>
     <use xlink:href="#SimHei-34" x="150"/>
     <use xlink:href="#SimHei-35" x="200"/>
    </g>
   </g>
   <g id="text_18">
    <!-- 1.700 -->
    <g style="fill: #4c72b0" transform="translate(656.735284 375.127496) scale(0.11 -0.11)">
     <defs>
      <path id="SimHei-37" d="M 2775 3850 
L 1600 100 
L 1025 100 
L 2225 3900 
L 400 3900 
L 400 4375 
L 2775 4375 
L 2775 3850 
z
" transform="scale(0.015625)"/>
     </defs>
     <use xlink:href="#SimHei-31"/>
     <use xlink:href="#SimHei-2e" x="50"/>
     <use xlink:href="#SimHei-37" x="100"/>
     <use xlink:href="#SimHei-30" x="150"/>
     <use xlink:href="#SimHei-30" x="200"/>
    </g>
   </g>
   <g id="text_19">
    <!-- 2.280 -->
    <g style="fill: #4c72b0" transform="translate(795.995057 366.755456) scale(0.11 -0.11)">
     <use xlink:href="#SimHei-32"/>
     <use xlink:href="#SimHei-2e" x="50"/>
     <use xlink:href="#SimHei-32" x="100"/>
     <use xlink:href="#SimHei-38" x="150"/>
     <use xlink:href="#SimHei-30" x="200"/>
    </g>
   </g>
   <g id="text_20">
    <!-- 叶绿素 a 的变化趋势 -->
    <g style="fill: #262626" transform="translate(357.095625 37.395) scale(0.22 -0.22)">
     <defs>
      <path id="SimHei-20" transform="scale(0.015625)"/>
      <path id="SimHei-7684" d="M 1525 5100 
Q 1850 5025 2200 4925 
Q 2100 4775 2025 4487 
Q 1950 4200 1900 3975 
L 2975 3975 
Q 2950 3525 2950 2900 
L 2950 700 
Q 2950 300 2975 -225 
L 2500 -225 
L 2500 300 
L 1200 300 
L 1200 -275 
L 725 -275 
Q 750 350 750 650 
L 750 2875 
Q 750 3525 725 3975 
L 1425 3975 
Q 1450 4225 1475 4462 
Q 1500 4700 1525 5100 
z
M 1200 3525 
L 1200 2425 
L 2500 2425 
L 2500 3525 
L 1200 3525 
z
M 1200 1950 
L 1200 775 
L 2500 775 
L 2500 1950 
L 1200 1950 
z
M 5850 3925 
Q 5800 3450 5775 3000 
L 5600 175 
Q 5525 -275 5150 -400 
Q 4775 -525 4350 -550 
Q 4350 -275 4175 25 
Q 4600 0 4850 37 
Q 5100 75 5150 350 
L 5350 3475 
L 4025 3475 
Q 3825 3050 3550 2525 
Q 3350 2675 3125 2775 
Q 3275 3000 3462 3400 
Q 3650 3800 3787 4262 
Q 3925 4725 3975 5025 
Q 4300 4875 4600 4800 
Q 4475 4600 4375 4387 
Q 4275 4175 4200 3925 
L 5850 3925 
z
M 3650 2300 
Q 3825 2400 4075 2550 
Q 4200 2325 4325 2050 
Q 4450 1775 4600 1375 
Q 4400 1300 4150 1150 
Q 4075 1425 3937 1750 
Q 3800 2075 3650 2300 
z
" transform="scale(0.015625)"/>
      <path id="SimHei-53d8" d="M 2825 5075 
Q 3125 5125 3425 5175 
Q 3500 4675 3525 4475 
L 4625 4475 
Q 5325 4475 5875 4500 
L 5875 4025 
Q 5300 4050 4625 4050 
L 4025 4050 
L 4025 2975 
Q 4025 2475 4050 2175 
L 3525 2175 
Q 3550 2475 3550 2975 
L 3550 4050 
L 2775 4050 
L 2775 2975 
Q 2775 2500 2800 2175 
L 2275 2175 
Q 2300 2500 2300 2975 
L 2300 4050 
L 1775 4050 
Q 1075 4050 550 4025 
L 550 4500 
Q 1050 4475 1775 4475 
L 2975 4475 
Q 2925 4775 2825 5075 
z
M 1375 3700 
Q 1600 3525 1900 3375 
Q 1750 3250 1487 2900 
Q 1225 2550 925 2175 
Q 675 2350 475 2475 
Q 1025 3000 1375 3700 
z
M 4450 3325 
Q 4675 3500 4850 3675 
Q 5350 3200 5900 2600 
Q 5675 2450 5450 2250 
Q 5050 2750 4450 3325 
z
M 1125 1825 
Q 1575 1800 2175 1800 
L 5100 1800 
Q 4775 1300 4450 900 
Q 4125 500 3750 225 
Q 4325 50 4762 -12 
Q 5200 -75 5900 -50 
Q 5700 -275 5625 -625 
Q 4800 -525 4225 -375 
Q 3650 -225 3275 -75 
Q 2650 -325 2100 -437 
Q 1550 -550 775 -650 
Q 675 -375 500 -125 
Q 1150 -125 1687 -50 
Q 2225 25 2825 200 
Q 2325 475 1750 1375 
L 2300 1375 
Q 2700 750 3300 450 
Q 3800 750 4250 1375 
L 2150 1375 
Q 1525 1375 1125 1350 
L 1125 1825 
z
" transform="scale(0.015625)"/>
      <path id="SimHei-5316" d="M 3350 5075 
L 3900 5075 
Q 3850 4750 3850 4250 
L 3850 2425 
Q 4275 2800 4600 3262 
Q 4925 3725 5150 4175 
Q 5350 4025 5750 3850 
Q 5575 3700 5375 3450 
Q 5175 3200 4950 2912 
Q 4725 2625 4450 2337 
Q 4175 2050 3850 1800 
L 3850 400 
Q 3850 50 4175 50 
L 5075 50 
Q 5300 75 5337 262 
Q 5375 450 5400 825 
Q 5650 625 6000 575 
Q 5850 -100 5687 -250 
Q 5525 -400 5225 -400 
L 3900 -400 
Q 3375 -400 3375 50 
L 3375 1500 
Q 3150 1350 2950 1225 
Q 2750 1100 2450 900 
Q 2300 1175 2150 1350 
Q 2450 1475 2787 1662 
Q 3125 1850 3375 2075 
L 3375 4325 
Q 3375 4775 3350 5075 
z
M 1825 5175 
Q 2050 5025 2450 4900 
Q 2250 4625 2150 4362 
Q 2050 4100 1900 3750 
L 1900 650 
Q 1900 -125 1925 -525 
L 1375 -525 
Q 1425 -150 1425 625 
L 1425 3000 
Q 1250 2700 1100 2500 
Q 950 2300 825 2150 
Q 650 2350 425 2525 
Q 750 2850 987 3200 
Q 1225 3550 1375 3887 
Q 1525 4225 1637 4550 
Q 1750 4875 1825 5175 
z
" transform="scale(0.015625)"/>
      <path id="SimHei-8d8b" d="M 6125 125 
Q 5950 -150 5925 -450 
Q 4900 -475 4200 -450 
Q 3500 -425 2937 -300 
Q 2375 -175 1950 75 
Q 1525 325 1100 750 
Q 875 -100 650 -550 
Q 425 -250 250 -175 
Q 525 225 625 625 
Q 725 1025 762 1400 
Q 800 1775 800 2050 
Q 1025 1975 1325 1950 
Q 1200 1575 1200 1275 
Q 1200 975 1700 675 
L 1700 2600 
Q 850 2600 425 2575 
L 425 2975 
Q 875 2950 1575 2950 
L 1575 3925 
Q 1050 3925 625 3900 
L 625 4300 
Q 1050 4275 1575 4275 
Q 1575 4725 1550 5175 
L 2050 5175 
Q 2025 4775 2025 4275 
Q 2400 4275 2775 4300 
L 2775 3900 
Q 2375 3925 2025 3925 
L 2025 2950 
Q 2525 2950 2975 2975 
L 2975 2575 
Q 2525 2600 2150 2600 
L 2150 1800 
Q 2450 1800 2825 1825 
L 2825 1425 
Q 2475 1450 2150 1450 
L 2150 400 
Q 2900 0 4125 0 
Q 5350 0 6125 125 
z
M 5825 3225 
Q 5800 2775 5800 1825 
Q 5800 875 5825 500 
Q 3725 500 3250 475 
L 3250 875 
Q 3725 850 5350 850 
L 5350 1650 
Q 3825 1650 3450 1625 
L 3450 2025 
Q 3825 2000 5350 2000 
L 5350 2875 
L 4025 2875 
Q 3750 2875 3400 2850 
L 3400 3250 
L 3325 3125 
Q 3125 3300 2900 3375 
Q 3275 3825 3525 4337 
Q 3775 4850 3875 5225 
Q 4125 5125 4450 5050 
Q 4325 4950 4125 4475 
L 5675 4475 
Q 5200 3675 4975 3225 
L 5825 3225 
z
M 3950 4125 
Q 3600 3525 3400 3250 
Q 3750 3225 4050 3225 
L 4475 3225 
Q 4625 3525 4975 4125 
L 3950 4125 
z
" transform="scale(0.015625)"/>
      <path id="SimHei-52bf" d="M 2575 3700 
Q 2550 3525 2550 3300 
Q 2125 3200 1900 3125 
L 1900 2225 
Q 1875 1950 1662 1875 
Q 1450 1800 1050 1725 
Q 1025 2000 850 2275 
Q 1300 2250 1375 2300 
Q 1450 2350 1450 2600 
L 1450 3050 
Q 950 2925 600 2775 
Q 525 3050 400 3250 
Q 750 3300 1450 3450 
L 1450 4025 
Q 850 4025 475 4000 
L 475 4450 
Q 850 4425 1450 4425 
Q 1450 4875 1425 5150 
L 1950 5150 
Q 1900 4900 1900 4425 
Q 2225 4425 2600 4450 
L 2600 4000 
Q 2225 4025 1900 4025 
L 1900 3525 
Q 2175 3600 2575 3700 
z
M 700 1500 
Q 1150 1475 1600 1475 
L 2725 1475 
Q 2750 1675 2750 1900 
Q 3075 1825 3300 1800 
Q 3250 1675 3200 1475 
L 5275 1475 
Q 5225 1125 5200 800 
Q 5175 475 5075 62 
Q 4975 -350 4700 -437 
Q 4425 -525 3775 -575 
Q 3800 -350 3575 -25 
Q 4325 -75 4462 12 
Q 4600 100 4650 300 
Q 4700 500 4750 1075 
L 3125 1075 
Q 2800 275 2150 -87 
Q 1500 -450 825 -650 
Q 725 -375 450 -175 
Q 1000 -100 1650 175 
Q 2300 450 2625 1075 
L 1600 1075 
Q 1125 1075 700 1050 
L 700 1500 
z
M 2850 1925 
Q 2700 2100 2375 2225 
Q 3025 2475 3375 3025 
Q 3175 3150 2850 3325 
Q 3025 3475 3100 3625 
Q 3325 3500 3525 3375 
Q 3575 3625 3600 4075 
Q 3250 4075 2925 4025 
L 2875 4425 
Q 3200 4425 3600 4425 
Q 3600 4900 3575 5200 
Q 3775 5150 4100 5125 
Q 4025 4875 4025 4450 
L 5200 4475 
Q 5125 3975 5087 3437 
Q 5050 2900 5175 2625 
Q 5300 2350 5437 2312 
Q 5575 2275 5600 2850 
Q 5775 2650 6075 2600 
Q 5925 2050 5825 1912 
Q 5725 1775 5562 1737 
Q 5400 1700 5087 1975 
Q 4775 2250 4700 2787 
Q 4625 3325 4725 4100 
L 4025 4075 
Q 3975 3525 3925 3200 
Q 4150 3050 4425 2875 
Q 4225 2700 4100 2550 
Q 3925 2700 3750 2825 
Q 3425 2325 2850 1925 
z
" transform="scale(0.015625)"/>
     </defs>
     <use xlink:href="#SimHei-53f6"/>
     <use xlink:href="#SimHei-7eff" x="100"/>
     <use xlink:href="#SimHei-7d20" x="200"/>
     <use xlink:href="#SimHei-20" x="300"/>
     <use xlink:href="#SimHei-61" x="350"/>
     <use xlink:href="#SimHei-20" x="400"/>
     <use xlink:href="#SimHei-7684" x="450"/>
     <use xlink:href="#SimHei-53d8" x="550"/>
     <use xlink:href="#SimHei-5316" x="650"/>
     <use xlink:href="#SimHei-8d8b" x="750"/>
     <use xlink:href="#SimHei-52bf" x="850"/>
    </g>
   </g>
  </g>
 </g>
 <defs>
  <clipPath id="p951efee544">
   <rect x="78.63125" y="57.395" width="765.92875" height="360.206572"/>
  </clipPath>
 </defs>
</svg>
