<?xml version="1.0" encoding="utf-8" standalone="no"?>
<!DOCTYPE svg PUBLIC "-//W3C//DTD SVG 1.1//EN"
  "http://www.w3.org/Graphics/SVG/1.1/DTD/svg11.dtd">
<svg xmlns:xlink="http://www.w3.org/1999/xlink" width="864pt" height="504pt" viewBox="0 0 864 504" xmlns="http://www.w3.org/2000/svg" version="1.1">
 <metadata>
  <rdf:RDF xmlns:dc="http://purl.org/dc/elements/1.1/" xmlns:cc="http://creativecommons.org/ns#" xmlns:rdf="http://www.w3.org/1999/02/22-rdf-syntax-ns#">
   <cc:Work>
    <dc:type rdf:resource="http://purl.org/dc/dcmitype/StillImage"/>
    <dc:date>2024-09-05T16:28:49.359182</dc:date>
    <dc:format>image/svg+xml</dc:format>
    <dc:creator>
     <cc:Agent>
      <dc:title>Matplotlib v3.7.5, https://matplotlib.org/</dc:title>
     </cc:Agent>
    </dc:creator>
   </cc:Work>
  </rdf:RDF>
 </metadata>
 <defs>
  <style type="text/css">*{stroke-linejoin: round; stroke-linecap: butt}</style>
 </defs>
 <g id="figure_1">
  <g id="patch_1">
   <path d="M 0 504 
L 864 504 
L 864 0 
L 0 0 
z
" style="fill: #ffffff"/>
  </g>
  <g id="axes_1">
   <g id="patch_2">
    <path d="M 76.2125 379.779 
L 795.37 379.779 
L 795.37 55.775 
L 76.2125 55.775 
z
" style="fill: #ffffff"/>
   </g>
   <g id="matplotlib.axis_1">
    <g id="xtick_1">
     <g id="line2d_1">
      <path d="M 108.901477 379.779 
L 108.901477 55.775 
" clip-path="url(#pd23785af41)" style="fill: none; stroke-dasharray: 5.55,2.4; stroke-dashoffset: 0; stroke: #cccccc; stroke-opacity: 0.7; stroke-width: 1.5"/>
     </g>
     <g id="text_1">
      <!-- 19冬 -->
      <g style="fill: #262626" transform="translate(90.837109 415.94498) rotate(-45) scale(0.12 -0.12)">
       <defs>
        <path id="SimHei-31" d="M 1950 100 
L 1375 100 
L 1375 3425 
L 625 3425 
L 625 3725 
Q 1075 3725 1325 3900 
Q 1575 4075 1650 4425 
L 1950 4425 
L 1950 100 
z
" transform="scale(0.015625)"/>
        <path id="SimHei-39" d="M 2825 2300 
Q 2825 1275 2462 662 
Q 2100 50 1425 50 
Q 950 50 662 400 
Q 375 750 375 1175 
L 950 1175 
Q 950 925 1087 725 
Q 1225 525 1450 525 
Q 1825 525 2012 950 
Q 2200 1375 2250 2200 
Q 2125 1925 1900 1775 
Q 1675 1625 1400 1625 
Q 925 1625 625 1975 
Q 325 2325 325 2975 
Q 325 3625 625 4025 
Q 925 4425 1525 4425 
Q 2125 4425 2475 3925 
Q 2825 3425 2825 2300 
z
M 2200 2875 
Q 2200 3425 2012 3700 
Q 1825 3975 1500 3975 
Q 1275 3975 1100 3762 
Q 925 3550 925 2975 
Q 925 2550 1062 2312 
Q 1200 2075 1500 2075 
Q 1825 2075 2012 2300 
Q 2200 2525 2200 2875 
z
" transform="scale(0.015625)"/>
        <path id="SimHei-51ac" d="M 2550 4050 
Q 2950 3250 3325 2925 
Q 3825 3275 4375 4050 
L 2550 4050 
z
M 1275 2750 
Q 1075 2975 850 3100 
Q 1400 3575 1712 4112 
Q 2025 4650 2175 5175 
Q 2475 5025 2800 4925 
Q 2600 4725 2475 4450 
L 5150 4450 
Q 4900 4000 4512 3487 
Q 4125 2975 3675 2650 
Q 4800 2025 6025 2050 
Q 5850 1800 5775 1475 
Q 4175 1725 3275 2375 
Q 2175 1725 625 1400 
Q 550 1650 325 1900 
Q 1800 2075 2925 2675 
Q 2500 3125 2175 3875 
Q 1800 3275 1275 2750 
z
M 4425 1050 
Q 4275 800 4175 550 
Q 2925 1125 2400 1275 
Q 2525 1550 2600 1775 
Q 3025 1625 3475 1450 
Q 3925 1275 4425 1050 
z
M 1800 125 
Q 1950 375 2050 600 
Q 2450 500 3100 300 
Q 3750 100 4625 -200 
Q 4475 -425 4375 -700 
Q 3900 -450 1800 125 
z
" transform="scale(0.015625)"/>
       </defs>
       <use xlink:href="#SimHei-31"/>
       <use xlink:href="#SimHei-39" x="50"/>
       <use xlink:href="#SimHei-51ac" x="100"/>
      </g>
     </g>
    </g>
    <g id="xtick_2">
     <g id="line2d_2">
      <path d="M 168.335981 379.779 
L 168.335981 55.775 
" clip-path="url(#pd23785af41)" style="fill: none; stroke-dasharray: 5.55,2.4; stroke-dashoffset: 0; stroke: #cccccc; stroke-opacity: 0.7; stroke-width: 1.5"/>
     </g>
     <g id="text_2">
      <!-- 20春 -->
      <g style="fill: #262626" transform="translate(150.271613 416.011271) rotate(-45) scale(0.12 -0.12)">
       <defs>
        <path id="SimHei-32" d="M 2850 100 
L 300 100 
L 300 500 
Q 450 900 712 1237 
Q 975 1575 1475 2000 
Q 1850 2325 2012 2600 
Q 2175 2875 2175 3200 
Q 2175 3525 2037 3737 
Q 1900 3950 1600 3950 
Q 1350 3950 1162 3725 
Q 975 3500 975 2925 
L 400 2925 
Q 425 3650 737 4037 
Q 1050 4425 1625 4425 
Q 2175 4425 2475 4087 
Q 2775 3750 2775 3175 
Q 2775 2700 2500 2350 
Q 2225 2000 1825 1650 
Q 1375 1250 1200 1050 
Q 1025 850 875 575 
L 2850 575 
L 2850 100 
z
" transform="scale(0.015625)"/>
        <path id="SimHei-30" d="M 2975 2250 
Q 2975 1350 2650 700 
Q 2325 50 1600 50 
Q 875 50 537 700 
Q 200 1350 200 2250 
Q 200 3150 537 3787 
Q 875 4425 1600 4425 
Q 2325 4425 2650 3787 
Q 2975 3150 2975 2250 
z
M 2375 2250 
Q 2375 3050 2187 3500 
Q 2000 3950 1600 3950 
Q 1200 3950 1000 3500 
Q 800 3050 800 2250 
Q 800 1450 1000 987 
Q 1200 525 1600 525 
Q 2000 525 2187 987 
Q 2375 1450 2375 2250 
z
" transform="scale(0.015625)"/>
        <path id="SimHei-6625" d="M 3125 5275 
Q 3450 5175 3725 5150 
Q 3625 5100 3525 4650 
L 4725 4650 
Q 5175 4650 5675 4700 
L 5675 4250 
Q 5175 4275 4875 4275 
L 3450 4275 
Q 3400 4100 3325 3775 
L 4950 3775 
Q 5125 3775 5475 3800 
L 5475 3375 
Q 5025 3400 4875 3400 
L 3200 3400 
Q 3100 3125 2925 2850 
L 5050 2850 
Q 5475 2850 5925 2875 
L 5925 2450 
Q 5475 2475 4450 2475 
Q 4700 2125 5112 1862 
Q 5525 1600 6150 1450 
Q 5950 1275 5825 950 
Q 5325 1200 4900 1475 
L 4900 175 
Q 4900 -200 4925 -650 
L 4425 -650 
L 4425 -300 
L 2200 -300 
L 2200 -625 
L 1700 -625 
Q 1725 -175 1725 150 
L 1725 1550 
Q 1300 1225 750 875 
Q 600 1125 350 1300 
Q 825 1475 1287 1775 
Q 1750 2075 2125 2475 
L 1275 2475 
Q 1000 2475 575 2425 
L 575 2875 
Q 1000 2850 1325 2850 
L 2400 2850 
Q 2600 3125 2700 3400 
L 1850 3400 
Q 1600 3400 1125 3375 
L 1125 3800 
Q 1600 3775 1900 3775 
L 2850 3775 
Q 2925 4000 2975 4275 
L 1650 4275 
Q 1375 4275 900 4250 
L 900 4675 
Q 1375 4650 1800 4650 
L 3050 4650 
Q 3100 4900 3125 5275 
z
M 2700 2475 
Q 2375 2075 2100 1875 
L 4375 1875 
Q 4175 2075 3950 2475 
L 2700 2475 
z
M 2200 1500 
L 2200 1000 
L 4425 1000 
L 4425 1500 
L 2200 1500 
z
M 2200 625 
L 2200 75 
L 4425 75 
L 4425 625 
L 2200 625 
z
" transform="scale(0.015625)"/>
       </defs>
       <use xlink:href="#SimHei-32"/>
       <use xlink:href="#SimHei-30" x="50"/>
       <use xlink:href="#SimHei-6625" x="100"/>
      </g>
     </g>
    </g>
    <g id="xtick_3">
     <g id="line2d_3">
      <path d="M 227.770486 379.779 
L 227.770486 55.775 
" clip-path="url(#pd23785af41)" style="fill: none; stroke-dasharray: 5.55,2.4; stroke-dashoffset: 0; stroke: #cccccc; stroke-opacity: 0.7; stroke-width: 1.5"/>
     </g>
     <g id="text_3">
      <!-- 20夏 -->
      <g style="fill: #262626" transform="translate(209.706117 415.514087) rotate(-45) scale(0.12 -0.12)">
       <defs>
        <path id="SimHei-590f" d="M 1775 3850 
L 1775 3500 
L 4625 3500 
L 4625 3850 
L 1775 3850 
z
M 1775 3175 
L 1775 2850 
L 4625 2850 
L 4625 3175 
L 1775 3175 
z
M 1775 2550 
L 1775 2250 
L 4625 2250 
L 4625 2550 
L 1775 2550 
z
M 425 4900 
Q 850 4875 1350 4875 
L 4875 4875 
Q 5400 4875 5850 4900 
L 5850 4525 
Q 5400 4550 4900 4550 
L 3325 4550 
Q 3250 4350 3175 4125 
L 5150 4125 
Q 5125 3775 5125 3025 
Q 5125 2275 5150 1875 
L 2725 1875 
Q 2600 1700 2425 1525 
L 4775 1525 
Q 4575 1200 4350 900 
Q 4125 600 3725 300 
Q 4225 100 4712 25 
Q 5200 -50 5975 -100 
Q 5725 -375 5650 -625 
Q 4850 -525 4362 -400 
Q 3875 -275 3250 0 
Q 2650 -300 2137 -425 
Q 1625 -550 850 -650 
Q 700 -375 425 -150 
Q 900 -150 1562 -62 
Q 2225 25 2850 250 
Q 2425 475 1850 1000 
Q 1400 675 800 475 
Q 675 675 450 875 
Q 1075 1050 1487 1312 
Q 1900 1575 2150 1875 
L 1250 1875 
Q 1275 2250 1275 3012 
Q 1275 3775 1250 4125 
L 2700 4125 
Q 2750 4350 2800 4550 
L 1375 4550 
Q 850 4550 425 4525 
L 425 4900 
z
M 2250 1200 
Q 2750 675 3275 500 
Q 3775 850 4025 1200 
L 2250 1200 
z
" transform="scale(0.015625)"/>
       </defs>
       <use xlink:href="#SimHei-32"/>
       <use xlink:href="#SimHei-30" x="50"/>
       <use xlink:href="#SimHei-590f" x="100"/>
      </g>
     </g>
    </g>
    <g id="xtick_4">
     <g id="line2d_4">
      <path d="M 287.20499 379.779 
L 287.20499 55.775 
" clip-path="url(#pd23785af41)" style="fill: none; stroke-dasharray: 5.55,2.4; stroke-dashoffset: 0; stroke: #cccccc; stroke-opacity: 0.7; stroke-width: 1.5"/>
     </g>
     <g id="text_4">
      <!-- 20秋 -->
      <g style="fill: #262626" transform="translate(269.140621 415.845543) rotate(-45) scale(0.12 -0.12)">
       <defs>
        <path id="SimHei-79cb" d="M 3350 2350 
Q 3100 2400 2900 2425 
Q 3125 3175 3225 3975 
Q 3450 3900 3750 3875 
Q 3650 3700 3550 3212 
Q 3450 2725 3350 2350 
z
M 6150 -250 
Q 5825 -350 5675 -625 
Q 5125 -100 4825 425 
Q 4525 950 4275 1725 
Q 4050 875 3662 325 
Q 3275 -225 2775 -650 
Q 2600 -425 2300 -300 
Q 3075 225 3462 937 
Q 3850 1650 3937 2375 
Q 4025 3100 4025 3837 
Q 4025 4575 4000 5150 
Q 4200 5150 4600 5100 
Q 4525 4850 4500 4375 
Q 4475 3900 4487 3312 
Q 4500 2725 4612 2137 
Q 4725 1550 5087 925 
Q 5450 300 6150 -250 
z
M 5300 2275 
Q 5050 2375 4825 2400 
Q 5125 3175 5225 3925 
Q 5425 3875 5750 3800 
Q 5650 3625 5537 3187 
Q 5425 2750 5300 2275 
z
M 1950 225 
Q 1950 -250 1975 -600 
L 1475 -600 
Q 1500 -275 1500 225 
L 1500 1950 
Q 1075 1125 575 425 
Q 475 700 250 875 
Q 650 1275 937 1762 
Q 1225 2250 1400 2800 
Q 725 2800 400 2775 
L 400 3225 
Q 675 3200 1500 3200 
L 1500 4250 
Q 875 4150 600 4075 
Q 500 4350 375 4525 
Q 775 4550 1500 4712 
Q 2225 4875 2650 5100 
Q 2775 4825 3000 4600 
Q 2625 4525 1950 4350 
L 1950 3200 
Q 2325 3200 2675 3225 
L 2675 2775 
Q 2300 2800 1950 2800 
L 1950 225 
z
M 1975 1975 
Q 2125 2100 2325 2275 
Q 2675 1775 2925 1375 
Q 2700 1250 2525 1100 
Q 2350 1475 1975 1975 
z
" transform="scale(0.015625)"/>
       </defs>
       <use xlink:href="#SimHei-32"/>
       <use xlink:href="#SimHei-30" x="50"/>
       <use xlink:href="#SimHei-79cb" x="100"/>
      </g>
     </g>
    </g>
    <g id="xtick_5">
     <g id="line2d_5">
      <path d="M 346.639494 379.779 
L 346.639494 55.775 
" clip-path="url(#pd23785af41)" style="fill: none; stroke-dasharray: 5.55,2.4; stroke-dashoffset: 0; stroke: #cccccc; stroke-opacity: 0.7; stroke-width: 1.5"/>
     </g>
     <g id="text_5">
      <!-- 20冬 -->
      <g style="fill: #262626" transform="translate(328.575125 415.94498) rotate(-45) scale(0.12 -0.12)">
       <use xlink:href="#SimHei-32"/>
       <use xlink:href="#SimHei-30" x="50"/>
       <use xlink:href="#SimHei-51ac" x="100"/>
      </g>
     </g>
    </g>
    <g id="xtick_6">
     <g id="line2d_6">
      <path d="M 406.073998 379.779 
L 406.073998 55.775 
" clip-path="url(#pd23785af41)" style="fill: none; stroke-dasharray: 5.55,2.4; stroke-dashoffset: 0; stroke: #cccccc; stroke-opacity: 0.7; stroke-width: 1.5"/>
     </g>
     <g id="text_6">
      <!-- 21春 -->
      <g style="fill: #262626" transform="translate(388.009629 416.011271) rotate(-45) scale(0.12 -0.12)">
       <use xlink:href="#SimHei-32"/>
       <use xlink:href="#SimHei-31" x="50"/>
       <use xlink:href="#SimHei-6625" x="100"/>
      </g>
     </g>
    </g>
    <g id="xtick_7">
     <g id="line2d_7">
      <path d="M 465.508502 379.779 
L 465.508502 55.775 
" clip-path="url(#pd23785af41)" style="fill: none; stroke-dasharray: 5.55,2.4; stroke-dashoffset: 0; stroke: #cccccc; stroke-opacity: 0.7; stroke-width: 1.5"/>
     </g>
     <g id="text_7">
      <!-- 21夏 -->
      <g style="fill: #262626" transform="translate(447.444134 415.514087) rotate(-45) scale(0.12 -0.12)">
       <use xlink:href="#SimHei-32"/>
       <use xlink:href="#SimHei-31" x="50"/>
       <use xlink:href="#SimHei-590f" x="100"/>
      </g>
     </g>
    </g>
    <g id="xtick_8">
     <g id="line2d_8">
      <path d="M 524.943006 379.779 
L 524.943006 55.775 
" clip-path="url(#pd23785af41)" style="fill: none; stroke-dasharray: 5.55,2.4; stroke-dashoffset: 0; stroke: #cccccc; stroke-opacity: 0.7; stroke-width: 1.5"/>
     </g>
     <g id="text_8">
      <!-- 21秋 -->
      <g style="fill: #262626" transform="translate(506.878638 415.845543) rotate(-45) scale(0.12 -0.12)">
       <use xlink:href="#SimHei-32"/>
       <use xlink:href="#SimHei-31" x="50"/>
       <use xlink:href="#SimHei-79cb" x="100"/>
      </g>
     </g>
    </g>
    <g id="xtick_9">
     <g id="line2d_9">
      <path d="M 584.37751 379.779 
L 584.37751 55.775 
" clip-path="url(#pd23785af41)" style="fill: none; stroke-dasharray: 5.55,2.4; stroke-dashoffset: 0; stroke: #cccccc; stroke-opacity: 0.7; stroke-width: 1.5"/>
     </g>
     <g id="text_9">
      <!-- 22春 -->
      <g style="fill: #262626" transform="translate(566.313142 416.011271) rotate(-45) scale(0.12 -0.12)">
       <use xlink:href="#SimHei-32"/>
       <use xlink:href="#SimHei-32" x="50"/>
       <use xlink:href="#SimHei-6625" x="100"/>
      </g>
     </g>
    </g>
    <g id="xtick_10">
     <g id="line2d_10">
      <path d="M 643.812014 379.779 
L 643.812014 55.775 
" clip-path="url(#pd23785af41)" style="fill: none; stroke-dasharray: 5.55,2.4; stroke-dashoffset: 0; stroke: #cccccc; stroke-opacity: 0.7; stroke-width: 1.5"/>
     </g>
     <g id="text_10">
      <!-- 22夏 -->
      <g style="fill: #262626" transform="translate(625.747646 415.514087) rotate(-45) scale(0.12 -0.12)">
       <use xlink:href="#SimHei-32"/>
       <use xlink:href="#SimHei-32" x="50"/>
       <use xlink:href="#SimHei-590f" x="100"/>
      </g>
     </g>
    </g>
    <g id="xtick_11">
     <g id="line2d_11">
      <path d="M 703.246519 379.779 
L 703.246519 55.775 
" clip-path="url(#pd23785af41)" style="fill: none; stroke-dasharray: 5.55,2.4; stroke-dashoffset: 0; stroke: #cccccc; stroke-opacity: 0.7; stroke-width: 1.5"/>
     </g>
     <g id="text_11">
      <!-- 22秋 -->
      <g style="fill: #262626" transform="translate(685.18215 415.845543) rotate(-45) scale(0.12 -0.12)">
       <use xlink:href="#SimHei-32"/>
       <use xlink:href="#SimHei-32" x="50"/>
       <use xlink:href="#SimHei-79cb" x="100"/>
      </g>
     </g>
    </g>
    <g id="xtick_12">
     <g id="line2d_12">
      <path d="M 762.681023 379.779 
L 762.681023 55.775 
" clip-path="url(#pd23785af41)" style="fill: none; stroke-dasharray: 5.55,2.4; stroke-dashoffset: 0; stroke: #cccccc; stroke-opacity: 0.7; stroke-width: 1.5"/>
     </g>
     <g id="text_12">
      <!-- 22冬 -->
      <g style="fill: #262626" transform="translate(744.616654 415.94498) rotate(-45) scale(0.12 -0.12)">
       <use xlink:href="#SimHei-32"/>
       <use xlink:href="#SimHei-32" x="50"/>
       <use xlink:href="#SimHei-51ac" x="100"/>
      </g>
     </g>
    </g>
    <g id="text_13">
     <!-- 时间 -->
     <g style="fill: #262626" transform="translate(421.79125 443.042577) scale(0.14 -0.14)">
      <defs>
       <path id="SimHei-65f6" d="M 2800 3825 
Q 3550 3800 4775 3800 
Q 4775 4550 4750 5200 
L 5275 5200 
Q 5250 4550 5250 3800 
Q 5600 3800 6000 3825 
L 6000 3350 
Q 5600 3375 5250 3375 
L 5250 25 
Q 5250 -350 4962 -450 
Q 4675 -550 4225 -600 
Q 4225 -300 3975 -25 
Q 4425 -75 4600 -50 
Q 4775 -25 4775 275 
L 4775 3375 
Q 3600 3375 2800 3350 
L 2800 3825 
z
M 3075 2475 
Q 3300 2575 3525 2700 
Q 3825 2175 4125 1575 
Q 3875 1500 3625 1350 
Q 3425 1950 3075 2475 
z
M 625 4550 
L 2575 4550 
Q 2550 3650 2550 2375 
Q 2550 1100 2575 375 
L 2075 375 
L 2075 850 
L 1125 850 
L 1125 25 
L 625 25 
Q 650 1175 650 2337 
Q 650 3500 625 4550 
z
M 1125 4125 
L 1125 2950 
L 2075 2950 
L 2075 4125 
L 1125 4125 
z
M 1125 2525 
L 1125 1275 
L 2075 1275 
L 2075 2525 
L 1125 2525 
z
" transform="scale(0.015625)"/>
       <path id="SimHei-95f4" d="M 1225 4950 
Q 1500 5150 1650 5225 
Q 1875 4925 2300 4300 
Q 2050 4175 1825 4025 
Q 1575 4525 1225 4950 
z
M 1250 500 
Q 1250 0 1275 -500 
L 775 -500 
Q 800 -25 800 525 
L 800 3100 
Q 800 3625 775 3975 
L 1275 3975 
Q 1250 3600 1250 3250 
L 1250 500 
z
M 2725 4825 
Q 3175 4800 3700 4800 
L 5600 4800 
Q 5575 4350 5575 3875 
L 5575 250 
Q 5600 -300 5287 -425 
Q 4975 -550 4600 -600 
Q 4575 -300 4400 -25 
Q 4850 -50 4987 25 
Q 5125 100 5125 350 
L 5125 4400 
L 3725 4400 
Q 3175 4400 2725 4375 
L 2725 4825 
z
M 2500 3100 
L 2500 2325 
L 3875 2325 
L 3875 3100 
L 2500 3100 
z
M 2500 1925 
L 2500 1025 
L 3875 1025 
L 3875 1925 
L 2500 1925 
z
M 2025 3500 
L 4350 3500 
Q 4325 3050 4325 2700 
L 4325 1400 
Q 4325 1075 4350 625 
L 2025 625 
Q 2050 1075 2050 1425 
L 2050 2700 
Q 2050 3050 2025 3500 
z
" transform="scale(0.015625)"/>
      </defs>
      <use xlink:href="#SimHei-65f6"/>
      <use xlink:href="#SimHei-95f4" x="100"/>
     </g>
    </g>
   </g>
   <g id="matplotlib.axis_2">
    <g id="ytick_1">
     <g id="line2d_13">
      <path d="M 76.2125 365.051545 
L 795.37 365.051545 
" clip-path="url(#pd23785af41)" style="fill: none; stroke-dasharray: 5.55,2.4; stroke-dashoffset: 0; stroke: #cccccc; stroke-opacity: 0.7; stroke-width: 1.5"/>
     </g>
     <g id="line2d_14">
      <defs>
       <path id="m77cb9689c3" d="M 0 0 
L -9 0 
" style="stroke: #262626; stroke-width: 1.875"/>
      </defs>
      <g>
       <use xlink:href="#m77cb9689c3" x="76.2125" y="365.051545" style="fill: #262626; stroke: #262626; stroke-width: 1.875"/>
      </g>
     </g>
     <g id="text_14">
      <!-- 0 -->
      <g style="fill: #1f77b4" transform="translate(55.4625 370.691194) scale(0.165 -0.165)">
       <use xlink:href="#SimHei-30"/>
      </g>
     </g>
    </g>
    <g id="ytick_2">
     <g id="line2d_15">
      <path d="M 76.2125 309.371188 
L 795.37 309.371188 
" clip-path="url(#pd23785af41)" style="fill: none; stroke-dasharray: 5.55,2.4; stroke-dashoffset: 0; stroke: #cccccc; stroke-opacity: 0.7; stroke-width: 1.5"/>
     </g>
     <g id="line2d_16">
      <g>
       <use xlink:href="#m77cb9689c3" x="76.2125" y="309.371188" style="fill: #262626; stroke: #262626; stroke-width: 1.875"/>
      </g>
     </g>
     <g id="text_15">
      <!-- 5 -->
      <g style="fill: #1f77b4" transform="translate(55.4625 315.010836) scale(0.165 -0.165)">
       <defs>
        <path id="SimHei-35" d="M 2825 1650 
Q 2825 900 2462 475 
Q 2100 50 1500 50 
Q 975 50 637 400 
Q 300 750 275 1350 
L 850 1350 
Q 850 975 1025 750 
Q 1200 525 1525 525 
Q 1850 525 2037 800 
Q 2225 1075 2225 1650 
Q 2225 2150 2062 2387 
Q 1900 2625 1625 2625 
Q 1400 2625 1237 2525 
Q 1075 2425 925 2175 
L 425 2175 
L 575 4375 
L 2725 4375 
L 2725 3900 
L 1050 3900 
L 950 2750 
Q 1100 2900 1275 2975 
Q 1450 3050 1750 3050 
Q 2225 3050 2525 2687 
Q 2825 2325 2825 1650 
z
" transform="scale(0.015625)"/>
       </defs>
       <use xlink:href="#SimHei-35"/>
      </g>
     </g>
    </g>
    <g id="ytick_3">
     <g id="line2d_17">
      <path d="M 76.2125 253.690831 
L 795.37 253.690831 
" clip-path="url(#pd23785af41)" style="fill: none; stroke-dasharray: 5.55,2.4; stroke-dashoffset: 0; stroke: #cccccc; stroke-opacity: 0.7; stroke-width: 1.5"/>
     </g>
     <g id="line2d_18">
      <g>
       <use xlink:href="#m77cb9689c3" x="76.2125" y="253.690831" style="fill: #262626; stroke: #262626; stroke-width: 1.875"/>
      </g>
     </g>
     <g id="text_16">
      <!-- 10 -->
      <g style="fill: #1f77b4" transform="translate(47.2125 259.330479) scale(0.165 -0.165)">
       <use xlink:href="#SimHei-31"/>
       <use xlink:href="#SimHei-30" x="50"/>
      </g>
     </g>
    </g>
    <g id="ytick_4">
     <g id="line2d_19">
      <path d="M 76.2125 198.010473 
L 795.37 198.010473 
" clip-path="url(#pd23785af41)" style="fill: none; stroke-dasharray: 5.55,2.4; stroke-dashoffset: 0; stroke: #cccccc; stroke-opacity: 0.7; stroke-width: 1.5"/>
     </g>
     <g id="line2d_20">
      <g>
       <use xlink:href="#m77cb9689c3" x="76.2125" y="198.010473" style="fill: #262626; stroke: #262626; stroke-width: 1.875"/>
      </g>
     </g>
     <g id="text_17">
      <!-- 15 -->
      <g style="fill: #1f77b4" transform="translate(47.2125 203.650122) scale(0.165 -0.165)">
       <use xlink:href="#SimHei-31"/>
       <use xlink:href="#SimHei-35" x="50"/>
      </g>
     </g>
    </g>
    <g id="ytick_5">
     <g id="line2d_21">
      <path d="M 76.2125 142.330116 
L 795.37 142.330116 
" clip-path="url(#pd23785af41)" style="fill: none; stroke-dasharray: 5.55,2.4; stroke-dashoffset: 0; stroke: #cccccc; stroke-opacity: 0.7; stroke-width: 1.5"/>
     </g>
     <g id="line2d_22">
      <g>
       <use xlink:href="#m77cb9689c3" x="76.2125" y="142.330116" style="fill: #262626; stroke: #262626; stroke-width: 1.875"/>
      </g>
     </g>
     <g id="text_18">
      <!-- 20 -->
      <g style="fill: #1f77b4" transform="translate(47.2125 147.969764) scale(0.165 -0.165)">
       <use xlink:href="#SimHei-32"/>
       <use xlink:href="#SimHei-30" x="50"/>
      </g>
     </g>
    </g>
    <g id="ytick_6">
     <g id="line2d_23">
      <path d="M 76.2125 86.649758 
L 795.37 86.649758 
" clip-path="url(#pd23785af41)" style="fill: none; stroke-dasharray: 5.55,2.4; stroke-dashoffset: 0; stroke: #cccccc; stroke-opacity: 0.7; stroke-width: 1.5"/>
     </g>
     <g id="line2d_24">
      <g>
       <use xlink:href="#m77cb9689c3" x="76.2125" y="86.649758" style="fill: #262626; stroke: #262626; stroke-width: 1.875"/>
      </g>
     </g>
     <g id="text_19">
      <!-- 25 -->
      <g style="fill: #1f77b4" transform="translate(47.2125 92.289407) scale(0.165 -0.165)">
       <use xlink:href="#SimHei-32"/>
       <use xlink:href="#SimHei-35" x="50"/>
      </g>
     </g>
    </g>
    <g id="text_20">
     <!-- 平均温度(℃) -->
     <g style="fill: #1f77b4" transform="translate(30.407813 259.777) rotate(-90) scale(0.14 -0.14)">
      <defs>
       <path id="SimHei-5e73" d="M 925 5000 
Q 1425 4975 1800 4975 
L 4525 4975 
Q 4925 4975 5450 5000 
L 5450 4525 
Q 4950 4550 4525 4550 
L 3500 4550 
L 3500 2000 
L 5050 2000 
Q 5575 2000 6025 2025 
L 6025 1550 
Q 5575 1575 5050 1575 
L 3500 1575 
L 3500 375 
Q 3500 -75 3525 -650 
L 2975 -650 
Q 3000 -75 3000 375 
L 3000 1575 
L 1175 1575 
Q 825 1575 425 1550 
L 425 2025 
Q 825 2000 1200 2000 
L 3000 2000 
L 3000 4550 
L 1825 4550 
Q 1425 4550 925 4525 
L 925 5000 
z
M 2275 2750 
Q 2025 2675 1800 2525 
Q 1625 3125 1250 3725 
Q 1475 3800 1675 3950 
Q 2050 3300 2275 2750 
z
M 4550 2425 
Q 4325 2575 4075 2650 
Q 4525 3300 4750 4000 
Q 5000 3850 5300 3750 
Q 4925 3175 4550 2425 
z
" transform="scale(0.015625)"/>
       <path id="SimHei-5747" d="M 5825 4000 
L 5650 325 
Q 5650 -250 5237 -362 
Q 4825 -475 4325 -500 
Q 4275 -200 4150 75 
Q 4825 25 5000 112 
Q 5175 200 5175 525 
L 5325 3575 
L 3575 3575 
Q 3425 3275 3262 2975 
Q 3100 2675 2875 2350 
Q 2650 2500 2400 2600 
Q 2650 2875 2837 3187 
Q 3025 3500 3150 3825 
Q 3275 4150 3362 4462 
Q 3450 4775 3500 5025 
Q 3800 4925 4150 4850 
Q 4050 4700 3950 4500 
Q 3850 4300 3750 4000 
L 5825 4000 
z
M 3475 2725 
Q 3650 2850 3850 2975 
Q 4100 2675 4400 2125 
Q 4150 2000 3975 1875 
Q 3825 2225 3475 2725 
z
M 4850 1825 
Q 4875 1600 4950 1375 
Q 4650 1250 4087 1037 
Q 3525 825 2975 550 
Q 2900 850 2775 1100 
Q 3475 1275 3762 1375 
Q 4050 1475 4850 1825 
z
M 450 3550 
Q 825 3525 1075 3525 
L 1225 3525 
L 1225 4275 
Q 1225 4650 1200 4950 
L 1725 4950 
Q 1700 4600 1700 4275 
L 1700 3525 
L 1850 3525 
Q 2150 3525 2475 3550 
L 2475 3075 
Q 2150 3100 1850 3100 
L 1700 3100 
L 1700 1100 
L 2450 1350 
Q 2425 1125 2475 900 
Q 1200 475 937 375 
Q 675 275 450 175 
Q 350 475 225 750 
Q 550 800 775 850 
Q 1000 900 1225 975 
L 1225 3100 
L 1100 3100 
Q 825 3100 450 3075 
L 450 3550 
z
" transform="scale(0.015625)"/>
       <path id="SimHei-6e29" d="M 625 4625 
Q 800 4775 925 4975 
Q 1525 4600 1850 4250 
Q 1675 4125 1525 3875 
Q 1300 4150 625 4625 
z
M 350 3200 
Q 475 3375 600 3575 
Q 1025 3375 1575 2950 
Q 1375 2775 1250 2575 
Q 1025 2850 350 3200 
z
M 1150 2075 
Q 1350 1875 1575 1775 
Q 1400 1325 1175 650 
Q 950 -25 825 -450 
Q 600 -225 325 -125 
Q 575 300 825 975 
Q 1075 1650 1150 2075 
z
M 2725 4450 
L 2725 3850 
L 4800 3850 
L 4800 4450 
L 2725 4450 
z
M 2725 3500 
L 2725 2900 
L 4800 2900 
L 4800 3500 
L 2725 3500 
z
M 2275 4800 
L 5250 4800 
Q 5225 4375 5225 3687 
Q 5225 3000 5250 2550 
L 2275 2550 
Q 2300 2950 2300 3650 
Q 2300 4350 2275 4800 
z
M 2025 1950 
L 5525 1950 
Q 5500 1525 5500 50 
Q 5775 50 6050 75 
L 6050 -325 
Q 5650 -300 5275 -300 
L 2275 -300 
Q 1850 -300 1450 -325 
L 1450 75 
Q 1750 50 2050 50 
Q 2050 1475 2025 1950 
z
M 2475 1600 
L 2475 50 
L 3050 50 
L 3050 1600 
L 2475 1600 
z
M 3475 1600 
L 3475 50 
L 4050 50 
L 4050 1600 
L 3475 1600 
z
M 4475 1600 
L 4475 50 
L 5075 50 
L 5075 1600 
L 4475 1600 
z
" transform="scale(0.015625)"/>
       <path id="SimHei-5ea6" d="M 2975 2925 
L 2975 2400 
L 4300 2400 
L 4300 2925 
L 2975 2925 
z
M 1750 3325 
Q 2225 3300 2525 3300 
Q 2525 3600 2500 3825 
L 3000 3825 
Q 2975 3625 2975 3300 
L 4300 3300 
Q 4300 3600 4275 3850 
L 4775 3850 
Q 4750 3600 4750 3300 
Q 5275 3300 5675 3325 
L 5675 2900 
Q 5300 2925 4750 2925 
Q 4750 2325 4775 2025 
L 2500 2025 
Q 2525 2350 2525 2925 
Q 2225 2925 1750 2900 
L 1750 3325 
z
M 2925 1225 
Q 2500 1225 2025 1200 
L 2025 1625 
Q 2500 1600 2900 1600 
L 5100 1600 
Q 4875 1150 4600 775 
Q 4325 400 4025 175 
Q 4400 0 4887 -75 
Q 5375 -150 5875 -125 
Q 5675 -350 5575 -650 
Q 5025 -600 4575 -475 
Q 4125 -350 3625 -150 
Q 3125 -350 2650 -462 
Q 2175 -575 1650 -650 
Q 1575 -400 1425 -150 
Q 1950 -150 2375 -75 
Q 2800 0 3275 150 
Q 2975 400 2500 1225 
L 3000 1225 
Q 3250 750 3675 400 
Q 4050 675 4400 1225 
L 2925 1225 
z
M 3125 4400 
Q 3050 4750 2950 5100 
Q 3150 5125 3475 5200 
Q 3550 4875 3650 4400 
L 4575 4400 
Q 5075 4425 5700 4450 
L 5700 4000 
Q 5100 4025 4625 4025 
L 1450 4025 
Q 1450 2900 1425 2212 
Q 1400 1525 1262 875 
Q 1125 225 725 -550 
Q 500 -300 275 -200 
Q 650 350 812 1012 
Q 975 1675 987 2712 
Q 1000 3750 975 4400 
L 3125 4400 
z
" transform="scale(0.015625)"/>
       <path id="SimHei-28" d="M 3000 -225 
L 2725 -500 
Q 2100 100 1787 750 
Q 1475 1400 1475 2225 
Q 1475 3050 1787 3700 
Q 2100 4350 2725 4975 
L 3000 4700 
Q 2425 4150 2137 3562 
Q 1850 2975 1850 2225 
Q 1850 1475 2137 887 
Q 2425 300 3000 -225 
z
" transform="scale(0.015625)"/>
       <path id="SimHei-2103" d="M 5275 3925 
L 5275 4225 
L 5475 4225 
L 5475 2875 
L 5275 2875 
L 5275 3325 
Q 5175 3800 4712 4100 
Q 4250 4400 3650 4300 
Q 3050 4200 2700 3687 
Q 2350 3175 2362 2300 
Q 2375 1425 2700 925 
Q 3025 425 3550 337 
Q 4075 250 4525 450 
Q 4975 650 5212 937 
Q 5450 1225 5487 1150 
Q 5525 1075 5287 762 
Q 5050 450 4575 200 
Q 4100 -50 3475 25 
Q 2850 100 2412 650 
Q 1975 1200 1925 2150 
Q 1875 3100 2287 3712 
Q 2700 4325 3200 4475 
Q 3700 4625 4112 4537 
Q 4525 4450 4812 4275 
Q 5100 4100 5275 3925 
z
M 737 4075 
Q 725 4325 887 4475 
Q 1050 4625 1200 4662 
Q 1350 4700 1537 4637 
Q 1725 4575 1812 4400 
Q 1900 4225 1862 4000 
Q 1825 3775 1662 3650 
Q 1500 3525 1275 3537 
Q 1050 3550 900 3687 
Q 750 3825 737 4075 
z
M 1175 3762 
Q 1350 3700 1500 3787 
Q 1650 3875 1637 4125 
Q 1625 4375 1462 4450 
Q 1300 4525 1125 4400 
Q 950 4275 975 4050 
Q 1000 3825 1175 3762 
z
" transform="scale(0.015625)"/>
       <path id="SimHei-29" d="M 1700 2225 
Q 1700 1400 1387 750 
Q 1075 100 450 -500 
L 175 -225 
Q 750 300 1037 887 
Q 1325 1475 1325 2225 
Q 1325 2975 1037 3562 
Q 750 4150 175 4700 
L 450 4975 
Q 1075 4350 1387 3700 
Q 1700 3050 1700 2225 
z
" transform="scale(0.015625)"/>
      </defs>
      <use xlink:href="#SimHei-5e73"/>
      <use xlink:href="#SimHei-5747" x="100"/>
      <use xlink:href="#SimHei-6e29" x="200"/>
      <use xlink:href="#SimHei-5ea6" x="300"/>
      <use xlink:href="#SimHei-28" x="400"/>
      <use xlink:href="#SimHei-2103" x="450"/>
      <use xlink:href="#SimHei-29" x="550"/>
     </g>
    </g>
   </g>
   <g id="PolyCollection_1"/>
   <g id="PolyCollection_2">
    <defs>
     <path id="mece59271fe" d="M 108.901477 -138.948455 
L 108.901477 -247.754424 
L 168.335981 -326.479898 
L 227.770486 -413.691247 
L 287.20499 -369.113469 
L 346.639494 -241.090977 
L 406.073998 -291.119596 
L 465.508502 -433.497545 
L 524.943006 -354.988241 
L 584.37751 -272.655553 
L 643.812014 -428.330408 
L 703.246519 -348.826282 
L 762.681023 -268.349605 
L 762.681023 -138.948455 
L 762.681023 -138.948455 
L 703.246519 -138.948455 
L 643.812014 -138.948455 
L 584.37751 -138.948455 
L 524.943006 -138.948455 
L 465.508502 -138.948455 
L 406.073998 -138.948455 
L 346.639494 -138.948455 
L 287.20499 -138.948455 
L 227.770486 -138.948455 
L 168.335981 -138.948455 
L 108.901477 -138.948455 
z
" style="stroke: #1f77b4; stroke-opacity: 0.15; stroke-width: 1.5"/>
    </defs>
    <g clip-path="url(#pd23785af41)">
     <use xlink:href="#mece59271fe" x="0" y="504" style="fill: #1f77b4; fill-opacity: 0.15; stroke: #1f77b4; stroke-opacity: 0.15; stroke-width: 1.5"/>
    </g>
   </g>
   <g id="line2d_25">
    <path d="M 108.901477 256.245576 
L 168.335981 177.520102 
L 227.770486 90.308753 
L 287.20499 134.886531 
L 346.639494 262.909023 
L 406.073998 212.880404 
L 465.508502 70.502455 
L 524.943006 149.011759 
L 584.37751 231.344447 
L 643.812014 75.669592 
L 703.246519 155.173718 
L 762.681023 235.650395 
" clip-path="url(#pd23785af41)" style="fill: none; stroke: #1f77b4; stroke-width: 2.5; stroke-linecap: round"/>
    <defs>
     <path id="mc0fd0819f1" d="M 0 4.5 
C 1.193414 4.5 2.338109 4.025852 3.181981 3.181981 
C 4.025852 2.338109 4.5 1.193414 4.5 0 
C 4.5 -1.193414 4.025852 -2.338109 3.181981 -3.181981 
C 2.338109 -4.025852 1.193414 -4.5 0 -4.5 
C -1.193414 -4.5 -2.338109 -4.025852 -3.181981 -3.181981 
C -4.025852 -2.338109 -4.5 -1.193414 -4.5 0 
C -4.5 1.193414 -4.025852 2.338109 -3.181981 3.181981 
C -2.338109 4.025852 -1.193414 4.5 0 4.5 
z
" style="stroke: #ffffff; stroke-width: 0.75"/>
    </defs>
    <g clip-path="url(#pd23785af41)">
     <use xlink:href="#mc0fd0819f1" x="108.901477" y="256.245576" style="fill: #1f77b4; stroke: #ffffff; stroke-width: 0.75"/>
     <use xlink:href="#mc0fd0819f1" x="168.335981" y="177.520102" style="fill: #1f77b4; stroke: #ffffff; stroke-width: 0.75"/>
     <use xlink:href="#mc0fd0819f1" x="227.770486" y="90.308753" style="fill: #1f77b4; stroke: #ffffff; stroke-width: 0.75"/>
     <use xlink:href="#mc0fd0819f1" x="287.20499" y="134.886531" style="fill: #1f77b4; stroke: #ffffff; stroke-width: 0.75"/>
     <use xlink:href="#mc0fd0819f1" x="346.639494" y="262.909023" style="fill: #1f77b4; stroke: #ffffff; stroke-width: 0.75"/>
     <use xlink:href="#mc0fd0819f1" x="406.073998" y="212.880404" style="fill: #1f77b4; stroke: #ffffff; stroke-width: 0.75"/>
     <use xlink:href="#mc0fd0819f1" x="465.508502" y="70.502455" style="fill: #1f77b4; stroke: #ffffff; stroke-width: 0.75"/>
     <use xlink:href="#mc0fd0819f1" x="524.943006" y="149.011759" style="fill: #1f77b4; stroke: #ffffff; stroke-width: 0.75"/>
     <use xlink:href="#mc0fd0819f1" x="584.37751" y="231.344447" style="fill: #1f77b4; stroke: #ffffff; stroke-width: 0.75"/>
     <use xlink:href="#mc0fd0819f1" x="643.812014" y="75.669592" style="fill: #1f77b4; stroke: #ffffff; stroke-width: 0.75"/>
     <use xlink:href="#mc0fd0819f1" x="703.246519" y="155.173718" style="fill: #1f77b4; stroke: #ffffff; stroke-width: 0.75"/>
     <use xlink:href="#mc0fd0819f1" x="762.681023" y="235.650395" style="fill: #1f77b4; stroke: #ffffff; stroke-width: 0.75"/>
    </g>
   </g>
   <g id="patch_3">
    <path d="M 76.2125 379.779 
L 76.2125 55.775 
" style="fill: none; stroke: #cccccc; stroke-width: 1.875; stroke-linejoin: miter; stroke-linecap: square"/>
   </g>
   <g id="patch_4">
    <path d="M 795.37 379.779 
L 795.37 55.775 
" style="fill: none; stroke: #cccccc; stroke-width: 1.875; stroke-linejoin: miter; stroke-linecap: square"/>
   </g>
   <g id="patch_5">
    <path d="M 76.2125 379.779 
L 795.37 379.779 
" style="fill: none; stroke: #cccccc; stroke-width: 1.875; stroke-linejoin: miter; stroke-linecap: square"/>
   </g>
   <g id="legend_1">
    <g id="patch_6">
     <path d="M 308.6755 471.14855 
L 419.0755 471.14855 
Q 421.4755 471.14855 421.4755 468.74855 
L 421.4755 452.9798 
Q 421.4755 450.5798 419.0755 450.5798 
L 308.6755 450.5798 
Q 306.2755 450.5798 306.2755 452.9798 
L 306.2755 468.74855 
Q 306.2755 471.14855 308.6755 471.14855 
z
" style="fill: #ffffff; opacity: 0.8; stroke: #cccccc; stroke-width: 1.5; stroke-linejoin: miter"/>
    </g>
    <g id="line2d_26">
     <path d="M 311.0755 460.601675 
L 323.0755 460.601675 
L 335.0755 460.601675 
" style="fill: none; stroke: #1f77b4; stroke-width: 2.5; stroke-linecap: round"/>
     <g>
      <use xlink:href="#mc0fd0819f1" x="323.0755" y="460.601675" style="fill: #1f77b4; stroke: #ffffff; stroke-width: 0.75"/>
     </g>
    </g>
    <g id="text_21">
     <!-- 平均温度(℃) -->
     <g style="fill: #262626" transform="translate(344.6755 464.801675) scale(0.12 -0.12)">
      <use xlink:href="#SimHei-5e73"/>
      <use xlink:href="#SimHei-5747" x="100"/>
      <use xlink:href="#SimHei-6e29" x="200"/>
      <use xlink:href="#SimHei-5ea6" x="300"/>
      <use xlink:href="#SimHei-28" x="400"/>
      <use xlink:href="#SimHei-2103" x="450"/>
      <use xlink:href="#SimHei-29" x="550"/>
     </g>
    </g>
   </g>
  </g>
  <g id="axes_2">
   <g id="matplotlib.axis_3">
    <g id="ytick_7">
     <g id="line2d_27">
      <defs>
       <path id="mffdfc72f53" d="M 0 0 
L 9 0 
" style="stroke: #262626; stroke-width: 1.875"/>
      </defs>
      <g>
       <use xlink:href="#mffdfc72f53" x="795.37" y="365.051545" style="fill: #262626; stroke: #262626; stroke-width: 1.875"/>
      </g>
     </g>
     <g id="text_22">
      <!-- 0 -->
      <g style="fill: #ff7f0e" transform="translate(807.87 370.691194) scale(0.165 -0.165)">
       <use xlink:href="#SimHei-30"/>
      </g>
     </g>
    </g>
    <g id="ytick_8">
     <g id="line2d_28">
      <g>
       <use xlink:href="#mffdfc72f53" x="795.37" y="299.557666" style="fill: #262626; stroke: #262626; stroke-width: 1.875"/>
      </g>
     </g>
     <g id="text_23">
      <!-- 2 -->
      <g style="fill: #ff7f0e" transform="translate(807.87 305.197315) scale(0.165 -0.165)">
       <use xlink:href="#SimHei-32"/>
      </g>
     </g>
    </g>
    <g id="ytick_9">
     <g id="line2d_29">
      <g>
       <use xlink:href="#mffdfc72f53" x="795.37" y="234.063787" style="fill: #262626; stroke: #262626; stroke-width: 1.875"/>
      </g>
     </g>
     <g id="text_24">
      <!-- 4 -->
      <g style="fill: #ff7f0e" transform="translate(807.87 239.703435) scale(0.165 -0.165)">
       <defs>
        <path id="SimHei-34" d="M 2975 1200 
L 2450 1200 
L 2450 100 
L 1875 100 
L 1875 1200 
L 200 1200 
L 200 1675 
L 1875 4425 
L 2450 4425 
L 2450 1675 
L 2975 1675 
L 2975 1200 
z
M 1875 1675 
L 1875 3525 
L 750 1675 
L 1875 1675 
z
" transform="scale(0.015625)"/>
       </defs>
       <use xlink:href="#SimHei-34"/>
      </g>
     </g>
    </g>
    <g id="ytick_10">
     <g id="line2d_30">
      <g>
       <use xlink:href="#mffdfc72f53" x="795.37" y="168.569907" style="fill: #262626; stroke: #262626; stroke-width: 1.875"/>
      </g>
     </g>
     <g id="text_25">
      <!-- 6 -->
      <g style="fill: #ff7f0e" transform="translate(807.87 174.209556) scale(0.165 -0.165)">
       <defs>
        <path id="SimHei-36" d="M 2850 1550 
Q 2850 850 2550 450 
Q 2250 50 1650 50 
Q 1050 50 700 550 
Q 350 1050 350 2175 
Q 350 3200 712 3812 
Q 1075 4425 1750 4425 
Q 2225 4425 2512 4075 
Q 2800 3725 2800 3300 
L 2225 3300 
Q 2225 3550 2087 3750 
Q 1950 3950 1725 3950 
Q 1350 3950 1150 3562 
Q 950 3175 925 2375 
Q 1100 2700 1300 2825 
Q 1500 2950 1775 2950 
Q 2250 2950 2550 2575 
Q 2850 2200 2850 1550 
z
M 2250 1550 
Q 2250 2000 2100 2250 
Q 1950 2500 1675 2500 
Q 1350 2500 1162 2250 
Q 975 2000 975 1650 
Q 975 1100 1162 800 
Q 1350 500 1675 500 
Q 1900 500 2075 725 
Q 2250 950 2250 1550 
z
" transform="scale(0.015625)"/>
       </defs>
       <use xlink:href="#SimHei-36"/>
      </g>
     </g>
    </g>
    <g id="ytick_11">
     <g id="line2d_31">
      <g>
       <use xlink:href="#mffdfc72f53" x="795.37" y="103.076028" style="fill: #262626; stroke: #262626; stroke-width: 1.875"/>
      </g>
     </g>
     <g id="text_26">
      <!-- 8 -->
      <g style="fill: #ff7f0e" transform="translate(807.87 108.715676) scale(0.165 -0.165)">
       <defs>
        <path id="SimHei-38" d="M 2875 1325 
Q 2875 700 2525 375 
Q 2175 50 1575 50 
Q 975 50 625 375 
Q 275 700 275 1325 
Q 275 1650 475 1912 
Q 675 2175 1025 2300 
Q 725 2425 562 2650 
Q 400 2875 400 3225 
Q 400 3775 750 4100 
Q 1100 4425 1575 4425 
Q 2050 4425 2400 4100 
Q 2750 3775 2750 3225 
Q 2750 2875 2587 2650 
Q 2425 2425 2125 2300 
Q 2475 2175 2675 1912 
Q 2875 1650 2875 1325 
z
M 2200 3225 
Q 2200 3625 2025 3800 
Q 1850 3975 1575 3975 
Q 1300 3975 1125 3800 
Q 950 3625 950 3225 
Q 950 2825 1137 2662 
Q 1325 2500 1575 2500 
Q 1825 2500 2012 2662 
Q 2200 2825 2200 3225 
z
M 2300 1325 
Q 2300 1675 2112 1875 
Q 1925 2075 1575 2075 
Q 1225 2075 1037 1875 
Q 850 1675 850 1325 
Q 850 925 1050 712 
Q 1250 500 1575 500 
Q 1900 500 2100 712 
Q 2300 925 2300 1325 
z
" transform="scale(0.015625)"/>
       </defs>
       <use xlink:href="#SimHei-38"/>
      </g>
     </g>
    </g>
    <g id="text_27">
     <!-- 平均溶解氧(mg/L) -->
     <g style="fill: #ff7f0e" transform="translate(842.549688 273.777) rotate(-90) scale(0.14 -0.14)">
      <defs>
       <path id="SimHei-6eb6" d="M 3575 5075 
Q 3800 5100 4050 5150 
Q 4125 4850 4200 4425 
L 5825 4425 
Q 5800 4175 5800 3925 
Q 5800 3675 5825 3450 
L 5350 3450 
L 5350 4075 
L 2475 4075 
L 2475 3350 
L 2000 3350 
Q 2025 3625 2025 3875 
Q 2025 4125 2000 4425 
L 3725 4425 
Q 3700 4650 3575 5075 
z
M 2475 2325 
Q 2300 2500 2075 2625 
Q 2350 2800 2637 3112 
Q 2925 3425 3100 3750 
Q 3300 3600 3600 3450 
Q 3400 3350 3112 3012 
Q 2825 2675 2475 2325 
z
M 4400 3325 
Q 4600 3475 4700 3675 
Q 5350 3175 5750 2825 
Q 5525 2675 5400 2475 
Q 5125 2800 4400 3325 
z
M 3750 3175 
Q 3975 3025 4300 2925 
L 4150 2775 
Q 4425 2300 4987 1950 
Q 5550 1600 6150 1500 
Q 5900 1275 5800 1050 
Q 5375 1225 5200 1325 
Q 5200 -100 5225 -625 
L 4775 -625 
L 4775 -125 
L 3025 -125 
L 3025 -625 
L 2575 -625 
Q 2600 -100 2600 1300 
Q 2375 1150 2125 950 
Q 2000 1175 1750 1350 
Q 2450 1650 2937 2137 
Q 3425 2625 3750 3175 
z
M 3875 2550 
Q 3400 1925 2850 1475 
L 4900 1475 
Q 4325 1850 3875 2550 
z
M 3025 1125 
L 3025 225 
L 4775 225 
L 4775 1125 
L 3025 1125 
z
M 650 4450 
Q 825 4675 900 4850 
Q 1475 4550 1825 4250 
Q 1625 4075 1550 3875 
Q 1175 4200 650 4450 
z
M 475 3050 
Q 600 3250 700 3450 
Q 1275 3175 1675 2875 
Q 1500 2700 1425 2475 
Q 1150 2725 475 3050 
z
M 900 -475 
Q 650 -275 375 -175 
Q 675 300 875 950 
Q 1075 1600 1125 1950 
Q 1350 1800 1575 1675 
Q 1450 1425 1237 675 
Q 1025 -75 900 -475 
z
" transform="scale(0.015625)"/>
       <path id="SimHei-89e3" d="M 1375 4150 
Q 1150 3850 975 3600 
L 1825 3600 
Q 2025 3850 2175 4150 
L 1375 4150 
z
M 1325 3225 
L 1325 2575 
L 1800 2575 
L 1800 3225 
L 1325 3225 
z
M 2225 3225 
L 2225 2575 
L 2750 2575 
L 2750 3225 
L 2225 3225 
z
M 1325 2200 
L 1300 1525 
L 1800 1525 
L 1800 2200 
L 1325 2200 
z
M 2225 2200 
L 2225 1525 
L 2750 1525 
L 2750 2200 
L 2225 2200 
z
M 1400 5225 
Q 1600 5100 1925 4950 
Q 1725 4850 1625 4525 
L 2925 4525 
Q 2800 4350 2600 4050 
Q 2400 3750 2325 3600 
L 3225 3600 
Q 3175 3100 3175 2625 
L 3175 75 
Q 3175 -200 3012 -287 
Q 2850 -375 2500 -425 
Q 2450 -150 2350 75 
Q 2550 75 2650 87 
Q 2750 100 2750 325 
L 2750 1150 
L 2225 1150 
L 2225 -25 
L 1800 -25 
L 1800 1150 
L 1275 1150 
Q 1250 775 1150 375 
Q 1050 -25 825 -475 
Q 600 -350 350 -225 
Q 600 100 725 612 
Q 850 1125 875 1912 
Q 900 2700 875 3475 
Q 675 3250 550 3125 
Q 400 3325 200 3475 
Q 575 3775 887 4212 
Q 1200 4650 1400 5225 
z
M 5925 4850 
Q 5850 3650 5787 3400 
Q 5725 3150 5475 3062 
Q 5225 2975 4900 2950 
Q 4850 3200 4725 3450 
Q 5000 3450 5162 3475 
Q 5325 3500 5350 3625 
Q 5375 3750 5425 4475 
L 4525 4475 
Q 4375 3800 4225 3487 
Q 4075 3175 3750 2825 
Q 3600 3025 3350 3175 
Q 3625 3375 3800 3687 
Q 3975 4000 4050 4475 
Q 3750 4475 3325 4450 
L 3325 4875 
Q 3725 4850 4050 4850 
L 5925 4850 
z
M 3825 2650 
Q 4075 2525 4325 2400 
Q 4200 2300 4150 2100 
L 4575 2100 
Q 4575 2625 4550 2800 
L 5050 2800 
Q 5000 2575 5000 2100 
L 5350 2100 
Q 5725 2100 5950 2125 
L 5950 1675 
Q 5625 1725 5300 1725 
L 5000 1725 
L 5000 1025 
L 5175 1025 
Q 5650 1025 6150 1050 
L 6150 625 
Q 5675 650 5175 650 
L 5000 650 
L 5000 375 
Q 5000 25 5025 -475 
L 4550 -475 
Q 4575 25 4575 375 
L 4575 650 
L 4025 650 
Q 3750 650 3325 625 
L 3325 1050 
Q 3700 1025 4025 1025 
L 4575 1025 
L 4575 1725 
L 3950 1725 
Q 3875 1525 3725 1250 
Q 3550 1350 3325 1500 
Q 3500 1700 3625 2025 
Q 3750 2350 3825 2650 
z
" transform="scale(0.015625)"/>
       <path id="SimHei-6c27" d="M 1475 2400 
Q 1600 2500 1825 2650 
Q 2125 2350 2300 2075 
Q 2125 1950 1950 1850 
L 2900 1850 
Q 3150 2175 3325 2600 
Q 3525 2475 3825 2375 
Q 3650 2275 3375 1850 
L 3600 1850 
Q 3950 1850 4300 1875 
L 4300 1500 
Q 3825 1525 3525 1525 
L 2825 1525 
L 2825 1075 
L 3400 1075 
Q 3675 1075 4050 1100 
L 4050 725 
Q 3675 750 3400 750 
L 2825 750 
L 2825 325 
L 3775 325 
Q 4075 325 4450 350 
L 4450 -25 
Q 4075 0 3775 0 
L 2825 0 
Q 2825 -325 2850 -650 
L 2375 -650 
Q 2400 -325 2400 0 
L 1325 0 
Q 975 0 600 -25 
L 600 350 
Q 975 350 1325 325 
L 2400 325 
L 2400 750 
L 1700 750 
Q 1300 750 925 725 
L 925 1100 
Q 1300 1100 1675 1075 
L 2400 1075 
L 2400 1525 
L 1525 1525 
Q 1200 1525 750 1500 
L 750 1875 
Q 1200 1875 1525 1850 
L 1925 1850 
Q 1725 2150 1475 2400 
z
M 1675 5200 
Q 1925 5075 2225 4950 
Q 2025 4825 1875 4650 
L 4725 4650 
Q 5050 4650 5625 4675 
L 5625 4300 
Q 5175 4325 4725 4325 
L 1650 4325 
Q 1425 4100 1175 3812 
Q 925 3525 600 3225 
Q 450 3375 200 3550 
Q 575 3775 950 4175 
Q 1325 4575 1675 5200 
z
M 1425 3800 
Q 2025 3775 2500 3775 
L 4250 3775 
Q 4625 3800 5050 3825 
L 5050 3425 
Q 4625 3450 4250 3450 
L 2500 3450 
Q 2025 3450 1425 3425 
L 1425 3800 
z
M 6125 225 
Q 5850 -300 5600 -562 
Q 5350 -825 5062 -337 
Q 4775 150 4725 1037 
Q 4675 1925 4725 2725 
L 1775 2725 
Q 1375 2725 750 2675 
L 750 3075 
Q 1375 3050 1775 3050 
L 5200 3050 
Q 5100 2225 5125 1525 
Q 5150 825 5300 262 
Q 5450 -300 5650 550 
Q 5800 325 6125 225 
z
" transform="scale(0.015625)"/>
       <path id="SimHei-6d" d="M 3075 100 
L 2575 100 
L 2575 2125 
Q 2575 2275 2525 2375 
Q 2475 2475 2325 2475 
Q 2150 2475 2000 2287 
Q 1850 2100 1850 1800 
L 1850 100 
L 1350 100 
L 1350 2125 
Q 1350 2275 1300 2375 
Q 1250 2475 1100 2475 
Q 925 2475 775 2287 
Q 625 2100 625 1800 
L 625 100 
L 125 100 
L 125 2900 
L 625 2900 
L 625 2525 
Q 750 2725 925 2837 
Q 1100 2950 1300 2950 
Q 1500 2950 1637 2837 
Q 1775 2725 1825 2525 
Q 1950 2725 2112 2837 
Q 2275 2950 2475 2950 
Q 2775 2950 2925 2787 
Q 3075 2625 3075 2325 
L 3075 100 
z
" transform="scale(0.015625)"/>
       <path id="SimHei-67" d="M 3000 2475 
Q 2825 2525 2662 2537 
Q 2500 2550 2325 2500 
Q 2400 2425 2450 2312 
Q 2500 2200 2500 1975 
Q 2500 1550 2212 1275 
Q 1925 1000 1500 1000 
Q 1400 1000 1237 1037 
Q 1075 1075 975 1125 
Q 900 1075 875 1025 
Q 850 975 850 900 
Q 850 775 1025 712 
Q 1200 650 1650 650 
Q 2375 650 2637 450 
Q 2900 250 2900 -50 
Q 2900 -450 2512 -637 
Q 2125 -825 1600 -825 
Q 925 -825 600 -650 
Q 275 -475 275 -175 
Q 275 -25 400 125 
Q 525 275 725 375 
Q 575 450 487 562 
Q 400 675 400 850 
Q 400 1000 512 1112 
Q 625 1225 775 1300 
Q 650 1425 575 1600 
Q 500 1775 500 1975 
Q 500 2400 787 2675 
Q 1075 2950 1500 2950 
Q 1725 2950 1887 2887 
Q 2050 2825 2175 2700 
Q 2375 2850 2575 2912 
Q 2775 2975 3000 2950 
L 3000 2475 
z
M 2000 1975 
Q 2000 2225 1875 2375 
Q 1750 2525 1500 2525 
Q 1250 2525 1125 2375 
Q 1000 2225 1000 1975 
Q 1000 1725 1125 1575 
Q 1250 1425 1500 1425 
Q 1750 1425 1875 1575 
Q 2000 1725 2000 1975 
z
M 2425 -100 
Q 2425 0 2312 100 
Q 2200 200 1750 200 
Q 1650 200 1475 212 
Q 1300 225 1075 250 
Q 875 175 800 75 
Q 725 -25 725 -125 
Q 725 -275 925 -375 
Q 1125 -475 1625 -475 
Q 2050 -475 2237 -362 
Q 2425 -250 2425 -100 
z
" transform="scale(0.015625)"/>
       <path id="SimHei-2f" d="M 3025 4525 
L 375 -200 
L 125 -50 
L 2775 4675 
L 3025 4525 
z
" transform="scale(0.015625)"/>
       <path id="SimHei-4c" d="M 2925 100 
L 325 100 
L 325 4375 
L 900 4375 
L 900 575 
L 2925 575 
L 2925 100 
z
" transform="scale(0.015625)"/>
      </defs>
      <use xlink:href="#SimHei-5e73"/>
      <use xlink:href="#SimHei-5747" x="100"/>
      <use xlink:href="#SimHei-6eb6" x="200"/>
      <use xlink:href="#SimHei-89e3" x="300"/>
      <use xlink:href="#SimHei-6c27" x="400"/>
      <use xlink:href="#SimHei-28" x="500"/>
      <use xlink:href="#SimHei-6d" x="550"/>
      <use xlink:href="#SimHei-67" x="600"/>
      <use xlink:href="#SimHei-2f" x="650"/>
      <use xlink:href="#SimHei-4c" x="700"/>
      <use xlink:href="#SimHei-29" x="750"/>
     </g>
    </g>
   </g>
   <g id="PolyCollection_3"/>
   <g id="PolyCollection_4">
    <defs>
     <path id="m06b5895164" d="M 108.901477 -138.948455 
L 108.901477 -433.497545 
L 168.335981 -431.771589 
L 227.770486 -323.157787 
L 287.20499 -384.326444 
L 346.639494 -426.957789 
L 406.073998 -397.206231 
L 465.508502 -368.852438 
L 524.943006 -379.594799 
L 584.37751 -413.476965 
L 643.812014 -341.673842 
L 703.246519 -349.795083 
L 762.681023 -385.161778 
L 762.681023 -138.948455 
L 762.681023 -138.948455 
L 703.246519 -138.948455 
L 643.812014 -138.948455 
L 584.37751 -138.948455 
L 524.943006 -138.948455 
L 465.508502 -138.948455 
L 406.073998 -138.948455 
L 346.639494 -138.948455 
L 287.20499 -138.948455 
L 227.770486 -138.948455 
L 168.335981 -138.948455 
L 108.901477 -138.948455 
z
" style="stroke: #ff7f0e; stroke-opacity: 0.15; stroke-width: 1.5"/>
    </defs>
    <g clip-path="url(#pd23785af41)">
     <use xlink:href="#m06b5895164" x="0" y="504" style="fill: #ff7f0e; fill-opacity: 0.15; stroke: #ff7f0e; stroke-opacity: 0.15; stroke-width: 1.5"/>
    </g>
   </g>
   <g id="line2d_32">
    <path d="M 108.901477 70.502455 
L 168.335981 72.228411 
L 227.770486 180.842213 
L 287.20499 119.673556 
L 346.639494 77.042211 
L 406.073998 106.793769 
L 465.508502 135.147562 
L 524.943006 124.405201 
L 584.37751 90.523035 
L 643.812014 162.326158 
L 703.246519 154.204917 
L 762.681023 118.838222 
" clip-path="url(#pd23785af41)" style="fill: none; stroke: #ff7f0e; stroke-width: 2.5; stroke-linecap: round"/>
    <defs>
     <path id="me6a2402827" d="M -4.5 4.5 
L 4.5 4.5 
L 4.5 -4.5 
L -4.5 -4.5 
z
" style="stroke: #ffffff; stroke-width: 0.75; stroke-linejoin: miter"/>
    </defs>
    <g clip-path="url(#pd23785af41)">
     <use xlink:href="#me6a2402827" x="108.901477" y="70.502455" style="fill: #ff7f0e; stroke: #ffffff; stroke-width: 0.75; stroke-linejoin: miter"/>
     <use xlink:href="#me6a2402827" x="168.335981" y="72.228411" style="fill: #ff7f0e; stroke: #ffffff; stroke-width: 0.75; stroke-linejoin: miter"/>
     <use xlink:href="#me6a2402827" x="227.770486" y="180.842213" style="fill: #ff7f0e; stroke: #ffffff; stroke-width: 0.75; stroke-linejoin: miter"/>
     <use xlink:href="#me6a2402827" x="287.20499" y="119.673556" style="fill: #ff7f0e; stroke: #ffffff; stroke-width: 0.75; stroke-linejoin: miter"/>
     <use xlink:href="#me6a2402827" x="346.639494" y="77.042211" style="fill: #ff7f0e; stroke: #ffffff; stroke-width: 0.75; stroke-linejoin: miter"/>
     <use xlink:href="#me6a2402827" x="406.073998" y="106.793769" style="fill: #ff7f0e; stroke: #ffffff; stroke-width: 0.75; stroke-linejoin: miter"/>
     <use xlink:href="#me6a2402827" x="465.508502" y="135.147562" style="fill: #ff7f0e; stroke: #ffffff; stroke-width: 0.75; stroke-linejoin: miter"/>
     <use xlink:href="#me6a2402827" x="524.943006" y="124.405201" style="fill: #ff7f0e; stroke: #ffffff; stroke-width: 0.75; stroke-linejoin: miter"/>
     <use xlink:href="#me6a2402827" x="584.37751" y="90.523035" style="fill: #ff7f0e; stroke: #ffffff; stroke-width: 0.75; stroke-linejoin: miter"/>
     <use xlink:href="#me6a2402827" x="643.812014" y="162.326158" style="fill: #ff7f0e; stroke: #ffffff; stroke-width: 0.75; stroke-linejoin: miter"/>
     <use xlink:href="#me6a2402827" x="703.246519" y="154.204917" style="fill: #ff7f0e; stroke: #ffffff; stroke-width: 0.75; stroke-linejoin: miter"/>
     <use xlink:href="#me6a2402827" x="762.681023" y="118.838222" style="fill: #ff7f0e; stroke: #ffffff; stroke-width: 0.75; stroke-linejoin: miter"/>
    </g>
   </g>
   <g id="patch_7">
    <path d="M 76.2125 379.779 
L 76.2125 55.775 
" style="fill: none; stroke: #cccccc; stroke-width: 1.875; stroke-linejoin: miter; stroke-linecap: square"/>
   </g>
   <g id="patch_8">
    <path d="M 795.37 379.779 
L 795.37 55.775 
" style="fill: none; stroke: #cccccc; stroke-width: 1.875; stroke-linejoin: miter; stroke-linecap: square"/>
   </g>
   <g id="patch_9">
    <path d="M 76.2125 379.779 
L 795.37 379.779 
" style="fill: none; stroke: #cccccc; stroke-width: 1.875; stroke-linejoin: miter; stroke-linecap: square"/>
   </g>
   <g id="text_28">
    <!-- 平均温度和平均溶解氧的变化趋势 -->
    <g style="fill: #262626" transform="translate(285.79125 35.775) scale(0.2 -0.2)">
     <defs>
      <path id="SimHei-548c" d="M 2925 5025 
Q 3000 4750 3175 4475 
Q 2850 4450 2175 4325 
L 2175 3275 
L 2550 3275 
Q 2900 3275 3175 3300 
L 3175 2850 
Q 2900 2875 2575 2875 
L 2175 2875 
L 2175 375 
Q 2175 -150 2200 -450 
L 1700 -450 
Q 1725 -150 1725 375 
L 1725 2100 
Q 1400 1375 675 575 
Q 550 750 275 950 
Q 875 1475 1175 2012 
Q 1475 2550 1600 2875 
L 1200 2875 
Q 650 2875 475 2850 
L 475 3300 
Q 675 3275 1200 3275 
L 1725 3275 
L 1725 4275 
Q 1275 4225 725 4175 
Q 675 4400 575 4600 
Q 1075 4625 1737 4712 
Q 2400 4800 2925 5025 
z
M 3225 1500 
Q 3000 1350 2825 1200 
Q 2575 1650 2225 2100 
Q 2375 2200 2575 2375 
Q 2925 1950 3225 1500 
z
M 3550 4275 
L 5825 4275 
Q 5800 3825 5800 3400 
L 5800 900 
Q 5800 475 5825 175 
L 5350 175 
L 5350 775 
L 4025 775 
L 4025 75 
L 3550 75 
Q 3575 700 3575 825 
L 3575 3400 
Q 3575 3825 3550 4275 
z
M 4025 3875 
L 4025 1175 
L 5350 1175 
L 5350 3875 
L 4025 3875 
z
" transform="scale(0.015625)"/>
      <path id="SimHei-7684" d="M 1525 5100 
Q 1850 5025 2200 4925 
Q 2100 4775 2025 4487 
Q 1950 4200 1900 3975 
L 2975 3975 
Q 2950 3525 2950 2900 
L 2950 700 
Q 2950 300 2975 -225 
L 2500 -225 
L 2500 300 
L 1200 300 
L 1200 -275 
L 725 -275 
Q 750 350 750 650 
L 750 2875 
Q 750 3525 725 3975 
L 1425 3975 
Q 1450 4225 1475 4462 
Q 1500 4700 1525 5100 
z
M 1200 3525 
L 1200 2425 
L 2500 2425 
L 2500 3525 
L 1200 3525 
z
M 1200 1950 
L 1200 775 
L 2500 775 
L 2500 1950 
L 1200 1950 
z
M 5850 3925 
Q 5800 3450 5775 3000 
L 5600 175 
Q 5525 -275 5150 -400 
Q 4775 -525 4350 -550 
Q 4350 -275 4175 25 
Q 4600 0 4850 37 
Q 5100 75 5150 350 
L 5350 3475 
L 4025 3475 
Q 3825 3050 3550 2525 
Q 3350 2675 3125 2775 
Q 3275 3000 3462 3400 
Q 3650 3800 3787 4262 
Q 3925 4725 3975 5025 
Q 4300 4875 4600 4800 
Q 4475 4600 4375 4387 
Q 4275 4175 4200 3925 
L 5850 3925 
z
M 3650 2300 
Q 3825 2400 4075 2550 
Q 4200 2325 4325 2050 
Q 4450 1775 4600 1375 
Q 4400 1300 4150 1150 
Q 4075 1425 3937 1750 
Q 3800 2075 3650 2300 
z
" transform="scale(0.015625)"/>
      <path id="SimHei-53d8" d="M 2825 5075 
Q 3125 5125 3425 5175 
Q 3500 4675 3525 4475 
L 4625 4475 
Q 5325 4475 5875 4500 
L 5875 4025 
Q 5300 4050 4625 4050 
L 4025 4050 
L 4025 2975 
Q 4025 2475 4050 2175 
L 3525 2175 
Q 3550 2475 3550 2975 
L 3550 4050 
L 2775 4050 
L 2775 2975 
Q 2775 2500 2800 2175 
L 2275 2175 
Q 2300 2500 2300 2975 
L 2300 4050 
L 1775 4050 
Q 1075 4050 550 4025 
L 550 4500 
Q 1050 4475 1775 4475 
L 2975 4475 
Q 2925 4775 2825 5075 
z
M 1375 3700 
Q 1600 3525 1900 3375 
Q 1750 3250 1487 2900 
Q 1225 2550 925 2175 
Q 675 2350 475 2475 
Q 1025 3000 1375 3700 
z
M 4450 3325 
Q 4675 3500 4850 3675 
Q 5350 3200 5900 2600 
Q 5675 2450 5450 2250 
Q 5050 2750 4450 3325 
z
M 1125 1825 
Q 1575 1800 2175 1800 
L 5100 1800 
Q 4775 1300 4450 900 
Q 4125 500 3750 225 
Q 4325 50 4762 -12 
Q 5200 -75 5900 -50 
Q 5700 -275 5625 -625 
Q 4800 -525 4225 -375 
Q 3650 -225 3275 -75 
Q 2650 -325 2100 -437 
Q 1550 -550 775 -650 
Q 675 -375 500 -125 
Q 1150 -125 1687 -50 
Q 2225 25 2825 200 
Q 2325 475 1750 1375 
L 2300 1375 
Q 2700 750 3300 450 
Q 3800 750 4250 1375 
L 2150 1375 
Q 1525 1375 1125 1350 
L 1125 1825 
z
" transform="scale(0.015625)"/>
      <path id="SimHei-5316" d="M 3350 5075 
L 3900 5075 
Q 3850 4750 3850 4250 
L 3850 2425 
Q 4275 2800 4600 3262 
Q 4925 3725 5150 4175 
Q 5350 4025 5750 3850 
Q 5575 3700 5375 3450 
Q 5175 3200 4950 2912 
Q 4725 2625 4450 2337 
Q 4175 2050 3850 1800 
L 3850 400 
Q 3850 50 4175 50 
L 5075 50 
Q 5300 75 5337 262 
Q 5375 450 5400 825 
Q 5650 625 6000 575 
Q 5850 -100 5687 -250 
Q 5525 -400 5225 -400 
L 3900 -400 
Q 3375 -400 3375 50 
L 3375 1500 
Q 3150 1350 2950 1225 
Q 2750 1100 2450 900 
Q 2300 1175 2150 1350 
Q 2450 1475 2787 1662 
Q 3125 1850 3375 2075 
L 3375 4325 
Q 3375 4775 3350 5075 
z
M 1825 5175 
Q 2050 5025 2450 4900 
Q 2250 4625 2150 4362 
Q 2050 4100 1900 3750 
L 1900 650 
Q 1900 -125 1925 -525 
L 1375 -525 
Q 1425 -150 1425 625 
L 1425 3000 
Q 1250 2700 1100 2500 
Q 950 2300 825 2150 
Q 650 2350 425 2525 
Q 750 2850 987 3200 
Q 1225 3550 1375 3887 
Q 1525 4225 1637 4550 
Q 1750 4875 1825 5175 
z
" transform="scale(0.015625)"/>
      <path id="SimHei-8d8b" d="M 6125 125 
Q 5950 -150 5925 -450 
Q 4900 -475 4200 -450 
Q 3500 -425 2937 -300 
Q 2375 -175 1950 75 
Q 1525 325 1100 750 
Q 875 -100 650 -550 
Q 425 -250 250 -175 
Q 525 225 625 625 
Q 725 1025 762 1400 
Q 800 1775 800 2050 
Q 1025 1975 1325 1950 
Q 1200 1575 1200 1275 
Q 1200 975 1700 675 
L 1700 2600 
Q 850 2600 425 2575 
L 425 2975 
Q 875 2950 1575 2950 
L 1575 3925 
Q 1050 3925 625 3900 
L 625 4300 
Q 1050 4275 1575 4275 
Q 1575 4725 1550 5175 
L 2050 5175 
Q 2025 4775 2025 4275 
Q 2400 4275 2775 4300 
L 2775 3900 
Q 2375 3925 2025 3925 
L 2025 2950 
Q 2525 2950 2975 2975 
L 2975 2575 
Q 2525 2600 2150 2600 
L 2150 1800 
Q 2450 1800 2825 1825 
L 2825 1425 
Q 2475 1450 2150 1450 
L 2150 400 
Q 2900 0 4125 0 
Q 5350 0 6125 125 
z
M 5825 3225 
Q 5800 2775 5800 1825 
Q 5800 875 5825 500 
Q 3725 500 3250 475 
L 3250 875 
Q 3725 850 5350 850 
L 5350 1650 
Q 3825 1650 3450 1625 
L 3450 2025 
Q 3825 2000 5350 2000 
L 5350 2875 
L 4025 2875 
Q 3750 2875 3400 2850 
L 3400 3250 
L 3325 3125 
Q 3125 3300 2900 3375 
Q 3275 3825 3525 4337 
Q 3775 4850 3875 5225 
Q 4125 5125 4450 5050 
Q 4325 4950 4125 4475 
L 5675 4475 
Q 5200 3675 4975 3225 
L 5825 3225 
z
M 3950 4125 
Q 3600 3525 3400 3250 
Q 3750 3225 4050 3225 
L 4475 3225 
Q 4625 3525 4975 4125 
L 3950 4125 
z
" transform="scale(0.015625)"/>
      <path id="SimHei-52bf" d="M 2575 3700 
Q 2550 3525 2550 3300 
Q 2125 3200 1900 3125 
L 1900 2225 
Q 1875 1950 1662 1875 
Q 1450 1800 1050 1725 
Q 1025 2000 850 2275 
Q 1300 2250 1375 2300 
Q 1450 2350 1450 2600 
L 1450 3050 
Q 950 2925 600 2775 
Q 525 3050 400 3250 
Q 750 3300 1450 3450 
L 1450 4025 
Q 850 4025 475 4000 
L 475 4450 
Q 850 4425 1450 4425 
Q 1450 4875 1425 5150 
L 1950 5150 
Q 1900 4900 1900 4425 
Q 2225 4425 2600 4450 
L 2600 4000 
Q 2225 4025 1900 4025 
L 1900 3525 
Q 2175 3600 2575 3700 
z
M 700 1500 
Q 1150 1475 1600 1475 
L 2725 1475 
Q 2750 1675 2750 1900 
Q 3075 1825 3300 1800 
Q 3250 1675 3200 1475 
L 5275 1475 
Q 5225 1125 5200 800 
Q 5175 475 5075 62 
Q 4975 -350 4700 -437 
Q 4425 -525 3775 -575 
Q 3800 -350 3575 -25 
Q 4325 -75 4462 12 
Q 4600 100 4650 300 
Q 4700 500 4750 1075 
L 3125 1075 
Q 2800 275 2150 -87 
Q 1500 -450 825 -650 
Q 725 -375 450 -175 
Q 1000 -100 1650 175 
Q 2300 450 2625 1075 
L 1600 1075 
Q 1125 1075 700 1050 
L 700 1500 
z
M 2850 1925 
Q 2700 2100 2375 2225 
Q 3025 2475 3375 3025 
Q 3175 3150 2850 3325 
Q 3025 3475 3100 3625 
Q 3325 3500 3525 3375 
Q 3575 3625 3600 4075 
Q 3250 4075 2925 4025 
L 2875 4425 
Q 3200 4425 3600 4425 
Q 3600 4900 3575 5200 
Q 3775 5150 4100 5125 
Q 4025 4875 4025 4450 
L 5200 4475 
Q 5125 3975 5087 3437 
Q 5050 2900 5175 2625 
Q 5300 2350 5437 2312 
Q 5575 2275 5600 2850 
Q 5775 2650 6075 2600 
Q 5925 2050 5825 1912 
Q 5725 1775 5562 1737 
Q 5400 1700 5087 1975 
Q 4775 2250 4700 2787 
Q 4625 3325 4725 4100 
L 4025 4075 
Q 3975 3525 3925 3200 
Q 4150 3050 4425 2875 
Q 4225 2700 4100 2550 
Q 3925 2700 3750 2825 
Q 3425 2325 2850 1925 
z
" transform="scale(0.015625)"/>
     </defs>
     <use xlink:href="#SimHei-5e73"/>
     <use xlink:href="#SimHei-5747" x="100"/>
     <use xlink:href="#SimHei-6e29" x="200"/>
     <use xlink:href="#SimHei-5ea6" x="300"/>
     <use xlink:href="#SimHei-548c" x="400"/>
     <use xlink:href="#SimHei-5e73" x="500"/>
     <use xlink:href="#SimHei-5747" x="600"/>
     <use xlink:href="#SimHei-6eb6" x="700"/>
     <use xlink:href="#SimHei-89e3" x="800"/>
     <use xlink:href="#SimHei-6c27" x="900"/>
     <use xlink:href="#SimHei-7684" x="1000"/>
     <use xlink:href="#SimHei-53d8" x="1100"/>
     <use xlink:href="#SimHei-5316" x="1200"/>
     <use xlink:href="#SimHei-8d8b" x="1300"/>
     <use xlink:href="#SimHei-52bf" x="1400"/>
    </g>
   </g>
   <g id="legend_2">
    <g id="patch_10">
     <path d="M 440.507 471.52355 
L 574.907 471.52355 
Q 577.307 471.52355 577.307 469.12355 
L 577.307 452.9798 
Q 577.307 450.5798 574.907 450.5798 
L 440.507 450.5798 
Q 438.107 450.5798 438.107 452.9798 
L 438.107 469.12355 
Q 438.107 471.52355 440.507 471.52355 
z
" style="fill: #ffffff; opacity: 0.8; stroke: #cccccc; stroke-width: 1.5; stroke-linejoin: miter"/>
    </g>
    <g id="line2d_33">
     <path d="M 442.907 460.976675 
L 454.907 460.976675 
L 466.907 460.976675 
" style="fill: none; stroke: #ff7f0e; stroke-width: 2.5; stroke-linecap: round"/>
     <g>
      <use xlink:href="#me6a2402827" x="454.907" y="460.976675" style="fill: #ff7f0e; stroke: #ffffff; stroke-width: 0.75; stroke-linejoin: miter"/>
     </g>
    </g>
    <g id="text_29">
     <!-- 平均溶解氧(mg/L) -->
     <g style="fill: #262626" transform="translate(476.507 465.176675) scale(0.12 -0.12)">
      <use xlink:href="#SimHei-5e73"/>
      <use xlink:href="#SimHei-5747" x="100"/>
      <use xlink:href="#SimHei-6eb6" x="200"/>
      <use xlink:href="#SimHei-89e3" x="300"/>
      <use xlink:href="#SimHei-6c27" x="400"/>
      <use xlink:href="#SimHei-28" x="500"/>
      <use xlink:href="#SimHei-6d" x="550"/>
      <use xlink:href="#SimHei-67" x="600"/>
      <use xlink:href="#SimHei-2f" x="650"/>
      <use xlink:href="#SimHei-4c" x="700"/>
      <use xlink:href="#SimHei-29" x="750"/>
     </g>
    </g>
   </g>
  </g>
 </g>
 <defs>
  <clipPath id="pd23785af41">
   <rect x="76.2125" y="55.775" width="719.1575" height="324.004"/>
  </clipPath>
 </defs>
</svg>
