<?xml version="1.0" encoding="utf-8" standalone="no"?>
<!DOCTYPE svg PUBLIC "-//W3C//DTD SVG 1.1//EN"
  "http://www.w3.org/Graphics/SVG/1.1/DTD/svg11.dtd">
<svg xmlns:xlink="http://www.w3.org/1999/xlink" width="864pt" height="504pt" viewBox="0 0 864 504" xmlns="http://www.w3.org/2000/svg" version="1.1">
 <metadata>
  <rdf:RDF xmlns:dc="http://purl.org/dc/elements/1.1/" xmlns:cc="http://creativecommons.org/ns#" xmlns:rdf="http://www.w3.org/1999/02/22-rdf-syntax-ns#">
   <cc:Work>
    <dc:type rdf:resource="http://purl.org/dc/dcmitype/StillImage"/>
    <dc:date>2024-09-05T17:36:34.884686</dc:date>
    <dc:format>image/svg+xml</dc:format>
    <dc:creator>
     <cc:Agent>
      <dc:title>Matplotlib v3.7.5, https://matplotlib.org/</dc:title>
     </cc:Agent>
    </dc:creator>
   </cc:Work>
  </rdf:RDF>
 </metadata>
 <defs>
  <style type="text/css">*{stroke-linejoin: round; stroke-linecap: butt}</style>
 </defs>
 <g id="figure_1">
  <g id="patch_1">
   <path d="M 0 504 
L 864 504 
L 864 0 
L 0 0 
z
" style="fill: #ffffff"/>
  </g>
  <g id="axes_1">
   <g id="patch_2">
    <path d="M 84.9875 379.54275 
L 779.09125 379.54275 
L 779.09125 55.6625 
L 84.9875 55.6625 
z
" style="fill: #ffffff"/>
   </g>
   <g id="matplotlib.axis_1">
    <g id="xtick_1">
     <g id="line2d_1">
      <path d="M 116.53767 379.54275 
L 116.53767 55.6625 
" clip-path="url(#p1a31564f43)" style="fill: none; stroke-dasharray: 5.55,2.4; stroke-dashoffset: 0; stroke: #cccccc; stroke-opacity: 0.7; stroke-width: 1.5"/>
     </g>
     <g id="text_1">
      <!-- 19冬 -->
      <g style="fill: #262626" transform="translate(98.473302 415.70873) rotate(-45) scale(0.12 -0.12)">
       <defs>
        <path id="SimHei-31" d="M 1950 100 
L 1375 100 
L 1375 3425 
L 625 3425 
L 625 3725 
Q 1075 3725 1325 3900 
Q 1575 4075 1650 4425 
L 1950 4425 
L 1950 100 
z
" transform="scale(0.015625)"/>
        <path id="SimHei-39" d="M 2825 2300 
Q 2825 1275 2462 662 
Q 2100 50 1425 50 
Q 950 50 662 400 
Q 375 750 375 1175 
L 950 1175 
Q 950 925 1087 725 
Q 1225 525 1450 525 
Q 1825 525 2012 950 
Q 2200 1375 2250 2200 
Q 2125 1925 1900 1775 
Q 1675 1625 1400 1625 
Q 925 1625 625 1975 
Q 325 2325 325 2975 
Q 325 3625 625 4025 
Q 925 4425 1525 4425 
Q 2125 4425 2475 3925 
Q 2825 3425 2825 2300 
z
M 2200 2875 
Q 2200 3425 2012 3700 
Q 1825 3975 1500 3975 
Q 1275 3975 1100 3762 
Q 925 3550 925 2975 
Q 925 2550 1062 2312 
Q 1200 2075 1500 2075 
Q 1825 2075 2012 2300 
Q 2200 2525 2200 2875 
z
" transform="scale(0.015625)"/>
        <path id="SimHei-51ac" d="M 2550 4050 
Q 2950 3250 3325 2925 
Q 3825 3275 4375 4050 
L 2550 4050 
z
M 1275 2750 
Q 1075 2975 850 3100 
Q 1400 3575 1712 4112 
Q 2025 4650 2175 5175 
Q 2475 5025 2800 4925 
Q 2600 4725 2475 4450 
L 5150 4450 
Q 4900 4000 4512 3487 
Q 4125 2975 3675 2650 
Q 4800 2025 6025 2050 
Q 5850 1800 5775 1475 
Q 4175 1725 3275 2375 
Q 2175 1725 625 1400 
Q 550 1650 325 1900 
Q 1800 2075 2925 2675 
Q 2500 3125 2175 3875 
Q 1800 3275 1275 2750 
z
M 4425 1050 
Q 4275 800 4175 550 
Q 2925 1125 2400 1275 
Q 2525 1550 2600 1775 
Q 3025 1625 3475 1450 
Q 3925 1275 4425 1050 
z
M 1800 125 
Q 1950 375 2050 600 
Q 2450 500 3100 300 
Q 3750 100 4625 -200 
Q 4475 -425 4375 -700 
Q 3900 -450 1800 125 
z
" transform="scale(0.015625)"/>
       </defs>
       <use xlink:href="#SimHei-31"/>
       <use xlink:href="#SimHei-39" x="50"/>
       <use xlink:href="#SimHei-51ac" x="100"/>
      </g>
     </g>
    </g>
    <g id="xtick_2">
     <g id="line2d_2">
      <path d="M 173.901617 379.54275 
L 173.901617 55.6625 
" clip-path="url(#p1a31564f43)" style="fill: none; stroke-dasharray: 5.55,2.4; stroke-dashoffset: 0; stroke: #cccccc; stroke-opacity: 0.7; stroke-width: 1.5"/>
     </g>
     <g id="text_2">
      <!-- 20春 -->
      <g style="fill: #262626" transform="translate(155.837248 415.775021) rotate(-45) scale(0.12 -0.12)">
       <defs>
        <path id="SimHei-32" d="M 2850 100 
L 300 100 
L 300 500 
Q 450 900 712 1237 
Q 975 1575 1475 2000 
Q 1850 2325 2012 2600 
Q 2175 2875 2175 3200 
Q 2175 3525 2037 3737 
Q 1900 3950 1600 3950 
Q 1350 3950 1162 3725 
Q 975 3500 975 2925 
L 400 2925 
Q 425 3650 737 4037 
Q 1050 4425 1625 4425 
Q 2175 4425 2475 4087 
Q 2775 3750 2775 3175 
Q 2775 2700 2500 2350 
Q 2225 2000 1825 1650 
Q 1375 1250 1200 1050 
Q 1025 850 875 575 
L 2850 575 
L 2850 100 
z
" transform="scale(0.015625)"/>
        <path id="SimHei-30" d="M 2975 2250 
Q 2975 1350 2650 700 
Q 2325 50 1600 50 
Q 875 50 537 700 
Q 200 1350 200 2250 
Q 200 3150 537 3787 
Q 875 4425 1600 4425 
Q 2325 4425 2650 3787 
Q 2975 3150 2975 2250 
z
M 2375 2250 
Q 2375 3050 2187 3500 
Q 2000 3950 1600 3950 
Q 1200 3950 1000 3500 
Q 800 3050 800 2250 
Q 800 1450 1000 987 
Q 1200 525 1600 525 
Q 2000 525 2187 987 
Q 2375 1450 2375 2250 
z
" transform="scale(0.015625)"/>
        <path id="SimHei-6625" d="M 3125 5275 
Q 3450 5175 3725 5150 
Q 3625 5100 3525 4650 
L 4725 4650 
Q 5175 4650 5675 4700 
L 5675 4250 
Q 5175 4275 4875 4275 
L 3450 4275 
Q 3400 4100 3325 3775 
L 4950 3775 
Q 5125 3775 5475 3800 
L 5475 3375 
Q 5025 3400 4875 3400 
L 3200 3400 
Q 3100 3125 2925 2850 
L 5050 2850 
Q 5475 2850 5925 2875 
L 5925 2450 
Q 5475 2475 4450 2475 
Q 4700 2125 5112 1862 
Q 5525 1600 6150 1450 
Q 5950 1275 5825 950 
Q 5325 1200 4900 1475 
L 4900 175 
Q 4900 -200 4925 -650 
L 4425 -650 
L 4425 -300 
L 2200 -300 
L 2200 -625 
L 1700 -625 
Q 1725 -175 1725 150 
L 1725 1550 
Q 1300 1225 750 875 
Q 600 1125 350 1300 
Q 825 1475 1287 1775 
Q 1750 2075 2125 2475 
L 1275 2475 
Q 1000 2475 575 2425 
L 575 2875 
Q 1000 2850 1325 2850 
L 2400 2850 
Q 2600 3125 2700 3400 
L 1850 3400 
Q 1600 3400 1125 3375 
L 1125 3800 
Q 1600 3775 1900 3775 
L 2850 3775 
Q 2925 4000 2975 4275 
L 1650 4275 
Q 1375 4275 900 4250 
L 900 4675 
Q 1375 4650 1800 4650 
L 3050 4650 
Q 3100 4900 3125 5275 
z
M 2700 2475 
Q 2375 2075 2100 1875 
L 4375 1875 
Q 4175 2075 3950 2475 
L 2700 2475 
z
M 2200 1500 
L 2200 1000 
L 4425 1000 
L 4425 1500 
L 2200 1500 
z
M 2200 625 
L 2200 75 
L 4425 75 
L 4425 625 
L 2200 625 
z
" transform="scale(0.015625)"/>
       </defs>
       <use xlink:href="#SimHei-32"/>
       <use xlink:href="#SimHei-30" x="50"/>
       <use xlink:href="#SimHei-6625" x="100"/>
      </g>
     </g>
    </g>
    <g id="xtick_3">
     <g id="line2d_3">
      <path d="M 231.265563 379.54275 
L 231.265563 55.6625 
" clip-path="url(#p1a31564f43)" style="fill: none; stroke-dasharray: 5.55,2.4; stroke-dashoffset: 0; stroke: #cccccc; stroke-opacity: 0.7; stroke-width: 1.5"/>
     </g>
     <g id="text_3">
      <!-- 20夏 -->
      <g style="fill: #262626" transform="translate(213.201194 415.277837) rotate(-45) scale(0.12 -0.12)">
       <defs>
        <path id="SimHei-590f" d="M 1775 3850 
L 1775 3500 
L 4625 3500 
L 4625 3850 
L 1775 3850 
z
M 1775 3175 
L 1775 2850 
L 4625 2850 
L 4625 3175 
L 1775 3175 
z
M 1775 2550 
L 1775 2250 
L 4625 2250 
L 4625 2550 
L 1775 2550 
z
M 425 4900 
Q 850 4875 1350 4875 
L 4875 4875 
Q 5400 4875 5850 4900 
L 5850 4525 
Q 5400 4550 4900 4550 
L 3325 4550 
Q 3250 4350 3175 4125 
L 5150 4125 
Q 5125 3775 5125 3025 
Q 5125 2275 5150 1875 
L 2725 1875 
Q 2600 1700 2425 1525 
L 4775 1525 
Q 4575 1200 4350 900 
Q 4125 600 3725 300 
Q 4225 100 4712 25 
Q 5200 -50 5975 -100 
Q 5725 -375 5650 -625 
Q 4850 -525 4362 -400 
Q 3875 -275 3250 0 
Q 2650 -300 2137 -425 
Q 1625 -550 850 -650 
Q 700 -375 425 -150 
Q 900 -150 1562 -62 
Q 2225 25 2850 250 
Q 2425 475 1850 1000 
Q 1400 675 800 475 
Q 675 675 450 875 
Q 1075 1050 1487 1312 
Q 1900 1575 2150 1875 
L 1250 1875 
Q 1275 2250 1275 3012 
Q 1275 3775 1250 4125 
L 2700 4125 
Q 2750 4350 2800 4550 
L 1375 4550 
Q 850 4550 425 4525 
L 425 4900 
z
M 2250 1200 
Q 2750 675 3275 500 
Q 3775 850 4025 1200 
L 2250 1200 
z
" transform="scale(0.015625)"/>
       </defs>
       <use xlink:href="#SimHei-32"/>
       <use xlink:href="#SimHei-30" x="50"/>
       <use xlink:href="#SimHei-590f" x="100"/>
      </g>
     </g>
    </g>
    <g id="xtick_4">
     <g id="line2d_4">
      <path d="M 288.629509 379.54275 
L 288.629509 55.6625 
" clip-path="url(#p1a31564f43)" style="fill: none; stroke-dasharray: 5.55,2.4; stroke-dashoffset: 0; stroke: #cccccc; stroke-opacity: 0.7; stroke-width: 1.5"/>
     </g>
     <g id="text_4">
      <!-- 20秋 -->
      <g style="fill: #262626" transform="translate(270.565141 415.609293) rotate(-45) scale(0.12 -0.12)">
       <defs>
        <path id="SimHei-79cb" d="M 3350 2350 
Q 3100 2400 2900 2425 
Q 3125 3175 3225 3975 
Q 3450 3900 3750 3875 
Q 3650 3700 3550 3212 
Q 3450 2725 3350 2350 
z
M 6150 -250 
Q 5825 -350 5675 -625 
Q 5125 -100 4825 425 
Q 4525 950 4275 1725 
Q 4050 875 3662 325 
Q 3275 -225 2775 -650 
Q 2600 -425 2300 -300 
Q 3075 225 3462 937 
Q 3850 1650 3937 2375 
Q 4025 3100 4025 3837 
Q 4025 4575 4000 5150 
Q 4200 5150 4600 5100 
Q 4525 4850 4500 4375 
Q 4475 3900 4487 3312 
Q 4500 2725 4612 2137 
Q 4725 1550 5087 925 
Q 5450 300 6150 -250 
z
M 5300 2275 
Q 5050 2375 4825 2400 
Q 5125 3175 5225 3925 
Q 5425 3875 5750 3800 
Q 5650 3625 5537 3187 
Q 5425 2750 5300 2275 
z
M 1950 225 
Q 1950 -250 1975 -600 
L 1475 -600 
Q 1500 -275 1500 225 
L 1500 1950 
Q 1075 1125 575 425 
Q 475 700 250 875 
Q 650 1275 937 1762 
Q 1225 2250 1400 2800 
Q 725 2800 400 2775 
L 400 3225 
Q 675 3200 1500 3200 
L 1500 4250 
Q 875 4150 600 4075 
Q 500 4350 375 4525 
Q 775 4550 1500 4712 
Q 2225 4875 2650 5100 
Q 2775 4825 3000 4600 
Q 2625 4525 1950 4350 
L 1950 3200 
Q 2325 3200 2675 3225 
L 2675 2775 
Q 2300 2800 1950 2800 
L 1950 225 
z
M 1975 1975 
Q 2125 2100 2325 2275 
Q 2675 1775 2925 1375 
Q 2700 1250 2525 1100 
Q 2350 1475 1975 1975 
z
" transform="scale(0.015625)"/>
       </defs>
       <use xlink:href="#SimHei-32"/>
       <use xlink:href="#SimHei-30" x="50"/>
       <use xlink:href="#SimHei-79cb" x="100"/>
      </g>
     </g>
    </g>
    <g id="xtick_5">
     <g id="line2d_5">
      <path d="M 345.993456 379.54275 
L 345.993456 55.6625 
" clip-path="url(#p1a31564f43)" style="fill: none; stroke-dasharray: 5.55,2.4; stroke-dashoffset: 0; stroke: #cccccc; stroke-opacity: 0.7; stroke-width: 1.5"/>
     </g>
     <g id="text_5">
      <!-- 20冬 -->
      <g style="fill: #262626" transform="translate(327.929087 415.70873) rotate(-45) scale(0.12 -0.12)">
       <use xlink:href="#SimHei-32"/>
       <use xlink:href="#SimHei-30" x="50"/>
       <use xlink:href="#SimHei-51ac" x="100"/>
      </g>
     </g>
    </g>
    <g id="xtick_6">
     <g id="line2d_6">
      <path d="M 403.357402 379.54275 
L 403.357402 55.6625 
" clip-path="url(#p1a31564f43)" style="fill: none; stroke-dasharray: 5.55,2.4; stroke-dashoffset: 0; stroke: #cccccc; stroke-opacity: 0.7; stroke-width: 1.5"/>
     </g>
     <g id="text_6">
      <!-- 21春 -->
      <g style="fill: #262626" transform="translate(385.293033 415.775021) rotate(-45) scale(0.12 -0.12)">
       <use xlink:href="#SimHei-32"/>
       <use xlink:href="#SimHei-31" x="50"/>
       <use xlink:href="#SimHei-6625" x="100"/>
      </g>
     </g>
    </g>
    <g id="xtick_7">
     <g id="line2d_7">
      <path d="M 460.721348 379.54275 
L 460.721348 55.6625 
" clip-path="url(#p1a31564f43)" style="fill: none; stroke-dasharray: 5.55,2.4; stroke-dashoffset: 0; stroke: #cccccc; stroke-opacity: 0.7; stroke-width: 1.5"/>
     </g>
     <g id="text_7">
      <!-- 21夏 -->
      <g style="fill: #262626" transform="translate(442.65698 415.277837) rotate(-45) scale(0.12 -0.12)">
       <use xlink:href="#SimHei-32"/>
       <use xlink:href="#SimHei-31" x="50"/>
       <use xlink:href="#SimHei-590f" x="100"/>
      </g>
     </g>
    </g>
    <g id="xtick_8">
     <g id="line2d_8">
      <path d="M 518.085294 379.54275 
L 518.085294 55.6625 
" clip-path="url(#p1a31564f43)" style="fill: none; stroke-dasharray: 5.55,2.4; stroke-dashoffset: 0; stroke: #cccccc; stroke-opacity: 0.7; stroke-width: 1.5"/>
     </g>
     <g id="text_8">
      <!-- 21秋 -->
      <g style="fill: #262626" transform="translate(500.020926 415.609293) rotate(-45) scale(0.12 -0.12)">
       <use xlink:href="#SimHei-32"/>
       <use xlink:href="#SimHei-31" x="50"/>
       <use xlink:href="#SimHei-79cb" x="100"/>
      </g>
     </g>
    </g>
    <g id="xtick_9">
     <g id="line2d_9">
      <path d="M 575.449241 379.54275 
L 575.449241 55.6625 
" clip-path="url(#p1a31564f43)" style="fill: none; stroke-dasharray: 5.55,2.4; stroke-dashoffset: 0; stroke: #cccccc; stroke-opacity: 0.7; stroke-width: 1.5"/>
     </g>
     <g id="text_9">
      <!-- 22春 -->
      <g style="fill: #262626" transform="translate(557.384872 415.775021) rotate(-45) scale(0.12 -0.12)">
       <use xlink:href="#SimHei-32"/>
       <use xlink:href="#SimHei-32" x="50"/>
       <use xlink:href="#SimHei-6625" x="100"/>
      </g>
     </g>
    </g>
    <g id="xtick_10">
     <g id="line2d_10">
      <path d="M 632.813187 379.54275 
L 632.813187 55.6625 
" clip-path="url(#p1a31564f43)" style="fill: none; stroke-dasharray: 5.55,2.4; stroke-dashoffset: 0; stroke: #cccccc; stroke-opacity: 0.7; stroke-width: 1.5"/>
     </g>
     <g id="text_10">
      <!-- 22夏 -->
      <g style="fill: #262626" transform="translate(614.748818 415.277837) rotate(-45) scale(0.12 -0.12)">
       <use xlink:href="#SimHei-32"/>
       <use xlink:href="#SimHei-32" x="50"/>
       <use xlink:href="#SimHei-590f" x="100"/>
      </g>
     </g>
    </g>
    <g id="xtick_11">
     <g id="line2d_11">
      <path d="M 690.177133 379.54275 
L 690.177133 55.6625 
" clip-path="url(#p1a31564f43)" style="fill: none; stroke-dasharray: 5.55,2.4; stroke-dashoffset: 0; stroke: #cccccc; stroke-opacity: 0.7; stroke-width: 1.5"/>
     </g>
     <g id="text_11">
      <!-- 22秋 -->
      <g style="fill: #262626" transform="translate(672.112765 415.609293) rotate(-45) scale(0.12 -0.12)">
       <use xlink:href="#SimHei-32"/>
       <use xlink:href="#SimHei-32" x="50"/>
       <use xlink:href="#SimHei-79cb" x="100"/>
      </g>
     </g>
    </g>
    <g id="xtick_12">
     <g id="line2d_12">
      <path d="M 747.54108 379.54275 
L 747.54108 55.6625 
" clip-path="url(#p1a31564f43)" style="fill: none; stroke-dasharray: 5.55,2.4; stroke-dashoffset: 0; stroke: #cccccc; stroke-opacity: 0.7; stroke-width: 1.5"/>
     </g>
     <g id="text_12">
      <!-- 22冬 -->
      <g style="fill: #262626" transform="translate(729.476711 415.70873) rotate(-45) scale(0.12 -0.12)">
       <use xlink:href="#SimHei-32"/>
       <use xlink:href="#SimHei-32" x="50"/>
       <use xlink:href="#SimHei-51ac" x="100"/>
      </g>
     </g>
    </g>
    <g id="text_13">
     <!-- 时间 -->
     <g style="fill: #262626" transform="translate(418.039375 442.806327) scale(0.14 -0.14)">
      <defs>
       <path id="SimHei-65f6" d="M 2800 3825 
Q 3550 3800 4775 3800 
Q 4775 4550 4750 5200 
L 5275 5200 
Q 5250 4550 5250 3800 
Q 5600 3800 6000 3825 
L 6000 3350 
Q 5600 3375 5250 3375 
L 5250 25 
Q 5250 -350 4962 -450 
Q 4675 -550 4225 -600 
Q 4225 -300 3975 -25 
Q 4425 -75 4600 -50 
Q 4775 -25 4775 275 
L 4775 3375 
Q 3600 3375 2800 3350 
L 2800 3825 
z
M 3075 2475 
Q 3300 2575 3525 2700 
Q 3825 2175 4125 1575 
Q 3875 1500 3625 1350 
Q 3425 1950 3075 2475 
z
M 625 4550 
L 2575 4550 
Q 2550 3650 2550 2375 
Q 2550 1100 2575 375 
L 2075 375 
L 2075 850 
L 1125 850 
L 1125 25 
L 625 25 
Q 650 1175 650 2337 
Q 650 3500 625 4550 
z
M 1125 4125 
L 1125 2950 
L 2075 2950 
L 2075 4125 
L 1125 4125 
z
M 1125 2525 
L 1125 1275 
L 2075 1275 
L 2075 2525 
L 1125 2525 
z
" transform="scale(0.015625)"/>
       <path id="SimHei-95f4" d="M 1225 4950 
Q 1500 5150 1650 5225 
Q 1875 4925 2300 4300 
Q 2050 4175 1825 4025 
Q 1575 4525 1225 4950 
z
M 1250 500 
Q 1250 0 1275 -500 
L 775 -500 
Q 800 -25 800 525 
L 800 3100 
Q 800 3625 775 3975 
L 1275 3975 
Q 1250 3600 1250 3250 
L 1250 500 
z
M 2725 4825 
Q 3175 4800 3700 4800 
L 5600 4800 
Q 5575 4350 5575 3875 
L 5575 250 
Q 5600 -300 5287 -425 
Q 4975 -550 4600 -600 
Q 4575 -300 4400 -25 
Q 4850 -50 4987 25 
Q 5125 100 5125 350 
L 5125 4400 
L 3725 4400 
Q 3175 4400 2725 4375 
L 2725 4825 
z
M 2500 3100 
L 2500 2325 
L 3875 2325 
L 3875 3100 
L 2500 3100 
z
M 2500 1925 
L 2500 1025 
L 3875 1025 
L 3875 1925 
L 2500 1925 
z
M 2025 3500 
L 4350 3500 
Q 4325 3050 4325 2700 
L 4325 1400 
Q 4325 1075 4350 625 
L 2025 625 
Q 2050 1075 2050 1425 
L 2050 2700 
Q 2050 3050 2025 3500 
z
" transform="scale(0.015625)"/>
      </defs>
      <use xlink:href="#SimHei-65f6"/>
      <use xlink:href="#SimHei-95f4" x="100"/>
     </g>
    </g>
   </g>
   <g id="matplotlib.axis_2">
    <g id="ytick_1">
     <g id="line2d_13">
      <path d="M 84.9875 364.82092 
L 779.09125 364.82092 
" clip-path="url(#p1a31564f43)" style="fill: none; stroke-dasharray: 5.55,2.4; stroke-dashoffset: 0; stroke: #cccccc; stroke-opacity: 0.7; stroke-width: 1.5"/>
     </g>
     <g id="line2d_14">
      <defs>
       <path id="m6d417b716b" d="M 0 0 
L -9 0 
" style="stroke: #262626; stroke-width: 1.875"/>
      </defs>
      <g>
       <use xlink:href="#m6d417b716b" x="84.9875" y="364.82092" style="fill: #262626; stroke: #262626; stroke-width: 1.875"/>
      </g>
     </g>
     <g id="text_14">
      <!-- 0.0 -->
      <g style="fill: #1f77b4" transform="translate(47.7375 370.460569) scale(0.165 -0.165)">
       <defs>
        <path id="SimHei-2e" d="M 1100 100 
L 525 100 
L 525 650 
L 1100 650 
L 1100 100 
z
" transform="scale(0.015625)"/>
       </defs>
       <use xlink:href="#SimHei-30"/>
       <use xlink:href="#SimHei-2e" x="50"/>
       <use xlink:href="#SimHei-30" x="100"/>
      </g>
     </g>
    </g>
    <g id="ytick_2">
     <g id="line2d_15">
      <path d="M 84.9875 305.933602 
L 779.09125 305.933602 
" clip-path="url(#p1a31564f43)" style="fill: none; stroke-dasharray: 5.55,2.4; stroke-dashoffset: 0; stroke: #cccccc; stroke-opacity: 0.7; stroke-width: 1.5"/>
     </g>
     <g id="line2d_16">
      <g>
       <use xlink:href="#m6d417b716b" x="84.9875" y="305.933602" style="fill: #262626; stroke: #262626; stroke-width: 1.875"/>
      </g>
     </g>
     <g id="text_15">
      <!-- 0.2 -->
      <g style="fill: #1f77b4" transform="translate(47.7375 311.573251) scale(0.165 -0.165)">
       <use xlink:href="#SimHei-30"/>
       <use xlink:href="#SimHei-2e" x="50"/>
       <use xlink:href="#SimHei-32" x="100"/>
      </g>
     </g>
    </g>
    <g id="ytick_3">
     <g id="line2d_17">
      <path d="M 84.9875 247.046284 
L 779.09125 247.046284 
" clip-path="url(#p1a31564f43)" style="fill: none; stroke-dasharray: 5.55,2.4; stroke-dashoffset: 0; stroke: #cccccc; stroke-opacity: 0.7; stroke-width: 1.5"/>
     </g>
     <g id="line2d_18">
      <g>
       <use xlink:href="#m6d417b716b" x="84.9875" y="247.046284" style="fill: #262626; stroke: #262626; stroke-width: 1.875"/>
      </g>
     </g>
     <g id="text_16">
      <!-- 0.4 -->
      <g style="fill: #1f77b4" transform="translate(47.7375 252.685933) scale(0.165 -0.165)">
       <defs>
        <path id="SimHei-34" d="M 2975 1200 
L 2450 1200 
L 2450 100 
L 1875 100 
L 1875 1200 
L 200 1200 
L 200 1675 
L 1875 4425 
L 2450 4425 
L 2450 1675 
L 2975 1675 
L 2975 1200 
z
M 1875 1675 
L 1875 3525 
L 750 1675 
L 1875 1675 
z
" transform="scale(0.015625)"/>
       </defs>
       <use xlink:href="#SimHei-30"/>
       <use xlink:href="#SimHei-2e" x="50"/>
       <use xlink:href="#SimHei-34" x="100"/>
      </g>
     </g>
    </g>
    <g id="ytick_4">
     <g id="line2d_19">
      <path d="M 84.9875 188.158966 
L 779.09125 188.158966 
" clip-path="url(#p1a31564f43)" style="fill: none; stroke-dasharray: 5.55,2.4; stroke-dashoffset: 0; stroke: #cccccc; stroke-opacity: 0.7; stroke-width: 1.5"/>
     </g>
     <g id="line2d_20">
      <g>
       <use xlink:href="#m6d417b716b" x="84.9875" y="188.158966" style="fill: #262626; stroke: #262626; stroke-width: 1.875"/>
      </g>
     </g>
     <g id="text_17">
      <!-- 0.6 -->
      <g style="fill: #1f77b4" transform="translate(47.7375 193.798614) scale(0.165 -0.165)">
       <defs>
        <path id="SimHei-36" d="M 2850 1550 
Q 2850 850 2550 450 
Q 2250 50 1650 50 
Q 1050 50 700 550 
Q 350 1050 350 2175 
Q 350 3200 712 3812 
Q 1075 4425 1750 4425 
Q 2225 4425 2512 4075 
Q 2800 3725 2800 3300 
L 2225 3300 
Q 2225 3550 2087 3750 
Q 1950 3950 1725 3950 
Q 1350 3950 1150 3562 
Q 950 3175 925 2375 
Q 1100 2700 1300 2825 
Q 1500 2950 1775 2950 
Q 2250 2950 2550 2575 
Q 2850 2200 2850 1550 
z
M 2250 1550 
Q 2250 2000 2100 2250 
Q 1950 2500 1675 2500 
Q 1350 2500 1162 2250 
Q 975 2000 975 1650 
Q 975 1100 1162 800 
Q 1350 500 1675 500 
Q 1900 500 2075 725 
Q 2250 950 2250 1550 
z
" transform="scale(0.015625)"/>
       </defs>
       <use xlink:href="#SimHei-30"/>
       <use xlink:href="#SimHei-2e" x="50"/>
       <use xlink:href="#SimHei-36" x="100"/>
      </g>
     </g>
    </g>
    <g id="ytick_5">
     <g id="line2d_21">
      <path d="M 84.9875 129.271648 
L 779.09125 129.271648 
" clip-path="url(#p1a31564f43)" style="fill: none; stroke-dasharray: 5.55,2.4; stroke-dashoffset: 0; stroke: #cccccc; stroke-opacity: 0.7; stroke-width: 1.5"/>
     </g>
     <g id="line2d_22">
      <g>
       <use xlink:href="#m6d417b716b" x="84.9875" y="129.271648" style="fill: #262626; stroke: #262626; stroke-width: 1.875"/>
      </g>
     </g>
     <g id="text_18">
      <!-- 0.8 -->
      <g style="fill: #1f77b4" transform="translate(47.7375 134.911296) scale(0.165 -0.165)">
       <defs>
        <path id="SimHei-38" d="M 2875 1325 
Q 2875 700 2525 375 
Q 2175 50 1575 50 
Q 975 50 625 375 
Q 275 700 275 1325 
Q 275 1650 475 1912 
Q 675 2175 1025 2300 
Q 725 2425 562 2650 
Q 400 2875 400 3225 
Q 400 3775 750 4100 
Q 1100 4425 1575 4425 
Q 2050 4425 2400 4100 
Q 2750 3775 2750 3225 
Q 2750 2875 2587 2650 
Q 2425 2425 2125 2300 
Q 2475 2175 2675 1912 
Q 2875 1650 2875 1325 
z
M 2200 3225 
Q 2200 3625 2025 3800 
Q 1850 3975 1575 3975 
Q 1300 3975 1125 3800 
Q 950 3625 950 3225 
Q 950 2825 1137 2662 
Q 1325 2500 1575 2500 
Q 1825 2500 2012 2662 
Q 2200 2825 2200 3225 
z
M 2300 1325 
Q 2300 1675 2112 1875 
Q 1925 2075 1575 2075 
Q 1225 2075 1037 1875 
Q 850 1675 850 1325 
Q 850 925 1050 712 
Q 1250 500 1575 500 
Q 1900 500 2100 712 
Q 2300 925 2300 1325 
z
" transform="scale(0.015625)"/>
       </defs>
       <use xlink:href="#SimHei-30"/>
       <use xlink:href="#SimHei-2e" x="50"/>
       <use xlink:href="#SimHei-38" x="100"/>
      </g>
     </g>
    </g>
    <g id="ytick_6">
     <g id="line2d_23">
      <path d="M 84.9875 70.38433 
L 779.09125 70.38433 
" clip-path="url(#p1a31564f43)" style="fill: none; stroke-dasharray: 5.55,2.4; stroke-dashoffset: 0; stroke: #cccccc; stroke-opacity: 0.7; stroke-width: 1.5"/>
     </g>
     <g id="line2d_24">
      <g>
       <use xlink:href="#m6d417b716b" x="84.9875" y="70.38433" style="fill: #262626; stroke: #262626; stroke-width: 1.875"/>
      </g>
     </g>
     <g id="text_19">
      <!-- 1.0 -->
      <g style="fill: #1f77b4" transform="translate(47.7375 76.023978) scale(0.165 -0.165)">
       <use xlink:href="#SimHei-31"/>
       <use xlink:href="#SimHei-2e" x="50"/>
       <use xlink:href="#SimHei-30" x="100"/>
      </g>
     </g>
    </g>
    <g id="text_20">
     <!-- 无机氮(μg/L) -->
     <g style="fill: #1f77b4" transform="translate(30.932812 263.102625) rotate(-90) scale(0.14 -0.14)">
      <defs>
       <path id="SimHei-65e0" d="M 1150 4825 
Q 1550 4800 2050 4800 
L 4350 4800 
Q 4925 4800 5325 4825 
L 5325 4375 
Q 4925 4400 4350 4400 
L 3200 4400 
Q 3200 3550 3150 2875 
L 5025 2875 
Q 5475 2875 5850 2900 
L 5850 2450 
Q 5450 2475 5050 2475 
L 3975 2475 
L 3975 475 
Q 3975 150 4325 150 
L 5150 150 
Q 5400 150 5425 925 
Q 5700 750 6000 700 
Q 5875 -250 5400 -250 
L 4100 -250 
Q 3500 -250 3500 350 
L 3500 2475 
L 3100 2475 
Q 2925 1500 2625 987 
Q 2325 475 1962 162 
Q 1600 -150 875 -575 
Q 750 -300 450 -150 
Q 1025 100 1412 387 
Q 1800 675 2100 1100 
Q 2400 1525 2625 2475 
L 1550 2475 
Q 950 2475 650 2450 
L 650 2900 
Q 975 2875 1550 2875 
L 2675 2875 
Q 2725 3575 2725 4400 
L 2050 4400 
Q 1550 4400 1150 4375 
L 1150 4825 
z
" transform="scale(0.015625)"/>
       <path id="SimHei-673a" d="M 1800 2425 
Q 1950 2550 2150 2700 
Q 2550 2150 2750 1850 
Q 2575 1700 2325 1525 
Q 2175 1850 1800 2400 
L 1800 575 
Q 1800 75 1825 -550 
L 1300 -550 
Q 1325 75 1325 575 
L 1325 2175 
Q 1200 1800 1050 1462 
Q 900 1125 625 700 
Q 400 950 225 1100 
Q 425 1325 750 1975 
Q 1075 2625 1250 3425 
L 1100 3425 
Q 750 3425 400 3375 
L 400 3850 
Q 750 3825 1075 3825 
L 1325 3825 
L 1325 4325 
Q 1325 4725 1300 5075 
L 1850 5075 
Q 1800 4825 1800 4325 
L 1800 3825 
L 2075 3825 
Q 2350 3825 2700 3850 
L 2700 3400 
Q 2150 3425 1800 3425 
L 1800 2425 
z
M 3175 4750 
L 5125 4750 
Q 5100 4050 5100 3550 
L 5100 300 
Q 5100 -25 5200 -50 
Q 5300 -75 5412 -62 
Q 5525 -50 5562 112 
Q 5600 275 5600 600 
Q 5800 475 6100 400 
Q 6000 -125 5875 -300 
Q 5750 -475 5550 -487 
Q 5350 -500 5100 -487 
Q 4850 -475 4725 -337 
Q 4600 -200 4625 225 
L 4625 4325 
L 3675 4325 
Q 3675 2900 3637 2112 
Q 3600 1325 3412 687 
Q 3225 50 2675 -600 
Q 2550 -450 2225 -200 
Q 2575 75 2787 475 
Q 3000 875 3075 1300 
Q 3150 1725 3175 2200 
Q 3200 2675 3200 3412 
Q 3200 4150 3175 4750 
z
" transform="scale(0.015625)"/>
       <path id="SimHei-6c2e" d="M 1375 2750 
Q 1600 2675 1850 2625 
Q 1700 2325 1500 1875 
Q 1300 1950 1075 2025 
Q 1250 2325 1375 2750 
z
M 3650 2775 
Q 3875 2650 4075 2575 
Q 3950 2450 3862 2325 
Q 3775 2200 3625 2000 
Q 3450 2125 3275 2200 
Q 3500 2425 3650 2775 
z
M 1475 975 
Q 1625 900 1875 825 
Q 1750 575 1550 225 
Q 1400 325 1150 400 
Q 1325 625 1475 975 
z
M 3400 1050 
Q 3575 950 3825 850 
Q 3650 700 3400 375 
Q 3200 475 3025 550 
Q 3300 875 3400 1050 
z
M 2400 2775 
Q 2625 2700 2900 2650 
Q 2800 2475 2700 2100 
Q 3125 1975 3475 1850 
Q 3825 1725 4425 1450 
Q 4225 1300 4100 1025 
Q 3850 1200 3450 1412 
Q 3050 1625 2525 1775 
Q 2250 1475 1887 1325 
Q 1525 1175 850 975 
Q 775 1225 575 1425 
Q 1775 1575 2050 1925 
Q 2325 2275 2400 2775 
z
M 2325 1325 
Q 2575 1275 2875 1225 
Q 2675 750 2600 475 
Q 3075 325 3437 162 
Q 3800 0 4350 -250 
Q 4175 -425 4050 -675 
Q 3750 -450 3362 -250 
Q 2975 -50 2425 150 
Q 2175 -150 1775 -337 
Q 1375 -525 825 -675 
Q 700 -425 525 -200 
Q 1625 -50 1937 250 
Q 2250 550 2325 1325 
z
M 1650 5250 
Q 1925 5075 2200 5000 
Q 2050 4875 1925 4725 
L 4700 4725 
Q 5225 4725 5675 4775 
L 5675 4350 
Q 5250 4375 4650 4375 
L 1675 4375 
Q 1250 3875 625 3400 
Q 475 3600 225 3775 
Q 625 3975 1012 4350 
Q 1400 4725 1650 5250 
z
M 1600 4025 
Q 2050 4000 2500 4000 
L 4225 4000 
Q 4625 4000 5150 4025 
L 5150 3625 
Q 4625 3650 4225 3650 
L 2500 3650 
Q 2050 3650 1600 3625 
L 1600 4025 
z
M 5650 675 
Q 5875 450 6125 375 
Q 5950 -325 5725 -487 
Q 5500 -650 5175 -275 
Q 4850 100 4750 887 
Q 4650 1675 4650 2950 
L 1775 2950 
Q 1425 2950 975 2925 
L 975 3325 
Q 1425 3300 1775 3300 
L 5125 3300 
Q 5075 2275 5125 1462 
Q 5175 650 5375 287 
Q 5575 -75 5650 675 
z
" transform="scale(0.015625)"/>
       <path id="SimHei-28" d="M 3000 -225 
L 2725 -500 
Q 2100 100 1787 750 
Q 1475 1400 1475 2225 
Q 1475 3050 1787 3700 
Q 2100 4350 2725 4975 
L 3000 4700 
Q 2425 4150 2137 3562 
Q 1850 2975 1850 2225 
Q 1850 1475 2137 887 
Q 2425 300 3000 -225 
z
" transform="scale(0.015625)"/>
       <path id="SimHei-3bc" d="M 2250 875 
L 2250 225 
Q 2250 25 2625 50 
L 2625 -100 
L 1500 -100 
L 1500 50 
Q 1875 25 1875 225 
L 1875 2975 
Q 1900 3150 1625 3150 
L 1625 3275 
L 2250 3275 
L 2250 1275 
Q 2325 925 2787 925 
Q 3250 925 3525 1400 
L 3525 3000 
Q 3525 3150 3325 3150 
L 3325 3275 
L 3900 3275 
L 3900 1350 
Q 3875 975 4000 1000 
Q 4125 1025 4250 1125 
Q 4375 1225 4412 1200 
Q 4450 1175 4262 887 
Q 4075 600 3800 662 
Q 3525 725 3525 1050 
Q 3075 575 2712 625 
Q 2350 675 2250 875 
z
" transform="scale(0.015625)"/>
       <path id="SimHei-67" d="M 3000 2475 
Q 2825 2525 2662 2537 
Q 2500 2550 2325 2500 
Q 2400 2425 2450 2312 
Q 2500 2200 2500 1975 
Q 2500 1550 2212 1275 
Q 1925 1000 1500 1000 
Q 1400 1000 1237 1037 
Q 1075 1075 975 1125 
Q 900 1075 875 1025 
Q 850 975 850 900 
Q 850 775 1025 712 
Q 1200 650 1650 650 
Q 2375 650 2637 450 
Q 2900 250 2900 -50 
Q 2900 -450 2512 -637 
Q 2125 -825 1600 -825 
Q 925 -825 600 -650 
Q 275 -475 275 -175 
Q 275 -25 400 125 
Q 525 275 725 375 
Q 575 450 487 562 
Q 400 675 400 850 
Q 400 1000 512 1112 
Q 625 1225 775 1300 
Q 650 1425 575 1600 
Q 500 1775 500 1975 
Q 500 2400 787 2675 
Q 1075 2950 1500 2950 
Q 1725 2950 1887 2887 
Q 2050 2825 2175 2700 
Q 2375 2850 2575 2912 
Q 2775 2975 3000 2950 
L 3000 2475 
z
M 2000 1975 
Q 2000 2225 1875 2375 
Q 1750 2525 1500 2525 
Q 1250 2525 1125 2375 
Q 1000 2225 1000 1975 
Q 1000 1725 1125 1575 
Q 1250 1425 1500 1425 
Q 1750 1425 1875 1575 
Q 2000 1725 2000 1975 
z
M 2425 -100 
Q 2425 0 2312 100 
Q 2200 200 1750 200 
Q 1650 200 1475 212 
Q 1300 225 1075 250 
Q 875 175 800 75 
Q 725 -25 725 -125 
Q 725 -275 925 -375 
Q 1125 -475 1625 -475 
Q 2050 -475 2237 -362 
Q 2425 -250 2425 -100 
z
" transform="scale(0.015625)"/>
       <path id="SimHei-2f" d="M 3025 4525 
L 375 -200 
L 125 -50 
L 2775 4675 
L 3025 4525 
z
" transform="scale(0.015625)"/>
       <path id="SimHei-4c" d="M 2925 100 
L 325 100 
L 325 4375 
L 900 4375 
L 900 575 
L 2925 575 
L 2925 100 
z
" transform="scale(0.015625)"/>
       <path id="SimHei-29" d="M 1700 2225 
Q 1700 1400 1387 750 
Q 1075 100 450 -500 
L 175 -225 
Q 750 300 1037 887 
Q 1325 1475 1325 2225 
Q 1325 2975 1037 3562 
Q 750 4150 175 4700 
L 450 4975 
Q 1075 4350 1387 3700 
Q 1700 3050 1700 2225 
z
" transform="scale(0.015625)"/>
      </defs>
      <use xlink:href="#SimHei-65e0"/>
      <use xlink:href="#SimHei-673a" x="100"/>
      <use xlink:href="#SimHei-6c2e" x="200"/>
      <use xlink:href="#SimHei-28" x="300"/>
      <use xlink:href="#SimHei-3bc" x="350"/>
      <use xlink:href="#SimHei-67" x="450"/>
      <use xlink:href="#SimHei-2f" x="500"/>
      <use xlink:href="#SimHei-4c" x="550"/>
      <use xlink:href="#SimHei-29" x="600"/>
     </g>
    </g>
   </g>
   <g id="PolyCollection_1"/>
   <g id="PolyCollection_2">
    <defs>
     <path id="m95605fef1e" d="M 116.53767 -139.17908 
L 116.53767 -205.958225 
L 173.901617 -211.024399 
L 231.265563 -230.66598 
L 288.629509 -247.529546 
L 345.993456 -160.396091 
L 403.357402 -226.436971 
L 460.721348 -139.17908 
L 518.085294 -171.653482 
L 575.449241 -433.61567 
L 632.813187 -374.7954 
L 690.177133 -285.917038 
L 747.54108 -193.571614 
L 747.54108 -139.17908 
L 747.54108 -139.17908 
L 690.177133 -139.17908 
L 632.813187 -139.17908 
L 575.449241 -139.17908 
L 518.085294 -139.17908 
L 460.721348 -139.17908 
L 403.357402 -139.17908 
L 345.993456 -139.17908 
L 288.629509 -139.17908 
L 231.265563 -139.17908 
L 173.901617 -139.17908 
L 116.53767 -139.17908 
z
" style="stroke: #1f77b4; stroke-opacity: 0.15; stroke-width: 1.5"/>
    </defs>
    <g clip-path="url(#p1a31564f43)">
     <use xlink:href="#m95605fef1e" x="0" y="504" style="fill: #1f77b4; fill-opacity: 0.15; stroke: #1f77b4; stroke-opacity: 0.15; stroke-width: 1.5"/>
    </g>
   </g>
   <g id="line2d_25">
    <path d="M 116.53767 298.041775 
L 173.901617 292.975601 
L 231.265563 273.33402 
L 288.629509 256.470454 
L 345.993456 343.603909 
L 403.357402 277.563029 
L 460.721348 364.82092 
L 518.085294 332.346518 
L 575.449241 70.38433 
L 632.813187 129.2046 
L 690.177133 218.082962 
L 747.54108 310.428386 
" clip-path="url(#p1a31564f43)" style="fill: none; stroke: #1f77b4; stroke-width: 2.5; stroke-linecap: round"/>
    <defs>
     <path id="md697e17d2a" d="M 0 4.5 
C 1.193414 4.5 2.338109 4.025852 3.181981 3.181981 
C 4.025852 2.338109 4.5 1.193414 4.5 0 
C 4.5 -1.193414 4.025852 -2.338109 3.181981 -3.181981 
C 2.338109 -4.025852 1.193414 -4.5 0 -4.5 
C -1.193414 -4.5 -2.338109 -4.025852 -3.181981 -3.181981 
C -4.025852 -2.338109 -4.5 -1.193414 -4.5 0 
C -4.5 1.193414 -4.025852 2.338109 -3.181981 3.181981 
C -2.338109 4.025852 -1.193414 4.5 0 4.5 
z
" style="stroke: #ffffff; stroke-width: 0.75"/>
    </defs>
    <g clip-path="url(#p1a31564f43)">
     <use xlink:href="#md697e17d2a" x="116.53767" y="298.041775" style="fill: #1f77b4; stroke: #ffffff; stroke-width: 0.75"/>
     <use xlink:href="#md697e17d2a" x="173.901617" y="292.975601" style="fill: #1f77b4; stroke: #ffffff; stroke-width: 0.75"/>
     <use xlink:href="#md697e17d2a" x="231.265563" y="273.33402" style="fill: #1f77b4; stroke: #ffffff; stroke-width: 0.75"/>
     <use xlink:href="#md697e17d2a" x="288.629509" y="256.470454" style="fill: #1f77b4; stroke: #ffffff; stroke-width: 0.75"/>
     <use xlink:href="#md697e17d2a" x="345.993456" y="343.603909" style="fill: #1f77b4; stroke: #ffffff; stroke-width: 0.75"/>
     <use xlink:href="#md697e17d2a" x="403.357402" y="277.563029" style="fill: #1f77b4; stroke: #ffffff; stroke-width: 0.75"/>
     <use xlink:href="#md697e17d2a" x="460.721348" y="364.82092" style="fill: #1f77b4; stroke: #ffffff; stroke-width: 0.75"/>
     <use xlink:href="#md697e17d2a" x="518.085294" y="332.346518" style="fill: #1f77b4; stroke: #ffffff; stroke-width: 0.75"/>
     <use xlink:href="#md697e17d2a" x="575.449241" y="70.38433" style="fill: #1f77b4; stroke: #ffffff; stroke-width: 0.75"/>
     <use xlink:href="#md697e17d2a" x="632.813187" y="129.2046" style="fill: #1f77b4; stroke: #ffffff; stroke-width: 0.75"/>
     <use xlink:href="#md697e17d2a" x="690.177133" y="218.082962" style="fill: #1f77b4; stroke: #ffffff; stroke-width: 0.75"/>
     <use xlink:href="#md697e17d2a" x="747.54108" y="310.428386" style="fill: #1f77b4; stroke: #ffffff; stroke-width: 0.75"/>
    </g>
   </g>
   <g id="patch_3">
    <path d="M 84.9875 379.54275 
L 84.9875 55.6625 
" style="fill: none; stroke: #cccccc; stroke-width: 1.875; stroke-linejoin: miter; stroke-linecap: square"/>
   </g>
   <g id="patch_4">
    <path d="M 779.09125 379.54275 
L 779.09125 55.6625 
" style="fill: none; stroke: #cccccc; stroke-width: 1.875; stroke-linejoin: miter; stroke-linecap: square"/>
   </g>
   <g id="patch_5">
    <path d="M 84.9875 379.54275 
L 779.09125 379.54275 
" style="fill: none; stroke: #cccccc; stroke-width: 1.875; stroke-linejoin: miter; stroke-linecap: square"/>
   </g>
   <g id="patch_6">
    <path d="M 84.9875 55.6625 
L 779.09125 55.6625 
" style="fill: none; stroke: #cccccc; stroke-width: 1.875; stroke-linejoin: miter; stroke-linecap: square"/>
   </g>
   <g id="text_21">
    <!-- 0.23 -->
    <g style="fill: #1f77b4" transform="translate(106.53767 282.030883) scale(0.1 -0.1)">
     <defs>
      <path id="SimHei-33" d="M 2825 1300 
Q 2825 725 2462 387 
Q 2100 50 1550 50 
Q 1000 50 637 387 
Q 275 725 275 1425 
L 850 1425 
Q 850 950 1037 737 
Q 1225 525 1550 525 
Q 1875 525 2050 725 
Q 2225 925 2225 1350 
Q 2225 1700 2037 1900 
Q 1850 2100 1375 2100 
L 1375 2525 
Q 1775 2525 1962 2725 
Q 2150 2925 2150 3325 
Q 2150 3625 2012 3800 
Q 1875 3975 1575 3975 
Q 1275 3975 1112 3762 
Q 950 3550 925 3150 
L 375 3150 
Q 425 3725 737 4075 
Q 1050 4425 1575 4425 
Q 2125 4425 2425 4112 
Q 2725 3800 2725 3350 
Q 2725 2925 2575 2687 
Q 2425 2450 2075 2325 
Q 2425 2250 2625 1975 
Q 2825 1700 2825 1300 
z
" transform="scale(0.015625)"/>
     </defs>
     <use xlink:href="#SimHei-30"/>
     <use xlink:href="#SimHei-2e" x="50"/>
     <use xlink:href="#SimHei-32" x="100"/>
     <use xlink:href="#SimHei-33" x="150"/>
    </g>
   </g>
   <g id="text_22">
    <!-- 0.24 -->
    <g style="fill: #1f77b4" transform="translate(163.901617 276.964709) scale(0.1 -0.1)">
     <use xlink:href="#SimHei-30"/>
     <use xlink:href="#SimHei-2e" x="50"/>
     <use xlink:href="#SimHei-32" x="100"/>
     <use xlink:href="#SimHei-34" x="150"/>
    </g>
   </g>
   <g id="text_23">
    <!-- 0.31 -->
    <g style="fill: #1f77b4" transform="translate(221.265563 257.323128) scale(0.1 -0.1)">
     <use xlink:href="#SimHei-30"/>
     <use xlink:href="#SimHei-2e" x="50"/>
     <use xlink:href="#SimHei-33" x="100"/>
     <use xlink:href="#SimHei-31" x="150"/>
    </g>
   </g>
   <g id="text_24">
    <!-- 0.37 -->
    <g style="fill: #1f77b4" transform="translate(278.629509 240.459562) scale(0.1 -0.1)">
     <defs>
      <path id="SimHei-37" d="M 2775 3850 
L 1600 100 
L 1025 100 
L 2225 3900 
L 400 3900 
L 400 4375 
L 2775 4375 
L 2775 3850 
z
" transform="scale(0.015625)"/>
     </defs>
     <use xlink:href="#SimHei-30"/>
     <use xlink:href="#SimHei-2e" x="50"/>
     <use xlink:href="#SimHei-33" x="100"/>
     <use xlink:href="#SimHei-37" x="150"/>
    </g>
   </g>
   <g id="text_25">
    <!-- 0.07 -->
    <g style="fill: #1f77b4" transform="translate(335.993456 327.593017) scale(0.1 -0.1)">
     <use xlink:href="#SimHei-30"/>
     <use xlink:href="#SimHei-2e" x="50"/>
     <use xlink:href="#SimHei-30" x="100"/>
     <use xlink:href="#SimHei-37" x="150"/>
    </g>
   </g>
   <g id="text_26">
    <!-- 0.30 -->
    <g style="fill: #1f77b4" transform="translate(393.357402 261.552137) scale(0.1 -0.1)">
     <use xlink:href="#SimHei-30"/>
     <use xlink:href="#SimHei-2e" x="50"/>
     <use xlink:href="#SimHei-33" x="100"/>
     <use xlink:href="#SimHei-30" x="150"/>
    </g>
   </g>
   <g id="text_27">
    <!-- 0.00 -->
    <g style="fill: #1f77b4" transform="translate(450.721348 348.810028) scale(0.1 -0.1)">
     <use xlink:href="#SimHei-30"/>
     <use xlink:href="#SimHei-2e" x="50"/>
     <use xlink:href="#SimHei-30" x="100"/>
     <use xlink:href="#SimHei-30" x="150"/>
    </g>
   </g>
   <g id="text_28">
    <!-- 0.11 -->
    <g style="fill: #1f77b4" transform="translate(508.085294 316.335626) scale(0.1 -0.1)">
     <use xlink:href="#SimHei-30"/>
     <use xlink:href="#SimHei-2e" x="50"/>
     <use xlink:href="#SimHei-31" x="100"/>
     <use xlink:href="#SimHei-31" x="150"/>
    </g>
   </g>
   <g id="text_29">
    <!-- 1.00 -->
    <g style="fill: #1f77b4" transform="translate(565.449241 54.373438) scale(0.1 -0.1)">
     <use xlink:href="#SimHei-31"/>
     <use xlink:href="#SimHei-2e" x="50"/>
     <use xlink:href="#SimHei-30" x="100"/>
     <use xlink:href="#SimHei-30" x="150"/>
    </g>
   </g>
   <g id="text_30">
    <!-- 0.80 -->
    <g style="fill: #1f77b4" transform="translate(622.813187 113.193708) scale(0.1 -0.1)">
     <use xlink:href="#SimHei-30"/>
     <use xlink:href="#SimHei-2e" x="50"/>
     <use xlink:href="#SimHei-38" x="100"/>
     <use xlink:href="#SimHei-30" x="150"/>
    </g>
   </g>
   <g id="text_31">
    <!-- 0.50 -->
    <g style="fill: #1f77b4" transform="translate(680.177133 202.07207) scale(0.1 -0.1)">
     <defs>
      <path id="SimHei-35" d="M 2825 1650 
Q 2825 900 2462 475 
Q 2100 50 1500 50 
Q 975 50 637 400 
Q 300 750 275 1350 
L 850 1350 
Q 850 975 1025 750 
Q 1200 525 1525 525 
Q 1850 525 2037 800 
Q 2225 1075 2225 1650 
Q 2225 2150 2062 2387 
Q 1900 2625 1625 2625 
Q 1400 2625 1237 2525 
Q 1075 2425 925 2175 
L 425 2175 
L 575 4375 
L 2725 4375 
L 2725 3900 
L 1050 3900 
L 950 2750 
Q 1100 2900 1275 2975 
Q 1450 3050 1750 3050 
Q 2225 3050 2525 2687 
Q 2825 2325 2825 1650 
z
" transform="scale(0.015625)"/>
     </defs>
     <use xlink:href="#SimHei-30"/>
     <use xlink:href="#SimHei-2e" x="50"/>
     <use xlink:href="#SimHei-35" x="100"/>
     <use xlink:href="#SimHei-30" x="150"/>
    </g>
   </g>
   <g id="text_32">
    <!-- 0.18 -->
    <g style="fill: #1f77b4" transform="translate(737.54108 294.417494) scale(0.1 -0.1)">
     <use xlink:href="#SimHei-30"/>
     <use xlink:href="#SimHei-2e" x="50"/>
     <use xlink:href="#SimHei-31" x="100"/>
     <use xlink:href="#SimHei-38" x="150"/>
    </g>
   </g>
   <g id="legend_1">
    <g id="patch_7">
     <path d="M 304.429 471.309425 
L 420.829 471.309425 
Q 423.229 471.309425 423.229 468.909425 
L 423.229 452.7188 
Q 423.229 450.3188 420.829 450.3188 
L 304.429 450.3188 
Q 302.029 450.3188 302.029 452.7188 
L 302.029 468.909425 
Q 302.029 471.309425 304.429 471.309425 
z
" style="fill: #ffffff; opacity: 0.8; stroke: #cccccc; stroke-width: 1.5; stroke-linejoin: miter"/>
    </g>
    <g id="line2d_26">
     <path d="M 306.829 460.76255 
L 318.829 460.76255 
L 330.829 460.76255 
" style="fill: none; stroke: #1f77b4; stroke-width: 2.5; stroke-linecap: round"/>
     <g>
      <use xlink:href="#md697e17d2a" x="318.829" y="460.76255" style="fill: #1f77b4; stroke: #ffffff; stroke-width: 0.75"/>
     </g>
    </g>
    <g id="text_33">
     <!-- 无机氮(μg/L) -->
     <g style="fill: #262626" transform="translate(340.429 464.96255) scale(0.12 -0.12)">
      <use xlink:href="#SimHei-65e0"/>
      <use xlink:href="#SimHei-673a" x="100"/>
      <use xlink:href="#SimHei-6c2e" x="200"/>
      <use xlink:href="#SimHei-28" x="300"/>
      <use xlink:href="#SimHei-3bc" x="350"/>
      <use xlink:href="#SimHei-67" x="450"/>
      <use xlink:href="#SimHei-2f" x="500"/>
      <use xlink:href="#SimHei-4c" x="550"/>
      <use xlink:href="#SimHei-29" x="600"/>
     </g>
    </g>
   </g>
  </g>
  <g id="axes_2">
   <g id="matplotlib.axis_3">
    <g id="ytick_7">
     <g id="line2d_27">
      <defs>
       <path id="mac5a497c09" d="M 0 0 
L 9 0 
" style="stroke: #262626; stroke-width: 1.875"/>
      </defs>
      <g>
       <use xlink:href="#mac5a497c09" x="779.09125" y="364.82092" style="fill: #262626; stroke: #262626; stroke-width: 1.875"/>
      </g>
     </g>
     <g id="text_34">
      <!-- 0.0 -->
      <g style="fill: #ff7f0e" transform="translate(791.59125 370.460569) scale(0.165 -0.165)">
       <use xlink:href="#SimHei-30"/>
       <use xlink:href="#SimHei-2e" x="50"/>
       <use xlink:href="#SimHei-30" x="100"/>
      </g>
     </g>
    </g>
    <g id="ytick_8">
     <g id="line2d_28">
      <g>
       <use xlink:href="#mac5a497c09" x="779.09125" y="305.933602" style="fill: #262626; stroke: #262626; stroke-width: 1.875"/>
      </g>
     </g>
     <g id="text_35">
      <!-- 0.2 -->
      <g style="fill: #ff7f0e" transform="translate(791.59125 311.573251) scale(0.165 -0.165)">
       <use xlink:href="#SimHei-30"/>
       <use xlink:href="#SimHei-2e" x="50"/>
       <use xlink:href="#SimHei-32" x="100"/>
      </g>
     </g>
    </g>
    <g id="ytick_9">
     <g id="line2d_29">
      <g>
       <use xlink:href="#mac5a497c09" x="779.09125" y="247.046284" style="fill: #262626; stroke: #262626; stroke-width: 1.875"/>
      </g>
     </g>
     <g id="text_36">
      <!-- 0.4 -->
      <g style="fill: #ff7f0e" transform="translate(791.59125 252.685933) scale(0.165 -0.165)">
       <use xlink:href="#SimHei-30"/>
       <use xlink:href="#SimHei-2e" x="50"/>
       <use xlink:href="#SimHei-34" x="100"/>
      </g>
     </g>
    </g>
    <g id="ytick_10">
     <g id="line2d_30">
      <g>
       <use xlink:href="#mac5a497c09" x="779.09125" y="188.158966" style="fill: #262626; stroke: #262626; stroke-width: 1.875"/>
      </g>
     </g>
     <g id="text_37">
      <!-- 0.6 -->
      <g style="fill: #ff7f0e" transform="translate(791.59125 193.798614) scale(0.165 -0.165)">
       <use xlink:href="#SimHei-30"/>
       <use xlink:href="#SimHei-2e" x="50"/>
       <use xlink:href="#SimHei-36" x="100"/>
      </g>
     </g>
    </g>
    <g id="ytick_11">
     <g id="line2d_31">
      <g>
       <use xlink:href="#mac5a497c09" x="779.09125" y="129.271648" style="fill: #262626; stroke: #262626; stroke-width: 1.875"/>
      </g>
     </g>
     <g id="text_38">
      <!-- 0.8 -->
      <g style="fill: #ff7f0e" transform="translate(791.59125 134.911296) scale(0.165 -0.165)">
       <use xlink:href="#SimHei-30"/>
       <use xlink:href="#SimHei-2e" x="50"/>
       <use xlink:href="#SimHei-38" x="100"/>
      </g>
     </g>
    </g>
    <g id="ytick_12">
     <g id="line2d_32">
      <g>
       <use xlink:href="#mac5a497c09" x="779.09125" y="70.38433" style="fill: #262626; stroke: #262626; stroke-width: 1.875"/>
      </g>
     </g>
     <g id="text_39">
      <!-- 1.0 -->
      <g style="fill: #ff7f0e" transform="translate(791.59125 76.023978) scale(0.165 -0.165)">
       <use xlink:href="#SimHei-31"/>
       <use xlink:href="#SimHei-2e" x="50"/>
       <use xlink:href="#SimHei-30" x="100"/>
      </g>
     </g>
    </g>
    <g id="text_40">
     <!-- 磷酸盐(μg/L) -->
     <g style="fill: #ff7f0e" transform="translate(842.71625 263.102625) rotate(-90) scale(0.14 -0.14)">
      <defs>
       <path id="SimHei-78f7" d="M 1375 2600 
L 1375 950 
L 1825 950 
L 1825 2600 
L 1375 2600 
z
M 550 4500 
Q 925 4475 1200 4475 
L 1650 4475 
Q 1925 4475 2375 4500 
L 2375 4075 
Q 2000 4100 1725 4100 
Q 1650 3725 1575 3462 
Q 1500 3200 1425 2975 
L 2250 2975 
Q 2225 2500 2225 2175 
L 2225 1225 
Q 2225 850 2250 250 
L 1825 250 
L 1825 575 
L 1375 575 
L 1375 25 
L 925 25 
Q 950 525 950 850 
L 950 2175 
Q 850 2050 737 1937 
Q 625 1825 525 1700 
Q 400 1950 225 2150 
Q 625 2375 887 2900 
Q 1150 3425 1250 4100 
Q 975 4100 550 4075 
L 550 4500 
z
M 3000 4650 
Q 3175 4750 3400 4850 
Q 3475 4725 3562 4575 
Q 3650 4425 3750 4275 
Q 3525 4175 3350 4075 
Q 3250 4225 3162 4375 
Q 3075 4525 3000 4650 
z
M 5600 4775 
Q 5500 4625 5412 4450 
Q 5325 4275 5250 4100 
Q 5025 4200 4850 4250 
Q 4950 4425 5037 4612 
Q 5125 4800 5200 4975 
Q 5400 4875 5600 4775 
z
M 2700 3950 
Q 3125 3925 3725 3925 
L 4125 3925 
L 4125 4425 
Q 4125 4700 4075 5100 
L 4550 5100 
Q 4525 4725 4525 4475 
L 4525 3925 
L 5100 3925 
Q 5475 3950 5900 3975 
L 5900 3525 
Q 5500 3550 5125 3550 
L 4800 3550 
Q 5050 3275 5337 3137 
Q 5625 3000 6075 2925 
Q 5900 2700 5800 2450 
Q 5275 2650 4975 2900 
Q 4675 3150 4525 3325 
L 4525 3075 
Q 4525 2725 4550 2325 
L 4100 2325 
Q 4125 2725 4125 3075 
L 4125 3550 
L 3975 3550 
Q 3750 3200 3537 2925 
Q 3325 2650 2925 2350 
Q 2750 2525 2525 2725 
Q 2900 2925 3112 3075 
Q 3325 3225 3525 3550 
L 3400 3550 
Q 3175 3550 2700 3525 
L 2700 3950 
z
M 3250 2525 
Q 3475 2425 3750 2325 
Q 3600 2225 3525 2087 
Q 3450 1950 3350 1825 
L 4150 1825 
Q 4100 1300 3987 912 
Q 3875 525 3687 250 
Q 3500 -25 3237 -250 
Q 2975 -475 2650 -700 
Q 2450 -475 2225 -325 
Q 2575 -175 2837 0 
Q 3100 175 3275 400 
Q 3075 625 2850 800 
Q 2925 925 3100 1125 
Q 3300 950 3500 750 
Q 3575 925 3612 1087 
Q 3650 1250 3700 1450 
L 3175 1450 
Q 3000 1275 2825 1025 
Q 2600 1175 2450 1300 
Q 2700 1525 2887 1825 
Q 3075 2125 3250 2525 
z
M 4275 1875 
Q 4650 1850 4800 1837 
Q 4950 1825 5075 1825 
Q 5050 2100 5050 2375 
L 5550 2375 
Q 5500 2100 5500 1825 
Q 5650 1850 6025 1875 
L 6025 1425 
Q 5650 1450 5500 1450 
L 5500 725 
Q 5675 750 6075 775 
L 6075 325 
Q 5700 350 5500 350 
Q 5500 -75 5525 -550 
L 5050 -550 
Q 5075 -75 5075 350 
L 4200 350 
Q 4200 525 4237 762 
Q 4275 1000 4275 1300 
Q 4500 1275 4750 1225 
Q 4675 1025 4650 725 
L 5075 725 
L 5075 1450 
Q 4975 1450 4812 1450 
Q 4650 1450 4275 1425 
L 4275 1875 
z
" transform="scale(0.015625)"/>
       <path id="SimHei-9178" d="M 3975 1525 
Q 4100 1300 4262 1062 
Q 4425 825 4600 675 
Q 4775 900 4900 1162 
Q 5025 1425 5100 1700 
L 4075 1700 
L 3975 1525 
z
M 4250 5200 
Q 4500 5075 4800 5000 
Q 4550 4750 4337 4475 
Q 4125 4200 3825 3875 
Q 4275 3900 5175 3975 
Q 4975 4200 4750 4425 
Q 4925 4525 5100 4650 
Q 5250 4500 6000 3725 
Q 5750 3575 5625 3425 
Q 5475 3575 5400 3675 
Q 4925 3650 4375 3575 
Q 3825 3500 3350 3375 
L 3175 3800 
Q 3500 3950 3812 4400 
Q 4125 4850 4250 5200 
z
M 3900 3325 
Q 4050 3175 4275 3050 
Q 3975 2800 3325 2225 
Q 3175 2375 2975 2500 
Q 3375 2750 3900 3325 
z
M 4750 2975 
Q 4900 3150 4975 3300 
Q 5625 2950 6125 2625 
Q 5975 2450 5850 2275 
Q 5475 2600 4750 2975 
z
M 4000 2575 
Q 4250 2450 4525 2400 
Q 4375 2250 4250 2075 
L 5650 2075 
Q 5575 1700 5400 1262 
Q 5225 825 4925 400 
Q 5150 175 5475 12 
Q 5800 -150 6125 -200 
Q 5925 -375 5800 -675 
Q 5400 -500 5150 -325 
Q 4900 -150 4600 100 
Q 4325 -125 4050 -337 
Q 3775 -550 3450 -675 
Q 3275 -450 3075 -275 
Q 3475 -175 3800 25 
Q 4125 225 4300 375 
Q 3975 750 3725 1200 
Q 3575 950 3400 725 
Q 3200 900 3000 975 
Q 3350 1275 3650 1812 
Q 3950 2350 4000 2575 
z
M 2900 3650 
Q 2875 2875 2875 1737 
Q 2875 600 2900 -250 
L 2450 -250 
L 2450 0 
L 850 0 
L 850 -425 
L 400 -425 
Q 425 400 425 1675 
Q 425 2950 400 3650 
L 1150 3650 
L 1150 4350 
Q 675 4350 325 4325 
L 325 4750 
Q 700 4725 1600 4725 
Q 2500 4725 2875 4750 
L 2875 4325 
Q 2475 4350 2150 4350 
L 2150 3650 
L 2900 3650 
z
M 1500 4350 
L 1500 3650 
L 1800 3650 
L 1800 4325 
L 1500 4350 
z
M 850 3275 
L 850 1200 
L 2450 1200 
L 2450 1650 
L 2150 1650 
Q 1800 1650 1800 2025 
L 1800 3275 
L 1500 3275 
Q 1500 2675 1462 2287 
Q 1425 1900 1300 1500 
Q 1125 1625 925 1650 
Q 1050 2025 1100 2400 
Q 1150 2775 1150 3275 
L 850 3275 
z
M 2150 3275 
L 2150 2250 
Q 2125 1950 2450 2000 
L 2450 3275 
L 2150 3275 
z
M 850 850 
L 850 375 
L 2450 375 
L 2450 850 
L 850 850 
z
" transform="scale(0.015625)"/>
       <path id="SimHei-76d0" d="M 675 4200 
Q 1150 4175 1425 4175 
L 1750 4175 
Q 1750 4775 1725 5100 
L 2225 5100 
Q 2200 4900 2200 4175 
L 2375 4175 
Q 2750 4175 3200 4200 
L 3200 3750 
Q 2750 3775 2400 3775 
L 2200 3775 
L 2200 2925 
Q 2800 3025 3225 3150 
Q 3150 2925 3175 2675 
Q 2725 2600 2312 2512 
Q 1900 2425 1450 2312 
Q 1000 2200 750 2075 
Q 650 2375 525 2650 
Q 1225 2725 1750 2825 
L 1750 3775 
L 1425 3775 
Q 1050 3775 675 3750 
L 675 4200 
z
M 3825 5125 
L 4350 5125 
Q 4300 4850 4300 4325 
L 4300 3150 
Q 4300 2725 4325 2225 
L 3825 2225 
Q 3850 2750 3850 3175 
L 3850 4400 
Q 3850 4775 3825 5125 
z
M 4575 3925 
Q 4750 4075 4950 4225 
Q 5125 4025 5387 3712 
Q 5650 3400 5850 3125 
Q 5650 2950 5450 2775 
Q 5300 3050 5062 3337 
Q 4825 3625 4575 3925 
z
M 4025 1500 
L 4025 250 
L 4775 250 
L 4775 1500 
L 4025 1500 
z
M 1200 1900 
L 5250 1900 
Q 5225 1400 5225 1050 
L 5225 250 
Q 5675 250 6000 275 
L 6000 -200 
Q 5275 -150 4825 -150 
L 1675 -150 
Q 1000 -150 500 -200 
L 500 275 
Q 775 250 1225 250 
L 1225 1050 
Q 1225 1475 1200 1900 
z
M 1675 1500 
L 1675 250 
L 2450 250 
L 2450 1500 
L 1675 1500 
z
M 2900 1500 
L 2900 250 
L 3575 250 
L 3575 1500 
L 2900 1500 
z
" transform="scale(0.015625)"/>
      </defs>
      <use xlink:href="#SimHei-78f7"/>
      <use xlink:href="#SimHei-9178" x="100"/>
      <use xlink:href="#SimHei-76d0" x="200"/>
      <use xlink:href="#SimHei-28" x="300"/>
      <use xlink:href="#SimHei-3bc" x="350"/>
      <use xlink:href="#SimHei-67" x="450"/>
      <use xlink:href="#SimHei-2f" x="500"/>
      <use xlink:href="#SimHei-4c" x="550"/>
      <use xlink:href="#SimHei-29" x="600"/>
     </g>
    </g>
   </g>
   <g id="PolyCollection_3"/>
   <g id="PolyCollection_4">
    <defs>
     <path id="m0c7e8e1b47" d="M 116.53767 -139.17908 
L 116.53767 -187.032824 
L 173.901617 -212.260575 
L 231.265563 -162.641352 
L 288.629509 -192.448727 
L 345.993456 -139.17908 
L 403.357402 -193.192086 
L 460.721348 -416.272836 
L 518.085294 -433.61567 
L 575.449241 -289.30444 
L 632.813187 -296.824314 
L 690.177133 -243.581216 
L 747.54108 -158.745354 
L 747.54108 -139.17908 
L 747.54108 -139.17908 
L 690.177133 -139.17908 
L 632.813187 -139.17908 
L 575.449241 -139.17908 
L 518.085294 -139.17908 
L 460.721348 -139.17908 
L 403.357402 -139.17908 
L 345.993456 -139.17908 
L 288.629509 -139.17908 
L 231.265563 -139.17908 
L 173.901617 -139.17908 
L 116.53767 -139.17908 
z
" style="stroke: #ff7f0e; stroke-opacity: 0.15; stroke-width: 1.5"/>
    </defs>
    <g clip-path="url(#p1a31564f43)">
     <use xlink:href="#m0c7e8e1b47" x="0" y="504" style="fill: #ff7f0e; fill-opacity: 0.15; stroke: #ff7f0e; stroke-opacity: 0.15; stroke-width: 1.5"/>
    </g>
   </g>
   <g id="line2d_33">
    <path d="M 116.53767 316.967176 
L 173.901617 291.739425 
L 231.265563 341.358648 
L 288.629509 311.551273 
L 345.993456 364.82092 
L 403.357402 310.807914 
L 460.721348 87.727164 
L 518.085294 70.38433 
L 575.449241 214.69556 
L 632.813187 207.175686 
L 690.177133 260.418784 
L 747.54108 345.254646 
" clip-path="url(#p1a31564f43)" style="fill: none; stroke: #ff7f0e; stroke-width: 2.5; stroke-linecap: round"/>
    <defs>
     <path id="me0da8babe7" d="M -4.5 4.5 
L 4.5 4.5 
L 4.5 -4.5 
L -4.5 -4.5 
z
" style="stroke: #ffffff; stroke-width: 0.75; stroke-linejoin: miter"/>
    </defs>
    <g clip-path="url(#p1a31564f43)">
     <use xlink:href="#me0da8babe7" x="116.53767" y="316.967176" style="fill: #ff7f0e; stroke: #ffffff; stroke-width: 0.75; stroke-linejoin: miter"/>
     <use xlink:href="#me0da8babe7" x="173.901617" y="291.739425" style="fill: #ff7f0e; stroke: #ffffff; stroke-width: 0.75; stroke-linejoin: miter"/>
     <use xlink:href="#me0da8babe7" x="231.265563" y="341.358648" style="fill: #ff7f0e; stroke: #ffffff; stroke-width: 0.75; stroke-linejoin: miter"/>
     <use xlink:href="#me0da8babe7" x="288.629509" y="311.551273" style="fill: #ff7f0e; stroke: #ffffff; stroke-width: 0.75; stroke-linejoin: miter"/>
     <use xlink:href="#me0da8babe7" x="345.993456" y="364.82092" style="fill: #ff7f0e; stroke: #ffffff; stroke-width: 0.75; stroke-linejoin: miter"/>
     <use xlink:href="#me0da8babe7" x="403.357402" y="310.807914" style="fill: #ff7f0e; stroke: #ffffff; stroke-width: 0.75; stroke-linejoin: miter"/>
     <use xlink:href="#me0da8babe7" x="460.721348" y="87.727164" style="fill: #ff7f0e; stroke: #ffffff; stroke-width: 0.75; stroke-linejoin: miter"/>
     <use xlink:href="#me0da8babe7" x="518.085294" y="70.38433" style="fill: #ff7f0e; stroke: #ffffff; stroke-width: 0.75; stroke-linejoin: miter"/>
     <use xlink:href="#me0da8babe7" x="575.449241" y="214.69556" style="fill: #ff7f0e; stroke: #ffffff; stroke-width: 0.75; stroke-linejoin: miter"/>
     <use xlink:href="#me0da8babe7" x="632.813187" y="207.175686" style="fill: #ff7f0e; stroke: #ffffff; stroke-width: 0.75; stroke-linejoin: miter"/>
     <use xlink:href="#me0da8babe7" x="690.177133" y="260.418784" style="fill: #ff7f0e; stroke: #ffffff; stroke-width: 0.75; stroke-linejoin: miter"/>
     <use xlink:href="#me0da8babe7" x="747.54108" y="345.254646" style="fill: #ff7f0e; stroke: #ffffff; stroke-width: 0.75; stroke-linejoin: miter"/>
    </g>
   </g>
   <g id="patch_8">
    <path d="M 84.9875 379.54275 
L 84.9875 55.6625 
" style="fill: none; stroke: #cccccc; stroke-width: 1.875; stroke-linejoin: miter; stroke-linecap: square"/>
   </g>
   <g id="patch_9">
    <path d="M 779.09125 379.54275 
L 779.09125 55.6625 
" style="fill: none; stroke: #cccccc; stroke-width: 1.875; stroke-linejoin: miter; stroke-linecap: square"/>
   </g>
   <g id="patch_10">
    <path d="M 84.9875 379.54275 
L 779.09125 379.54275 
" style="fill: none; stroke: #cccccc; stroke-width: 1.875; stroke-linejoin: miter; stroke-linecap: square"/>
   </g>
   <g id="patch_11">
    <path d="M 84.9875 55.6625 
L 779.09125 55.6625 
" style="fill: none; stroke: #cccccc; stroke-width: 1.875; stroke-linejoin: miter; stroke-linecap: square"/>
   </g>
   <g id="text_41">
    <!-- 0.16 -->
    <g style="fill: #ff7f0e" transform="translate(106.53767 300.956284) scale(0.1 -0.1)">
     <use xlink:href="#SimHei-30"/>
     <use xlink:href="#SimHei-2e" x="50"/>
     <use xlink:href="#SimHei-31" x="100"/>
     <use xlink:href="#SimHei-36" x="150"/>
    </g>
   </g>
   <g id="text_42">
    <!-- 0.25 -->
    <g style="fill: #ff7f0e" transform="translate(163.901617 275.728533) scale(0.1 -0.1)">
     <use xlink:href="#SimHei-30"/>
     <use xlink:href="#SimHei-2e" x="50"/>
     <use xlink:href="#SimHei-32" x="100"/>
     <use xlink:href="#SimHei-35" x="150"/>
    </g>
   </g>
   <g id="text_43">
    <!-- 0.08 -->
    <g style="fill: #ff7f0e" transform="translate(221.265563 325.347756) scale(0.1 -0.1)">
     <use xlink:href="#SimHei-30"/>
     <use xlink:href="#SimHei-2e" x="50"/>
     <use xlink:href="#SimHei-30" x="100"/>
     <use xlink:href="#SimHei-38" x="150"/>
    </g>
   </g>
   <g id="text_44">
    <!-- 0.18 -->
    <g style="fill: #ff7f0e" transform="translate(278.629509 295.540381) scale(0.1 -0.1)">
     <use xlink:href="#SimHei-30"/>
     <use xlink:href="#SimHei-2e" x="50"/>
     <use xlink:href="#SimHei-31" x="100"/>
     <use xlink:href="#SimHei-38" x="150"/>
    </g>
   </g>
   <g id="text_45">
    <!-- 0.00 -->
    <g style="fill: #ff7f0e" transform="translate(335.993456 348.810028) scale(0.1 -0.1)">
     <use xlink:href="#SimHei-30"/>
     <use xlink:href="#SimHei-2e" x="50"/>
     <use xlink:href="#SimHei-30" x="100"/>
     <use xlink:href="#SimHei-30" x="150"/>
    </g>
   </g>
   <g id="text_46">
    <!-- 0.18 -->
    <g style="fill: #ff7f0e" transform="translate(393.357402 294.797022) scale(0.1 -0.1)">
     <use xlink:href="#SimHei-30"/>
     <use xlink:href="#SimHei-2e" x="50"/>
     <use xlink:href="#SimHei-31" x="100"/>
     <use xlink:href="#SimHei-38" x="150"/>
    </g>
   </g>
   <g id="text_47">
    <!-- 0.94 -->
    <g style="fill: #ff7f0e" transform="translate(450.721348 71.716272) scale(0.1 -0.1)">
     <use xlink:href="#SimHei-30"/>
     <use xlink:href="#SimHei-2e" x="50"/>
     <use xlink:href="#SimHei-39" x="100"/>
     <use xlink:href="#SimHei-34" x="150"/>
    </g>
   </g>
   <g id="text_48">
    <!-- 1.00 -->
    <g style="fill: #ff7f0e" transform="translate(508.085294 54.373438) scale(0.1 -0.1)">
     <use xlink:href="#SimHei-31"/>
     <use xlink:href="#SimHei-2e" x="50"/>
     <use xlink:href="#SimHei-30" x="100"/>
     <use xlink:href="#SimHei-30" x="150"/>
    </g>
   </g>
   <g id="text_49">
    <!-- 0.51 -->
    <g style="fill: #ff7f0e" transform="translate(565.449241 198.684668) scale(0.1 -0.1)">
     <use xlink:href="#SimHei-30"/>
     <use xlink:href="#SimHei-2e" x="50"/>
     <use xlink:href="#SimHei-35" x="100"/>
     <use xlink:href="#SimHei-31" x="150"/>
    </g>
   </g>
   <g id="text_50">
    <!-- 0.54 -->
    <g style="fill: #ff7f0e" transform="translate(622.813187 191.164793) scale(0.1 -0.1)">
     <use xlink:href="#SimHei-30"/>
     <use xlink:href="#SimHei-2e" x="50"/>
     <use xlink:href="#SimHei-35" x="100"/>
     <use xlink:href="#SimHei-34" x="150"/>
    </g>
   </g>
   <g id="text_51">
    <!-- 0.35 -->
    <g style="fill: #ff7f0e" transform="translate(680.177133 244.407892) scale(0.1 -0.1)">
     <use xlink:href="#SimHei-30"/>
     <use xlink:href="#SimHei-2e" x="50"/>
     <use xlink:href="#SimHei-33" x="100"/>
     <use xlink:href="#SimHei-35" x="150"/>
    </g>
   </g>
   <g id="text_52">
    <!-- 0.07 -->
    <g style="fill: #ff7f0e" transform="translate(737.54108 329.243754) scale(0.1 -0.1)">
     <use xlink:href="#SimHei-30"/>
     <use xlink:href="#SimHei-2e" x="50"/>
     <use xlink:href="#SimHei-30" x="100"/>
     <use xlink:href="#SimHei-37" x="150"/>
    </g>
   </g>
   <g id="text_53">
    <!-- 无机氮和磷酸盐的变化趋势（归一化处理） -->
    <g style="fill: #262626" transform="translate(242.039375 35.6625) scale(0.2 -0.2)">
     <defs>
      <path id="SimHei-548c" d="M 2925 5025 
Q 3000 4750 3175 4475 
Q 2850 4450 2175 4325 
L 2175 3275 
L 2550 3275 
Q 2900 3275 3175 3300 
L 3175 2850 
Q 2900 2875 2575 2875 
L 2175 2875 
L 2175 375 
Q 2175 -150 2200 -450 
L 1700 -450 
Q 1725 -150 1725 375 
L 1725 2100 
Q 1400 1375 675 575 
Q 550 750 275 950 
Q 875 1475 1175 2012 
Q 1475 2550 1600 2875 
L 1200 2875 
Q 650 2875 475 2850 
L 475 3300 
Q 675 3275 1200 3275 
L 1725 3275 
L 1725 4275 
Q 1275 4225 725 4175 
Q 675 4400 575 4600 
Q 1075 4625 1737 4712 
Q 2400 4800 2925 5025 
z
M 3225 1500 
Q 3000 1350 2825 1200 
Q 2575 1650 2225 2100 
Q 2375 2200 2575 2375 
Q 2925 1950 3225 1500 
z
M 3550 4275 
L 5825 4275 
Q 5800 3825 5800 3400 
L 5800 900 
Q 5800 475 5825 175 
L 5350 175 
L 5350 775 
L 4025 775 
L 4025 75 
L 3550 75 
Q 3575 700 3575 825 
L 3575 3400 
Q 3575 3825 3550 4275 
z
M 4025 3875 
L 4025 1175 
L 5350 1175 
L 5350 3875 
L 4025 3875 
z
" transform="scale(0.015625)"/>
      <path id="SimHei-7684" d="M 1525 5100 
Q 1850 5025 2200 4925 
Q 2100 4775 2025 4487 
Q 1950 4200 1900 3975 
L 2975 3975 
Q 2950 3525 2950 2900 
L 2950 700 
Q 2950 300 2975 -225 
L 2500 -225 
L 2500 300 
L 1200 300 
L 1200 -275 
L 725 -275 
Q 750 350 750 650 
L 750 2875 
Q 750 3525 725 3975 
L 1425 3975 
Q 1450 4225 1475 4462 
Q 1500 4700 1525 5100 
z
M 1200 3525 
L 1200 2425 
L 2500 2425 
L 2500 3525 
L 1200 3525 
z
M 1200 1950 
L 1200 775 
L 2500 775 
L 2500 1950 
L 1200 1950 
z
M 5850 3925 
Q 5800 3450 5775 3000 
L 5600 175 
Q 5525 -275 5150 -400 
Q 4775 -525 4350 -550 
Q 4350 -275 4175 25 
Q 4600 0 4850 37 
Q 5100 75 5150 350 
L 5350 3475 
L 4025 3475 
Q 3825 3050 3550 2525 
Q 3350 2675 3125 2775 
Q 3275 3000 3462 3400 
Q 3650 3800 3787 4262 
Q 3925 4725 3975 5025 
Q 4300 4875 4600 4800 
Q 4475 4600 4375 4387 
Q 4275 4175 4200 3925 
L 5850 3925 
z
M 3650 2300 
Q 3825 2400 4075 2550 
Q 4200 2325 4325 2050 
Q 4450 1775 4600 1375 
Q 4400 1300 4150 1150 
Q 4075 1425 3937 1750 
Q 3800 2075 3650 2300 
z
" transform="scale(0.015625)"/>
      <path id="SimHei-53d8" d="M 2825 5075 
Q 3125 5125 3425 5175 
Q 3500 4675 3525 4475 
L 4625 4475 
Q 5325 4475 5875 4500 
L 5875 4025 
Q 5300 4050 4625 4050 
L 4025 4050 
L 4025 2975 
Q 4025 2475 4050 2175 
L 3525 2175 
Q 3550 2475 3550 2975 
L 3550 4050 
L 2775 4050 
L 2775 2975 
Q 2775 2500 2800 2175 
L 2275 2175 
Q 2300 2500 2300 2975 
L 2300 4050 
L 1775 4050 
Q 1075 4050 550 4025 
L 550 4500 
Q 1050 4475 1775 4475 
L 2975 4475 
Q 2925 4775 2825 5075 
z
M 1375 3700 
Q 1600 3525 1900 3375 
Q 1750 3250 1487 2900 
Q 1225 2550 925 2175 
Q 675 2350 475 2475 
Q 1025 3000 1375 3700 
z
M 4450 3325 
Q 4675 3500 4850 3675 
Q 5350 3200 5900 2600 
Q 5675 2450 5450 2250 
Q 5050 2750 4450 3325 
z
M 1125 1825 
Q 1575 1800 2175 1800 
L 5100 1800 
Q 4775 1300 4450 900 
Q 4125 500 3750 225 
Q 4325 50 4762 -12 
Q 5200 -75 5900 -50 
Q 5700 -275 5625 -625 
Q 4800 -525 4225 -375 
Q 3650 -225 3275 -75 
Q 2650 -325 2100 -437 
Q 1550 -550 775 -650 
Q 675 -375 500 -125 
Q 1150 -125 1687 -50 
Q 2225 25 2825 200 
Q 2325 475 1750 1375 
L 2300 1375 
Q 2700 750 3300 450 
Q 3800 750 4250 1375 
L 2150 1375 
Q 1525 1375 1125 1350 
L 1125 1825 
z
" transform="scale(0.015625)"/>
      <path id="SimHei-5316" d="M 3350 5075 
L 3900 5075 
Q 3850 4750 3850 4250 
L 3850 2425 
Q 4275 2800 4600 3262 
Q 4925 3725 5150 4175 
Q 5350 4025 5750 3850 
Q 5575 3700 5375 3450 
Q 5175 3200 4950 2912 
Q 4725 2625 4450 2337 
Q 4175 2050 3850 1800 
L 3850 400 
Q 3850 50 4175 50 
L 5075 50 
Q 5300 75 5337 262 
Q 5375 450 5400 825 
Q 5650 625 6000 575 
Q 5850 -100 5687 -250 
Q 5525 -400 5225 -400 
L 3900 -400 
Q 3375 -400 3375 50 
L 3375 1500 
Q 3150 1350 2950 1225 
Q 2750 1100 2450 900 
Q 2300 1175 2150 1350 
Q 2450 1475 2787 1662 
Q 3125 1850 3375 2075 
L 3375 4325 
Q 3375 4775 3350 5075 
z
M 1825 5175 
Q 2050 5025 2450 4900 
Q 2250 4625 2150 4362 
Q 2050 4100 1900 3750 
L 1900 650 
Q 1900 -125 1925 -525 
L 1375 -525 
Q 1425 -150 1425 625 
L 1425 3000 
Q 1250 2700 1100 2500 
Q 950 2300 825 2150 
Q 650 2350 425 2525 
Q 750 2850 987 3200 
Q 1225 3550 1375 3887 
Q 1525 4225 1637 4550 
Q 1750 4875 1825 5175 
z
" transform="scale(0.015625)"/>
      <path id="SimHei-8d8b" d="M 6125 125 
Q 5950 -150 5925 -450 
Q 4900 -475 4200 -450 
Q 3500 -425 2937 -300 
Q 2375 -175 1950 75 
Q 1525 325 1100 750 
Q 875 -100 650 -550 
Q 425 -250 250 -175 
Q 525 225 625 625 
Q 725 1025 762 1400 
Q 800 1775 800 2050 
Q 1025 1975 1325 1950 
Q 1200 1575 1200 1275 
Q 1200 975 1700 675 
L 1700 2600 
Q 850 2600 425 2575 
L 425 2975 
Q 875 2950 1575 2950 
L 1575 3925 
Q 1050 3925 625 3900 
L 625 4300 
Q 1050 4275 1575 4275 
Q 1575 4725 1550 5175 
L 2050 5175 
Q 2025 4775 2025 4275 
Q 2400 4275 2775 4300 
L 2775 3900 
Q 2375 3925 2025 3925 
L 2025 2950 
Q 2525 2950 2975 2975 
L 2975 2575 
Q 2525 2600 2150 2600 
L 2150 1800 
Q 2450 1800 2825 1825 
L 2825 1425 
Q 2475 1450 2150 1450 
L 2150 400 
Q 2900 0 4125 0 
Q 5350 0 6125 125 
z
M 5825 3225 
Q 5800 2775 5800 1825 
Q 5800 875 5825 500 
Q 3725 500 3250 475 
L 3250 875 
Q 3725 850 5350 850 
L 5350 1650 
Q 3825 1650 3450 1625 
L 3450 2025 
Q 3825 2000 5350 2000 
L 5350 2875 
L 4025 2875 
Q 3750 2875 3400 2850 
L 3400 3250 
L 3325 3125 
Q 3125 3300 2900 3375 
Q 3275 3825 3525 4337 
Q 3775 4850 3875 5225 
Q 4125 5125 4450 5050 
Q 4325 4950 4125 4475 
L 5675 4475 
Q 5200 3675 4975 3225 
L 5825 3225 
z
M 3950 4125 
Q 3600 3525 3400 3250 
Q 3750 3225 4050 3225 
L 4475 3225 
Q 4625 3525 4975 4125 
L 3950 4125 
z
" transform="scale(0.015625)"/>
      <path id="SimHei-52bf" d="M 2575 3700 
Q 2550 3525 2550 3300 
Q 2125 3200 1900 3125 
L 1900 2225 
Q 1875 1950 1662 1875 
Q 1450 1800 1050 1725 
Q 1025 2000 850 2275 
Q 1300 2250 1375 2300 
Q 1450 2350 1450 2600 
L 1450 3050 
Q 950 2925 600 2775 
Q 525 3050 400 3250 
Q 750 3300 1450 3450 
L 1450 4025 
Q 850 4025 475 4000 
L 475 4450 
Q 850 4425 1450 4425 
Q 1450 4875 1425 5150 
L 1950 5150 
Q 1900 4900 1900 4425 
Q 2225 4425 2600 4450 
L 2600 4000 
Q 2225 4025 1900 4025 
L 1900 3525 
Q 2175 3600 2575 3700 
z
M 700 1500 
Q 1150 1475 1600 1475 
L 2725 1475 
Q 2750 1675 2750 1900 
Q 3075 1825 3300 1800 
Q 3250 1675 3200 1475 
L 5275 1475 
Q 5225 1125 5200 800 
Q 5175 475 5075 62 
Q 4975 -350 4700 -437 
Q 4425 -525 3775 -575 
Q 3800 -350 3575 -25 
Q 4325 -75 4462 12 
Q 4600 100 4650 300 
Q 4700 500 4750 1075 
L 3125 1075 
Q 2800 275 2150 -87 
Q 1500 -450 825 -650 
Q 725 -375 450 -175 
Q 1000 -100 1650 175 
Q 2300 450 2625 1075 
L 1600 1075 
Q 1125 1075 700 1050 
L 700 1500 
z
M 2850 1925 
Q 2700 2100 2375 2225 
Q 3025 2475 3375 3025 
Q 3175 3150 2850 3325 
Q 3025 3475 3100 3625 
Q 3325 3500 3525 3375 
Q 3575 3625 3600 4075 
Q 3250 4075 2925 4025 
L 2875 4425 
Q 3200 4425 3600 4425 
Q 3600 4900 3575 5200 
Q 3775 5150 4100 5125 
Q 4025 4875 4025 4450 
L 5200 4475 
Q 5125 3975 5087 3437 
Q 5050 2900 5175 2625 
Q 5300 2350 5437 2312 
Q 5575 2275 5600 2850 
Q 5775 2650 6075 2600 
Q 5925 2050 5825 1912 
Q 5725 1775 5562 1737 
Q 5400 1700 5087 1975 
Q 4775 2250 4700 2787 
Q 4625 3325 4725 4100 
L 4025 4075 
Q 3975 3525 3925 3200 
Q 4150 3050 4425 2875 
Q 4225 2700 4100 2550 
Q 3925 2700 3750 2825 
Q 3425 2325 2850 1925 
z
" transform="scale(0.015625)"/>
      <path id="SimHei-ff08" d="M 4950 62 
Q 5375 -225 5425 -175 
Q 5475 -125 5087 175 
Q 4700 475 4375 937 
Q 4050 1400 4050 2225 
Q 4050 3050 4387 3575 
Q 4725 4100 5075 4387 
Q 5425 4675 5412 4737 
Q 5400 4800 4887 4437 
Q 4375 4075 4000 3462 
Q 3625 2850 3687 2075 
Q 3750 1300 4137 825 
Q 4525 350 4950 62 
z
" transform="scale(0.015625)"/>
      <path id="SimHei-5f52" d="M 1125 2000 
Q 1125 1600 1150 1175 
L 625 1175 
Q 650 1600 650 2000 
L 650 3650 
Q 650 4075 625 4425 
L 1150 4425 
Q 1125 4050 1125 3650 
L 1125 2000 
z
M 3600 325 
Q 3125 325 2700 300 
L 2700 775 
Q 3125 750 3600 750 
L 5150 750 
L 5150 2250 
L 4100 2250 
Q 3550 2250 3150 2225 
L 3150 2700 
Q 3575 2675 4100 2675 
L 5150 2675 
L 5150 4150 
L 3750 4150 
Q 3325 4150 2875 4125 
L 2875 4600 
Q 3300 4575 3725 4575 
L 5675 4575 
Q 5650 4050 5650 3750 
L 5650 800 
Q 5650 175 5675 -325 
L 5150 -325 
L 5150 325 
L 3600 325 
z
M 975 -575 
Q 775 -350 475 -200 
Q 1175 250 1500 900 
Q 1825 1550 1900 2312 
Q 1975 3075 1962 3812 
Q 1950 4550 1925 5100 
L 2500 5100 
Q 2450 4675 2462 3950 
Q 2475 3225 2412 2450 
Q 2350 1675 2037 875 
Q 1725 75 975 -575 
z
" transform="scale(0.015625)"/>
      <path id="SimHei-4e00" d="M 450 2650 
Q 1075 2600 1725 2600 
L 4825 2600 
Q 5425 2600 6000 2650 
L 6000 2025 
Q 5425 2075 4850 2075 
L 1725 2075 
Q 1075 2075 450 2025 
L 450 2650 
z
" transform="scale(0.015625)"/>
      <path id="SimHei-5904" d="M 1700 3600 
Q 1600 3325 1550 3175 
Q 1625 2750 1825 2275 
Q 2025 1800 2300 1400 
Q 2550 1975 2637 2500 
Q 2725 3025 2775 3600 
L 1700 3600 
z
M 1525 5100 
Q 1825 4950 2175 4925 
Q 2075 4825 2000 4587 
Q 1925 4350 1825 4025 
L 3325 4025 
Q 3275 3675 3237 3325 
Q 3200 2975 3137 2575 
Q 3075 2175 2950 1750 
Q 2825 1325 2675 1000 
Q 2900 700 3287 512 
Q 3675 325 4125 237 
Q 4575 150 5087 112 
Q 5600 75 6175 100 
Q 6000 -200 5950 -525 
Q 5150 -475 4587 -387 
Q 4025 -300 3612 -162 
Q 3200 -25 2887 175 
Q 2575 375 2325 600 
Q 2000 250 1675 12 
Q 1350 -225 650 -575 
Q 475 -275 275 -125 
Q 775 25 1275 350 
Q 1775 675 1975 1000 
Q 1725 1400 1562 1750 
Q 1400 2100 1250 2625 
Q 900 1950 750 1700 
Q 525 1900 250 1975 
Q 475 2225 700 2612 
Q 925 3000 1100 3462 
Q 1275 3925 1375 4337 
Q 1475 4750 1525 5100 
z
M 3925 5075 
L 4475 5075 
Q 4450 4675 4425 4250 
L 4425 1600 
Q 4450 1100 4475 600 
L 3925 600 
Q 3925 1100 3950 1600 
L 3950 4250 
Q 3925 4675 3925 5075 
z
M 4550 3150 
Q 4750 3300 4925 3475 
Q 5150 3200 5450 2875 
Q 5750 2550 6125 2125 
Q 5875 1975 5700 1725 
Q 5450 2100 5150 2475 
Q 4850 2850 4550 3150 
z
" transform="scale(0.015625)"/>
      <path id="SimHei-7406" d="M 2650 4675 
L 5725 4675 
Q 5700 4375 5700 3350 
Q 5700 2325 5725 1900 
L 4400 1900 
L 4400 1150 
L 5125 1150 
Q 5550 1150 5800 1175 
L 5800 775 
Q 5525 800 5125 800 
L 4400 800 
L 4400 -25 
L 5275 -25 
Q 5725 -25 6050 0 
L 6050 -400 
Q 5725 -375 5300 -375 
L 2950 -375 
Q 2575 -375 2275 -400 
L 2275 0 
Q 2600 -25 2950 -25 
L 3950 -25 
L 3950 800 
L 3150 800 
Q 2850 800 2600 775 
L 2600 1175 
Q 2850 1150 3150 1150 
L 3950 1150 
L 3950 1900 
L 2650 1900 
Q 2675 2225 2675 3312 
Q 2675 4400 2650 4675 
z
M 3125 4325 
L 3125 3450 
L 3950 3450 
L 3950 4325 
L 3125 4325 
z
M 3125 3125 
L 3125 2250 
L 3950 2250 
L 3950 3125 
L 3125 3125 
z
M 4400 4325 
L 4400 3450 
L 5250 3450 
L 5250 4325 
L 4400 4325 
z
M 4400 3125 
L 4400 2250 
L 5250 2250 
L 5250 3125 
L 4400 3125 
z
M 325 4400 
Q 650 4375 875 4375 
L 1800 4375 
Q 2075 4375 2375 4400 
L 2375 3950 
Q 2050 3975 1800 3975 
L 1600 3975 
L 1600 2700 
Q 1925 2700 2250 2725 
L 2250 2275 
Q 1925 2300 1600 2300 
L 1600 800 
Q 2050 950 2350 1100 
Q 2400 875 2450 700 
Q 2000 550 1437 325 
Q 875 100 550 -75 
Q 450 150 325 425 
Q 650 475 1150 675 
L 1150 2300 
Q 725 2300 400 2275 
L 400 2725 
Q 750 2700 1150 2700 
L 1150 3975 
L 875 3975 
Q 650 3975 325 3950 
L 325 4400 
z
" transform="scale(0.015625)"/>
      <path id="SimHei-ff09" d="M 937 -187 
Q 950 -250 1437 37 
Q 1925 325 2337 850 
Q 2750 1375 2762 2200 
Q 2775 3025 2325 3637 
Q 1875 4250 1412 4562 
Q 950 4875 937 4812 
Q 925 4750 1287 4450 
Q 1650 4150 1987 3637 
Q 2325 3125 2375 2350 
Q 2425 1575 2037 987 
Q 1650 400 1287 137 
Q 925 -125 937 -187 
z
" transform="scale(0.015625)"/>
     </defs>
     <use xlink:href="#SimHei-65e0"/>
     <use xlink:href="#SimHei-673a" x="100"/>
     <use xlink:href="#SimHei-6c2e" x="200"/>
     <use xlink:href="#SimHei-548c" x="300"/>
     <use xlink:href="#SimHei-78f7" x="400"/>
     <use xlink:href="#SimHei-9178" x="500"/>
     <use xlink:href="#SimHei-76d0" x="600"/>
     <use xlink:href="#SimHei-7684" x="700"/>
     <use xlink:href="#SimHei-53d8" x="800"/>
     <use xlink:href="#SimHei-5316" x="900"/>
     <use xlink:href="#SimHei-8d8b" x="1000"/>
     <use xlink:href="#SimHei-52bf" x="1100"/>
     <use xlink:href="#SimHei-ff08" x="1200"/>
     <use xlink:href="#SimHei-5f52" x="1300"/>
     <use xlink:href="#SimHei-4e00" x="1400"/>
     <use xlink:href="#SimHei-5316" x="1500"/>
     <use xlink:href="#SimHei-5904" x="1600"/>
     <use xlink:href="#SimHei-7406" x="1700"/>
     <use xlink:href="#SimHei-ff09" x="1800"/>
    </g>
   </g>
   <g id="legend_2">
    <g id="patch_12">
     <path d="M 443.24975 471.215675 
L 559.64975 471.215675 
Q 562.04975 471.215675 562.04975 468.815675 
L 562.04975 452.7188 
Q 562.04975 450.3188 559.64975 450.3188 
L 443.24975 450.3188 
Q 440.84975 450.3188 440.84975 452.7188 
L 440.84975 468.815675 
Q 440.84975 471.215675 443.24975 471.215675 
z
" style="fill: #ffffff; opacity: 0.8; stroke: #cccccc; stroke-width: 1.5; stroke-linejoin: miter"/>
    </g>
    <g id="line2d_34">
     <path d="M 445.64975 460.6688 
L 457.64975 460.6688 
L 469.64975 460.6688 
" style="fill: none; stroke: #ff7f0e; stroke-width: 2.5; stroke-linecap: round"/>
     <g>
      <use xlink:href="#me0da8babe7" x="457.64975" y="460.6688" style="fill: #ff7f0e; stroke: #ffffff; stroke-width: 0.75; stroke-linejoin: miter"/>
     </g>
    </g>
    <g id="text_54">
     <!-- 磷酸盐(μg/L) -->
     <g style="fill: #262626" transform="translate(479.24975 464.8688) scale(0.12 -0.12)">
      <use xlink:href="#SimHei-78f7"/>
      <use xlink:href="#SimHei-9178" x="100"/>
      <use xlink:href="#SimHei-76d0" x="200"/>
      <use xlink:href="#SimHei-28" x="300"/>
      <use xlink:href="#SimHei-3bc" x="350"/>
      <use xlink:href="#SimHei-67" x="450"/>
      <use xlink:href="#SimHei-2f" x="500"/>
      <use xlink:href="#SimHei-4c" x="550"/>
      <use xlink:href="#SimHei-29" x="600"/>
     </g>
    </g>
   </g>
  </g>
 </g>
 <defs>
  <clipPath id="p1a31564f43">
   <rect x="84.9875" y="55.6625" width="694.10375" height="323.88025"/>
  </clipPath>
 </defs>
</svg>
