<?xml version="1.0" encoding="utf-8" standalone="no"?>
<!DOCTYPE svg PUBLIC "-//W3C//DTD SVG 1.1//EN"
  "http://www.w3.org/Graphics/SVG/1.1/DTD/svg11.dtd">
<svg xmlns:xlink="http://www.w3.org/1999/xlink" width="864pt" height="504pt" viewBox="0 0 864 504" xmlns="http://www.w3.org/2000/svg" version="1.1">
 <metadata>
  <rdf:RDF xmlns:dc="http://purl.org/dc/elements/1.1/" xmlns:cc="http://creativecommons.org/ns#" xmlns:rdf="http://www.w3.org/1999/02/22-rdf-syntax-ns#">
   <cc:Work>
    <dc:type rdf:resource="http://purl.org/dc/dcmitype/StillImage"/>
    <dc:date>2024-09-06T00:55:41.175199</dc:date>
    <dc:format>image/svg+xml</dc:format>
    <dc:creator>
     <cc:Agent>
      <dc:title>Matplotlib v3.7.5, https://matplotlib.org/</dc:title>
     </cc:Agent>
    </dc:creator>
   </cc:Work>
  </rdf:RDF>
 </metadata>
 <defs>
  <style type="text/css">*{stroke-linejoin: round; stroke-linecap: butt}</style>
 </defs>
 <g id="figure_1">
  <g id="patch_1">
   <path d="M 0 504 
L 864 504 
L 864 0 
L 0 0 
z
" style="fill: #ffffff"/>
  </g>
  <g id="axes_1">
   <g id="patch_2">
    <path d="M 70.26125 427.27 
L 844.56 427.27 
L 844.56 57.935 
L 70.26125 57.935 
z
" style="fill: #ffffff"/>
   </g>
   <g id="matplotlib.axis_1">
    <g id="xtick_1">
     <g id="text_1">
      <!-- 19冬 -->
      <g style="fill: #262626" transform="translate(86.023698 452.789531) scale(0.165 -0.165)">
       <defs>
        <path id="SimHei-31" d="M 1950 100 
L 1375 100 
L 1375 3425 
L 625 3425 
L 625 3725 
Q 1075 3725 1325 3900 
Q 1575 4075 1650 4425 
L 1950 4425 
L 1950 100 
z
" transform="scale(0.015625)"/>
        <path id="SimHei-39" d="M 2825 2300 
Q 2825 1275 2462 662 
Q 2100 50 1425 50 
Q 950 50 662 400 
Q 375 750 375 1175 
L 950 1175 
Q 950 925 1087 725 
Q 1225 525 1450 525 
Q 1825 525 2012 950 
Q 2200 1375 2250 2200 
Q 2125 1925 1900 1775 
Q 1675 1625 1400 1625 
Q 925 1625 625 1975 
Q 325 2325 325 2975 
Q 325 3625 625 4025 
Q 925 4425 1525 4425 
Q 2125 4425 2475 3925 
Q 2825 3425 2825 2300 
z
M 2200 2875 
Q 2200 3425 2012 3700 
Q 1825 3975 1500 3975 
Q 1275 3975 1100 3762 
Q 925 3550 925 2975 
Q 925 2550 1062 2312 
Q 1200 2075 1500 2075 
Q 1825 2075 2012 2300 
Q 2200 2525 2200 2875 
z
" transform="scale(0.015625)"/>
        <path id="SimHei-51ac" d="M 2550 4050 
Q 2950 3250 3325 2925 
Q 3825 3275 4375 4050 
L 2550 4050 
z
M 1275 2750 
Q 1075 2975 850 3100 
Q 1400 3575 1712 4112 
Q 2025 4650 2175 5175 
Q 2475 5025 2800 4925 
Q 2600 4725 2475 4450 
L 5150 4450 
Q 4900 4000 4512 3487 
Q 4125 2975 3675 2650 
Q 4800 2025 6025 2050 
Q 5850 1800 5775 1475 
Q 4175 1725 3275 2375 
Q 2175 1725 625 1400 
Q 550 1650 325 1900 
Q 1800 2075 2925 2675 
Q 2500 3125 2175 3875 
Q 1800 3275 1275 2750 
z
M 4425 1050 
Q 4275 800 4175 550 
Q 2925 1125 2400 1275 
Q 2525 1550 2600 1775 
Q 3025 1625 3475 1450 
Q 3925 1275 4425 1050 
z
M 1800 125 
Q 1950 375 2050 600 
Q 2450 500 3100 300 
Q 3750 100 4625 -200 
Q 4475 -425 4375 -700 
Q 3900 -450 1800 125 
z
" transform="scale(0.015625)"/>
       </defs>
       <use xlink:href="#SimHei-31"/>
       <use xlink:href="#SimHei-39" x="50"/>
       <use xlink:href="#SimHei-51ac" x="100"/>
      </g>
     </g>
    </g>
    <g id="xtick_2">
     <g id="text_2">
      <!-- 20春 -->
      <g style="fill: #262626" transform="translate(150.548594 452.918437) scale(0.165 -0.165)">
       <defs>
        <path id="SimHei-32" d="M 2850 100 
L 300 100 
L 300 500 
Q 450 900 712 1237 
Q 975 1575 1475 2000 
Q 1850 2325 2012 2600 
Q 2175 2875 2175 3200 
Q 2175 3525 2037 3737 
Q 1900 3950 1600 3950 
Q 1350 3950 1162 3725 
Q 975 3500 975 2925 
L 400 2925 
Q 425 3650 737 4037 
Q 1050 4425 1625 4425 
Q 2175 4425 2475 4087 
Q 2775 3750 2775 3175 
Q 2775 2700 2500 2350 
Q 2225 2000 1825 1650 
Q 1375 1250 1200 1050 
Q 1025 850 875 575 
L 2850 575 
L 2850 100 
z
" transform="scale(0.015625)"/>
        <path id="SimHei-30" d="M 2975 2250 
Q 2975 1350 2650 700 
Q 2325 50 1600 50 
Q 875 50 537 700 
Q 200 1350 200 2250 
Q 200 3150 537 3787 
Q 875 4425 1600 4425 
Q 2325 4425 2650 3787 
Q 2975 3150 2975 2250 
z
M 2375 2250 
Q 2375 3050 2187 3500 
Q 2000 3950 1600 3950 
Q 1200 3950 1000 3500 
Q 800 3050 800 2250 
Q 800 1450 1000 987 
Q 1200 525 1600 525 
Q 2000 525 2187 987 
Q 2375 1450 2375 2250 
z
" transform="scale(0.015625)"/>
        <path id="SimHei-6625" d="M 3125 5275 
Q 3450 5175 3725 5150 
Q 3625 5100 3525 4650 
L 4725 4650 
Q 5175 4650 5675 4700 
L 5675 4250 
Q 5175 4275 4875 4275 
L 3450 4275 
Q 3400 4100 3325 3775 
L 4950 3775 
Q 5125 3775 5475 3800 
L 5475 3375 
Q 5025 3400 4875 3400 
L 3200 3400 
Q 3100 3125 2925 2850 
L 5050 2850 
Q 5475 2850 5925 2875 
L 5925 2450 
Q 5475 2475 4450 2475 
Q 4700 2125 5112 1862 
Q 5525 1600 6150 1450 
Q 5950 1275 5825 950 
Q 5325 1200 4900 1475 
L 4900 175 
Q 4900 -200 4925 -650 
L 4425 -650 
L 4425 -300 
L 2200 -300 
L 2200 -625 
L 1700 -625 
Q 1725 -175 1725 150 
L 1725 1550 
Q 1300 1225 750 875 
Q 600 1125 350 1300 
Q 825 1475 1287 1775 
Q 1750 2075 2125 2475 
L 1275 2475 
Q 1000 2475 575 2425 
L 575 2875 
Q 1000 2850 1325 2850 
L 2400 2850 
Q 2600 3125 2700 3400 
L 1850 3400 
Q 1600 3400 1125 3375 
L 1125 3800 
Q 1600 3775 1900 3775 
L 2850 3775 
Q 2925 4000 2975 4275 
L 1650 4275 
Q 1375 4275 900 4250 
L 900 4675 
Q 1375 4650 1800 4650 
L 3050 4650 
Q 3100 4900 3125 5275 
z
M 2700 2475 
Q 2375 2075 2100 1875 
L 4375 1875 
Q 4175 2075 3950 2475 
L 2700 2475 
z
M 2200 1500 
L 2200 1000 
L 4425 1000 
L 4425 1500 
L 2200 1500 
z
M 2200 625 
L 2200 75 
L 4425 75 
L 4425 625 
L 2200 625 
z
" transform="scale(0.015625)"/>
       </defs>
       <use xlink:href="#SimHei-32"/>
       <use xlink:href="#SimHei-30" x="50"/>
       <use xlink:href="#SimHei-6625" x="100"/>
      </g>
     </g>
    </g>
    <g id="xtick_3">
     <g id="text_3">
      <!-- 20夏 -->
      <g style="fill: #262626" transform="translate(215.07349 451.951641) scale(0.165 -0.165)">
       <defs>
        <path id="SimHei-590f" d="M 1775 3850 
L 1775 3500 
L 4625 3500 
L 4625 3850 
L 1775 3850 
z
M 1775 3175 
L 1775 2850 
L 4625 2850 
L 4625 3175 
L 1775 3175 
z
M 1775 2550 
L 1775 2250 
L 4625 2250 
L 4625 2550 
L 1775 2550 
z
M 425 4900 
Q 850 4875 1350 4875 
L 4875 4875 
Q 5400 4875 5850 4900 
L 5850 4525 
Q 5400 4550 4900 4550 
L 3325 4550 
Q 3250 4350 3175 4125 
L 5150 4125 
Q 5125 3775 5125 3025 
Q 5125 2275 5150 1875 
L 2725 1875 
Q 2600 1700 2425 1525 
L 4775 1525 
Q 4575 1200 4350 900 
Q 4125 600 3725 300 
Q 4225 100 4712 25 
Q 5200 -50 5975 -100 
Q 5725 -375 5650 -625 
Q 4850 -525 4362 -400 
Q 3875 -275 3250 0 
Q 2650 -300 2137 -425 
Q 1625 -550 850 -650 
Q 700 -375 425 -150 
Q 900 -150 1562 -62 
Q 2225 25 2850 250 
Q 2425 475 1850 1000 
Q 1400 675 800 475 
Q 675 675 450 875 
Q 1075 1050 1487 1312 
Q 1900 1575 2150 1875 
L 1250 1875 
Q 1275 2250 1275 3012 
Q 1275 3775 1250 4125 
L 2700 4125 
Q 2750 4350 2800 4550 
L 1375 4550 
Q 850 4550 425 4525 
L 425 4900 
z
M 2250 1200 
Q 2750 675 3275 500 
Q 3775 850 4025 1200 
L 2250 1200 
z
" transform="scale(0.015625)"/>
       </defs>
       <use xlink:href="#SimHei-32"/>
       <use xlink:href="#SimHei-30" x="50"/>
       <use xlink:href="#SimHei-590f" x="100"/>
      </g>
     </g>
    </g>
    <g id="xtick_4">
     <g id="text_4">
      <!-- 20秋 -->
      <g style="fill: #262626" transform="translate(279.598385 452.596172) scale(0.165 -0.165)">
       <defs>
        <path id="SimHei-79cb" d="M 3350 2350 
Q 3100 2400 2900 2425 
Q 3125 3175 3225 3975 
Q 3450 3900 3750 3875 
Q 3650 3700 3550 3212 
Q 3450 2725 3350 2350 
z
M 6150 -250 
Q 5825 -350 5675 -625 
Q 5125 -100 4825 425 
Q 4525 950 4275 1725 
Q 4050 875 3662 325 
Q 3275 -225 2775 -650 
Q 2600 -425 2300 -300 
Q 3075 225 3462 937 
Q 3850 1650 3937 2375 
Q 4025 3100 4025 3837 
Q 4025 4575 4000 5150 
Q 4200 5150 4600 5100 
Q 4525 4850 4500 4375 
Q 4475 3900 4487 3312 
Q 4500 2725 4612 2137 
Q 4725 1550 5087 925 
Q 5450 300 6150 -250 
z
M 5300 2275 
Q 5050 2375 4825 2400 
Q 5125 3175 5225 3925 
Q 5425 3875 5750 3800 
Q 5650 3625 5537 3187 
Q 5425 2750 5300 2275 
z
M 1950 225 
Q 1950 -250 1975 -600 
L 1475 -600 
Q 1500 -275 1500 225 
L 1500 1950 
Q 1075 1125 575 425 
Q 475 700 250 875 
Q 650 1275 937 1762 
Q 1225 2250 1400 2800 
Q 725 2800 400 2775 
L 400 3225 
Q 675 3200 1500 3200 
L 1500 4250 
Q 875 4150 600 4075 
Q 500 4350 375 4525 
Q 775 4550 1500 4712 
Q 2225 4875 2650 5100 
Q 2775 4825 3000 4600 
Q 2625 4525 1950 4350 
L 1950 3200 
Q 2325 3200 2675 3225 
L 2675 2775 
Q 2300 2800 1950 2800 
L 1950 225 
z
M 1975 1975 
Q 2125 2100 2325 2275 
Q 2675 1775 2925 1375 
Q 2700 1250 2525 1100 
Q 2350 1475 1975 1975 
z
" transform="scale(0.015625)"/>
       </defs>
       <use xlink:href="#SimHei-32"/>
       <use xlink:href="#SimHei-30" x="50"/>
       <use xlink:href="#SimHei-79cb" x="100"/>
      </g>
     </g>
    </g>
    <g id="xtick_5">
     <g id="text_5">
      <!-- 20冬 -->
      <g style="fill: #262626" transform="translate(344.123281 452.789531) scale(0.165 -0.165)">
       <use xlink:href="#SimHei-32"/>
       <use xlink:href="#SimHei-30" x="50"/>
       <use xlink:href="#SimHei-51ac" x="100"/>
      </g>
     </g>
    </g>
    <g id="xtick_6">
     <g id="text_6">
      <!-- 21春 -->
      <g style="fill: #262626" transform="translate(408.648177 452.918437) scale(0.165 -0.165)">
       <use xlink:href="#SimHei-32"/>
       <use xlink:href="#SimHei-31" x="50"/>
       <use xlink:href="#SimHei-6625" x="100"/>
      </g>
     </g>
    </g>
    <g id="xtick_7">
     <g id="text_7">
      <!-- 21夏 -->
      <g style="fill: #262626" transform="translate(473.173073 451.951641) scale(0.165 -0.165)">
       <use xlink:href="#SimHei-32"/>
       <use xlink:href="#SimHei-31" x="50"/>
       <use xlink:href="#SimHei-590f" x="100"/>
      </g>
     </g>
    </g>
    <g id="xtick_8">
     <g id="text_8">
      <!-- 21秋 -->
      <g style="fill: #262626" transform="translate(537.697969 452.596172) scale(0.165 -0.165)">
       <use xlink:href="#SimHei-32"/>
       <use xlink:href="#SimHei-31" x="50"/>
       <use xlink:href="#SimHei-79cb" x="100"/>
      </g>
     </g>
    </g>
    <g id="xtick_9">
     <g id="text_9">
      <!-- 22春 -->
      <g style="fill: #262626" transform="translate(602.222865 452.918437) scale(0.165 -0.165)">
       <use xlink:href="#SimHei-32"/>
       <use xlink:href="#SimHei-32" x="50"/>
       <use xlink:href="#SimHei-6625" x="100"/>
      </g>
     </g>
    </g>
    <g id="xtick_10">
     <g id="text_10">
      <!-- 22夏 -->
      <g style="fill: #262626" transform="translate(666.74776 451.951641) scale(0.165 -0.165)">
       <use xlink:href="#SimHei-32"/>
       <use xlink:href="#SimHei-32" x="50"/>
       <use xlink:href="#SimHei-590f" x="100"/>
      </g>
     </g>
    </g>
    <g id="xtick_11">
     <g id="text_11">
      <!-- 22秋 -->
      <g style="fill: #262626" transform="translate(731.272656 452.596172) scale(0.165 -0.165)">
       <use xlink:href="#SimHei-32"/>
       <use xlink:href="#SimHei-32" x="50"/>
       <use xlink:href="#SimHei-79cb" x="100"/>
      </g>
     </g>
    </g>
    <g id="xtick_12">
     <g id="text_12">
      <!-- 22冬 -->
      <g style="fill: #262626" transform="translate(795.797552 452.789531) scale(0.165 -0.165)">
       <use xlink:href="#SimHei-32"/>
       <use xlink:href="#SimHei-32" x="50"/>
       <use xlink:href="#SimHei-51ac" x="100"/>
      </g>
     </g>
    </g>
    <g id="text_13">
     <!-- 时间 -->
     <g style="fill: #262626" transform="translate(441.410625 482.545391) scale(0.16 -0.16)">
      <defs>
       <path id="SimHei-65f6" d="M 2800 3825 
Q 3550 3800 4775 3800 
Q 4775 4550 4750 5200 
L 5275 5200 
Q 5250 4550 5250 3800 
Q 5600 3800 6000 3825 
L 6000 3350 
Q 5600 3375 5250 3375 
L 5250 25 
Q 5250 -350 4962 -450 
Q 4675 -550 4225 -600 
Q 4225 -300 3975 -25 
Q 4425 -75 4600 -50 
Q 4775 -25 4775 275 
L 4775 3375 
Q 3600 3375 2800 3350 
L 2800 3825 
z
M 3075 2475 
Q 3300 2575 3525 2700 
Q 3825 2175 4125 1575 
Q 3875 1500 3625 1350 
Q 3425 1950 3075 2475 
z
M 625 4550 
L 2575 4550 
Q 2550 3650 2550 2375 
Q 2550 1100 2575 375 
L 2075 375 
L 2075 850 
L 1125 850 
L 1125 25 
L 625 25 
Q 650 1175 650 2337 
Q 650 3500 625 4550 
z
M 1125 4125 
L 1125 2950 
L 2075 2950 
L 2075 4125 
L 1125 4125 
z
M 1125 2525 
L 1125 1275 
L 2075 1275 
L 2075 2525 
L 1125 2525 
z
" transform="scale(0.015625)"/>
       <path id="SimHei-95f4" d="M 1225 4950 
Q 1500 5150 1650 5225 
Q 1875 4925 2300 4300 
Q 2050 4175 1825 4025 
Q 1575 4525 1225 4950 
z
M 1250 500 
Q 1250 0 1275 -500 
L 775 -500 
Q 800 -25 800 525 
L 800 3100 
Q 800 3625 775 3975 
L 1275 3975 
Q 1250 3600 1250 3250 
L 1250 500 
z
M 2725 4825 
Q 3175 4800 3700 4800 
L 5600 4800 
Q 5575 4350 5575 3875 
L 5575 250 
Q 5600 -300 5287 -425 
Q 4975 -550 4600 -600 
Q 4575 -300 4400 -25 
Q 4850 -50 4987 25 
Q 5125 100 5125 350 
L 5125 4400 
L 3725 4400 
Q 3175 4400 2725 4375 
L 2725 4825 
z
M 2500 3100 
L 2500 2325 
L 3875 2325 
L 3875 3100 
L 2500 3100 
z
M 2500 1925 
L 2500 1025 
L 3875 1025 
L 3875 1925 
L 2500 1925 
z
M 2025 3500 
L 4350 3500 
Q 4325 3050 4325 2700 
L 4325 1400 
Q 4325 1075 4350 625 
L 2025 625 
Q 2050 1075 2050 1425 
L 2050 2700 
Q 2050 3050 2025 3500 
z
" transform="scale(0.015625)"/>
      </defs>
      <use xlink:href="#SimHei-65f6"/>
      <use xlink:href="#SimHei-95f4" x="100"/>
     </g>
    </g>
   </g>
   <g id="matplotlib.axis_2">
    <g id="ytick_1">
     <g id="line2d_1">
      <path d="M 70.26125 427.27 
L 844.56 427.27 
" clip-path="url(#p73c810e1b4)" style="fill: none; stroke: #cccccc; stroke-width: 1.5; stroke-linecap: round"/>
     </g>
     <g id="text_14">
      <!-- 0 -->
      <g style="fill: #262626" transform="translate(49.51125 432.909648) scale(0.165 -0.165)">
       <use xlink:href="#SimHei-30"/>
      </g>
     </g>
    </g>
    <g id="ytick_2">
     <g id="line2d_2">
      <path d="M 70.26125 348.402821 
L 844.56 348.402821 
" clip-path="url(#p73c810e1b4)" style="fill: none; stroke: #cccccc; stroke-width: 1.5; stroke-linecap: round"/>
     </g>
     <g id="text_15">
      <!-- 2 -->
      <g style="fill: #262626" transform="translate(49.51125 354.042469) scale(0.165 -0.165)">
       <use xlink:href="#SimHei-32"/>
      </g>
     </g>
    </g>
    <g id="ytick_3">
     <g id="line2d_3">
      <path d="M 70.26125 269.535642 
L 844.56 269.535642 
" clip-path="url(#p73c810e1b4)" style="fill: none; stroke: #cccccc; stroke-width: 1.5; stroke-linecap: round"/>
     </g>
     <g id="text_16">
      <!-- 4 -->
      <g style="fill: #262626" transform="translate(49.51125 275.17529) scale(0.165 -0.165)">
       <defs>
        <path id="SimHei-34" d="M 2975 1200 
L 2450 1200 
L 2450 100 
L 1875 100 
L 1875 1200 
L 200 1200 
L 200 1675 
L 1875 4425 
L 2450 4425 
L 2450 1675 
L 2975 1675 
L 2975 1200 
z
M 1875 1675 
L 1875 3525 
L 750 1675 
L 1875 1675 
z
" transform="scale(0.015625)"/>
       </defs>
       <use xlink:href="#SimHei-34"/>
      </g>
     </g>
    </g>
    <g id="ytick_4">
     <g id="line2d_4">
      <path d="M 70.26125 190.668463 
L 844.56 190.668463 
" clip-path="url(#p73c810e1b4)" style="fill: none; stroke: #cccccc; stroke-width: 1.5; stroke-linecap: round"/>
     </g>
     <g id="text_17">
      <!-- 6 -->
      <g style="fill: #262626" transform="translate(49.51125 196.308111) scale(0.165 -0.165)">
       <defs>
        <path id="SimHei-36" d="M 2850 1550 
Q 2850 850 2550 450 
Q 2250 50 1650 50 
Q 1050 50 700 550 
Q 350 1050 350 2175 
Q 350 3200 712 3812 
Q 1075 4425 1750 4425 
Q 2225 4425 2512 4075 
Q 2800 3725 2800 3300 
L 2225 3300 
Q 2225 3550 2087 3750 
Q 1950 3950 1725 3950 
Q 1350 3950 1150 3562 
Q 950 3175 925 2375 
Q 1100 2700 1300 2825 
Q 1500 2950 1775 2950 
Q 2250 2950 2550 2575 
Q 2850 2200 2850 1550 
z
M 2250 1550 
Q 2250 2000 2100 2250 
Q 1950 2500 1675 2500 
Q 1350 2500 1162 2250 
Q 975 2000 975 1650 
Q 975 1100 1162 800 
Q 1350 500 1675 500 
Q 1900 500 2075 725 
Q 2250 950 2250 1550 
z
" transform="scale(0.015625)"/>
       </defs>
       <use xlink:href="#SimHei-36"/>
      </g>
     </g>
    </g>
    <g id="ytick_5">
     <g id="line2d_5">
      <path d="M 70.26125 111.801283 
L 844.56 111.801283 
" clip-path="url(#p73c810e1b4)" style="fill: none; stroke: #cccccc; stroke-width: 1.5; stroke-linecap: round"/>
     </g>
     <g id="text_18">
      <!-- 8 -->
      <g style="fill: #262626" transform="translate(49.51125 117.440932) scale(0.165 -0.165)">
       <defs>
        <path id="SimHei-38" d="M 2875 1325 
Q 2875 700 2525 375 
Q 2175 50 1575 50 
Q 975 50 625 375 
Q 275 700 275 1325 
Q 275 1650 475 1912 
Q 675 2175 1025 2300 
Q 725 2425 562 2650 
Q 400 2875 400 3225 
Q 400 3775 750 4100 
Q 1100 4425 1575 4425 
Q 2050 4425 2400 4100 
Q 2750 3775 2750 3225 
Q 2750 2875 2587 2650 
Q 2425 2425 2125 2300 
Q 2475 2175 2675 1912 
Q 2875 1650 2875 1325 
z
M 2200 3225 
Q 2200 3625 2025 3800 
Q 1850 3975 1575 3975 
Q 1300 3975 1125 3800 
Q 950 3625 950 3225 
Q 950 2825 1137 2662 
Q 1325 2500 1575 2500 
Q 1825 2500 2012 2662 
Q 2200 2825 2200 3225 
z
M 2300 1325 
Q 2300 1675 2112 1875 
Q 1925 2075 1575 2075 
Q 1225 2075 1037 1875 
Q 850 1675 850 1325 
Q 850 925 1050 712 
Q 1250 500 1575 500 
Q 1900 500 2100 712 
Q 2300 925 2300 1325 
z
" transform="scale(0.015625)"/>
       </defs>
       <use xlink:href="#SimHei-38"/>
      </g>
     </g>
    </g>
    <g id="text_19">
     <!-- 溶解氧 (mg/L) -->
     <g style="fill: #262626" transform="translate(32.44875 294.6025) rotate(-90) scale(0.16 -0.16)">
      <defs>
       <path id="SimHei-6eb6" d="M 3575 5075 
Q 3800 5100 4050 5150 
Q 4125 4850 4200 4425 
L 5825 4425 
Q 5800 4175 5800 3925 
Q 5800 3675 5825 3450 
L 5350 3450 
L 5350 4075 
L 2475 4075 
L 2475 3350 
L 2000 3350 
Q 2025 3625 2025 3875 
Q 2025 4125 2000 4425 
L 3725 4425 
Q 3700 4650 3575 5075 
z
M 2475 2325 
Q 2300 2500 2075 2625 
Q 2350 2800 2637 3112 
Q 2925 3425 3100 3750 
Q 3300 3600 3600 3450 
Q 3400 3350 3112 3012 
Q 2825 2675 2475 2325 
z
M 4400 3325 
Q 4600 3475 4700 3675 
Q 5350 3175 5750 2825 
Q 5525 2675 5400 2475 
Q 5125 2800 4400 3325 
z
M 3750 3175 
Q 3975 3025 4300 2925 
L 4150 2775 
Q 4425 2300 4987 1950 
Q 5550 1600 6150 1500 
Q 5900 1275 5800 1050 
Q 5375 1225 5200 1325 
Q 5200 -100 5225 -625 
L 4775 -625 
L 4775 -125 
L 3025 -125 
L 3025 -625 
L 2575 -625 
Q 2600 -100 2600 1300 
Q 2375 1150 2125 950 
Q 2000 1175 1750 1350 
Q 2450 1650 2937 2137 
Q 3425 2625 3750 3175 
z
M 3875 2550 
Q 3400 1925 2850 1475 
L 4900 1475 
Q 4325 1850 3875 2550 
z
M 3025 1125 
L 3025 225 
L 4775 225 
L 4775 1125 
L 3025 1125 
z
M 650 4450 
Q 825 4675 900 4850 
Q 1475 4550 1825 4250 
Q 1625 4075 1550 3875 
Q 1175 4200 650 4450 
z
M 475 3050 
Q 600 3250 700 3450 
Q 1275 3175 1675 2875 
Q 1500 2700 1425 2475 
Q 1150 2725 475 3050 
z
M 900 -475 
Q 650 -275 375 -175 
Q 675 300 875 950 
Q 1075 1600 1125 1950 
Q 1350 1800 1575 1675 
Q 1450 1425 1237 675 
Q 1025 -75 900 -475 
z
" transform="scale(0.015625)"/>
       <path id="SimHei-89e3" d="M 1375 4150 
Q 1150 3850 975 3600 
L 1825 3600 
Q 2025 3850 2175 4150 
L 1375 4150 
z
M 1325 3225 
L 1325 2575 
L 1800 2575 
L 1800 3225 
L 1325 3225 
z
M 2225 3225 
L 2225 2575 
L 2750 2575 
L 2750 3225 
L 2225 3225 
z
M 1325 2200 
L 1300 1525 
L 1800 1525 
L 1800 2200 
L 1325 2200 
z
M 2225 2200 
L 2225 1525 
L 2750 1525 
L 2750 2200 
L 2225 2200 
z
M 1400 5225 
Q 1600 5100 1925 4950 
Q 1725 4850 1625 4525 
L 2925 4525 
Q 2800 4350 2600 4050 
Q 2400 3750 2325 3600 
L 3225 3600 
Q 3175 3100 3175 2625 
L 3175 75 
Q 3175 -200 3012 -287 
Q 2850 -375 2500 -425 
Q 2450 -150 2350 75 
Q 2550 75 2650 87 
Q 2750 100 2750 325 
L 2750 1150 
L 2225 1150 
L 2225 -25 
L 1800 -25 
L 1800 1150 
L 1275 1150 
Q 1250 775 1150 375 
Q 1050 -25 825 -475 
Q 600 -350 350 -225 
Q 600 100 725 612 
Q 850 1125 875 1912 
Q 900 2700 875 3475 
Q 675 3250 550 3125 
Q 400 3325 200 3475 
Q 575 3775 887 4212 
Q 1200 4650 1400 5225 
z
M 5925 4850 
Q 5850 3650 5787 3400 
Q 5725 3150 5475 3062 
Q 5225 2975 4900 2950 
Q 4850 3200 4725 3450 
Q 5000 3450 5162 3475 
Q 5325 3500 5350 3625 
Q 5375 3750 5425 4475 
L 4525 4475 
Q 4375 3800 4225 3487 
Q 4075 3175 3750 2825 
Q 3600 3025 3350 3175 
Q 3625 3375 3800 3687 
Q 3975 4000 4050 4475 
Q 3750 4475 3325 4450 
L 3325 4875 
Q 3725 4850 4050 4850 
L 5925 4850 
z
M 3825 2650 
Q 4075 2525 4325 2400 
Q 4200 2300 4150 2100 
L 4575 2100 
Q 4575 2625 4550 2800 
L 5050 2800 
Q 5000 2575 5000 2100 
L 5350 2100 
Q 5725 2100 5950 2125 
L 5950 1675 
Q 5625 1725 5300 1725 
L 5000 1725 
L 5000 1025 
L 5175 1025 
Q 5650 1025 6150 1050 
L 6150 625 
Q 5675 650 5175 650 
L 5000 650 
L 5000 375 
Q 5000 25 5025 -475 
L 4550 -475 
Q 4575 25 4575 375 
L 4575 650 
L 4025 650 
Q 3750 650 3325 625 
L 3325 1050 
Q 3700 1025 4025 1025 
L 4575 1025 
L 4575 1725 
L 3950 1725 
Q 3875 1525 3725 1250 
Q 3550 1350 3325 1500 
Q 3500 1700 3625 2025 
Q 3750 2350 3825 2650 
z
" transform="scale(0.015625)"/>
       <path id="SimHei-6c27" d="M 1475 2400 
Q 1600 2500 1825 2650 
Q 2125 2350 2300 2075 
Q 2125 1950 1950 1850 
L 2900 1850 
Q 3150 2175 3325 2600 
Q 3525 2475 3825 2375 
Q 3650 2275 3375 1850 
L 3600 1850 
Q 3950 1850 4300 1875 
L 4300 1500 
Q 3825 1525 3525 1525 
L 2825 1525 
L 2825 1075 
L 3400 1075 
Q 3675 1075 4050 1100 
L 4050 725 
Q 3675 750 3400 750 
L 2825 750 
L 2825 325 
L 3775 325 
Q 4075 325 4450 350 
L 4450 -25 
Q 4075 0 3775 0 
L 2825 0 
Q 2825 -325 2850 -650 
L 2375 -650 
Q 2400 -325 2400 0 
L 1325 0 
Q 975 0 600 -25 
L 600 350 
Q 975 350 1325 325 
L 2400 325 
L 2400 750 
L 1700 750 
Q 1300 750 925 725 
L 925 1100 
Q 1300 1100 1675 1075 
L 2400 1075 
L 2400 1525 
L 1525 1525 
Q 1200 1525 750 1500 
L 750 1875 
Q 1200 1875 1525 1850 
L 1925 1850 
Q 1725 2150 1475 2400 
z
M 1675 5200 
Q 1925 5075 2225 4950 
Q 2025 4825 1875 4650 
L 4725 4650 
Q 5050 4650 5625 4675 
L 5625 4300 
Q 5175 4325 4725 4325 
L 1650 4325 
Q 1425 4100 1175 3812 
Q 925 3525 600 3225 
Q 450 3375 200 3550 
Q 575 3775 950 4175 
Q 1325 4575 1675 5200 
z
M 1425 3800 
Q 2025 3775 2500 3775 
L 4250 3775 
Q 4625 3800 5050 3825 
L 5050 3425 
Q 4625 3450 4250 3450 
L 2500 3450 
Q 2025 3450 1425 3425 
L 1425 3800 
z
M 6125 225 
Q 5850 -300 5600 -562 
Q 5350 -825 5062 -337 
Q 4775 150 4725 1037 
Q 4675 1925 4725 2725 
L 1775 2725 
Q 1375 2725 750 2675 
L 750 3075 
Q 1375 3050 1775 3050 
L 5200 3050 
Q 5100 2225 5125 1525 
Q 5150 825 5300 262 
Q 5450 -300 5650 550 
Q 5800 325 6125 225 
z
" transform="scale(0.015625)"/>
       <path id="SimHei-20" transform="scale(0.015625)"/>
       <path id="SimHei-28" d="M 3000 -225 
L 2725 -500 
Q 2100 100 1787 750 
Q 1475 1400 1475 2225 
Q 1475 3050 1787 3700 
Q 2100 4350 2725 4975 
L 3000 4700 
Q 2425 4150 2137 3562 
Q 1850 2975 1850 2225 
Q 1850 1475 2137 887 
Q 2425 300 3000 -225 
z
" transform="scale(0.015625)"/>
       <path id="SimHei-6d" d="M 3075 100 
L 2575 100 
L 2575 2125 
Q 2575 2275 2525 2375 
Q 2475 2475 2325 2475 
Q 2150 2475 2000 2287 
Q 1850 2100 1850 1800 
L 1850 100 
L 1350 100 
L 1350 2125 
Q 1350 2275 1300 2375 
Q 1250 2475 1100 2475 
Q 925 2475 775 2287 
Q 625 2100 625 1800 
L 625 100 
L 125 100 
L 125 2900 
L 625 2900 
L 625 2525 
Q 750 2725 925 2837 
Q 1100 2950 1300 2950 
Q 1500 2950 1637 2837 
Q 1775 2725 1825 2525 
Q 1950 2725 2112 2837 
Q 2275 2950 2475 2950 
Q 2775 2950 2925 2787 
Q 3075 2625 3075 2325 
L 3075 100 
z
" transform="scale(0.015625)"/>
       <path id="SimHei-67" d="M 3000 2475 
Q 2825 2525 2662 2537 
Q 2500 2550 2325 2500 
Q 2400 2425 2450 2312 
Q 2500 2200 2500 1975 
Q 2500 1550 2212 1275 
Q 1925 1000 1500 1000 
Q 1400 1000 1237 1037 
Q 1075 1075 975 1125 
Q 900 1075 875 1025 
Q 850 975 850 900 
Q 850 775 1025 712 
Q 1200 650 1650 650 
Q 2375 650 2637 450 
Q 2900 250 2900 -50 
Q 2900 -450 2512 -637 
Q 2125 -825 1600 -825 
Q 925 -825 600 -650 
Q 275 -475 275 -175 
Q 275 -25 400 125 
Q 525 275 725 375 
Q 575 450 487 562 
Q 400 675 400 850 
Q 400 1000 512 1112 
Q 625 1225 775 1300 
Q 650 1425 575 1600 
Q 500 1775 500 1975 
Q 500 2400 787 2675 
Q 1075 2950 1500 2950 
Q 1725 2950 1887 2887 
Q 2050 2825 2175 2700 
Q 2375 2850 2575 2912 
Q 2775 2975 3000 2950 
L 3000 2475 
z
M 2000 1975 
Q 2000 2225 1875 2375 
Q 1750 2525 1500 2525 
Q 1250 2525 1125 2375 
Q 1000 2225 1000 1975 
Q 1000 1725 1125 1575 
Q 1250 1425 1500 1425 
Q 1750 1425 1875 1575 
Q 2000 1725 2000 1975 
z
M 2425 -100 
Q 2425 0 2312 100 
Q 2200 200 1750 200 
Q 1650 200 1475 212 
Q 1300 225 1075 250 
Q 875 175 800 75 
Q 725 -25 725 -125 
Q 725 -275 925 -375 
Q 1125 -475 1625 -475 
Q 2050 -475 2237 -362 
Q 2425 -250 2425 -100 
z
" transform="scale(0.015625)"/>
       <path id="SimHei-2f" d="M 3025 4525 
L 375 -200 
L 125 -50 
L 2775 4675 
L 3025 4525 
z
" transform="scale(0.015625)"/>
       <path id="SimHei-4c" d="M 2925 100 
L 325 100 
L 325 4375 
L 900 4375 
L 900 575 
L 2925 575 
L 2925 100 
z
" transform="scale(0.015625)"/>
       <path id="SimHei-29" d="M 1700 2225 
Q 1700 1400 1387 750 
Q 1075 100 450 -500 
L 175 -225 
Q 750 300 1037 887 
Q 1325 1475 1325 2225 
Q 1325 2975 1037 3562 
Q 750 4150 175 4700 
L 450 4975 
Q 1075 4350 1387 3700 
Q 1700 3050 1700 2225 
z
" transform="scale(0.015625)"/>
      </defs>
      <use xlink:href="#SimHei-6eb6"/>
      <use xlink:href="#SimHei-89e3" x="100"/>
      <use xlink:href="#SimHei-6c27" x="200"/>
      <use xlink:href="#SimHei-20" x="300"/>
      <use xlink:href="#SimHei-28" x="350"/>
      <use xlink:href="#SimHei-6d" x="400"/>
      <use xlink:href="#SimHei-67" x="450"/>
      <use xlink:href="#SimHei-2f" x="500"/>
      <use xlink:href="#SimHei-4c" x="550"/>
      <use xlink:href="#SimHei-29" x="600"/>
     </g>
    </g>
   </g>
   <g id="patch_3">
    <path d="M 76.71374 427.27 
L 128.333656 427.27 
L 128.333656 75.522381 
L 76.71374 75.522381 
z
" clip-path="url(#p73c810e1b4)" style="fill: #a3c3d7; stroke: #ffffff; stroke-width: 1.5; stroke-linejoin: miter"/>
   </g>
   <g id="patch_4">
    <path d="M 141.238635 427.27 
L 192.858552 427.27 
L 192.858552 76.311053 
L 141.238635 76.311053 
z
" clip-path="url(#p73c810e1b4)" style="fill: #92b7d0; stroke: #ffffff; stroke-width: 1.5; stroke-linejoin: miter"/>
   </g>
   <g id="patch_5">
    <path d="M 205.763531 427.27 
L 257.383448 427.27 
L 257.383448 213.145609 
L 205.763531 213.145609 
z
" clip-path="url(#p73c810e1b4)" style="fill: #81acc9; stroke: #ffffff; stroke-width: 1.5; stroke-linejoin: miter"/>
   </g>
   <g id="patch_6">
    <path d="M 270.288427 427.27 
L 321.908344 427.27 
L 321.908344 143.742491 
L 270.288427 143.742491 
z
" clip-path="url(#p73c810e1b4)" style="fill: #71a1c1; stroke: #ffffff; stroke-width: 1.5; stroke-linejoin: miter"/>
   </g>
   <g id="patch_7">
    <path d="M 334.813323 427.27 
L 386.43324 427.27 
L 386.43324 101.154214 
L 334.813323 101.154214 
z
" clip-path="url(#p73c810e1b4)" style="fill: #6195ba; stroke: #ffffff; stroke-width: 1.5; stroke-linejoin: miter"/>
   </g>
   <g id="patch_8">
    <path d="M 399.338219 427.27 
L 450.958135 427.27 
L 450.958135 201.315532 
L 399.338219 201.315532 
z
" clip-path="url(#p73c810e1b4)" style="fill: #508ab3; stroke: #ffffff; stroke-width: 1.5; stroke-linejoin: miter"/>
   </g>
   <g id="patch_9">
    <path d="M 463.863115 427.27 
L 515.483031 427.27 
L 515.483031 163.06495 
L 463.863115 163.06495 
z
" clip-path="url(#p73c810e1b4)" style="fill: #477ea6; stroke: #ffffff; stroke-width: 1.5; stroke-linejoin: miter"/>
   </g>
   <g id="patch_10">
    <path d="M 528.38801 427.27 
L 580.007927 427.27 
L 580.007927 154.38956 
L 528.38801 154.38956 
z
" clip-path="url(#p73c810e1b4)" style="fill: #437192; stroke: #ffffff; stroke-width: 1.5; stroke-linejoin: miter"/>
   </g>
   <g id="patch_11">
    <path d="M 592.912906 427.27 
L 644.532823 427.27 
L 644.532823 111.406947 
L 592.912906 111.406947 
z
" clip-path="url(#p73c810e1b4)" style="fill: #40657f; stroke: #ffffff; stroke-width: 1.5; stroke-linejoin: miter"/>
   </g>
   <g id="patch_12">
    <path d="M 657.437802 427.27 
L 709.057719 427.27 
L 709.057719 198.949516 
L 657.437802 198.949516 
z
" clip-path="url(#p73c810e1b4)" style="fill: #3d596c; stroke: #ffffff; stroke-width: 1.5; stroke-linejoin: miter"/>
   </g>
   <g id="patch_13">
    <path d="M 721.962698 427.27 
L 773.582615 427.27 
L 773.582615 189.091119 
L 721.962698 189.091119 
z
" clip-path="url(#p73c810e1b4)" style="fill: #394c59; stroke: #ffffff; stroke-width: 1.5; stroke-linejoin: miter"/>
   </g>
   <g id="patch_14">
    <path d="M 786.487594 427.27 
L 838.10751 427.27 
L 838.10751 152.023545 
L 786.487594 152.023545 
z
" clip-path="url(#p73c810e1b4)" style="fill: #363f46; stroke: #ffffff; stroke-width: 1.5; stroke-linejoin: miter"/>
   </g>
   <g id="line2d_6">
    <path clip-path="url(#p73c810e1b4)" style="fill: none; stroke: #424242; stroke-width: 3.375; stroke-linecap: round"/>
   </g>
   <g id="line2d_7">
    <path clip-path="url(#p73c810e1b4)" style="fill: none; stroke: #424242; stroke-width: 3.375; stroke-linecap: round"/>
   </g>
   <g id="line2d_8">
    <path clip-path="url(#p73c810e1b4)" style="fill: none; stroke: #424242; stroke-width: 3.375; stroke-linecap: round"/>
   </g>
   <g id="line2d_9">
    <path clip-path="url(#p73c810e1b4)" style="fill: none; stroke: #424242; stroke-width: 3.375; stroke-linecap: round"/>
   </g>
   <g id="line2d_10">
    <path clip-path="url(#p73c810e1b4)" style="fill: none; stroke: #424242; stroke-width: 3.375; stroke-linecap: round"/>
   </g>
   <g id="line2d_11">
    <path clip-path="url(#p73c810e1b4)" style="fill: none; stroke: #424242; stroke-width: 3.375; stroke-linecap: round"/>
   </g>
   <g id="line2d_12">
    <path clip-path="url(#p73c810e1b4)" style="fill: none; stroke: #424242; stroke-width: 3.375; stroke-linecap: round"/>
   </g>
   <g id="line2d_13">
    <path clip-path="url(#p73c810e1b4)" style="fill: none; stroke: #424242; stroke-width: 3.375; stroke-linecap: round"/>
   </g>
   <g id="line2d_14">
    <path clip-path="url(#p73c810e1b4)" style="fill: none; stroke: #424242; stroke-width: 3.375; stroke-linecap: round"/>
   </g>
   <g id="line2d_15">
    <path clip-path="url(#p73c810e1b4)" style="fill: none; stroke: #424242; stroke-width: 3.375; stroke-linecap: round"/>
   </g>
   <g id="line2d_16">
    <path clip-path="url(#p73c810e1b4)" style="fill: none; stroke: #424242; stroke-width: 3.375; stroke-linecap: round"/>
   </g>
   <g id="line2d_17">
    <path clip-path="url(#p73c810e1b4)" style="fill: none; stroke: #424242; stroke-width: 3.375; stroke-linecap: round"/>
   </g>
   <g id="patch_15">
    <path d="M 70.26125 427.27 
L 70.26125 57.935 
" style="fill: none; stroke: #cccccc; stroke-width: 1.875; stroke-linejoin: miter; stroke-linecap: square"/>
   </g>
   <g id="patch_16">
    <path d="M 844.56 427.27 
L 844.56 57.935 
" style="fill: none; stroke: #cccccc; stroke-width: 1.875; stroke-linejoin: miter; stroke-linecap: square"/>
   </g>
   <g id="patch_17">
    <path d="M 70.26125 427.27 
L 844.56 427.27 
" style="fill: none; stroke: #cccccc; stroke-width: 1.875; stroke-linejoin: miter; stroke-linecap: square"/>
   </g>
   <g id="patch_18">
    <path d="M 70.26125 57.935 
L 844.56 57.935 
" style="fill: none; stroke: #cccccc; stroke-width: 1.875; stroke-linejoin: miter; stroke-linecap: square"/>
   </g>
   <g id="text_20">
    <!-- 8.92 -->
    <g transform="translate(90.523698 70.032147) scale(0.12 -0.12)">
     <defs>
      <path id="SimHei-2e" d="M 1100 100 
L 525 100 
L 525 650 
L 1100 650 
L 1100 100 
z
" transform="scale(0.015625)"/>
     </defs>
     <use xlink:href="#SimHei-38"/>
     <use xlink:href="#SimHei-2e" x="50"/>
     <use xlink:href="#SimHei-39" x="100"/>
     <use xlink:href="#SimHei-32" x="150"/>
    </g>
   </g>
   <g id="text_21">
    <!-- 8.90 -->
    <g transform="translate(155.048594 70.820819) scale(0.12 -0.12)">
     <use xlink:href="#SimHei-38"/>
     <use xlink:href="#SimHei-2e" x="50"/>
     <use xlink:href="#SimHei-39" x="100"/>
     <use xlink:href="#SimHei-30" x="150"/>
    </g>
   </g>
   <g id="text_22">
    <!-- 5.43 -->
    <g transform="translate(219.57349 207.655375) scale(0.12 -0.12)">
     <defs>
      <path id="SimHei-35" d="M 2825 1650 
Q 2825 900 2462 475 
Q 2100 50 1500 50 
Q 975 50 637 400 
Q 300 750 275 1350 
L 850 1350 
Q 850 975 1025 750 
Q 1200 525 1525 525 
Q 1850 525 2037 800 
Q 2225 1075 2225 1650 
Q 2225 2150 2062 2387 
Q 1900 2625 1625 2625 
Q 1400 2625 1237 2525 
Q 1075 2425 925 2175 
L 425 2175 
L 575 4375 
L 2725 4375 
L 2725 3900 
L 1050 3900 
L 950 2750 
Q 1100 2900 1275 2975 
Q 1450 3050 1750 3050 
Q 2225 3050 2525 2687 
Q 2825 2325 2825 1650 
z
" transform="scale(0.015625)"/>
      <path id="SimHei-33" d="M 2825 1300 
Q 2825 725 2462 387 
Q 2100 50 1550 50 
Q 1000 50 637 387 
Q 275 725 275 1425 
L 850 1425 
Q 850 950 1037 737 
Q 1225 525 1550 525 
Q 1875 525 2050 725 
Q 2225 925 2225 1350 
Q 2225 1700 2037 1900 
Q 1850 2100 1375 2100 
L 1375 2525 
Q 1775 2525 1962 2725 
Q 2150 2925 2150 3325 
Q 2150 3625 2012 3800 
Q 1875 3975 1575 3975 
Q 1275 3975 1112 3762 
Q 950 3550 925 3150 
L 375 3150 
Q 425 3725 737 4075 
Q 1050 4425 1575 4425 
Q 2125 4425 2425 4112 
Q 2725 3800 2725 3350 
Q 2725 2925 2575 2687 
Q 2425 2450 2075 2325 
Q 2425 2250 2625 1975 
Q 2825 1700 2825 1300 
z
" transform="scale(0.015625)"/>
     </defs>
     <use xlink:href="#SimHei-35"/>
     <use xlink:href="#SimHei-2e" x="50"/>
     <use xlink:href="#SimHei-34" x="100"/>
     <use xlink:href="#SimHei-33" x="150"/>
    </g>
   </g>
   <g id="text_23">
    <!-- 7.19 -->
    <g transform="translate(284.098385 138.252257) scale(0.12 -0.12)">
     <defs>
      <path id="SimHei-37" d="M 2775 3850 
L 1600 100 
L 1025 100 
L 2225 3900 
L 400 3900 
L 400 4375 
L 2775 4375 
L 2775 3850 
z
" transform="scale(0.015625)"/>
     </defs>
     <use xlink:href="#SimHei-37"/>
     <use xlink:href="#SimHei-2e" x="50"/>
     <use xlink:href="#SimHei-31" x="100"/>
     <use xlink:href="#SimHei-39" x="150"/>
    </g>
   </g>
   <g id="text_24">
    <!-- 8.27 -->
    <g transform="translate(348.623281 95.66398) scale(0.12 -0.12)">
     <use xlink:href="#SimHei-38"/>
     <use xlink:href="#SimHei-2e" x="50"/>
     <use xlink:href="#SimHei-32" x="100"/>
     <use xlink:href="#SimHei-37" x="150"/>
    </g>
   </g>
   <g id="text_25">
    <!-- 5.73 -->
    <g transform="translate(413.148177 195.825298) scale(0.12 -0.12)">
     <use xlink:href="#SimHei-35"/>
     <use xlink:href="#SimHei-2e" x="50"/>
     <use xlink:href="#SimHei-37" x="100"/>
     <use xlink:href="#SimHei-33" x="150"/>
    </g>
   </g>
   <g id="text_26">
    <!-- 6.70 -->
    <g transform="translate(477.673073 157.574716) scale(0.12 -0.12)">
     <use xlink:href="#SimHei-36"/>
     <use xlink:href="#SimHei-2e" x="50"/>
     <use xlink:href="#SimHei-37" x="100"/>
     <use xlink:href="#SimHei-30" x="150"/>
    </g>
   </g>
   <g id="text_27">
    <!-- 6.92 -->
    <g transform="translate(542.197969 148.899326) scale(0.12 -0.12)">
     <use xlink:href="#SimHei-36"/>
     <use xlink:href="#SimHei-2e" x="50"/>
     <use xlink:href="#SimHei-39" x="100"/>
     <use xlink:href="#SimHei-32" x="150"/>
    </g>
   </g>
   <g id="text_28">
    <!-- 8.01 -->
    <g transform="translate(606.722865 105.916714) scale(0.12 -0.12)">
     <use xlink:href="#SimHei-38"/>
     <use xlink:href="#SimHei-2e" x="50"/>
     <use xlink:href="#SimHei-30" x="100"/>
     <use xlink:href="#SimHei-31" x="150"/>
    </g>
   </g>
   <g id="text_29">
    <!-- 5.79 -->
    <g transform="translate(671.24776 193.459282) scale(0.12 -0.12)">
     <use xlink:href="#SimHei-35"/>
     <use xlink:href="#SimHei-2e" x="50"/>
     <use xlink:href="#SimHei-37" x="100"/>
     <use xlink:href="#SimHei-39" x="150"/>
    </g>
   </g>
   <g id="text_30">
    <!-- 6.04 -->
    <g transform="translate(735.772656 183.600885) scale(0.12 -0.12)">
     <use xlink:href="#SimHei-36"/>
     <use xlink:href="#SimHei-2e" x="50"/>
     <use xlink:href="#SimHei-30" x="100"/>
     <use xlink:href="#SimHei-34" x="150"/>
    </g>
   </g>
   <g id="text_31">
    <!-- 6.98 -->
    <g transform="translate(800.297552 146.533311) scale(0.12 -0.12)">
     <use xlink:href="#SimHei-36"/>
     <use xlink:href="#SimHei-2e" x="50"/>
     <use xlink:href="#SimHei-39" x="100"/>
     <use xlink:href="#SimHei-38" x="150"/>
    </g>
   </g>
   <g id="text_32">
    <!-- 各个时间点的最小溶解氧含量 (DO) -->
    <g style="fill: #262626" transform="translate(286.910625 37.935) scale(0.22 -0.22)">
     <defs>
      <path id="SimHei-5404" d="M 2350 4050 
Q 2475 3825 2712 3562 
Q 2950 3300 3325 3025 
Q 3600 3225 3850 3475 
Q 4100 3725 4325 4050 
L 2350 4050 
z
M 2000 1200 
L 2000 175 
L 4500 175 
L 4500 1200 
L 2000 1200 
z
M 2725 5000 
Q 2575 4850 2500 4712 
Q 2425 4575 2350 4450 
L 5175 4450 
Q 4925 3975 4525 3512 
Q 4125 3050 3750 2750 
Q 4350 2450 4900 2337 
Q 5450 2225 6150 2200 
Q 6000 1975 5850 1575 
Q 5200 1700 4512 1925 
Q 3825 2150 3300 2450 
Q 2475 2050 1725 1862 
Q 975 1675 550 1575 
Q 425 1975 275 2150 
Q 850 2200 1525 2325 
Q 2200 2450 2875 2775 
Q 2600 3025 2362 3300 
Q 2125 3575 1975 3800 
Q 1800 3575 1600 3325 
Q 1400 3075 1175 2875 
Q 1025 3025 700 3200 
Q 975 3400 1362 3887 
Q 1750 4375 2050 5225 
Q 2400 5075 2725 5000 
z
M 1500 -625 
Q 1525 -225 1525 437 
Q 1525 1100 1500 1600 
L 5000 1600 
Q 4975 1150 4975 437 
Q 4975 -275 5000 -575 
L 4500 -575 
L 4500 -225 
L 2000 -225 
L 2000 -625 
L 1500 -625 
z
" transform="scale(0.015625)"/>
      <path id="SimHei-4e2a" d="M 3600 4975 
Q 3500 4875 3400 4750 
Q 4350 3225 6100 2800 
Q 5750 2425 5700 2175 
Q 4125 2825 3100 4350 
Q 2325 2975 775 2100 
Q 650 2350 325 2600 
Q 1450 3100 2087 3850 
Q 2725 4600 2900 5200 
Q 3250 5050 3600 4975 
z
M 2875 -650 
Q 2925 -50 2925 475 
L 2925 2250 
Q 2925 2650 2875 3200 
L 3475 3200 
Q 3425 2825 3425 2225 
L 3425 500 
Q 3425 -75 3475 -650 
L 2875 -650 
z
" transform="scale(0.015625)"/>
      <path id="SimHei-70b9" d="M 1775 2675 
L 1775 1600 
L 4650 1600 
L 4650 2675 
L 1775 2675 
z
M 2700 5125 
L 3250 5125 
Q 3225 4850 3225 4325 
L 4850 4325 
Q 5225 4325 5650 4350 
L 5650 3875 
Q 5250 3900 4850 3900 
L 3225 3900 
L 3225 3100 
L 5175 3100 
Q 5150 2675 5150 2150 
Q 5150 1625 5175 1175 
L 1250 1175 
Q 1275 1625 1275 2162 
Q 1275 2700 1250 3100 
L 2725 3100 
L 2725 4450 
Q 2725 4825 2700 5125 
z
M 1000 900 
Q 1250 800 1575 750 
Q 1100 -225 950 -600 
Q 700 -450 400 -350 
Q 700 25 1000 900 
z
M 2825 -400 
Q 2525 -450 2275 -525 
Q 2275 -300 2125 575 
Q 2350 650 2625 700 
Q 2750 -100 2825 -400 
z
M 4375 -350 
Q 4100 -450 3875 -550 
Q 3725 -50 3475 650 
Q 3625 725 3900 850 
Q 4275 -100 4375 -350 
z
M 4925 650 
Q 5125 750 5375 875 
Q 5675 150 5950 -375 
Q 5775 -425 5425 -600 
Q 5275 -100 4925 650 
z
" transform="scale(0.015625)"/>
      <path id="SimHei-7684" d="M 1525 5100 
Q 1850 5025 2200 4925 
Q 2100 4775 2025 4487 
Q 1950 4200 1900 3975 
L 2975 3975 
Q 2950 3525 2950 2900 
L 2950 700 
Q 2950 300 2975 -225 
L 2500 -225 
L 2500 300 
L 1200 300 
L 1200 -275 
L 725 -275 
Q 750 350 750 650 
L 750 2875 
Q 750 3525 725 3975 
L 1425 3975 
Q 1450 4225 1475 4462 
Q 1500 4700 1525 5100 
z
M 1200 3525 
L 1200 2425 
L 2500 2425 
L 2500 3525 
L 1200 3525 
z
M 1200 1950 
L 1200 775 
L 2500 775 
L 2500 1950 
L 1200 1950 
z
M 5850 3925 
Q 5800 3450 5775 3000 
L 5600 175 
Q 5525 -275 5150 -400 
Q 4775 -525 4350 -550 
Q 4350 -275 4175 25 
Q 4600 0 4850 37 
Q 5100 75 5150 350 
L 5350 3475 
L 4025 3475 
Q 3825 3050 3550 2525 
Q 3350 2675 3125 2775 
Q 3275 3000 3462 3400 
Q 3650 3800 3787 4262 
Q 3925 4725 3975 5025 
Q 4300 4875 4600 4800 
Q 4475 4600 4375 4387 
Q 4275 4175 4200 3925 
L 5850 3925 
z
M 3650 2300 
Q 3825 2400 4075 2550 
Q 4200 2325 4325 2050 
Q 4450 1775 4600 1375 
Q 4400 1300 4150 1150 
Q 4075 1425 3937 1750 
Q 3800 2075 3650 2300 
z
" transform="scale(0.015625)"/>
      <path id="SimHei-6700" d="M 1550 2500 
L 1550 2050 
L 2625 2050 
L 2625 2500 
L 1550 2500 
z
M 1550 1700 
L 1550 1275 
L 2625 1275 
L 2625 1700 
L 1550 1700 
z
M 1550 925 
L 1550 425 
L 2625 575 
L 2625 925 
L 1550 925 
z
M 650 -225 
Q 550 50 475 300 
Q 675 300 1100 350 
L 1100 2500 
Q 800 2500 425 2475 
L 425 2875 
Q 800 2850 1125 2850 
L 5050 2850 
Q 5500 2850 5900 2875 
L 5900 2475 
Q 5500 2500 5050 2500 
L 3075 2500 
L 3075 675 
Q 3225 700 3400 750 
Q 3400 550 3400 325 
Q 3225 325 3075 275 
Q 3075 -125 3100 -500 
L 2625 -500 
Q 2625 -125 2625 225 
Q 2350 175 1800 62 
Q 1250 -50 650 -225 
z
M 3600 -600 
Q 3475 -450 3250 -225 
Q 3550 -125 3762 12 
Q 3975 150 4175 375 
Q 4025 500 3850 762 
Q 3675 1025 3500 1725 
Q 3650 1725 3900 1750 
Q 3975 1100 4425 675 
Q 4575 875 4687 1150 
Q 4800 1425 4875 1700 
L 4125 1700 
Q 3775 1700 3300 1675 
L 3300 2075 
Q 3775 2050 4125 2050 
L 5400 2050 
Q 5250 1450 5100 1087 
Q 4950 725 4750 425 
Q 4950 300 5200 200 
Q 5450 100 5925 25 
Q 5800 -150 5700 -450 
Q 5275 -300 5000 -162 
Q 4725 -25 4500 125 
Q 4325 -50 4150 -200 
Q 3975 -350 3600 -600 
z
M 1775 4675 
L 1775 4325 
L 4625 4325 
L 4625 4675 
L 1775 4675 
z
M 1775 3975 
L 1775 3650 
L 4625 3650 
L 4625 3975 
L 1775 3975 
z
M 1275 5025 
L 5125 5025 
Q 5100 4675 5100 4400 
L 5100 3950 
Q 5100 3675 5125 3300 
L 1275 3300 
Q 1300 3675 1300 3950 
L 1300 4400 
Q 1300 4675 1275 5025 
z
" transform="scale(0.015625)"/>
      <path id="SimHei-5c0f" d="M 1375 3500 
Q 1675 3375 2000 3325 
Q 1725 2750 1437 2025 
Q 1150 1300 925 825 
Q 675 1000 400 1075 
Q 850 1800 1087 2475 
Q 1325 3150 1375 3500 
z
M 4275 3250 
Q 4525 3350 4750 3525 
Q 5075 3000 5425 2362 
Q 5775 1725 6025 1150 
Q 5725 1075 5450 900 
Q 5200 1575 4900 2162 
Q 4600 2750 4275 3250 
z
M 2900 4975 
L 3500 4975 
Q 3450 4650 3450 4075 
L 3450 175 
Q 3450 -275 3200 -400 
Q 2950 -525 2400 -575 
Q 2325 -225 2175 25 
Q 2675 0 2800 25 
Q 2925 50 2925 325 
L 2925 4075 
Q 2925 4500 2900 4975 
z
" transform="scale(0.015625)"/>
      <path id="SimHei-542b" d="M 2825 3800 
Q 3125 3825 3325 3875 
Q 3425 3400 3450 3250 
Q 3350 3250 2950 3175 
Q 2875 3650 2825 3800 
z
M 1375 2900 
Q 1750 2875 1975 2875 
L 4750 2875 
Q 4500 2575 4175 2212 
Q 3850 1850 3600 1500 
Q 3450 1650 3200 1775 
Q 3525 2075 3850 2475 
L 1975 2475 
Q 1750 2475 1375 2450 
L 1375 2900 
z
M 5025 1425 
Q 5000 1150 5000 412 
Q 5000 -325 5025 -625 
L 4525 -625 
L 4525 -225 
L 1825 -225 
L 1825 -675 
L 1325 -675 
Q 1350 -300 1350 262 
Q 1350 825 1325 1425 
L 5025 1425 
z
M 1825 1025 
L 1825 175 
L 4525 175 
L 4525 1025 
L 1825 1025 
z
M 2875 5250 
Q 3200 5150 3525 5075 
L 3425 4950 
Q 3675 4575 4312 4062 
Q 4950 3550 6125 3250 
Q 5925 3025 5750 2700 
Q 5025 2975 4375 3412 
Q 3725 3850 3125 4650 
Q 2425 3800 1850 3400 
Q 1275 3000 700 2675 
Q 575 2900 325 3150 
Q 1025 3375 1787 3975 
Q 2550 4575 2875 5250 
z
" transform="scale(0.015625)"/>
      <path id="SimHei-91cf" d="M 3450 2175 
L 3450 1800 
L 4750 1800 
L 4750 2175 
L 3450 2175 
z
M 3450 1525 
L 3450 1175 
L 4750 1175 
L 4750 1525 
L 3450 1525 
z
M 1675 2175 
L 1675 1800 
L 3000 1800 
L 3000 2175 
L 1675 2175 
z
M 1675 1525 
L 1675 1175 
L 3000 1175 
L 3000 1525 
L 1675 1525 
z
M 1200 2450 
L 5250 2450 
Q 5200 2150 5200 1737 
Q 5200 1325 5250 900 
L 3450 900 
L 3450 500 
L 4600 500 
Q 5000 525 5375 525 
L 5375 175 
Q 5000 225 4600 225 
L 3450 225 
L 3450 -225 
L 5125 -225 
Q 5550 -200 5950 -200 
L 5950 -525 
Q 5550 -500 5125 -500 
L 1300 -500 
Q 900 -500 475 -525 
L 475 -200 
Q 925 -200 1300 -225 
L 3000 -225 
L 3000 225 
L 1750 225 
Q 1375 225 1000 175 
L 1000 525 
Q 1400 525 1750 500 
L 3000 500 
L 3000 900 
L 1200 900 
Q 1225 1300 1225 1712 
Q 1225 2125 1200 2450 
z
M 1675 4775 
L 1675 4350 
L 4750 4350 
L 4750 4775 
L 1675 4775 
z
M 1675 4075 
L 1675 3675 
L 4750 3675 
L 4750 4075 
L 1675 4075 
z
M 1200 5050 
L 5250 5050 
Q 5200 4650 5200 4300 
Q 5200 3950 5250 3400 
L 1200 3400 
Q 1225 3950 1212 4300 
Q 1200 4650 1200 5050 
z
M 475 3150 
Q 1100 3125 1750 3100 
L 4825 3100 
Q 5400 3125 5900 3150 
L 5900 2800 
Q 5400 2825 4850 2825 
L 1750 2825 
Q 1100 2825 475 2800 
L 475 3150 
z
" transform="scale(0.015625)"/>
      <path id="SimHei-44" d="M 2950 2225 
Q 2950 1075 2462 587 
Q 1975 100 1150 100 
L 300 100 
L 300 4375 
L 1150 4375 
Q 2075 4375 2512 3875 
Q 2950 3375 2950 2225 
z
M 2350 2225 
Q 2350 3150 2050 3525 
Q 1750 3900 1150 3900 
L 875 3900 
L 875 575 
L 1150 575 
Q 1750 575 2050 937 
Q 2350 1300 2350 2225 
z
" transform="scale(0.015625)"/>
      <path id="SimHei-4f" d="M 2975 2250 
Q 2975 1075 2612 562 
Q 2250 50 1600 50 
Q 950 50 575 562 
Q 200 1075 200 2250 
Q 200 3425 575 3925 
Q 950 4425 1600 4425 
Q 2250 4425 2612 3925 
Q 2975 3425 2975 2250 
z
M 2375 2250 
Q 2375 3300 2150 3625 
Q 1925 3950 1600 3950 
Q 1275 3950 1037 3625 
Q 800 3300 800 2250 
Q 800 1200 1037 862 
Q 1275 525 1600 525 
Q 1925 525 2150 862 
Q 2375 1200 2375 2250 
z
" transform="scale(0.015625)"/>
     </defs>
     <use xlink:href="#SimHei-5404"/>
     <use xlink:href="#SimHei-4e2a" x="100"/>
     <use xlink:href="#SimHei-65f6" x="200"/>
     <use xlink:href="#SimHei-95f4" x="300"/>
     <use xlink:href="#SimHei-70b9" x="400"/>
     <use xlink:href="#SimHei-7684" x="500"/>
     <use xlink:href="#SimHei-6700" x="600"/>
     <use xlink:href="#SimHei-5c0f" x="700"/>
     <use xlink:href="#SimHei-6eb6" x="800"/>
     <use xlink:href="#SimHei-89e3" x="900"/>
     <use xlink:href="#SimHei-6c27" x="1000"/>
     <use xlink:href="#SimHei-542b" x="1100"/>
     <use xlink:href="#SimHei-91cf" x="1200"/>
     <use xlink:href="#SimHei-20" x="1300"/>
     <use xlink:href="#SimHei-28" x="1350"/>
     <use xlink:href="#SimHei-44" x="1400"/>
     <use xlink:href="#SimHei-4f" x="1450"/>
     <use xlink:href="#SimHei-29" x="1500"/>
    </g>
   </g>
  </g>
 </g>
 <defs>
  <clipPath id="p73c810e1b4">
   <rect x="70.26125" y="57.935" width="774.29875" height="369.335"/>
  </clipPath>
 </defs>
</svg>
