<?xml version="1.0" encoding="utf-8" standalone="no"?>
<!DOCTYPE svg PUBLIC "-//W3C//DTD SVG 1.1//EN"
  "http://www.w3.org/Graphics/SVG/1.1/DTD/svg11.dtd">
<svg xmlns:xlink="http://www.w3.org/1999/xlink" width="864pt" height="504pt" viewBox="0 0 864 504" xmlns="http://www.w3.org/2000/svg" version="1.1">
 <metadata>
  <rdf:RDF xmlns:dc="http://purl.org/dc/elements/1.1/" xmlns:cc="http://creativecommons.org/ns#" xmlns:rdf="http://www.w3.org/1999/02/22-rdf-syntax-ns#">
   <cc:Work>
    <dc:type rdf:resource="http://purl.org/dc/dcmitype/StillImage"/>
    <dc:date>2024-09-05T19:58:44.033040</dc:date>
    <dc:format>image/svg+xml</dc:format>
    <dc:creator>
     <cc:Agent>
      <dc:title>Matplotlib v3.7.5, https://matplotlib.org/</dc:title>
     </cc:Agent>
    </dc:creator>
   </cc:Work>
  </rdf:RDF>
 </metadata>
 <defs>
  <style type="text/css">*{stroke-linejoin: round; stroke-linecap: butt}</style>
 </defs>
 <g id="figure_1">
  <g id="patch_1">
   <path d="M 0 504 
L 864 504 
L 864 0 
L 0 0 
z
" style="fill: #ffffff"/>
  </g>
  <g id="axes_1">
   <g id="patch_2">
    <path d="M 100.094 417.601572 
L 844.56 417.601572 
L 844.56 57.395 
L 100.094 57.395 
z
" style="fill: #ffffff"/>
   </g>
   <g id="matplotlib.axis_1">
    <g id="xtick_1">
     <g id="line2d_1">
      <path d="M 133.933364 417.601572 
L 133.933364 57.395 
" clip-path="url(#pc715651b7c)" style="fill: none; stroke-dasharray: 5.55,2.4; stroke-dashoffset: 0; stroke: #cccccc; stroke-opacity: 0.5; stroke-width: 1.5"/>
     </g>
     <g id="text_1">
      <!-- 20春 -->
      <g style="fill: #262626" transform="translate(128.282034 453.833844) rotate(-45) scale(0.12 -0.12)">
       <defs>
        <path id="SimHei-32" d="M 2850 100 
L 300 100 
L 300 500 
Q 450 900 712 1237 
Q 975 1575 1475 2000 
Q 1850 2325 2012 2600 
Q 2175 2875 2175 3200 
Q 2175 3525 2037 3737 
Q 1900 3950 1600 3950 
Q 1350 3950 1162 3725 
Q 975 3500 975 2925 
L 400 2925 
Q 425 3650 737 4037 
Q 1050 4425 1625 4425 
Q 2175 4425 2475 4087 
Q 2775 3750 2775 3175 
Q 2775 2700 2500 2350 
Q 2225 2000 1825 1650 
Q 1375 1250 1200 1050 
Q 1025 850 875 575 
L 2850 575 
L 2850 100 
z
" transform="scale(0.015625)"/>
        <path id="SimHei-30" d="M 2975 2250 
Q 2975 1350 2650 700 
Q 2325 50 1600 50 
Q 875 50 537 700 
Q 200 1350 200 2250 
Q 200 3150 537 3787 
Q 875 4425 1600 4425 
Q 2325 4425 2650 3787 
Q 2975 3150 2975 2250 
z
M 2375 2250 
Q 2375 3050 2187 3500 
Q 2000 3950 1600 3950 
Q 1200 3950 1000 3500 
Q 800 3050 800 2250 
Q 800 1450 1000 987 
Q 1200 525 1600 525 
Q 2000 525 2187 987 
Q 2375 1450 2375 2250 
z
" transform="scale(0.015625)"/>
        <path id="SimHei-6625" d="M 3125 5275 
Q 3450 5175 3725 5150 
Q 3625 5100 3525 4650 
L 4725 4650 
Q 5175 4650 5675 4700 
L 5675 4250 
Q 5175 4275 4875 4275 
L 3450 4275 
Q 3400 4100 3325 3775 
L 4950 3775 
Q 5125 3775 5475 3800 
L 5475 3375 
Q 5025 3400 4875 3400 
L 3200 3400 
Q 3100 3125 2925 2850 
L 5050 2850 
Q 5475 2850 5925 2875 
L 5925 2450 
Q 5475 2475 4450 2475 
Q 4700 2125 5112 1862 
Q 5525 1600 6150 1450 
Q 5950 1275 5825 950 
Q 5325 1200 4900 1475 
L 4900 175 
Q 4900 -200 4925 -650 
L 4425 -650 
L 4425 -300 
L 2200 -300 
L 2200 -625 
L 1700 -625 
Q 1725 -175 1725 150 
L 1725 1550 
Q 1300 1225 750 875 
Q 600 1125 350 1300 
Q 825 1475 1287 1775 
Q 1750 2075 2125 2475 
L 1275 2475 
Q 1000 2475 575 2425 
L 575 2875 
Q 1000 2850 1325 2850 
L 2400 2850 
Q 2600 3125 2700 3400 
L 1850 3400 
Q 1600 3400 1125 3375 
L 1125 3800 
Q 1600 3775 1900 3775 
L 2850 3775 
Q 2925 4000 2975 4275 
L 1650 4275 
Q 1375 4275 900 4250 
L 900 4675 
Q 1375 4650 1800 4650 
L 3050 4650 
Q 3100 4900 3125 5275 
z
M 2700 2475 
Q 2375 2075 2100 1875 
L 4375 1875 
Q 4175 2075 3950 2475 
L 2700 2475 
z
M 2200 1500 
L 2200 1000 
L 4425 1000 
L 4425 1500 
L 2200 1500 
z
M 2200 625 
L 2200 75 
L 4425 75 
L 4425 625 
L 2200 625 
z
" transform="scale(0.015625)"/>
       </defs>
       <use xlink:href="#SimHei-32"/>
       <use xlink:href="#SimHei-30" x="50"/>
       <use xlink:href="#SimHei-6625" x="100"/>
      </g>
     </g>
    </g>
    <g id="xtick_2">
     <g id="line2d_2">
      <path d="M 269.290818 417.601572 
L 269.290818 57.395 
" clip-path="url(#pc715651b7c)" style="fill: none; stroke-dasharray: 5.55,2.4; stroke-dashoffset: 0; stroke: #cccccc; stroke-opacity: 0.5; stroke-width: 1.5"/>
     </g>
     <g id="text_2">
      <!-- 20秋 -->
      <g style="fill: #262626" transform="translate(263.556624 453.668115) rotate(-45) scale(0.12 -0.12)">
       <defs>
        <path id="SimHei-79cb" d="M 3350 2350 
Q 3100 2400 2900 2425 
Q 3125 3175 3225 3975 
Q 3450 3900 3750 3875 
Q 3650 3700 3550 3212 
Q 3450 2725 3350 2350 
z
M 6150 -250 
Q 5825 -350 5675 -625 
Q 5125 -100 4825 425 
Q 4525 950 4275 1725 
Q 4050 875 3662 325 
Q 3275 -225 2775 -650 
Q 2600 -425 2300 -300 
Q 3075 225 3462 937 
Q 3850 1650 3937 2375 
Q 4025 3100 4025 3837 
Q 4025 4575 4000 5150 
Q 4200 5150 4600 5100 
Q 4525 4850 4500 4375 
Q 4475 3900 4487 3312 
Q 4500 2725 4612 2137 
Q 4725 1550 5087 925 
Q 5450 300 6150 -250 
z
M 5300 2275 
Q 5050 2375 4825 2400 
Q 5125 3175 5225 3925 
Q 5425 3875 5750 3800 
Q 5650 3625 5537 3187 
Q 5425 2750 5300 2275 
z
M 1950 225 
Q 1950 -250 1975 -600 
L 1475 -600 
Q 1500 -275 1500 225 
L 1500 1950 
Q 1075 1125 575 425 
Q 475 700 250 875 
Q 650 1275 937 1762 
Q 1225 2250 1400 2800 
Q 725 2800 400 2775 
L 400 3225 
Q 675 3200 1500 3200 
L 1500 4250 
Q 875 4150 600 4075 
Q 500 4350 375 4525 
Q 775 4550 1500 4712 
Q 2225 4875 2650 5100 
Q 2775 4825 3000 4600 
Q 2625 4525 1950 4350 
L 1950 3200 
Q 2325 3200 2675 3225 
L 2675 2775 
Q 2300 2800 1950 2800 
L 1950 225 
z
M 1975 1975 
Q 2125 2100 2325 2275 
Q 2675 1775 2925 1375 
Q 2700 1250 2525 1100 
Q 2350 1475 1975 1975 
z
" transform="scale(0.015625)"/>
       </defs>
       <use xlink:href="#SimHei-32"/>
       <use xlink:href="#SimHei-30" x="50"/>
       <use xlink:href="#SimHei-79cb" x="100"/>
      </g>
     </g>
    </g>
    <g id="xtick_3">
     <g id="line2d_3">
      <path d="M 404.648273 417.601572 
L 404.648273 57.395 
" clip-path="url(#pc715651b7c)" style="fill: none; stroke-dasharray: 5.55,2.4; stroke-dashoffset: 0; stroke: #cccccc; stroke-opacity: 0.5; stroke-width: 1.5"/>
     </g>
     <g id="text_3">
      <!-- 21春 -->
      <g style="fill: #262626" transform="translate(398.996943 453.833844) rotate(-45) scale(0.12 -0.12)">
       <defs>
        <path id="SimHei-31" d="M 1950 100 
L 1375 100 
L 1375 3425 
L 625 3425 
L 625 3725 
Q 1075 3725 1325 3900 
Q 1575 4075 1650 4425 
L 1950 4425 
L 1950 100 
z
" transform="scale(0.015625)"/>
       </defs>
       <use xlink:href="#SimHei-32"/>
       <use xlink:href="#SimHei-31" x="50"/>
       <use xlink:href="#SimHei-6625" x="100"/>
      </g>
     </g>
    </g>
    <g id="xtick_4">
     <g id="line2d_4">
      <path d="M 540.005727 417.601572 
L 540.005727 57.395 
" clip-path="url(#pc715651b7c)" style="fill: none; stroke-dasharray: 5.55,2.4; stroke-dashoffset: 0; stroke: #cccccc; stroke-opacity: 0.5; stroke-width: 1.5"/>
     </g>
     <g id="text_4">
      <!-- 21秋 -->
      <g style="fill: #262626" transform="translate(534.271533 453.668115) rotate(-45) scale(0.12 -0.12)">
       <use xlink:href="#SimHei-32"/>
       <use xlink:href="#SimHei-31" x="50"/>
       <use xlink:href="#SimHei-79cb" x="100"/>
      </g>
     </g>
    </g>
    <g id="xtick_5">
     <g id="line2d_5">
      <path d="M 675.363182 417.601572 
L 675.363182 57.395 
" clip-path="url(#pc715651b7c)" style="fill: none; stroke-dasharray: 5.55,2.4; stroke-dashoffset: 0; stroke: #cccccc; stroke-opacity: 0.5; stroke-width: 1.5"/>
     </g>
     <g id="text_5">
      <!-- 22春 -->
      <g style="fill: #262626" transform="translate(669.711852 453.833844) rotate(-45) scale(0.12 -0.12)">
       <use xlink:href="#SimHei-32"/>
       <use xlink:href="#SimHei-32" x="50"/>
       <use xlink:href="#SimHei-6625" x="100"/>
      </g>
     </g>
    </g>
    <g id="xtick_6">
     <g id="line2d_6">
      <path d="M 810.720636 417.601572 
L 810.720636 57.395 
" clip-path="url(#pc715651b7c)" style="fill: none; stroke-dasharray: 5.55,2.4; stroke-dashoffset: 0; stroke: #cccccc; stroke-opacity: 0.5; stroke-width: 1.5"/>
     </g>
     <g id="text_6">
      <!-- 22秋 -->
      <g style="fill: #262626" transform="translate(804.986442 453.668115) rotate(-45) scale(0.12 -0.12)">
       <use xlink:href="#SimHei-32"/>
       <use xlink:href="#SimHei-32" x="50"/>
       <use xlink:href="#SimHei-79cb" x="100"/>
      </g>
     </g>
    </g>
    <g id="text_7">
     <!-- 时间 -->
     <g style="fill: #262626" transform="translate(456.327 482.427649) scale(0.16 -0.16)">
      <defs>
       <path id="SimHei-65f6" d="M 2800 3825 
Q 3550 3800 4775 3800 
Q 4775 4550 4750 5200 
L 5275 5200 
Q 5250 4550 5250 3800 
Q 5600 3800 6000 3825 
L 6000 3350 
Q 5600 3375 5250 3375 
L 5250 25 
Q 5250 -350 4962 -450 
Q 4675 -550 4225 -600 
Q 4225 -300 3975 -25 
Q 4425 -75 4600 -50 
Q 4775 -25 4775 275 
L 4775 3375 
Q 3600 3375 2800 3350 
L 2800 3825 
z
M 3075 2475 
Q 3300 2575 3525 2700 
Q 3825 2175 4125 1575 
Q 3875 1500 3625 1350 
Q 3425 1950 3075 2475 
z
M 625 4550 
L 2575 4550 
Q 2550 3650 2550 2375 
Q 2550 1100 2575 375 
L 2075 375 
L 2075 850 
L 1125 850 
L 1125 25 
L 625 25 
Q 650 1175 650 2337 
Q 650 3500 625 4550 
z
M 1125 4125 
L 1125 2950 
L 2075 2950 
L 2075 4125 
L 1125 4125 
z
M 1125 2525 
L 1125 1275 
L 2075 1275 
L 2075 2525 
L 1125 2525 
z
" transform="scale(0.015625)"/>
       <path id="SimHei-95f4" d="M 1225 4950 
Q 1500 5150 1650 5225 
Q 1875 4925 2300 4300 
Q 2050 4175 1825 4025 
Q 1575 4525 1225 4950 
z
M 1250 500 
Q 1250 0 1275 -500 
L 775 -500 
Q 800 -25 800 525 
L 800 3100 
Q 800 3625 775 3975 
L 1275 3975 
Q 1250 3600 1250 3250 
L 1250 500 
z
M 2725 4825 
Q 3175 4800 3700 4800 
L 5600 4800 
Q 5575 4350 5575 3875 
L 5575 250 
Q 5600 -300 5287 -425 
Q 4975 -550 4600 -600 
Q 4575 -300 4400 -25 
Q 4850 -50 4987 25 
Q 5125 100 5125 350 
L 5125 4400 
L 3725 4400 
Q 3175 4400 2725 4375 
L 2725 4825 
z
M 2500 3100 
L 2500 2325 
L 3875 2325 
L 3875 3100 
L 2500 3100 
z
M 2500 1925 
L 2500 1025 
L 3875 1025 
L 3875 1925 
L 2500 1925 
z
M 2025 3500 
L 4350 3500 
Q 4325 3050 4325 2700 
L 4325 1400 
Q 4325 1075 4350 625 
L 2025 625 
Q 2050 1075 2050 1425 
L 2050 2700 
Q 2050 3050 2025 3500 
z
" transform="scale(0.015625)"/>
      </defs>
      <use xlink:href="#SimHei-65f6"/>
      <use xlink:href="#SimHei-95f4" x="100"/>
     </g>
    </g>
   </g>
   <g id="matplotlib.axis_2">
    <g id="ytick_1">
     <g id="line2d_7">
      <path d="M 100.094 401.228546 
L 844.56 401.228546 
" clip-path="url(#pc715651b7c)" style="fill: none; stroke-dasharray: 5.55,2.4; stroke-dashoffset: 0; stroke: #cccccc; stroke-opacity: 0.5; stroke-width: 1.5"/>
     </g>
     <g id="text_8">
      <!-- 0 -->
      <g style="fill: #262626" transform="translate(79.344 406.868195) scale(0.165 -0.165)">
       <use xlink:href="#SimHei-30"/>
      </g>
     </g>
    </g>
    <g id="ytick_2">
     <g id="line2d_8">
      <path d="M 100.094 329.82495 
L 844.56 329.82495 
" clip-path="url(#pc715651b7c)" style="fill: none; stroke-dasharray: 5.55,2.4; stroke-dashoffset: 0; stroke: #cccccc; stroke-opacity: 0.5; stroke-width: 1.5"/>
     </g>
     <g id="text_9">
      <!-- 1000 -->
      <g style="fill: #262626" transform="translate(54.594 335.464598) scale(0.165 -0.165)">
       <use xlink:href="#SimHei-31"/>
       <use xlink:href="#SimHei-30" x="50"/>
       <use xlink:href="#SimHei-30" x="100"/>
       <use xlink:href="#SimHei-30" x="150"/>
      </g>
     </g>
    </g>
    <g id="ytick_3">
     <g id="line2d_9">
      <path d="M 100.094 258.421354 
L 844.56 258.421354 
" clip-path="url(#pc715651b7c)" style="fill: none; stroke-dasharray: 5.55,2.4; stroke-dashoffset: 0; stroke: #cccccc; stroke-opacity: 0.5; stroke-width: 1.5"/>
     </g>
     <g id="text_10">
      <!-- 2000 -->
      <g style="fill: #262626" transform="translate(54.594 264.061002) scale(0.165 -0.165)">
       <use xlink:href="#SimHei-32"/>
       <use xlink:href="#SimHei-30" x="50"/>
       <use xlink:href="#SimHei-30" x="100"/>
       <use xlink:href="#SimHei-30" x="150"/>
      </g>
     </g>
    </g>
    <g id="ytick_4">
     <g id="line2d_10">
      <path d="M 100.094 187.017757 
L 844.56 187.017757 
" clip-path="url(#pc715651b7c)" style="fill: none; stroke-dasharray: 5.55,2.4; stroke-dashoffset: 0; stroke: #cccccc; stroke-opacity: 0.5; stroke-width: 1.5"/>
     </g>
     <g id="text_11">
      <!-- 3000 -->
      <g style="fill: #262626" transform="translate(54.594 192.657406) scale(0.165 -0.165)">
       <defs>
        <path id="SimHei-33" d="M 2825 1300 
Q 2825 725 2462 387 
Q 2100 50 1550 50 
Q 1000 50 637 387 
Q 275 725 275 1425 
L 850 1425 
Q 850 950 1037 737 
Q 1225 525 1550 525 
Q 1875 525 2050 725 
Q 2225 925 2225 1350 
Q 2225 1700 2037 1900 
Q 1850 2100 1375 2100 
L 1375 2525 
Q 1775 2525 1962 2725 
Q 2150 2925 2150 3325 
Q 2150 3625 2012 3800 
Q 1875 3975 1575 3975 
Q 1275 3975 1112 3762 
Q 950 3550 925 3150 
L 375 3150 
Q 425 3725 737 4075 
Q 1050 4425 1575 4425 
Q 2125 4425 2425 4112 
Q 2725 3800 2725 3350 
Q 2725 2925 2575 2687 
Q 2425 2450 2075 2325 
Q 2425 2250 2625 1975 
Q 2825 1700 2825 1300 
z
" transform="scale(0.015625)"/>
       </defs>
       <use xlink:href="#SimHei-33"/>
       <use xlink:href="#SimHei-30" x="50"/>
       <use xlink:href="#SimHei-30" x="100"/>
       <use xlink:href="#SimHei-30" x="150"/>
      </g>
     </g>
    </g>
    <g id="ytick_5">
     <g id="line2d_11">
      <path d="M 100.094 115.614161 
L 844.56 115.614161 
" clip-path="url(#pc715651b7c)" style="fill: none; stroke-dasharray: 5.55,2.4; stroke-dashoffset: 0; stroke: #cccccc; stroke-opacity: 0.5; stroke-width: 1.5"/>
     </g>
     <g id="text_12">
      <!-- 4000 -->
      <g style="fill: #262626" transform="translate(54.594 121.253809) scale(0.165 -0.165)">
       <defs>
        <path id="SimHei-34" d="M 2975 1200 
L 2450 1200 
L 2450 100 
L 1875 100 
L 1875 1200 
L 200 1200 
L 200 1675 
L 1875 4425 
L 2450 4425 
L 2450 1675 
L 2975 1675 
L 2975 1200 
z
M 1875 1675 
L 1875 3525 
L 750 1675 
L 1875 1675 
z
" transform="scale(0.015625)"/>
       </defs>
       <use xlink:href="#SimHei-34"/>
       <use xlink:href="#SimHei-30" x="50"/>
       <use xlink:href="#SimHei-30" x="100"/>
       <use xlink:href="#SimHei-30" x="150"/>
      </g>
     </g>
    </g>
    <g id="text_13">
     <!-- 浮游动物生物量（mg/m$^3$） -->
     <g style="fill: #262626" transform="translate(37.514 329.418286) rotate(-90) scale(0.16 -0.16)">
      <defs>
       <path id="SimHei-6d6e" d="M 2525 4125 
Q 2450 4350 2275 4600 
Q 2750 4575 3875 4725 
Q 5000 4875 5375 5050 
Q 5525 4750 5775 4500 
Q 5350 4475 4337 4350 
Q 3325 4225 2525 4125 
z
M 2325 3700 
Q 2600 3750 2825 3825 
Q 2975 3425 3075 3000 
Q 2850 2975 2600 2875 
Q 2500 3300 2325 3700 
z
M 3475 3850 
Q 3775 3900 3975 3950 
Q 4100 3550 4200 3150 
Q 3950 3125 3700 3025 
Q 3625 3475 3475 3850 
z
M 5025 2825 
Q 4800 2925 4575 2975 
Q 4725 3200 4875 3475 
Q 5025 3750 5125 4050 
Q 5375 3925 5675 3825 
Q 5525 3700 5350 3400 
Q 5175 3100 5025 2825 
z
M 3825 1250 
Q 3825 1550 3800 1775 
Q 4225 1975 4600 2200 
L 3400 2200 
Q 3025 2200 2425 2175 
L 2425 2625 
Q 3000 2600 3350 2600 
L 5525 2600 
L 5525 2150 
Q 5150 2025 4862 1875 
Q 4575 1725 4325 1550 
L 4325 1250 
L 5200 1250 
Q 5525 1250 6025 1275 
L 6025 825 
Q 5550 850 5225 850 
L 4325 850 
L 4325 100 
Q 4325 -300 4112 -400 
Q 3900 -500 3375 -625 
Q 3300 -325 3150 -50 
Q 3575 -50 3700 -25 
Q 3825 0 3825 275 
L 3825 850 
L 2875 850 
Q 2475 850 1925 825 
L 1925 1275 
Q 2500 1250 2875 1250 
L 3825 1250 
z
M 625 4700 
Q 825 4875 975 5075 
Q 1475 4700 1925 4300 
Q 1700 4125 1525 3925 
Q 1175 4350 625 4700 
z
M 375 3050 
Q 525 3250 675 3450 
Q 1225 3100 1700 2800 
Q 1525 2600 1400 2350 
Q 1025 2675 375 3050 
z
M 1150 1850 
Q 1375 1625 1550 1525 
Q 1350 975 1187 387 
Q 1025 -200 925 -550 
Q 700 -375 350 -275 
Q 575 25 800 637 
Q 1025 1250 1150 1850 
z
" transform="scale(0.015625)"/>
       <path id="SimHei-6e38" d="M 2250 4825 
Q 2450 4925 2650 5025 
Q 2775 4850 2887 4662 
Q 3000 4475 3075 4325 
Q 2850 4250 2650 4100 
Q 2575 4275 2475 4462 
Q 2375 4650 2250 4825 
z
M 2625 -475 
Q 2600 -250 2475 0 
Q 2875 -50 2962 50 
Q 3050 150 3050 400 
L 3050 2400 
L 2525 2400 
Q 2525 1950 2475 1525 
Q 2425 1100 2337 737 
Q 2250 375 2100 62 
Q 1950 -250 1675 -575 
Q 1525 -375 1250 -250 
Q 1625 75 1812 550 
Q 2000 1025 2037 1500 
Q 2075 1975 2087 2512 
Q 2100 3050 2100 3600 
Q 1950 3600 1625 3575 
L 1625 3975 
Q 2125 3950 2275 3950 
L 3125 3950 
Q 3350 3950 3650 3975 
L 3650 3575 
Q 3375 3600 3100 3600 
L 2550 3600 
L 2550 2775 
L 3525 2775 
Q 3500 2400 3500 2050 
L 3500 250 
Q 3475 -100 3250 -262 
Q 3025 -425 2625 -475 
z
M 3875 2725 
Q 3700 2900 3475 3050 
Q 3625 3225 3762 3462 
Q 3900 3700 4000 3962 
Q 4100 4225 4187 4512 
Q 4275 4800 4325 5075 
Q 4575 4975 4900 4925 
Q 4775 4750 4700 4575 
Q 4625 4400 4575 4225 
L 5025 4225 
Q 5500 4225 6050 4250 
L 6050 3825 
Q 5500 3850 5000 3850 
L 4450 3850 
Q 4375 3650 4300 3500 
Q 4225 3350 4125 3150 
L 5850 3150 
L 5850 2675 
Q 5725 2575 5562 2425 
Q 5400 2275 5200 2025 
L 5200 1750 
L 5475 1750 
Q 5650 1750 6075 1775 
L 6075 1350 
Q 5700 1375 5475 1375 
L 5200 1375 
L 5200 75 
Q 5150 -400 4925 -487 
Q 4700 -575 4250 -625 
Q 4225 -425 4100 -125 
Q 4450 -150 4600 -125 
Q 4750 -100 4750 200 
L 4750 1375 
L 4525 1375 
Q 4250 1375 3825 1350 
L 3825 1775 
Q 4225 1750 4500 1750 
L 4750 1750 
Q 4750 1950 4725 2150 
Q 5025 2400 5300 2775 
L 4600 2775 
L 4125 2750 
L 4125 3125 
Q 3975 2925 3875 2725 
z
M 500 4575 
Q 650 4775 800 4950 
Q 950 4825 1200 4637 
Q 1450 4450 1650 4275 
Q 1450 4075 1325 3875 
Q 1100 4075 912 4250 
Q 725 4425 500 4575 
z
M 1550 2750 
Q 1400 2550 1275 2325 
Q 1050 2525 825 2675 
Q 600 2825 300 2975 
Q 425 3175 550 3375 
Q 750 3250 1025 3087 
Q 1300 2925 1550 2750 
z
M 1075 1825 
Q 1300 1675 1525 1575 
Q 1325 1050 1250 775 
Q 1175 500 1062 150 
Q 950 -200 875 -575 
Q 550 -400 325 -325 
Q 600 200 725 587 
Q 850 975 925 1237 
Q 1000 1500 1075 1825 
z
" transform="scale(0.015625)"/>
       <path id="SimHei-52a8" d="M 850 4400 
Q 1175 4375 1525 4375 
L 2100 4375 
Q 2500 4375 2850 4400 
L 2850 3925 
Q 2500 3950 2100 3950 
L 1550 3950 
Q 1200 3950 850 3925 
L 850 4400 
z
M 1350 2575 
Q 875 2575 525 2525 
L 525 3050 
Q 875 3000 1350 3000 
L 2225 3000 
Q 2625 3000 3000 3025 
L 3000 2525 
Q 2625 2575 2250 2575 
L 2000 2575 
Q 1900 2225 1725 1775 
Q 1550 1325 1325 900 
Q 1625 975 1912 1050 
Q 2200 1125 2525 1200 
Q 2425 1425 2225 1775 
Q 2450 1875 2675 2000 
Q 2825 1675 2962 1375 
Q 3100 1075 3250 725 
Q 3050 650 2775 500 
Q 2725 650 2675 800 
Q 1925 650 1512 500 
Q 1100 350 850 200 
Q 750 450 550 750 
Q 875 950 1125 1525 
Q 1375 2100 1500 2575 
L 1350 2575 
z
M 4050 3725 
Q 4050 4075 4050 4412 
Q 4050 4750 4025 5100 
Q 4350 5025 4650 5000 
Q 4575 4725 4550 4425 
Q 4525 4125 4525 3725 
L 5900 3725 
Q 5850 3350 5825 2900 
L 5675 250 
Q 5650 -225 5325 -312 
Q 5000 -400 4650 -475 
Q 4575 -175 4350 125 
Q 4850 125 5025 162 
Q 5200 200 5200 475 
L 5375 3300 
L 4525 3300 
Q 4475 2250 4350 1650 
Q 4225 1050 3950 625 
Q 3675 200 3400 -75 
Q 3125 -350 2825 -575 
Q 2675 -375 2325 -175 
Q 2850 75 3187 437 
Q 3525 800 3700 1212 
Q 3875 1625 3950 2137 
Q 4025 2650 4050 3300 
L 3675 3300 
Q 3425 3300 3075 3275 
L 3075 3750 
Q 3425 3725 3725 3725 
L 4050 3725 
z
" transform="scale(0.015625)"/>
       <path id="SimHei-7269" d="M 700 4400 
Q 975 4325 1275 4300 
Q 1150 4100 1075 3700 
L 1600 3700 
L 1600 4400 
Q 1600 4775 1575 5075 
L 2100 5075 
Q 2050 4775 2050 4400 
L 2050 3700 
Q 2300 3700 2625 3725 
L 2625 3275 
Q 2275 3300 2050 3300 
L 2050 2100 
Q 2475 2200 2750 2325 
Q 2750 2100 2775 1875 
Q 2450 1775 2050 1650 
L 2050 350 
Q 2050 -75 2075 -600 
L 1575 -600 
Q 1600 -125 1600 350 
L 1600 1525 
Q 1350 1450 1100 1362 
Q 850 1275 550 1125 
Q 475 1350 325 1675 
Q 750 1725 1600 1950 
L 1600 3300 
L 1000 3300 
Q 900 2850 775 2425 
Q 525 2550 300 2550 
Q 500 3050 587 3512 
Q 675 3975 700 4400 
z
M 4225 50 
Q 4900 0 5050 75 
Q 5200 150 5225 500 
L 5400 3675 
L 5100 3675 
Q 5050 2850 4937 2250 
Q 4825 1650 4600 1175 
Q 4375 700 4012 300 
Q 3650 -100 3050 -500 
Q 2900 -275 2625 -100 
Q 3225 150 3600 537 
Q 3975 925 4187 1412 
Q 4400 1900 4500 2475 
Q 4600 3050 4650 3675 
L 4250 3675 
Q 4175 2950 3850 2212 
Q 3525 1475 3025 975 
Q 2875 1200 2575 1300 
Q 3125 1775 3400 2337 
Q 3675 2900 3800 3675 
L 3450 3675 
Q 3125 3050 2900 2725 
Q 2725 2900 2475 2975 
Q 2975 3650 3225 4262 
Q 3475 4875 3525 5150 
Q 3850 5000 4125 4925 
Q 4000 4825 3887 4600 
Q 3775 4375 3650 4075 
L 5925 4075 
Q 5825 3025 5787 1787 
Q 5750 550 5712 187 
Q 5675 -175 5362 -312 
Q 5050 -450 4450 -525 
Q 4425 -250 4225 50 
z
" transform="scale(0.015625)"/>
       <path id="SimHei-751f" d="M 1250 4800 
L 1950 4550 
Q 1800 4400 1687 4137 
Q 1575 3875 1500 3675 
L 2925 3675 
L 2925 4425 
Q 2925 4750 2900 5050 
L 3475 5050 
Q 3450 4775 3450 4425 
L 3450 3675 
L 4525 3675 
Q 4925 3675 5425 3700 
L 5425 3225 
Q 4950 3250 4525 3250 
L 3450 3250 
L 3450 2100 
L 4200 2100 
Q 4550 2100 5050 2125 
L 5050 1650 
Q 4575 1675 4200 1675 
L 3450 1675 
L 3450 125 
L 5075 125 
Q 5475 125 5975 150 
L 5975 -325 
Q 5500 -300 5075 -300 
L 1225 -300 
Q 800 -300 375 -325 
L 375 150 
Q 825 125 1225 125 
L 2925 125 
L 2925 1675 
L 2025 1675 
Q 1675 1675 1300 1650 
L 1300 2125 
Q 1675 2100 2025 2100 
L 2925 2100 
L 2925 3250 
L 1325 3250 
Q 1075 2700 850 2325 
Q 575 2450 275 2500 
Q 525 2775 825 3425 
Q 1125 4075 1250 4800 
z
" transform="scale(0.015625)"/>
       <path id="SimHei-91cf" d="M 3450 2175 
L 3450 1800 
L 4750 1800 
L 4750 2175 
L 3450 2175 
z
M 3450 1525 
L 3450 1175 
L 4750 1175 
L 4750 1525 
L 3450 1525 
z
M 1675 2175 
L 1675 1800 
L 3000 1800 
L 3000 2175 
L 1675 2175 
z
M 1675 1525 
L 1675 1175 
L 3000 1175 
L 3000 1525 
L 1675 1525 
z
M 1200 2450 
L 5250 2450 
Q 5200 2150 5200 1737 
Q 5200 1325 5250 900 
L 3450 900 
L 3450 500 
L 4600 500 
Q 5000 525 5375 525 
L 5375 175 
Q 5000 225 4600 225 
L 3450 225 
L 3450 -225 
L 5125 -225 
Q 5550 -200 5950 -200 
L 5950 -525 
Q 5550 -500 5125 -500 
L 1300 -500 
Q 900 -500 475 -525 
L 475 -200 
Q 925 -200 1300 -225 
L 3000 -225 
L 3000 225 
L 1750 225 
Q 1375 225 1000 175 
L 1000 525 
Q 1400 525 1750 500 
L 3000 500 
L 3000 900 
L 1200 900 
Q 1225 1300 1225 1712 
Q 1225 2125 1200 2450 
z
M 1675 4775 
L 1675 4350 
L 4750 4350 
L 4750 4775 
L 1675 4775 
z
M 1675 4075 
L 1675 3675 
L 4750 3675 
L 4750 4075 
L 1675 4075 
z
M 1200 5050 
L 5250 5050 
Q 5200 4650 5200 4300 
Q 5200 3950 5250 3400 
L 1200 3400 
Q 1225 3950 1212 4300 
Q 1200 4650 1200 5050 
z
M 475 3150 
Q 1100 3125 1750 3100 
L 4825 3100 
Q 5400 3125 5900 3150 
L 5900 2800 
Q 5400 2825 4850 2825 
L 1750 2825 
Q 1100 2825 475 2800 
L 475 3150 
z
" transform="scale(0.015625)"/>
       <path id="SimHei-ff08" d="M 4950 62 
Q 5375 -225 5425 -175 
Q 5475 -125 5087 175 
Q 4700 475 4375 937 
Q 4050 1400 4050 2225 
Q 4050 3050 4387 3575 
Q 4725 4100 5075 4387 
Q 5425 4675 5412 4737 
Q 5400 4800 4887 4437 
Q 4375 4075 4000 3462 
Q 3625 2850 3687 2075 
Q 3750 1300 4137 825 
Q 4525 350 4950 62 
z
" transform="scale(0.015625)"/>
       <path id="SimHei-6d" d="M 3075 100 
L 2575 100 
L 2575 2125 
Q 2575 2275 2525 2375 
Q 2475 2475 2325 2475 
Q 2150 2475 2000 2287 
Q 1850 2100 1850 1800 
L 1850 100 
L 1350 100 
L 1350 2125 
Q 1350 2275 1300 2375 
Q 1250 2475 1100 2475 
Q 925 2475 775 2287 
Q 625 2100 625 1800 
L 625 100 
L 125 100 
L 125 2900 
L 625 2900 
L 625 2525 
Q 750 2725 925 2837 
Q 1100 2950 1300 2950 
Q 1500 2950 1637 2837 
Q 1775 2725 1825 2525 
Q 1950 2725 2112 2837 
Q 2275 2950 2475 2950 
Q 2775 2950 2925 2787 
Q 3075 2625 3075 2325 
L 3075 100 
z
" transform="scale(0.015625)"/>
       <path id="SimHei-67" d="M 3000 2475 
Q 2825 2525 2662 2537 
Q 2500 2550 2325 2500 
Q 2400 2425 2450 2312 
Q 2500 2200 2500 1975 
Q 2500 1550 2212 1275 
Q 1925 1000 1500 1000 
Q 1400 1000 1237 1037 
Q 1075 1075 975 1125 
Q 900 1075 875 1025 
Q 850 975 850 900 
Q 850 775 1025 712 
Q 1200 650 1650 650 
Q 2375 650 2637 450 
Q 2900 250 2900 -50 
Q 2900 -450 2512 -637 
Q 2125 -825 1600 -825 
Q 925 -825 600 -650 
Q 275 -475 275 -175 
Q 275 -25 400 125 
Q 525 275 725 375 
Q 575 450 487 562 
Q 400 675 400 850 
Q 400 1000 512 1112 
Q 625 1225 775 1300 
Q 650 1425 575 1600 
Q 500 1775 500 1975 
Q 500 2400 787 2675 
Q 1075 2950 1500 2950 
Q 1725 2950 1887 2887 
Q 2050 2825 2175 2700 
Q 2375 2850 2575 2912 
Q 2775 2975 3000 2950 
L 3000 2475 
z
M 2000 1975 
Q 2000 2225 1875 2375 
Q 1750 2525 1500 2525 
Q 1250 2525 1125 2375 
Q 1000 2225 1000 1975 
Q 1000 1725 1125 1575 
Q 1250 1425 1500 1425 
Q 1750 1425 1875 1575 
Q 2000 1725 2000 1975 
z
M 2425 -100 
Q 2425 0 2312 100 
Q 2200 200 1750 200 
Q 1650 200 1475 212 
Q 1300 225 1075 250 
Q 875 175 800 75 
Q 725 -25 725 -125 
Q 725 -275 925 -375 
Q 1125 -475 1625 -475 
Q 2050 -475 2237 -362 
Q 2425 -250 2425 -100 
z
" transform="scale(0.015625)"/>
       <path id="SimHei-2f" d="M 3025 4525 
L 375 -200 
L 125 -50 
L 2775 4675 
L 3025 4525 
z
" transform="scale(0.015625)"/>
       <path id="DejaVuSans-33" d="M 2597 2516 
Q 3050 2419 3304 2112 
Q 3559 1806 3559 1356 
Q 3559 666 3084 287 
Q 2609 -91 1734 -91 
Q 1441 -91 1130 -33 
Q 819 25 488 141 
L 488 750 
Q 750 597 1062 519 
Q 1375 441 1716 441 
Q 2309 441 2620 675 
Q 2931 909 2931 1356 
Q 2931 1769 2642 2001 
Q 2353 2234 1838 2234 
L 1294 2234 
L 1294 2753 
L 1863 2753 
Q 2328 2753 2575 2939 
Q 2822 3125 2822 3475 
Q 2822 3834 2567 4026 
Q 2313 4219 1838 4219 
Q 1578 4219 1281 4162 
Q 984 4106 628 3988 
L 628 4550 
Q 988 4650 1302 4700 
Q 1616 4750 1894 4750 
Q 2613 4750 3031 4423 
Q 3450 4097 3450 3541 
Q 3450 3153 3228 2886 
Q 3006 2619 2597 2516 
z
" transform="scale(0.015625)"/>
       <path id="SimHei-ff09" d="M 937 -187 
Q 950 -250 1437 37 
Q 1925 325 2337 850 
Q 2750 1375 2762 2200 
Q 2775 3025 2325 3637 
Q 1875 4250 1412 4562 
Q 950 4875 937 4812 
Q 925 4750 1287 4450 
Q 1650 4150 1987 3637 
Q 2325 3125 2375 2350 
Q 2425 1575 2037 987 
Q 1650 400 1287 137 
Q 925 -125 937 -187 
z
" transform="scale(0.015625)"/>
      </defs>
      <use xlink:href="#SimHei-6d6e" transform="translate(0 0.765625)"/>
      <use xlink:href="#SimHei-6e38" transform="translate(100 0.765625)"/>
      <use xlink:href="#SimHei-52a8" transform="translate(200 0.765625)"/>
      <use xlink:href="#SimHei-7269" transform="translate(300 0.765625)"/>
      <use xlink:href="#SimHei-751f" transform="translate(400 0.765625)"/>
      <use xlink:href="#SimHei-7269" transform="translate(500 0.765625)"/>
      <use xlink:href="#SimHei-91cf" transform="translate(600 0.765625)"/>
      <use xlink:href="#SimHei-ff08" transform="translate(700 0.765625)"/>
      <use xlink:href="#SimHei-6d" transform="translate(800 0.765625)"/>
      <use xlink:href="#SimHei-67" transform="translate(850 0.765625)"/>
      <use xlink:href="#SimHei-2f" transform="translate(900 0.765625)"/>
      <use xlink:href="#SimHei-6d" transform="translate(950 0.765625)"/>
      <use xlink:href="#DejaVuSans-33" transform="translate(1000.957031 39.046875) scale(0.7)"/>
      <use xlink:href="#SimHei-ff09" transform="translate(1048.227539 0.765625)"/>
     </g>
    </g>
   </g>
   <g id="PolyCollection_1"/>
   <g id="PolyCollection_2">
    <defs>
     <path id="m85c085f3fd" d="M 133.933364 -102.771454 
L 133.933364 -114.371223 
L 269.290818 -118.222682 
L 404.648273 -108.704302 
L 540.005727 -104.159157 
L 675.363182 -430.231974 
L 810.720636 -107.070537 
L 810.720636 -102.771454 
L 810.720636 -102.771454 
L 675.363182 -102.771454 
L 540.005727 -102.771454 
L 404.648273 -102.771454 
L 269.290818 -102.771454 
L 133.933364 -102.771454 
z
" style="stroke: #4c72b0; stroke-opacity: 0.2; stroke-width: 1.5"/>
    </defs>
    <g clip-path="url(#pc715651b7c)">
     <use xlink:href="#m85c085f3fd" x="0" y="504" style="fill: #4c72b0; fill-opacity: 0.2; stroke: #4c72b0; stroke-opacity: 0.2; stroke-width: 1.5"/>
    </g>
   </g>
   <g id="line2d_12">
    <path d="M 133.933364 389.628777 
L 269.290818 385.777318 
L 404.648273 395.295698 
L 540.005727 399.840843 
L 675.363182 73.768026 
L 810.720636 396.929463 
" clip-path="url(#pc715651b7c)" style="fill: none; stroke: #4c72b0; stroke-width: 2.5; stroke-linecap: round"/>
    <defs>
     <path id="m94fe14580c" d="M 0 4.5 
C 1.193414 4.5 2.338109 4.025852 3.181981 3.181981 
C 4.025852 2.338109 4.5 1.193414 4.5 0 
C 4.5 -1.193414 4.025852 -2.338109 3.181981 -3.181981 
C 2.338109 -4.025852 1.193414 -4.5 0 -4.5 
C -1.193414 -4.5 -2.338109 -4.025852 -3.181981 -3.181981 
C -4.025852 -2.338109 -4.5 -1.193414 -4.5 0 
C -4.5 1.193414 -4.025852 2.338109 -3.181981 3.181981 
C -2.338109 4.025852 -1.193414 4.5 0 4.5 
z
" style="stroke: #ffffff; stroke-width: 0.75"/>
    </defs>
    <g clip-path="url(#pc715651b7c)">
     <use xlink:href="#m94fe14580c" x="133.933364" y="389.628777" style="fill: #4c72b0; stroke: #ffffff; stroke-width: 0.75"/>
     <use xlink:href="#m94fe14580c" x="269.290818" y="385.777318" style="fill: #4c72b0; stroke: #ffffff; stroke-width: 0.75"/>
     <use xlink:href="#m94fe14580c" x="404.648273" y="395.295698" style="fill: #4c72b0; stroke: #ffffff; stroke-width: 0.75"/>
     <use xlink:href="#m94fe14580c" x="540.005727" y="399.840843" style="fill: #4c72b0; stroke: #ffffff; stroke-width: 0.75"/>
     <use xlink:href="#m94fe14580c" x="675.363182" y="73.768026" style="fill: #4c72b0; stroke: #ffffff; stroke-width: 0.75"/>
     <use xlink:href="#m94fe14580c" x="810.720636" y="396.929463" style="fill: #4c72b0; stroke: #ffffff; stroke-width: 0.75"/>
    </g>
   </g>
   <g id="patch_3">
    <path d="M 100.094 417.601572 
L 100.094 57.395 
" style="fill: none; stroke: #cccccc; stroke-width: 1.875; stroke-linejoin: miter; stroke-linecap: square"/>
   </g>
   <g id="patch_4">
    <path d="M 100.094 417.601572 
L 844.56 417.601572 
" style="fill: none; stroke: #cccccc; stroke-width: 1.875; stroke-linejoin: miter; stroke-linecap: square"/>
   </g>
   <g id="text_14">
    <!-- 162.454 -->
    <g style="fill: #4c72b0" transform="translate(114.683364 388.210094) scale(0.11 -0.11)">
     <defs>
      <path id="SimHei-36" d="M 2850 1550 
Q 2850 850 2550 450 
Q 2250 50 1650 50 
Q 1050 50 700 550 
Q 350 1050 350 2175 
Q 350 3200 712 3812 
Q 1075 4425 1750 4425 
Q 2225 4425 2512 4075 
Q 2800 3725 2800 3300 
L 2225 3300 
Q 2225 3550 2087 3750 
Q 1950 3950 1725 3950 
Q 1350 3950 1150 3562 
Q 950 3175 925 2375 
Q 1100 2700 1300 2825 
Q 1500 2950 1775 2950 
Q 2250 2950 2550 2575 
Q 2850 2200 2850 1550 
z
M 2250 1550 
Q 2250 2000 2100 2250 
Q 1950 2500 1675 2500 
Q 1350 2500 1162 2250 
Q 975 2000 975 1650 
Q 975 1100 1162 800 
Q 1350 500 1675 500 
Q 1900 500 2075 725 
Q 2250 950 2250 1550 
z
" transform="scale(0.015625)"/>
      <path id="SimHei-2e" d="M 1100 100 
L 525 100 
L 525 650 
L 1100 650 
L 1100 100 
z
" transform="scale(0.015625)"/>
      <path id="SimHei-35" d="M 2825 1650 
Q 2825 900 2462 475 
Q 2100 50 1500 50 
Q 975 50 637 400 
Q 300 750 275 1350 
L 850 1350 
Q 850 975 1025 750 
Q 1200 525 1525 525 
Q 1850 525 2037 800 
Q 2225 1075 2225 1650 
Q 2225 2150 2062 2387 
Q 1900 2625 1625 2625 
Q 1400 2625 1237 2525 
Q 1075 2425 925 2175 
L 425 2175 
L 575 4375 
L 2725 4375 
L 2725 3900 
L 1050 3900 
L 950 2750 
Q 1100 2900 1275 2975 
Q 1450 3050 1750 3050 
Q 2225 3050 2525 2687 
Q 2825 2325 2825 1650 
z
" transform="scale(0.015625)"/>
     </defs>
     <use xlink:href="#SimHei-31"/>
     <use xlink:href="#SimHei-36" x="50"/>
     <use xlink:href="#SimHei-32" x="100"/>
     <use xlink:href="#SimHei-2e" x="150"/>
     <use xlink:href="#SimHei-34" x="200"/>
     <use xlink:href="#SimHei-35" x="250"/>
     <use xlink:href="#SimHei-34" x="300"/>
    </g>
   </g>
   <g id="text_15">
    <!-- 216.393 -->
    <g style="fill: #4c72b0" transform="translate(250.040818 384.358635) scale(0.11 -0.11)">
     <defs>
      <path id="SimHei-39" d="M 2825 2300 
Q 2825 1275 2462 662 
Q 2100 50 1425 50 
Q 950 50 662 400 
Q 375 750 375 1175 
L 950 1175 
Q 950 925 1087 725 
Q 1225 525 1450 525 
Q 1825 525 2012 950 
Q 2200 1375 2250 2200 
Q 2125 1925 1900 1775 
Q 1675 1625 1400 1625 
Q 925 1625 625 1975 
Q 325 2325 325 2975 
Q 325 3625 625 4025 
Q 925 4425 1525 4425 
Q 2125 4425 2475 3925 
Q 2825 3425 2825 2300 
z
M 2200 2875 
Q 2200 3425 2012 3700 
Q 1825 3975 1500 3975 
Q 1275 3975 1100 3762 
Q 925 3550 925 2975 
Q 925 2550 1062 2312 
Q 1200 2075 1500 2075 
Q 1825 2075 2012 2300 
Q 2200 2525 2200 2875 
z
" transform="scale(0.015625)"/>
     </defs>
     <use xlink:href="#SimHei-32"/>
     <use xlink:href="#SimHei-31" x="50"/>
     <use xlink:href="#SimHei-36" x="100"/>
     <use xlink:href="#SimHei-2e" x="150"/>
     <use xlink:href="#SimHei-33" x="200"/>
     <use xlink:href="#SimHei-39" x="250"/>
     <use xlink:href="#SimHei-33" x="300"/>
    </g>
   </g>
   <g id="text_16">
    <!-- 83.089 -->
    <g style="fill: #4c72b0" transform="translate(388.148273 393.877015) scale(0.11 -0.11)">
     <defs>
      <path id="SimHei-38" d="M 2875 1325 
Q 2875 700 2525 375 
Q 2175 50 1575 50 
Q 975 50 625 375 
Q 275 700 275 1325 
Q 275 1650 475 1912 
Q 675 2175 1025 2300 
Q 725 2425 562 2650 
Q 400 2875 400 3225 
Q 400 3775 750 4100 
Q 1100 4425 1575 4425 
Q 2050 4425 2400 4100 
Q 2750 3775 2750 3225 
Q 2750 2875 2587 2650 
Q 2425 2425 2125 2300 
Q 2475 2175 2675 1912 
Q 2875 1650 2875 1325 
z
M 2200 3225 
Q 2200 3625 2025 3800 
Q 1850 3975 1575 3975 
Q 1300 3975 1125 3800 
Q 950 3625 950 3225 
Q 950 2825 1137 2662 
Q 1325 2500 1575 2500 
Q 1825 2500 2012 2662 
Q 2200 2825 2200 3225 
z
M 2300 1325 
Q 2300 1675 2112 1875 
Q 1925 2075 1575 2075 
Q 1225 2075 1037 1875 
Q 850 1675 850 1325 
Q 850 925 1050 712 
Q 1250 500 1575 500 
Q 1900 500 2100 712 
Q 2300 925 2300 1325 
z
" transform="scale(0.015625)"/>
     </defs>
     <use xlink:href="#SimHei-38"/>
     <use xlink:href="#SimHei-33" x="50"/>
     <use xlink:href="#SimHei-2e" x="100"/>
     <use xlink:href="#SimHei-30" x="150"/>
     <use xlink:href="#SimHei-38" x="200"/>
     <use xlink:href="#SimHei-39" x="250"/>
    </g>
   </g>
   <g id="text_17">
    <!-- 19.435 -->
    <g style="fill: #4c72b0" transform="translate(523.505727 398.42216) scale(0.11 -0.11)">
     <use xlink:href="#SimHei-31"/>
     <use xlink:href="#SimHei-39" x="50"/>
     <use xlink:href="#SimHei-2e" x="100"/>
     <use xlink:href="#SimHei-34" x="150"/>
     <use xlink:href="#SimHei-33" x="200"/>
     <use xlink:href="#SimHei-35" x="250"/>
    </g>
   </g>
   <g id="text_18">
    <!-- 4586.051 -->
    <g style="fill: #4c72b0" transform="translate(653.363182 72.349343) scale(0.11 -0.11)">
     <use xlink:href="#SimHei-34"/>
     <use xlink:href="#SimHei-35" x="50"/>
     <use xlink:href="#SimHei-38" x="100"/>
     <use xlink:href="#SimHei-36" x="150"/>
     <use xlink:href="#SimHei-2e" x="200"/>
     <use xlink:href="#SimHei-30" x="250"/>
     <use xlink:href="#SimHei-35" x="300"/>
     <use xlink:href="#SimHei-31" x="350"/>
    </g>
   </g>
   <g id="text_19">
    <!-- 60.208 -->
    <g style="fill: #4c72b0" transform="translate(794.220636 395.51078) scale(0.11 -0.11)">
     <use xlink:href="#SimHei-36"/>
     <use xlink:href="#SimHei-30" x="50"/>
     <use xlink:href="#SimHei-2e" x="100"/>
     <use xlink:href="#SimHei-32" x="150"/>
     <use xlink:href="#SimHei-30" x="200"/>
     <use xlink:href="#SimHei-38" x="250"/>
    </g>
   </g>
   <g id="text_20">
    <!-- 浮游动物生物量的变化趋势 -->
    <g style="fill: #262626" transform="translate(340.327 37.395) scale(0.22 -0.22)">
     <defs>
      <path id="SimHei-7684" d="M 1525 5100 
Q 1850 5025 2200 4925 
Q 2100 4775 2025 4487 
Q 1950 4200 1900 3975 
L 2975 3975 
Q 2950 3525 2950 2900 
L 2950 700 
Q 2950 300 2975 -225 
L 2500 -225 
L 2500 300 
L 1200 300 
L 1200 -275 
L 725 -275 
Q 750 350 750 650 
L 750 2875 
Q 750 3525 725 3975 
L 1425 3975 
Q 1450 4225 1475 4462 
Q 1500 4700 1525 5100 
z
M 1200 3525 
L 1200 2425 
L 2500 2425 
L 2500 3525 
L 1200 3525 
z
M 1200 1950 
L 1200 775 
L 2500 775 
L 2500 1950 
L 1200 1950 
z
M 5850 3925 
Q 5800 3450 5775 3000 
L 5600 175 
Q 5525 -275 5150 -400 
Q 4775 -525 4350 -550 
Q 4350 -275 4175 25 
Q 4600 0 4850 37 
Q 5100 75 5150 350 
L 5350 3475 
L 4025 3475 
Q 3825 3050 3550 2525 
Q 3350 2675 3125 2775 
Q 3275 3000 3462 3400 
Q 3650 3800 3787 4262 
Q 3925 4725 3975 5025 
Q 4300 4875 4600 4800 
Q 4475 4600 4375 4387 
Q 4275 4175 4200 3925 
L 5850 3925 
z
M 3650 2300 
Q 3825 2400 4075 2550 
Q 4200 2325 4325 2050 
Q 4450 1775 4600 1375 
Q 4400 1300 4150 1150 
Q 4075 1425 3937 1750 
Q 3800 2075 3650 2300 
z
" transform="scale(0.015625)"/>
      <path id="SimHei-53d8" d="M 2825 5075 
Q 3125 5125 3425 5175 
Q 3500 4675 3525 4475 
L 4625 4475 
Q 5325 4475 5875 4500 
L 5875 4025 
Q 5300 4050 4625 4050 
L 4025 4050 
L 4025 2975 
Q 4025 2475 4050 2175 
L 3525 2175 
Q 3550 2475 3550 2975 
L 3550 4050 
L 2775 4050 
L 2775 2975 
Q 2775 2500 2800 2175 
L 2275 2175 
Q 2300 2500 2300 2975 
L 2300 4050 
L 1775 4050 
Q 1075 4050 550 4025 
L 550 4500 
Q 1050 4475 1775 4475 
L 2975 4475 
Q 2925 4775 2825 5075 
z
M 1375 3700 
Q 1600 3525 1900 3375 
Q 1750 3250 1487 2900 
Q 1225 2550 925 2175 
Q 675 2350 475 2475 
Q 1025 3000 1375 3700 
z
M 4450 3325 
Q 4675 3500 4850 3675 
Q 5350 3200 5900 2600 
Q 5675 2450 5450 2250 
Q 5050 2750 4450 3325 
z
M 1125 1825 
Q 1575 1800 2175 1800 
L 5100 1800 
Q 4775 1300 4450 900 
Q 4125 500 3750 225 
Q 4325 50 4762 -12 
Q 5200 -75 5900 -50 
Q 5700 -275 5625 -625 
Q 4800 -525 4225 -375 
Q 3650 -225 3275 -75 
Q 2650 -325 2100 -437 
Q 1550 -550 775 -650 
Q 675 -375 500 -125 
Q 1150 -125 1687 -50 
Q 2225 25 2825 200 
Q 2325 475 1750 1375 
L 2300 1375 
Q 2700 750 3300 450 
Q 3800 750 4250 1375 
L 2150 1375 
Q 1525 1375 1125 1350 
L 1125 1825 
z
" transform="scale(0.015625)"/>
      <path id="SimHei-5316" d="M 3350 5075 
L 3900 5075 
Q 3850 4750 3850 4250 
L 3850 2425 
Q 4275 2800 4600 3262 
Q 4925 3725 5150 4175 
Q 5350 4025 5750 3850 
Q 5575 3700 5375 3450 
Q 5175 3200 4950 2912 
Q 4725 2625 4450 2337 
Q 4175 2050 3850 1800 
L 3850 400 
Q 3850 50 4175 50 
L 5075 50 
Q 5300 75 5337 262 
Q 5375 450 5400 825 
Q 5650 625 6000 575 
Q 5850 -100 5687 -250 
Q 5525 -400 5225 -400 
L 3900 -400 
Q 3375 -400 3375 50 
L 3375 1500 
Q 3150 1350 2950 1225 
Q 2750 1100 2450 900 
Q 2300 1175 2150 1350 
Q 2450 1475 2787 1662 
Q 3125 1850 3375 2075 
L 3375 4325 
Q 3375 4775 3350 5075 
z
M 1825 5175 
Q 2050 5025 2450 4900 
Q 2250 4625 2150 4362 
Q 2050 4100 1900 3750 
L 1900 650 
Q 1900 -125 1925 -525 
L 1375 -525 
Q 1425 -150 1425 625 
L 1425 3000 
Q 1250 2700 1100 2500 
Q 950 2300 825 2150 
Q 650 2350 425 2525 
Q 750 2850 987 3200 
Q 1225 3550 1375 3887 
Q 1525 4225 1637 4550 
Q 1750 4875 1825 5175 
z
" transform="scale(0.015625)"/>
      <path id="SimHei-8d8b" d="M 6125 125 
Q 5950 -150 5925 -450 
Q 4900 -475 4200 -450 
Q 3500 -425 2937 -300 
Q 2375 -175 1950 75 
Q 1525 325 1100 750 
Q 875 -100 650 -550 
Q 425 -250 250 -175 
Q 525 225 625 625 
Q 725 1025 762 1400 
Q 800 1775 800 2050 
Q 1025 1975 1325 1950 
Q 1200 1575 1200 1275 
Q 1200 975 1700 675 
L 1700 2600 
Q 850 2600 425 2575 
L 425 2975 
Q 875 2950 1575 2950 
L 1575 3925 
Q 1050 3925 625 3900 
L 625 4300 
Q 1050 4275 1575 4275 
Q 1575 4725 1550 5175 
L 2050 5175 
Q 2025 4775 2025 4275 
Q 2400 4275 2775 4300 
L 2775 3900 
Q 2375 3925 2025 3925 
L 2025 2950 
Q 2525 2950 2975 2975 
L 2975 2575 
Q 2525 2600 2150 2600 
L 2150 1800 
Q 2450 1800 2825 1825 
L 2825 1425 
Q 2475 1450 2150 1450 
L 2150 400 
Q 2900 0 4125 0 
Q 5350 0 6125 125 
z
M 5825 3225 
Q 5800 2775 5800 1825 
Q 5800 875 5825 500 
Q 3725 500 3250 475 
L 3250 875 
Q 3725 850 5350 850 
L 5350 1650 
Q 3825 1650 3450 1625 
L 3450 2025 
Q 3825 2000 5350 2000 
L 5350 2875 
L 4025 2875 
Q 3750 2875 3400 2850 
L 3400 3250 
L 3325 3125 
Q 3125 3300 2900 3375 
Q 3275 3825 3525 4337 
Q 3775 4850 3875 5225 
Q 4125 5125 4450 5050 
Q 4325 4950 4125 4475 
L 5675 4475 
Q 5200 3675 4975 3225 
L 5825 3225 
z
M 3950 4125 
Q 3600 3525 3400 3250 
Q 3750 3225 4050 3225 
L 4475 3225 
Q 4625 3525 4975 4125 
L 3950 4125 
z
" transform="scale(0.015625)"/>
      <path id="SimHei-52bf" d="M 2575 3700 
Q 2550 3525 2550 3300 
Q 2125 3200 1900 3125 
L 1900 2225 
Q 1875 1950 1662 1875 
Q 1450 1800 1050 1725 
Q 1025 2000 850 2275 
Q 1300 2250 1375 2300 
Q 1450 2350 1450 2600 
L 1450 3050 
Q 950 2925 600 2775 
Q 525 3050 400 3250 
Q 750 3300 1450 3450 
L 1450 4025 
Q 850 4025 475 4000 
L 475 4450 
Q 850 4425 1450 4425 
Q 1450 4875 1425 5150 
L 1950 5150 
Q 1900 4900 1900 4425 
Q 2225 4425 2600 4450 
L 2600 4000 
Q 2225 4025 1900 4025 
L 1900 3525 
Q 2175 3600 2575 3700 
z
M 700 1500 
Q 1150 1475 1600 1475 
L 2725 1475 
Q 2750 1675 2750 1900 
Q 3075 1825 3300 1800 
Q 3250 1675 3200 1475 
L 5275 1475 
Q 5225 1125 5200 800 
Q 5175 475 5075 62 
Q 4975 -350 4700 -437 
Q 4425 -525 3775 -575 
Q 3800 -350 3575 -25 
Q 4325 -75 4462 12 
Q 4600 100 4650 300 
Q 4700 500 4750 1075 
L 3125 1075 
Q 2800 275 2150 -87 
Q 1500 -450 825 -650 
Q 725 -375 450 -175 
Q 1000 -100 1650 175 
Q 2300 450 2625 1075 
L 1600 1075 
Q 1125 1075 700 1050 
L 700 1500 
z
M 2850 1925 
Q 2700 2100 2375 2225 
Q 3025 2475 3375 3025 
Q 3175 3150 2850 3325 
Q 3025 3475 3100 3625 
Q 3325 3500 3525 3375 
Q 3575 3625 3600 4075 
Q 3250 4075 2925 4025 
L 2875 4425 
Q 3200 4425 3600 4425 
Q 3600 4900 3575 5200 
Q 3775 5150 4100 5125 
Q 4025 4875 4025 4450 
L 5200 4475 
Q 5125 3975 5087 3437 
Q 5050 2900 5175 2625 
Q 5300 2350 5437 2312 
Q 5575 2275 5600 2850 
Q 5775 2650 6075 2600 
Q 5925 2050 5825 1912 
Q 5725 1775 5562 1737 
Q 5400 1700 5087 1975 
Q 4775 2250 4700 2787 
Q 4625 3325 4725 4100 
L 4025 4075 
Q 3975 3525 3925 3200 
Q 4150 3050 4425 2875 
Q 4225 2700 4100 2550 
Q 3925 2700 3750 2825 
Q 3425 2325 2850 1925 
z
" transform="scale(0.015625)"/>
     </defs>
     <use xlink:href="#SimHei-6d6e"/>
     <use xlink:href="#SimHei-6e38" x="100"/>
     <use xlink:href="#SimHei-52a8" x="200"/>
     <use xlink:href="#SimHei-7269" x="300"/>
     <use xlink:href="#SimHei-751f" x="400"/>
     <use xlink:href="#SimHei-7269" x="500"/>
     <use xlink:href="#SimHei-91cf" x="600"/>
     <use xlink:href="#SimHei-7684" x="700"/>
     <use xlink:href="#SimHei-53d8" x="800"/>
     <use xlink:href="#SimHei-5316" x="900"/>
     <use xlink:href="#SimHei-8d8b" x="1000"/>
     <use xlink:href="#SimHei-52bf" x="1100"/>
    </g>
   </g>
  </g>
 </g>
 <defs>
  <clipPath id="pc715651b7c">
   <rect x="100.094" y="57.395" width="744.466" height="360.206572"/>
  </clipPath>
 </defs>
</svg>
