<?xml version="1.0" encoding="utf-8" standalone="no"?>
<!DOCTYPE svg PUBLIC "-//W3C//DTD SVG 1.1//EN"
  "http://www.w3.org/Graphics/SVG/1.1/DTD/svg11.dtd">
<svg xmlns:xlink="http://www.w3.org/1999/xlink" width="864pt" height="504pt" viewBox="0 0 864 504" xmlns="http://www.w3.org/2000/svg" version="1.1">
 <metadata>
  <rdf:RDF xmlns:dc="http://purl.org/dc/elements/1.1/" xmlns:cc="http://creativecommons.org/ns#" xmlns:rdf="http://www.w3.org/1999/02/22-rdf-syntax-ns#">
   <cc:Work>
    <dc:type rdf:resource="http://purl.org/dc/dcmitype/StillImage"/>
    <dc:date>2024-09-05T17:23:53.504834</dc:date>
    <dc:format>image/svg+xml</dc:format>
    <dc:creator>
     <cc:Agent>
      <dc:title>Matplotlib v3.7.5, https://matplotlib.org/</dc:title>
     </cc:Agent>
    </dc:creator>
   </cc:Work>
  </rdf:RDF>
 </metadata>
 <defs>
  <style type="text/css">*{stroke-linejoin: round; stroke-linecap: butt}</style>
 </defs>
 <g id="figure_1">
  <g id="patch_1">
   <path d="M 0 504 
L 864 504 
L 864 0 
L 0 0 
z
" style="fill: #ffffff"/>
  </g>
  <g id="axes_1">
   <g id="patch_2">
    <path d="M 92.6825 379.83525 
L 787.01125 379.83525 
L 787.01125 55.6625 
L 92.6825 55.6625 
z
" style="fill: #ffffff"/>
   </g>
   <g id="matplotlib.axis_1">
    <g id="xtick_1">
     <g id="line2d_1">
      <path d="M 124.242898 379.83525 
L 124.242898 55.6625 
" clip-path="url(#pe30793a4d5)" style="fill: none; stroke-dasharray: 5.55,2.4; stroke-dashoffset: 0; stroke: #cccccc; stroke-opacity: 0.7; stroke-width: 1.5"/>
     </g>
     <g id="text_1">
      <!-- 19冬 -->
      <g style="fill: #262626" transform="translate(106.178529 416.00123) rotate(-45) scale(0.12 -0.12)">
       <defs>
        <path id="SimHei-31" d="M 1950 100 
L 1375 100 
L 1375 3425 
L 625 3425 
L 625 3725 
Q 1075 3725 1325 3900 
Q 1575 4075 1650 4425 
L 1950 4425 
L 1950 100 
z
" transform="scale(0.015625)"/>
        <path id="SimHei-39" d="M 2825 2300 
Q 2825 1275 2462 662 
Q 2100 50 1425 50 
Q 950 50 662 400 
Q 375 750 375 1175 
L 950 1175 
Q 950 925 1087 725 
Q 1225 525 1450 525 
Q 1825 525 2012 950 
Q 2200 1375 2250 2200 
Q 2125 1925 1900 1775 
Q 1675 1625 1400 1625 
Q 925 1625 625 1975 
Q 325 2325 325 2975 
Q 325 3625 625 4025 
Q 925 4425 1525 4425 
Q 2125 4425 2475 3925 
Q 2825 3425 2825 2300 
z
M 2200 2875 
Q 2200 3425 2012 3700 
Q 1825 3975 1500 3975 
Q 1275 3975 1100 3762 
Q 925 3550 925 2975 
Q 925 2550 1062 2312 
Q 1200 2075 1500 2075 
Q 1825 2075 2012 2300 
Q 2200 2525 2200 2875 
z
" transform="scale(0.015625)"/>
        <path id="SimHei-51ac" d="M 2550 4050 
Q 2950 3250 3325 2925 
Q 3825 3275 4375 4050 
L 2550 4050 
z
M 1275 2750 
Q 1075 2975 850 3100 
Q 1400 3575 1712 4112 
Q 2025 4650 2175 5175 
Q 2475 5025 2800 4925 
Q 2600 4725 2475 4450 
L 5150 4450 
Q 4900 4000 4512 3487 
Q 4125 2975 3675 2650 
Q 4800 2025 6025 2050 
Q 5850 1800 5775 1475 
Q 4175 1725 3275 2375 
Q 2175 1725 625 1400 
Q 550 1650 325 1900 
Q 1800 2075 2925 2675 
Q 2500 3125 2175 3875 
Q 1800 3275 1275 2750 
z
M 4425 1050 
Q 4275 800 4175 550 
Q 2925 1125 2400 1275 
Q 2525 1550 2600 1775 
Q 3025 1625 3475 1450 
Q 3925 1275 4425 1050 
z
M 1800 125 
Q 1950 375 2050 600 
Q 2450 500 3100 300 
Q 3750 100 4625 -200 
Q 4475 -425 4375 -700 
Q 3900 -450 1800 125 
z
" transform="scale(0.015625)"/>
       </defs>
       <use xlink:href="#SimHei-31"/>
       <use xlink:href="#SimHei-39" x="50"/>
       <use xlink:href="#SimHei-51ac" x="100"/>
      </g>
     </g>
    </g>
    <g id="xtick_2">
     <g id="line2d_2">
      <path d="M 181.625439 379.83525 
L 181.625439 55.6625 
" clip-path="url(#pe30793a4d5)" style="fill: none; stroke-dasharray: 5.55,2.4; stroke-dashoffset: 0; stroke: #cccccc; stroke-opacity: 0.7; stroke-width: 1.5"/>
     </g>
     <g id="text_2">
      <!-- 20春 -->
      <g style="fill: #262626" transform="translate(163.56107 416.067521) rotate(-45) scale(0.12 -0.12)">
       <defs>
        <path id="SimHei-32" d="M 2850 100 
L 300 100 
L 300 500 
Q 450 900 712 1237 
Q 975 1575 1475 2000 
Q 1850 2325 2012 2600 
Q 2175 2875 2175 3200 
Q 2175 3525 2037 3737 
Q 1900 3950 1600 3950 
Q 1350 3950 1162 3725 
Q 975 3500 975 2925 
L 400 2925 
Q 425 3650 737 4037 
Q 1050 4425 1625 4425 
Q 2175 4425 2475 4087 
Q 2775 3750 2775 3175 
Q 2775 2700 2500 2350 
Q 2225 2000 1825 1650 
Q 1375 1250 1200 1050 
Q 1025 850 875 575 
L 2850 575 
L 2850 100 
z
" transform="scale(0.015625)"/>
        <path id="SimHei-30" d="M 2975 2250 
Q 2975 1350 2650 700 
Q 2325 50 1600 50 
Q 875 50 537 700 
Q 200 1350 200 2250 
Q 200 3150 537 3787 
Q 875 4425 1600 4425 
Q 2325 4425 2650 3787 
Q 2975 3150 2975 2250 
z
M 2375 2250 
Q 2375 3050 2187 3500 
Q 2000 3950 1600 3950 
Q 1200 3950 1000 3500 
Q 800 3050 800 2250 
Q 800 1450 1000 987 
Q 1200 525 1600 525 
Q 2000 525 2187 987 
Q 2375 1450 2375 2250 
z
" transform="scale(0.015625)"/>
        <path id="SimHei-6625" d="M 3125 5275 
Q 3450 5175 3725 5150 
Q 3625 5100 3525 4650 
L 4725 4650 
Q 5175 4650 5675 4700 
L 5675 4250 
Q 5175 4275 4875 4275 
L 3450 4275 
Q 3400 4100 3325 3775 
L 4950 3775 
Q 5125 3775 5475 3800 
L 5475 3375 
Q 5025 3400 4875 3400 
L 3200 3400 
Q 3100 3125 2925 2850 
L 5050 2850 
Q 5475 2850 5925 2875 
L 5925 2450 
Q 5475 2475 4450 2475 
Q 4700 2125 5112 1862 
Q 5525 1600 6150 1450 
Q 5950 1275 5825 950 
Q 5325 1200 4900 1475 
L 4900 175 
Q 4900 -200 4925 -650 
L 4425 -650 
L 4425 -300 
L 2200 -300 
L 2200 -625 
L 1700 -625 
Q 1725 -175 1725 150 
L 1725 1550 
Q 1300 1225 750 875 
Q 600 1125 350 1300 
Q 825 1475 1287 1775 
Q 1750 2075 2125 2475 
L 1275 2475 
Q 1000 2475 575 2425 
L 575 2875 
Q 1000 2850 1325 2850 
L 2400 2850 
Q 2600 3125 2700 3400 
L 1850 3400 
Q 1600 3400 1125 3375 
L 1125 3800 
Q 1600 3775 1900 3775 
L 2850 3775 
Q 2925 4000 2975 4275 
L 1650 4275 
Q 1375 4275 900 4250 
L 900 4675 
Q 1375 4650 1800 4650 
L 3050 4650 
Q 3100 4900 3125 5275 
z
M 2700 2475 
Q 2375 2075 2100 1875 
L 4375 1875 
Q 4175 2075 3950 2475 
L 2700 2475 
z
M 2200 1500 
L 2200 1000 
L 4425 1000 
L 4425 1500 
L 2200 1500 
z
M 2200 625 
L 2200 75 
L 4425 75 
L 4425 625 
L 2200 625 
z
" transform="scale(0.015625)"/>
       </defs>
       <use xlink:href="#SimHei-32"/>
       <use xlink:href="#SimHei-30" x="50"/>
       <use xlink:href="#SimHei-6625" x="100"/>
      </g>
     </g>
    </g>
    <g id="xtick_3">
     <g id="line2d_3">
      <path d="M 239.00798 379.83525 
L 239.00798 55.6625 
" clip-path="url(#pe30793a4d5)" style="fill: none; stroke-dasharray: 5.55,2.4; stroke-dashoffset: 0; stroke: #cccccc; stroke-opacity: 0.7; stroke-width: 1.5"/>
     </g>
     <g id="text_3">
      <!-- 20夏 -->
      <g style="fill: #262626" transform="translate(220.943612 415.570337) rotate(-45) scale(0.12 -0.12)">
       <defs>
        <path id="SimHei-590f" d="M 1775 3850 
L 1775 3500 
L 4625 3500 
L 4625 3850 
L 1775 3850 
z
M 1775 3175 
L 1775 2850 
L 4625 2850 
L 4625 3175 
L 1775 3175 
z
M 1775 2550 
L 1775 2250 
L 4625 2250 
L 4625 2550 
L 1775 2550 
z
M 425 4900 
Q 850 4875 1350 4875 
L 4875 4875 
Q 5400 4875 5850 4900 
L 5850 4525 
Q 5400 4550 4900 4550 
L 3325 4550 
Q 3250 4350 3175 4125 
L 5150 4125 
Q 5125 3775 5125 3025 
Q 5125 2275 5150 1875 
L 2725 1875 
Q 2600 1700 2425 1525 
L 4775 1525 
Q 4575 1200 4350 900 
Q 4125 600 3725 300 
Q 4225 100 4712 25 
Q 5200 -50 5975 -100 
Q 5725 -375 5650 -625 
Q 4850 -525 4362 -400 
Q 3875 -275 3250 0 
Q 2650 -300 2137 -425 
Q 1625 -550 850 -650 
Q 700 -375 425 -150 
Q 900 -150 1562 -62 
Q 2225 25 2850 250 
Q 2425 475 1850 1000 
Q 1400 675 800 475 
Q 675 675 450 875 
Q 1075 1050 1487 1312 
Q 1900 1575 2150 1875 
L 1250 1875 
Q 1275 2250 1275 3012 
Q 1275 3775 1250 4125 
L 2700 4125 
Q 2750 4350 2800 4550 
L 1375 4550 
Q 850 4550 425 4525 
L 425 4900 
z
M 2250 1200 
Q 2750 675 3275 500 
Q 3775 850 4025 1200 
L 2250 1200 
z
" transform="scale(0.015625)"/>
       </defs>
       <use xlink:href="#SimHei-32"/>
       <use xlink:href="#SimHei-30" x="50"/>
       <use xlink:href="#SimHei-590f" x="100"/>
      </g>
     </g>
    </g>
    <g id="xtick_4">
     <g id="line2d_4">
      <path d="M 296.390522 379.83525 
L 296.390522 55.6625 
" clip-path="url(#pe30793a4d5)" style="fill: none; stroke-dasharray: 5.55,2.4; stroke-dashoffset: 0; stroke: #cccccc; stroke-opacity: 0.7; stroke-width: 1.5"/>
     </g>
     <g id="text_4">
      <!-- 20秋 -->
      <g style="fill: #262626" transform="translate(278.326153 415.901793) rotate(-45) scale(0.12 -0.12)">
       <defs>
        <path id="SimHei-79cb" d="M 3350 2350 
Q 3100 2400 2900 2425 
Q 3125 3175 3225 3975 
Q 3450 3900 3750 3875 
Q 3650 3700 3550 3212 
Q 3450 2725 3350 2350 
z
M 6150 -250 
Q 5825 -350 5675 -625 
Q 5125 -100 4825 425 
Q 4525 950 4275 1725 
Q 4050 875 3662 325 
Q 3275 -225 2775 -650 
Q 2600 -425 2300 -300 
Q 3075 225 3462 937 
Q 3850 1650 3937 2375 
Q 4025 3100 4025 3837 
Q 4025 4575 4000 5150 
Q 4200 5150 4600 5100 
Q 4525 4850 4500 4375 
Q 4475 3900 4487 3312 
Q 4500 2725 4612 2137 
Q 4725 1550 5087 925 
Q 5450 300 6150 -250 
z
M 5300 2275 
Q 5050 2375 4825 2400 
Q 5125 3175 5225 3925 
Q 5425 3875 5750 3800 
Q 5650 3625 5537 3187 
Q 5425 2750 5300 2275 
z
M 1950 225 
Q 1950 -250 1975 -600 
L 1475 -600 
Q 1500 -275 1500 225 
L 1500 1950 
Q 1075 1125 575 425 
Q 475 700 250 875 
Q 650 1275 937 1762 
Q 1225 2250 1400 2800 
Q 725 2800 400 2775 
L 400 3225 
Q 675 3200 1500 3200 
L 1500 4250 
Q 875 4150 600 4075 
Q 500 4350 375 4525 
Q 775 4550 1500 4712 
Q 2225 4875 2650 5100 
Q 2775 4825 3000 4600 
Q 2625 4525 1950 4350 
L 1950 3200 
Q 2325 3200 2675 3225 
L 2675 2775 
Q 2300 2800 1950 2800 
L 1950 225 
z
M 1975 1975 
Q 2125 2100 2325 2275 
Q 2675 1775 2925 1375 
Q 2700 1250 2525 1100 
Q 2350 1475 1975 1975 
z
" transform="scale(0.015625)"/>
       </defs>
       <use xlink:href="#SimHei-32"/>
       <use xlink:href="#SimHei-30" x="50"/>
       <use xlink:href="#SimHei-79cb" x="100"/>
      </g>
     </g>
    </g>
    <g id="xtick_5">
     <g id="line2d_5">
      <path d="M 353.773063 379.83525 
L 353.773063 55.6625 
" clip-path="url(#pe30793a4d5)" style="fill: none; stroke-dasharray: 5.55,2.4; stroke-dashoffset: 0; stroke: #cccccc; stroke-opacity: 0.7; stroke-width: 1.5"/>
     </g>
     <g id="text_5">
      <!-- 20冬 -->
      <g style="fill: #262626" transform="translate(335.708694 416.00123) rotate(-45) scale(0.12 -0.12)">
       <use xlink:href="#SimHei-32"/>
       <use xlink:href="#SimHei-30" x="50"/>
       <use xlink:href="#SimHei-51ac" x="100"/>
      </g>
     </g>
    </g>
    <g id="xtick_6">
     <g id="line2d_6">
      <path d="M 411.155604 379.83525 
L 411.155604 55.6625 
" clip-path="url(#pe30793a4d5)" style="fill: none; stroke-dasharray: 5.55,2.4; stroke-dashoffset: 0; stroke: #cccccc; stroke-opacity: 0.7; stroke-width: 1.5"/>
     </g>
     <g id="text_6">
      <!-- 21春 -->
      <g style="fill: #262626" transform="translate(393.091236 416.067521) rotate(-45) scale(0.12 -0.12)">
       <use xlink:href="#SimHei-32"/>
       <use xlink:href="#SimHei-31" x="50"/>
       <use xlink:href="#SimHei-6625" x="100"/>
      </g>
     </g>
    </g>
    <g id="xtick_7">
     <g id="line2d_7">
      <path d="M 468.538146 379.83525 
L 468.538146 55.6625 
" clip-path="url(#pe30793a4d5)" style="fill: none; stroke-dasharray: 5.55,2.4; stroke-dashoffset: 0; stroke: #cccccc; stroke-opacity: 0.7; stroke-width: 1.5"/>
     </g>
     <g id="text_7">
      <!-- 21夏 -->
      <g style="fill: #262626" transform="translate(450.473777 415.570337) rotate(-45) scale(0.12 -0.12)">
       <use xlink:href="#SimHei-32"/>
       <use xlink:href="#SimHei-31" x="50"/>
       <use xlink:href="#SimHei-590f" x="100"/>
      </g>
     </g>
    </g>
    <g id="xtick_8">
     <g id="line2d_8">
      <path d="M 525.920687 379.83525 
L 525.920687 55.6625 
" clip-path="url(#pe30793a4d5)" style="fill: none; stroke-dasharray: 5.55,2.4; stroke-dashoffset: 0; stroke: #cccccc; stroke-opacity: 0.7; stroke-width: 1.5"/>
     </g>
     <g id="text_8">
      <!-- 21秋 -->
      <g style="fill: #262626" transform="translate(507.856318 415.901793) rotate(-45) scale(0.12 -0.12)">
       <use xlink:href="#SimHei-32"/>
       <use xlink:href="#SimHei-31" x="50"/>
       <use xlink:href="#SimHei-79cb" x="100"/>
      </g>
     </g>
    </g>
    <g id="xtick_9">
     <g id="line2d_9">
      <path d="M 583.303228 379.83525 
L 583.303228 55.6625 
" clip-path="url(#pe30793a4d5)" style="fill: none; stroke-dasharray: 5.55,2.4; stroke-dashoffset: 0; stroke: #cccccc; stroke-opacity: 0.7; stroke-width: 1.5"/>
     </g>
     <g id="text_9">
      <!-- 22春 -->
      <g style="fill: #262626" transform="translate(565.23886 416.067521) rotate(-45) scale(0.12 -0.12)">
       <use xlink:href="#SimHei-32"/>
       <use xlink:href="#SimHei-32" x="50"/>
       <use xlink:href="#SimHei-6625" x="100"/>
      </g>
     </g>
    </g>
    <g id="xtick_10">
     <g id="line2d_10">
      <path d="M 640.68577 379.83525 
L 640.68577 55.6625 
" clip-path="url(#pe30793a4d5)" style="fill: none; stroke-dasharray: 5.55,2.4; stroke-dashoffset: 0; stroke: #cccccc; stroke-opacity: 0.7; stroke-width: 1.5"/>
     </g>
     <g id="text_10">
      <!-- 22夏 -->
      <g style="fill: #262626" transform="translate(622.621401 415.570337) rotate(-45) scale(0.12 -0.12)">
       <use xlink:href="#SimHei-32"/>
       <use xlink:href="#SimHei-32" x="50"/>
       <use xlink:href="#SimHei-590f" x="100"/>
      </g>
     </g>
    </g>
    <g id="xtick_11">
     <g id="line2d_11">
      <path d="M 698.068311 379.83525 
L 698.068311 55.6625 
" clip-path="url(#pe30793a4d5)" style="fill: none; stroke-dasharray: 5.55,2.4; stroke-dashoffset: 0; stroke: #cccccc; stroke-opacity: 0.7; stroke-width: 1.5"/>
     </g>
     <g id="text_11">
      <!-- 22秋 -->
      <g style="fill: #262626" transform="translate(680.003942 415.901793) rotate(-45) scale(0.12 -0.12)">
       <use xlink:href="#SimHei-32"/>
       <use xlink:href="#SimHei-32" x="50"/>
       <use xlink:href="#SimHei-79cb" x="100"/>
      </g>
     </g>
    </g>
    <g id="xtick_12">
     <g id="line2d_12">
      <path d="M 755.450852 379.83525 
L 755.450852 55.6625 
" clip-path="url(#pe30793a4d5)" style="fill: none; stroke-dasharray: 5.55,2.4; stroke-dashoffset: 0; stroke: #cccccc; stroke-opacity: 0.7; stroke-width: 1.5"/>
     </g>
     <g id="text_12">
      <!-- 22冬 -->
      <g style="fill: #262626" transform="translate(737.386484 416.00123) rotate(-45) scale(0.12 -0.12)">
       <use xlink:href="#SimHei-32"/>
       <use xlink:href="#SimHei-32" x="50"/>
       <use xlink:href="#SimHei-51ac" x="100"/>
      </g>
     </g>
    </g>
    <g id="text_13">
     <!-- 时间 -->
     <g style="fill: #262626" transform="translate(425.846875 443.098827) scale(0.14 -0.14)">
      <defs>
       <path id="SimHei-65f6" d="M 2800 3825 
Q 3550 3800 4775 3800 
Q 4775 4550 4750 5200 
L 5275 5200 
Q 5250 4550 5250 3800 
Q 5600 3800 6000 3825 
L 6000 3350 
Q 5600 3375 5250 3375 
L 5250 25 
Q 5250 -350 4962 -450 
Q 4675 -550 4225 -600 
Q 4225 -300 3975 -25 
Q 4425 -75 4600 -50 
Q 4775 -25 4775 275 
L 4775 3375 
Q 3600 3375 2800 3350 
L 2800 3825 
z
M 3075 2475 
Q 3300 2575 3525 2700 
Q 3825 2175 4125 1575 
Q 3875 1500 3625 1350 
Q 3425 1950 3075 2475 
z
M 625 4550 
L 2575 4550 
Q 2550 3650 2550 2375 
Q 2550 1100 2575 375 
L 2075 375 
L 2075 850 
L 1125 850 
L 1125 25 
L 625 25 
Q 650 1175 650 2337 
Q 650 3500 625 4550 
z
M 1125 4125 
L 1125 2950 
L 2075 2950 
L 2075 4125 
L 1125 4125 
z
M 1125 2525 
L 1125 1275 
L 2075 1275 
L 2075 2525 
L 1125 2525 
z
" transform="scale(0.015625)"/>
       <path id="SimHei-95f4" d="M 1225 4950 
Q 1500 5150 1650 5225 
Q 1875 4925 2300 4300 
Q 2050 4175 1825 4025 
Q 1575 4525 1225 4950 
z
M 1250 500 
Q 1250 0 1275 -500 
L 775 -500 
Q 800 -25 800 525 
L 800 3100 
Q 800 3625 775 3975 
L 1275 3975 
Q 1250 3600 1250 3250 
L 1250 500 
z
M 2725 4825 
Q 3175 4800 3700 4800 
L 5600 4800 
Q 5575 4350 5575 3875 
L 5575 250 
Q 5600 -300 5287 -425 
Q 4975 -550 4600 -600 
Q 4575 -300 4400 -25 
Q 4850 -50 4987 25 
Q 5125 100 5125 350 
L 5125 4400 
L 3725 4400 
Q 3175 4400 2725 4375 
L 2725 4825 
z
M 2500 3100 
L 2500 2325 
L 3875 2325 
L 3875 3100 
L 2500 3100 
z
M 2500 1925 
L 2500 1025 
L 3875 1025 
L 3875 1925 
L 2500 1925 
z
M 2025 3500 
L 4350 3500 
Q 4325 3050 4325 2700 
L 4325 1400 
Q 4325 1075 4350 625 
L 2025 625 
Q 2050 1075 2050 1425 
L 2050 2700 
Q 2050 3050 2025 3500 
z
" transform="scale(0.015625)"/>
      </defs>
      <use xlink:href="#SimHei-65f6"/>
      <use xlink:href="#SimHei-95f4" x="100"/>
     </g>
    </g>
   </g>
   <g id="matplotlib.axis_2">
    <g id="ytick_1">
     <g id="line2d_13">
      <path d="M 92.6825 349.784249 
L 787.01125 349.784249 
" clip-path="url(#pe30793a4d5)" style="fill: none; stroke-dasharray: 5.55,2.4; stroke-dashoffset: 0; stroke: #cccccc; stroke-opacity: 0.7; stroke-width: 1.5"/>
     </g>
     <g id="line2d_14">
      <defs>
       <path id="m5878b19292" d="M 0 0 
L -9 0 
" style="stroke: #262626; stroke-width: 1.875"/>
      </defs>
      <g>
       <use xlink:href="#m5878b19292" x="92.6825" y="349.784249" style="fill: #262626; stroke: #262626; stroke-width: 1.875"/>
      </g>
     </g>
     <g id="text_14">
      <!-- 10.0 -->
      <g style="fill: #1f77b4" transform="translate(47.1825 355.423898) scale(0.165 -0.165)">
       <defs>
        <path id="SimHei-2e" d="M 1100 100 
L 525 100 
L 525 650 
L 1100 650 
L 1100 100 
z
" transform="scale(0.015625)"/>
       </defs>
       <use xlink:href="#SimHei-31"/>
       <use xlink:href="#SimHei-30" x="50"/>
       <use xlink:href="#SimHei-2e" x="100"/>
       <use xlink:href="#SimHei-30" x="150"/>
      </g>
     </g>
    </g>
    <g id="ytick_2">
     <g id="line2d_15">
      <path d="M 92.6825 309.928811 
L 787.01125 309.928811 
" clip-path="url(#pe30793a4d5)" style="fill: none; stroke-dasharray: 5.55,2.4; stroke-dashoffset: 0; stroke: #cccccc; stroke-opacity: 0.7; stroke-width: 1.5"/>
     </g>
     <g id="line2d_16">
      <g>
       <use xlink:href="#m5878b19292" x="92.6825" y="309.928811" style="fill: #262626; stroke: #262626; stroke-width: 1.875"/>
      </g>
     </g>
     <g id="text_15">
      <!-- 12.5 -->
      <g style="fill: #1f77b4" transform="translate(47.1825 315.568459) scale(0.165 -0.165)">
       <defs>
        <path id="SimHei-35" d="M 2825 1650 
Q 2825 900 2462 475 
Q 2100 50 1500 50 
Q 975 50 637 400 
Q 300 750 275 1350 
L 850 1350 
Q 850 975 1025 750 
Q 1200 525 1525 525 
Q 1850 525 2037 800 
Q 2225 1075 2225 1650 
Q 2225 2150 2062 2387 
Q 1900 2625 1625 2625 
Q 1400 2625 1237 2525 
Q 1075 2425 925 2175 
L 425 2175 
L 575 4375 
L 2725 4375 
L 2725 3900 
L 1050 3900 
L 950 2750 
Q 1100 2900 1275 2975 
Q 1450 3050 1750 3050 
Q 2225 3050 2525 2687 
Q 2825 2325 2825 1650 
z
" transform="scale(0.015625)"/>
       </defs>
       <use xlink:href="#SimHei-31"/>
       <use xlink:href="#SimHei-32" x="50"/>
       <use xlink:href="#SimHei-2e" x="100"/>
       <use xlink:href="#SimHei-35" x="150"/>
      </g>
     </g>
    </g>
    <g id="ytick_3">
     <g id="line2d_17">
      <path d="M 92.6825 270.073372 
L 787.01125 270.073372 
" clip-path="url(#pe30793a4d5)" style="fill: none; stroke-dasharray: 5.55,2.4; stroke-dashoffset: 0; stroke: #cccccc; stroke-opacity: 0.7; stroke-width: 1.5"/>
     </g>
     <g id="line2d_18">
      <g>
       <use xlink:href="#m5878b19292" x="92.6825" y="270.073372" style="fill: #262626; stroke: #262626; stroke-width: 1.875"/>
      </g>
     </g>
     <g id="text_16">
      <!-- 15.0 -->
      <g style="fill: #1f77b4" transform="translate(47.1825 275.713021) scale(0.165 -0.165)">
       <use xlink:href="#SimHei-31"/>
       <use xlink:href="#SimHei-35" x="50"/>
       <use xlink:href="#SimHei-2e" x="100"/>
       <use xlink:href="#SimHei-30" x="150"/>
      </g>
     </g>
    </g>
    <g id="ytick_4">
     <g id="line2d_19">
      <path d="M 92.6825 230.217934 
L 787.01125 230.217934 
" clip-path="url(#pe30793a4d5)" style="fill: none; stroke-dasharray: 5.55,2.4; stroke-dashoffset: 0; stroke: #cccccc; stroke-opacity: 0.7; stroke-width: 1.5"/>
     </g>
     <g id="line2d_20">
      <g>
       <use xlink:href="#m5878b19292" x="92.6825" y="230.217934" style="fill: #262626; stroke: #262626; stroke-width: 1.875"/>
      </g>
     </g>
     <g id="text_17">
      <!-- 17.5 -->
      <g style="fill: #1f77b4" transform="translate(47.1825 235.857582) scale(0.165 -0.165)">
       <defs>
        <path id="SimHei-37" d="M 2775 3850 
L 1600 100 
L 1025 100 
L 2225 3900 
L 400 3900 
L 400 4375 
L 2775 4375 
L 2775 3850 
z
" transform="scale(0.015625)"/>
       </defs>
       <use xlink:href="#SimHei-31"/>
       <use xlink:href="#SimHei-37" x="50"/>
       <use xlink:href="#SimHei-2e" x="100"/>
       <use xlink:href="#SimHei-35" x="150"/>
      </g>
     </g>
    </g>
    <g id="ytick_5">
     <g id="line2d_21">
      <path d="M 92.6825 190.362495 
L 787.01125 190.362495 
" clip-path="url(#pe30793a4d5)" style="fill: none; stroke-dasharray: 5.55,2.4; stroke-dashoffset: 0; stroke: #cccccc; stroke-opacity: 0.7; stroke-width: 1.5"/>
     </g>
     <g id="line2d_22">
      <g>
       <use xlink:href="#m5878b19292" x="92.6825" y="190.362495" style="fill: #262626; stroke: #262626; stroke-width: 1.875"/>
      </g>
     </g>
     <g id="text_18">
      <!-- 20.0 -->
      <g style="fill: #1f77b4" transform="translate(47.1825 196.002144) scale(0.165 -0.165)">
       <use xlink:href="#SimHei-32"/>
       <use xlink:href="#SimHei-30" x="50"/>
       <use xlink:href="#SimHei-2e" x="100"/>
       <use xlink:href="#SimHei-30" x="150"/>
      </g>
     </g>
    </g>
    <g id="ytick_6">
     <g id="line2d_23">
      <path d="M 92.6825 150.507057 
L 787.01125 150.507057 
" clip-path="url(#pe30793a4d5)" style="fill: none; stroke-dasharray: 5.55,2.4; stroke-dashoffset: 0; stroke: #cccccc; stroke-opacity: 0.7; stroke-width: 1.5"/>
     </g>
     <g id="line2d_24">
      <g>
       <use xlink:href="#m5878b19292" x="92.6825" y="150.507057" style="fill: #262626; stroke: #262626; stroke-width: 1.875"/>
      </g>
     </g>
     <g id="text_19">
      <!-- 22.5 -->
      <g style="fill: #1f77b4" transform="translate(47.1825 156.146705) scale(0.165 -0.165)">
       <use xlink:href="#SimHei-32"/>
       <use xlink:href="#SimHei-32" x="50"/>
       <use xlink:href="#SimHei-2e" x="100"/>
       <use xlink:href="#SimHei-35" x="150"/>
      </g>
     </g>
    </g>
    <g id="ytick_7">
     <g id="line2d_25">
      <path d="M 92.6825 110.651618 
L 787.01125 110.651618 
" clip-path="url(#pe30793a4d5)" style="fill: none; stroke-dasharray: 5.55,2.4; stroke-dashoffset: 0; stroke: #cccccc; stroke-opacity: 0.7; stroke-width: 1.5"/>
     </g>
     <g id="line2d_26">
      <g>
       <use xlink:href="#m5878b19292" x="92.6825" y="110.651618" style="fill: #262626; stroke: #262626; stroke-width: 1.875"/>
      </g>
     </g>
     <g id="text_20">
      <!-- 25.0 -->
      <g style="fill: #1f77b4" transform="translate(47.1825 116.291266) scale(0.165 -0.165)">
       <use xlink:href="#SimHei-32"/>
       <use xlink:href="#SimHei-35" x="50"/>
       <use xlink:href="#SimHei-2e" x="100"/>
       <use xlink:href="#SimHei-30" x="150"/>
      </g>
     </g>
    </g>
    <g id="ytick_8">
     <g id="line2d_27">
      <path d="M 92.6825 70.796179 
L 787.01125 70.796179 
" clip-path="url(#pe30793a4d5)" style="fill: none; stroke-dasharray: 5.55,2.4; stroke-dashoffset: 0; stroke: #cccccc; stroke-opacity: 0.7; stroke-width: 1.5"/>
     </g>
     <g id="line2d_28">
      <g>
       <use xlink:href="#m5878b19292" x="92.6825" y="70.796179" style="fill: #262626; stroke: #262626; stroke-width: 1.875"/>
      </g>
     </g>
     <g id="text_21">
      <!-- 27.5 -->
      <g style="fill: #1f77b4" transform="translate(47.1825 76.435828) scale(0.165 -0.165)">
       <use xlink:href="#SimHei-32"/>
       <use xlink:href="#SimHei-37" x="50"/>
       <use xlink:href="#SimHei-2e" x="100"/>
       <use xlink:href="#SimHei-35" x="150"/>
      </g>
     </g>
    </g>
    <g id="text_22">
     <!-- 温度(℃) -->
     <g style="fill: #1f77b4" transform="translate(30.377813 245.748875) rotate(-90) scale(0.14 -0.14)">
      <defs>
       <path id="SimHei-6e29" d="M 625 4625 
Q 800 4775 925 4975 
Q 1525 4600 1850 4250 
Q 1675 4125 1525 3875 
Q 1300 4150 625 4625 
z
M 350 3200 
Q 475 3375 600 3575 
Q 1025 3375 1575 2950 
Q 1375 2775 1250 2575 
Q 1025 2850 350 3200 
z
M 1150 2075 
Q 1350 1875 1575 1775 
Q 1400 1325 1175 650 
Q 950 -25 825 -450 
Q 600 -225 325 -125 
Q 575 300 825 975 
Q 1075 1650 1150 2075 
z
M 2725 4450 
L 2725 3850 
L 4800 3850 
L 4800 4450 
L 2725 4450 
z
M 2725 3500 
L 2725 2900 
L 4800 2900 
L 4800 3500 
L 2725 3500 
z
M 2275 4800 
L 5250 4800 
Q 5225 4375 5225 3687 
Q 5225 3000 5250 2550 
L 2275 2550 
Q 2300 2950 2300 3650 
Q 2300 4350 2275 4800 
z
M 2025 1950 
L 5525 1950 
Q 5500 1525 5500 50 
Q 5775 50 6050 75 
L 6050 -325 
Q 5650 -300 5275 -300 
L 2275 -300 
Q 1850 -300 1450 -325 
L 1450 75 
Q 1750 50 2050 50 
Q 2050 1475 2025 1950 
z
M 2475 1600 
L 2475 50 
L 3050 50 
L 3050 1600 
L 2475 1600 
z
M 3475 1600 
L 3475 50 
L 4050 50 
L 4050 1600 
L 3475 1600 
z
M 4475 1600 
L 4475 50 
L 5075 50 
L 5075 1600 
L 4475 1600 
z
" transform="scale(0.015625)"/>
       <path id="SimHei-5ea6" d="M 2975 2925 
L 2975 2400 
L 4300 2400 
L 4300 2925 
L 2975 2925 
z
M 1750 3325 
Q 2225 3300 2525 3300 
Q 2525 3600 2500 3825 
L 3000 3825 
Q 2975 3625 2975 3300 
L 4300 3300 
Q 4300 3600 4275 3850 
L 4775 3850 
Q 4750 3600 4750 3300 
Q 5275 3300 5675 3325 
L 5675 2900 
Q 5300 2925 4750 2925 
Q 4750 2325 4775 2025 
L 2500 2025 
Q 2525 2350 2525 2925 
Q 2225 2925 1750 2900 
L 1750 3325 
z
M 2925 1225 
Q 2500 1225 2025 1200 
L 2025 1625 
Q 2500 1600 2900 1600 
L 5100 1600 
Q 4875 1150 4600 775 
Q 4325 400 4025 175 
Q 4400 0 4887 -75 
Q 5375 -150 5875 -125 
Q 5675 -350 5575 -650 
Q 5025 -600 4575 -475 
Q 4125 -350 3625 -150 
Q 3125 -350 2650 -462 
Q 2175 -575 1650 -650 
Q 1575 -400 1425 -150 
Q 1950 -150 2375 -75 
Q 2800 0 3275 150 
Q 2975 400 2500 1225 
L 3000 1225 
Q 3250 750 3675 400 
Q 4050 675 4400 1225 
L 2925 1225 
z
M 3125 4400 
Q 3050 4750 2950 5100 
Q 3150 5125 3475 5200 
Q 3550 4875 3650 4400 
L 4575 4400 
Q 5075 4425 5700 4450 
L 5700 4000 
Q 5100 4025 4625 4025 
L 1450 4025 
Q 1450 2900 1425 2212 
Q 1400 1525 1262 875 
Q 1125 225 725 -550 
Q 500 -300 275 -200 
Q 650 350 812 1012 
Q 975 1675 987 2712 
Q 1000 3750 975 4400 
L 3125 4400 
z
" transform="scale(0.015625)"/>
       <path id="SimHei-28" d="M 3000 -225 
L 2725 -500 
Q 2100 100 1787 750 
Q 1475 1400 1475 2225 
Q 1475 3050 1787 3700 
Q 2100 4350 2725 4975 
L 3000 4700 
Q 2425 4150 2137 3562 
Q 1850 2975 1850 2225 
Q 1850 1475 2137 887 
Q 2425 300 3000 -225 
z
" transform="scale(0.015625)"/>
       <path id="SimHei-2103" d="M 5275 3925 
L 5275 4225 
L 5475 4225 
L 5475 2875 
L 5275 2875 
L 5275 3325 
Q 5175 3800 4712 4100 
Q 4250 4400 3650 4300 
Q 3050 4200 2700 3687 
Q 2350 3175 2362 2300 
Q 2375 1425 2700 925 
Q 3025 425 3550 337 
Q 4075 250 4525 450 
Q 4975 650 5212 937 
Q 5450 1225 5487 1150 
Q 5525 1075 5287 762 
Q 5050 450 4575 200 
Q 4100 -50 3475 25 
Q 2850 100 2412 650 
Q 1975 1200 1925 2150 
Q 1875 3100 2287 3712 
Q 2700 4325 3200 4475 
Q 3700 4625 4112 4537 
Q 4525 4450 4812 4275 
Q 5100 4100 5275 3925 
z
M 737 4075 
Q 725 4325 887 4475 
Q 1050 4625 1200 4662 
Q 1350 4700 1537 4637 
Q 1725 4575 1812 4400 
Q 1900 4225 1862 4000 
Q 1825 3775 1662 3650 
Q 1500 3525 1275 3537 
Q 1050 3550 900 3687 
Q 750 3825 737 4075 
z
M 1175 3762 
Q 1350 3700 1500 3787 
Q 1650 3875 1637 4125 
Q 1625 4375 1462 4450 
Q 1300 4525 1125 4400 
Q 950 4275 975 4050 
Q 1000 3825 1175 3762 
z
" transform="scale(0.015625)"/>
       <path id="SimHei-29" d="M 1700 2225 
Q 1700 1400 1387 750 
Q 1075 100 450 -500 
L 175 -225 
Q 750 300 1037 887 
Q 1325 1475 1325 2225 
Q 1325 2975 1037 3562 
Q 750 4150 175 4700 
L 450 4975 
Q 1075 4350 1387 3700 
Q 1700 3050 1700 2225 
z
" transform="scale(0.015625)"/>
      </defs>
      <use xlink:href="#SimHei-6e29"/>
      <use xlink:href="#SimHei-5ea6" x="100"/>
      <use xlink:href="#SimHei-28" x="200"/>
      <use xlink:href="#SimHei-2103" x="250"/>
      <use xlink:href="#SimHei-29" x="350"/>
     </g>
    </g>
   </g>
   <g id="PolyCollection_1"/>
   <g id="line2d_29">
    <path d="M 124.242898 357.356783 
L 181.625439 234.715905 
L 239.00798 105.925902 
L 296.390522 183.074643 
L 353.773063 365.100125 
L 411.155604 279.410932 
L 468.538146 70.397625 
L 525.920687 202.603808 
L 583.303228 306.284885 
L 640.68577 89.243554 
L 698.068311 214.503504 
L 755.450852 326.89584 
" clip-path="url(#pe30793a4d5)" style="fill: none; stroke: #1f77b4; stroke-width: 2.5; stroke-linecap: round"/>
    <defs>
     <path id="md47ac1c484" d="M 0 4.5 
C 1.193414 4.5 2.338109 4.025852 3.181981 3.181981 
C 4.025852 2.338109 4.5 1.193414 4.5 0 
C 4.5 -1.193414 4.025852 -2.338109 3.181981 -3.181981 
C 2.338109 -4.025852 1.193414 -4.5 0 -4.5 
C -1.193414 -4.5 -2.338109 -4.025852 -3.181981 -3.181981 
C -4.025852 -2.338109 -4.5 -1.193414 -4.5 0 
C -4.5 1.193414 -4.025852 2.338109 -3.181981 3.181981 
C -2.338109 4.025852 -1.193414 4.5 0 4.5 
z
" style="stroke: #ffffff; stroke-width: 0.75"/>
    </defs>
    <g clip-path="url(#pe30793a4d5)">
     <use xlink:href="#md47ac1c484" x="124.242898" y="357.356783" style="fill: #1f77b4; stroke: #ffffff; stroke-width: 0.75"/>
     <use xlink:href="#md47ac1c484" x="181.625439" y="234.715905" style="fill: #1f77b4; stroke: #ffffff; stroke-width: 0.75"/>
     <use xlink:href="#md47ac1c484" x="239.00798" y="105.925902" style="fill: #1f77b4; stroke: #ffffff; stroke-width: 0.75"/>
     <use xlink:href="#md47ac1c484" x="296.390522" y="183.074643" style="fill: #1f77b4; stroke: #ffffff; stroke-width: 0.75"/>
     <use xlink:href="#md47ac1c484" x="353.773063" y="365.100125" style="fill: #1f77b4; stroke: #ffffff; stroke-width: 0.75"/>
     <use xlink:href="#md47ac1c484" x="411.155604" y="279.410932" style="fill: #1f77b4; stroke: #ffffff; stroke-width: 0.75"/>
     <use xlink:href="#md47ac1c484" x="468.538146" y="70.397625" style="fill: #1f77b4; stroke: #ffffff; stroke-width: 0.75"/>
     <use xlink:href="#md47ac1c484" x="525.920687" y="202.603808" style="fill: #1f77b4; stroke: #ffffff; stroke-width: 0.75"/>
     <use xlink:href="#md47ac1c484" x="583.303228" y="306.284885" style="fill: #1f77b4; stroke: #ffffff; stroke-width: 0.75"/>
     <use xlink:href="#md47ac1c484" x="640.68577" y="89.243554" style="fill: #1f77b4; stroke: #ffffff; stroke-width: 0.75"/>
     <use xlink:href="#md47ac1c484" x="698.068311" y="214.503504" style="fill: #1f77b4; stroke: #ffffff; stroke-width: 0.75"/>
     <use xlink:href="#md47ac1c484" x="755.450852" y="326.89584" style="fill: #1f77b4; stroke: #ffffff; stroke-width: 0.75"/>
    </g>
   </g>
   <g id="patch_3">
    <path d="M 92.6825 379.83525 
L 92.6825 55.6625 
" style="fill: none; stroke: #cccccc; stroke-width: 1.875; stroke-linejoin: miter; stroke-linecap: square"/>
   </g>
   <g id="patch_4">
    <path d="M 787.01125 379.83525 
L 787.01125 55.6625 
" style="fill: none; stroke: #cccccc; stroke-width: 1.875; stroke-linejoin: miter; stroke-linecap: square"/>
   </g>
   <g id="patch_5">
    <path d="M 92.6825 379.83525 
L 787.01125 379.83525 
" style="fill: none; stroke: #cccccc; stroke-width: 1.875; stroke-linejoin: miter; stroke-linecap: square"/>
   </g>
   <g id="patch_6">
    <path d="M 92.6825 55.6625 
L 787.01125 55.6625 
" style="fill: none; stroke: #cccccc; stroke-width: 1.875; stroke-linejoin: miter; stroke-linecap: square"/>
   </g>
   <g id="legend_1">
    <g id="patch_7">
     <path d="M 327.214 471.23855 
L 413.614 471.23855 
Q 416.014 471.23855 416.014 468.83855 
L 416.014 453.0698 
Q 416.014 450.6698 413.614 450.6698 
L 327.214 450.6698 
Q 324.814 450.6698 324.814 453.0698 
L 324.814 468.83855 
Q 324.814 471.23855 327.214 471.23855 
z
" style="fill: #ffffff; opacity: 0.8; stroke: #cccccc; stroke-width: 1.5; stroke-linejoin: miter"/>
    </g>
    <g id="line2d_30">
     <path d="M 329.614 460.691675 
L 341.614 460.691675 
L 353.614 460.691675 
" style="fill: none; stroke: #1f77b4; stroke-width: 2.5; stroke-linecap: round"/>
     <g>
      <use xlink:href="#md47ac1c484" x="341.614" y="460.691675" style="fill: #1f77b4; stroke: #ffffff; stroke-width: 0.75"/>
     </g>
    </g>
    <g id="text_23">
     <!-- 温度(℃) -->
     <g style="fill: #262626" transform="translate(363.214 464.891675) scale(0.12 -0.12)">
      <use xlink:href="#SimHei-6e29"/>
      <use xlink:href="#SimHei-5ea6" x="100"/>
      <use xlink:href="#SimHei-28" x="200"/>
      <use xlink:href="#SimHei-2103" x="250"/>
      <use xlink:href="#SimHei-29" x="350"/>
     </g>
    </g>
   </g>
  </g>
  <g id="axes_2">
   <g id="matplotlib.axis_3">
    <g id="ytick_9">
     <g id="line2d_31">
      <defs>
       <path id="mc7df308e00" d="M 0 0 
L 9 0 
" style="stroke: #262626; stroke-width: 1.875"/>
      </defs>
      <g>
       <use xlink:href="#mc7df308e00" x="787.01125" y="370.996154" style="fill: #262626; stroke: #262626; stroke-width: 1.875"/>
      </g>
     </g>
     <g id="text_24">
      <!-- 0 -->
      <g style="fill: #ff7f0e" transform="translate(799.51125 376.635803) scale(0.165 -0.165)">
       <use xlink:href="#SimHei-30"/>
      </g>
     </g>
    </g>
    <g id="ytick_10">
     <g id="line2d_32">
      <g>
       <use xlink:href="#mc7df308e00" x="787.01125" y="305.01341" style="fill: #262626; stroke: #262626; stroke-width: 1.875"/>
      </g>
     </g>
     <g id="text_25">
      <!-- 5 -->
      <g style="fill: #ff7f0e" transform="translate(799.51125 310.653059) scale(0.165 -0.165)">
       <use xlink:href="#SimHei-35"/>
      </g>
     </g>
    </g>
    <g id="ytick_11">
     <g id="line2d_33">
      <g>
       <use xlink:href="#mc7df308e00" x="787.01125" y="239.030666" style="fill: #262626; stroke: #262626; stroke-width: 1.875"/>
      </g>
     </g>
     <g id="text_26">
      <!-- 10 -->
      <g style="fill: #ff7f0e" transform="translate(799.51125 244.670315) scale(0.165 -0.165)">
       <use xlink:href="#SimHei-31"/>
       <use xlink:href="#SimHei-30" x="50"/>
      </g>
     </g>
    </g>
    <g id="ytick_12">
     <g id="line2d_34">
      <g>
       <use xlink:href="#mc7df308e00" x="787.01125" y="173.047922" style="fill: #262626; stroke: #262626; stroke-width: 1.875"/>
      </g>
     </g>
     <g id="text_27">
      <!-- 15 -->
      <g style="fill: #ff7f0e" transform="translate(799.51125 178.687571) scale(0.165 -0.165)">
       <use xlink:href="#SimHei-31"/>
       <use xlink:href="#SimHei-35" x="50"/>
      </g>
     </g>
    </g>
    <g id="ytick_13">
     <g id="line2d_35">
      <g>
       <use xlink:href="#mc7df308e00" x="787.01125" y="107.065178" style="fill: #262626; stroke: #262626; stroke-width: 1.875"/>
      </g>
     </g>
     <g id="text_28">
      <!-- 20 -->
      <g style="fill: #ff7f0e" transform="translate(799.51125 112.704827) scale(0.165 -0.165)">
       <use xlink:href="#SimHei-32"/>
       <use xlink:href="#SimHei-30" x="50"/>
      </g>
     </g>
    </g>
    <g id="text_29">
     <!-- 叶绿素a(mg/m3) -->
     <g style="fill: #ff7f0e" transform="translate(842.38625 266.748875) rotate(-90) scale(0.14 -0.14)">
      <defs>
       <path id="SimHei-53f6" d="M 1000 4150 
L 1000 1575 
L 1900 1575 
L 1900 4150 
L 1000 4150 
z
M 500 4600 
L 2400 4600 
Q 2375 4075 2375 3575 
L 2375 1450 
Q 2375 925 2400 475 
L 1900 475 
L 1900 1125 
L 1000 1125 
L 1000 125 
L 500 125 
Q 525 625 525 1100 
L 525 3575 
Q 525 3925 500 4600 
z
M 2625 3200 
Q 2800 3175 3250 3175 
L 4100 3175 
L 4100 4425 
Q 4100 4925 4075 5125 
L 4650 5125 
Q 4600 4925 4600 4425 
L 4600 3175 
L 5450 3175 
Q 5900 3175 6025 3200 
L 6025 2700 
Q 5875 2725 5475 2725 
L 4600 2725 
L 4600 250 
Q 4600 -300 4625 -575 
L 4075 -575 
Q 4100 -300 4100 225 
L 4100 2725 
L 3275 2725 
Q 2800 2725 2625 2700 
L 2625 3200 
z
" transform="scale(0.015625)"/>
       <path id="SimHei-7eff" d="M 1250 5050 
Q 1525 4875 1800 4750 
Q 1600 4525 1375 4075 
Q 1150 3625 850 3100 
L 1575 3100 
Q 1850 3650 1950 4000 
Q 2175 3775 2450 3625 
Q 2275 3500 2037 3100 
Q 1800 2700 1175 1600 
Q 1375 1600 2200 1650 
Q 2175 1475 2175 1325 
Q 1875 1300 1475 1250 
Q 1075 1200 625 1100 
Q 575 1375 525 1600 
Q 750 1675 975 2012 
Q 1200 2350 1425 2775 
Q 1125 2775 900 2725 
Q 675 2675 450 2600 
Q 375 2825 275 3075 
Q 575 3275 837 3862 
Q 1100 4450 1250 5050 
z
M 400 425 
Q 950 450 1350 500 
Q 1750 550 2200 625 
Q 2175 400 2175 250 
Q 1975 200 1475 112 
Q 975 25 525 -100 
Q 475 150 400 425 
z
M 2700 1950 
Q 2900 2050 3100 2150 
Q 3175 2000 3425 1525 
Q 3250 1425 3050 1300 
Q 2925 1550 2700 1950 
z
M 4975 2875 
L 5025 3475 
L 3750 3475 
Q 3300 3475 2900 3450 
L 2900 3875 
Q 3275 3850 3725 3850 
L 5050 3850 
L 5100 4425 
L 3525 4425 
Q 3075 4425 2700 4400 
L 2700 4825 
Q 3075 4800 3525 4800 
L 5600 4800 
Q 5500 3975 5425 2875 
Q 5700 2875 6075 2900 
L 6075 2475 
Q 5675 2500 5275 2500 
L 4425 2500 
L 4425 2050 
Q 4600 1700 4775 1500 
Q 4925 1600 5112 1762 
Q 5300 1925 5550 2150 
Q 5700 1950 5900 1725 
Q 5775 1700 5525 1562 
Q 5275 1425 4975 1200 
Q 5175 925 5437 687 
Q 5700 450 6150 325 
Q 5900 0 5825 -250 
Q 5225 150 4975 475 
Q 4725 800 4425 1325 
L 4425 -50 
Q 4425 -425 4162 -512 
Q 3900 -600 3625 -650 
Q 3550 -375 3425 -125 
Q 3850 -125 3912 -37 
Q 3975 50 3975 250 
L 3975 1000 
Q 3675 700 3350 425 
Q 3025 150 2650 -75 
Q 2450 200 2300 375 
Q 2750 550 3137 825 
Q 3525 1100 3975 1500 
L 3975 2500 
L 3250 2500 
Q 2850 2500 2450 2475 
L 2450 2900 
Q 2875 2875 3250 2875 
L 4975 2875 
z
" transform="scale(0.015625)"/>
       <path id="SimHei-7d20" d="M 800 4600 
Q 1250 4575 1625 4575 
L 2950 4575 
Q 2950 4850 2925 5200 
L 3425 5200 
Q 3400 4900 3400 4575 
L 4850 4575 
Q 5250 4575 5650 4600 
L 5650 4200 
Q 5250 4225 4875 4225 
L 3400 4225 
L 3400 3775 
L 4550 3775 
Q 4900 3775 5350 3800 
L 5350 3425 
Q 4925 3450 4550 3450 
L 3400 3450 
L 3400 2975 
L 5175 2975 
Q 5525 2975 5975 3000 
L 5975 2625 
Q 5525 2650 5175 2650 
L 3200 2650 
Q 2875 2400 2475 2125 
Q 3125 2150 3725 2150 
Q 4025 2275 4425 2600 
Q 4675 2375 4925 2200 
Q 4500 2075 3950 1800 
Q 3400 1525 2775 1225 
Q 3750 1275 4750 1350 
Q 4600 1525 4475 1650 
Q 4675 1775 4875 1925 
Q 5450 1275 5700 950 
Q 5500 825 5300 650 
Q 5150 875 5000 1025 
Q 4050 975 3550 925 
L 3550 50 
Q 3550 -350 3312 -450 
Q 3075 -550 2600 -600 
Q 2575 -350 2425 -50 
Q 2750 -50 2912 -37 
Q 3075 -25 3100 200 
L 3100 900 
Q 2775 900 2250 837 
Q 1725 775 1275 675 
Q 1225 925 1125 1125 
Q 1525 1150 1787 1225 
Q 2050 1300 2375 1425 
Q 2700 1550 3125 1800 
Q 2525 1825 2212 1787 
Q 1900 1750 1500 1650 
Q 1450 1900 1350 2100 
Q 1725 2150 1987 2275 
Q 2250 2400 2550 2650 
L 1250 2650 
Q 850 2650 400 2625 
L 400 3000 
Q 850 2975 1225 2975 
L 2950 2975 
L 2950 3450 
L 1800 3450 
Q 1450 3450 1025 3425 
L 1025 3800 
Q 1450 3775 1775 3775 
L 2950 3775 
L 2950 4225 
L 1625 4225 
Q 1250 4225 800 4200 
L 800 4600 
z
M 2000 675 
Q 2200 450 2425 250 
Q 2075 150 1675 -75 
Q 1275 -300 775 -525 
Q 650 -300 425 -100 
Q 925 50 1300 237 
Q 1675 425 2000 675 
z
M 4150 200 
Q 4300 400 4400 625 
Q 5125 325 5925 -50 
Q 5750 -250 5625 -500 
Q 4875 -50 4150 200 
z
" transform="scale(0.015625)"/>
       <path id="SimHei-61" d="M 2900 100 
L 2300 100 
Q 2250 150 2225 237 
Q 2200 325 2200 450 
Q 2025 250 1775 150 
Q 1525 50 1250 50 
Q 850 50 575 250 
Q 300 450 300 825 
Q 300 1200 550 1425 
Q 800 1650 1325 1725 
Q 1675 1775 1937 1850 
Q 2200 1925 2200 2050 
Q 2200 2200 2087 2350 
Q 1975 2500 1600 2500 
Q 1300 2500 1162 2387 
Q 1025 2275 975 2075 
L 425 2075 
Q 475 2475 787 2712 
Q 1100 2950 1600 2950 
Q 2150 2950 2425 2700 
Q 2700 2450 2700 2000 
L 2700 625 
Q 2700 475 2750 350 
Q 2800 225 2900 100 
z
M 2200 1025 
L 2200 1525 
Q 2050 1475 1912 1437 
Q 1775 1400 1450 1350 
Q 1075 1300 962 1175 
Q 850 1050 850 875 
Q 850 725 962 612 
Q 1075 500 1300 500 
Q 1525 500 1787 625 
Q 2050 750 2200 1025 
z
" transform="scale(0.015625)"/>
       <path id="SimHei-6d" d="M 3075 100 
L 2575 100 
L 2575 2125 
Q 2575 2275 2525 2375 
Q 2475 2475 2325 2475 
Q 2150 2475 2000 2287 
Q 1850 2100 1850 1800 
L 1850 100 
L 1350 100 
L 1350 2125 
Q 1350 2275 1300 2375 
Q 1250 2475 1100 2475 
Q 925 2475 775 2287 
Q 625 2100 625 1800 
L 625 100 
L 125 100 
L 125 2900 
L 625 2900 
L 625 2525 
Q 750 2725 925 2837 
Q 1100 2950 1300 2950 
Q 1500 2950 1637 2837 
Q 1775 2725 1825 2525 
Q 1950 2725 2112 2837 
Q 2275 2950 2475 2950 
Q 2775 2950 2925 2787 
Q 3075 2625 3075 2325 
L 3075 100 
z
" transform="scale(0.015625)"/>
       <path id="SimHei-67" d="M 3000 2475 
Q 2825 2525 2662 2537 
Q 2500 2550 2325 2500 
Q 2400 2425 2450 2312 
Q 2500 2200 2500 1975 
Q 2500 1550 2212 1275 
Q 1925 1000 1500 1000 
Q 1400 1000 1237 1037 
Q 1075 1075 975 1125 
Q 900 1075 875 1025 
Q 850 975 850 900 
Q 850 775 1025 712 
Q 1200 650 1650 650 
Q 2375 650 2637 450 
Q 2900 250 2900 -50 
Q 2900 -450 2512 -637 
Q 2125 -825 1600 -825 
Q 925 -825 600 -650 
Q 275 -475 275 -175 
Q 275 -25 400 125 
Q 525 275 725 375 
Q 575 450 487 562 
Q 400 675 400 850 
Q 400 1000 512 1112 
Q 625 1225 775 1300 
Q 650 1425 575 1600 
Q 500 1775 500 1975 
Q 500 2400 787 2675 
Q 1075 2950 1500 2950 
Q 1725 2950 1887 2887 
Q 2050 2825 2175 2700 
Q 2375 2850 2575 2912 
Q 2775 2975 3000 2950 
L 3000 2475 
z
M 2000 1975 
Q 2000 2225 1875 2375 
Q 1750 2525 1500 2525 
Q 1250 2525 1125 2375 
Q 1000 2225 1000 1975 
Q 1000 1725 1125 1575 
Q 1250 1425 1500 1425 
Q 1750 1425 1875 1575 
Q 2000 1725 2000 1975 
z
M 2425 -100 
Q 2425 0 2312 100 
Q 2200 200 1750 200 
Q 1650 200 1475 212 
Q 1300 225 1075 250 
Q 875 175 800 75 
Q 725 -25 725 -125 
Q 725 -275 925 -375 
Q 1125 -475 1625 -475 
Q 2050 -475 2237 -362 
Q 2425 -250 2425 -100 
z
" transform="scale(0.015625)"/>
       <path id="SimHei-2f" d="M 3025 4525 
L 375 -200 
L 125 -50 
L 2775 4675 
L 3025 4525 
z
" transform="scale(0.015625)"/>
       <path id="SimHei-33" d="M 2825 1300 
Q 2825 725 2462 387 
Q 2100 50 1550 50 
Q 1000 50 637 387 
Q 275 725 275 1425 
L 850 1425 
Q 850 950 1037 737 
Q 1225 525 1550 525 
Q 1875 525 2050 725 
Q 2225 925 2225 1350 
Q 2225 1700 2037 1900 
Q 1850 2100 1375 2100 
L 1375 2525 
Q 1775 2525 1962 2725 
Q 2150 2925 2150 3325 
Q 2150 3625 2012 3800 
Q 1875 3975 1575 3975 
Q 1275 3975 1112 3762 
Q 950 3550 925 3150 
L 375 3150 
Q 425 3725 737 4075 
Q 1050 4425 1575 4425 
Q 2125 4425 2425 4112 
Q 2725 3800 2725 3350 
Q 2725 2925 2575 2687 
Q 2425 2450 2075 2325 
Q 2425 2250 2625 1975 
Q 2825 1700 2825 1300 
z
" transform="scale(0.015625)"/>
      </defs>
      <use xlink:href="#SimHei-53f6"/>
      <use xlink:href="#SimHei-7eff" x="100"/>
      <use xlink:href="#SimHei-7d20" x="200"/>
      <use xlink:href="#SimHei-61" x="300"/>
      <use xlink:href="#SimHei-28" x="350"/>
      <use xlink:href="#SimHei-6d" x="400"/>
      <use xlink:href="#SimHei-67" x="450"/>
      <use xlink:href="#SimHei-2f" x="500"/>
      <use xlink:href="#SimHei-6d" x="550"/>
      <use xlink:href="#SimHei-33" x="600"/>
      <use xlink:href="#SimHei-29" x="650"/>
     </g>
    </g>
   </g>
   <g id="PolyCollection_2"/>
   <g id="line2d_36">
    <path d="M 181.625439 353.595562 
L 296.390522 365.100125 
L 411.155604 70.397625 
L 525.920687 343.985647 
L 583.303228 348.500752 
L 698.068311 340.85618 
" clip-path="url(#pe30793a4d5)" style="fill: none; stroke: #ff7f0e; stroke-width: 2.5; stroke-linecap: round"/>
    <defs>
     <path id="m168bf2c3e3" d="M -4.5 4.5 
L 4.5 4.5 
L 4.5 -4.5 
L -4.5 -4.5 
z
" style="stroke: #ffffff; stroke-width: 0.75; stroke-linejoin: miter"/>
    </defs>
    <g clip-path="url(#pe30793a4d5)">
     <use xlink:href="#m168bf2c3e3" x="181.625439" y="353.595562" style="fill: #ff7f0e; stroke: #ffffff; stroke-width: 0.75; stroke-linejoin: miter"/>
     <use xlink:href="#m168bf2c3e3" x="296.390522" y="365.100125" style="fill: #ff7f0e; stroke: #ffffff; stroke-width: 0.75; stroke-linejoin: miter"/>
     <use xlink:href="#m168bf2c3e3" x="411.155604" y="70.397625" style="fill: #ff7f0e; stroke: #ffffff; stroke-width: 0.75; stroke-linejoin: miter"/>
     <use xlink:href="#m168bf2c3e3" x="525.920687" y="343.985647" style="fill: #ff7f0e; stroke: #ffffff; stroke-width: 0.75; stroke-linejoin: miter"/>
     <use xlink:href="#m168bf2c3e3" x="583.303228" y="348.500752" style="fill: #ff7f0e; stroke: #ffffff; stroke-width: 0.75; stroke-linejoin: miter"/>
     <use xlink:href="#m168bf2c3e3" x="698.068311" y="340.85618" style="fill: #ff7f0e; stroke: #ffffff; stroke-width: 0.75; stroke-linejoin: miter"/>
    </g>
   </g>
   <g id="patch_8">
    <path d="M 92.6825 379.83525 
L 92.6825 55.6625 
" style="fill: none; stroke: #cccccc; stroke-width: 1.875; stroke-linejoin: miter; stroke-linecap: square"/>
   </g>
   <g id="patch_9">
    <path d="M 787.01125 379.83525 
L 787.01125 55.6625 
" style="fill: none; stroke: #cccccc; stroke-width: 1.875; stroke-linejoin: miter; stroke-linecap: square"/>
   </g>
   <g id="patch_10">
    <path d="M 92.6825 379.83525 
L 787.01125 379.83525 
" style="fill: none; stroke: #cccccc; stroke-width: 1.875; stroke-linejoin: miter; stroke-linecap: square"/>
   </g>
   <g id="patch_11">
    <path d="M 92.6825 55.6625 
L 787.01125 55.6625 
" style="fill: none; stroke: #cccccc; stroke-width: 1.875; stroke-linejoin: miter; stroke-linecap: square"/>
   </g>
   <g id="text_30">
    <!-- 温度和叶绿素a的变化趋势（原始数据） -->
    <g style="fill: #262626" transform="translate(264.846875 35.6625) scale(0.2 -0.2)">
     <defs>
      <path id="SimHei-548c" d="M 2925 5025 
Q 3000 4750 3175 4475 
Q 2850 4450 2175 4325 
L 2175 3275 
L 2550 3275 
Q 2900 3275 3175 3300 
L 3175 2850 
Q 2900 2875 2575 2875 
L 2175 2875 
L 2175 375 
Q 2175 -150 2200 -450 
L 1700 -450 
Q 1725 -150 1725 375 
L 1725 2100 
Q 1400 1375 675 575 
Q 550 750 275 950 
Q 875 1475 1175 2012 
Q 1475 2550 1600 2875 
L 1200 2875 
Q 650 2875 475 2850 
L 475 3300 
Q 675 3275 1200 3275 
L 1725 3275 
L 1725 4275 
Q 1275 4225 725 4175 
Q 675 4400 575 4600 
Q 1075 4625 1737 4712 
Q 2400 4800 2925 5025 
z
M 3225 1500 
Q 3000 1350 2825 1200 
Q 2575 1650 2225 2100 
Q 2375 2200 2575 2375 
Q 2925 1950 3225 1500 
z
M 3550 4275 
L 5825 4275 
Q 5800 3825 5800 3400 
L 5800 900 
Q 5800 475 5825 175 
L 5350 175 
L 5350 775 
L 4025 775 
L 4025 75 
L 3550 75 
Q 3575 700 3575 825 
L 3575 3400 
Q 3575 3825 3550 4275 
z
M 4025 3875 
L 4025 1175 
L 5350 1175 
L 5350 3875 
L 4025 3875 
z
" transform="scale(0.015625)"/>
      <path id="SimHei-7684" d="M 1525 5100 
Q 1850 5025 2200 4925 
Q 2100 4775 2025 4487 
Q 1950 4200 1900 3975 
L 2975 3975 
Q 2950 3525 2950 2900 
L 2950 700 
Q 2950 300 2975 -225 
L 2500 -225 
L 2500 300 
L 1200 300 
L 1200 -275 
L 725 -275 
Q 750 350 750 650 
L 750 2875 
Q 750 3525 725 3975 
L 1425 3975 
Q 1450 4225 1475 4462 
Q 1500 4700 1525 5100 
z
M 1200 3525 
L 1200 2425 
L 2500 2425 
L 2500 3525 
L 1200 3525 
z
M 1200 1950 
L 1200 775 
L 2500 775 
L 2500 1950 
L 1200 1950 
z
M 5850 3925 
Q 5800 3450 5775 3000 
L 5600 175 
Q 5525 -275 5150 -400 
Q 4775 -525 4350 -550 
Q 4350 -275 4175 25 
Q 4600 0 4850 37 
Q 5100 75 5150 350 
L 5350 3475 
L 4025 3475 
Q 3825 3050 3550 2525 
Q 3350 2675 3125 2775 
Q 3275 3000 3462 3400 
Q 3650 3800 3787 4262 
Q 3925 4725 3975 5025 
Q 4300 4875 4600 4800 
Q 4475 4600 4375 4387 
Q 4275 4175 4200 3925 
L 5850 3925 
z
M 3650 2300 
Q 3825 2400 4075 2550 
Q 4200 2325 4325 2050 
Q 4450 1775 4600 1375 
Q 4400 1300 4150 1150 
Q 4075 1425 3937 1750 
Q 3800 2075 3650 2300 
z
" transform="scale(0.015625)"/>
      <path id="SimHei-53d8" d="M 2825 5075 
Q 3125 5125 3425 5175 
Q 3500 4675 3525 4475 
L 4625 4475 
Q 5325 4475 5875 4500 
L 5875 4025 
Q 5300 4050 4625 4050 
L 4025 4050 
L 4025 2975 
Q 4025 2475 4050 2175 
L 3525 2175 
Q 3550 2475 3550 2975 
L 3550 4050 
L 2775 4050 
L 2775 2975 
Q 2775 2500 2800 2175 
L 2275 2175 
Q 2300 2500 2300 2975 
L 2300 4050 
L 1775 4050 
Q 1075 4050 550 4025 
L 550 4500 
Q 1050 4475 1775 4475 
L 2975 4475 
Q 2925 4775 2825 5075 
z
M 1375 3700 
Q 1600 3525 1900 3375 
Q 1750 3250 1487 2900 
Q 1225 2550 925 2175 
Q 675 2350 475 2475 
Q 1025 3000 1375 3700 
z
M 4450 3325 
Q 4675 3500 4850 3675 
Q 5350 3200 5900 2600 
Q 5675 2450 5450 2250 
Q 5050 2750 4450 3325 
z
M 1125 1825 
Q 1575 1800 2175 1800 
L 5100 1800 
Q 4775 1300 4450 900 
Q 4125 500 3750 225 
Q 4325 50 4762 -12 
Q 5200 -75 5900 -50 
Q 5700 -275 5625 -625 
Q 4800 -525 4225 -375 
Q 3650 -225 3275 -75 
Q 2650 -325 2100 -437 
Q 1550 -550 775 -650 
Q 675 -375 500 -125 
Q 1150 -125 1687 -50 
Q 2225 25 2825 200 
Q 2325 475 1750 1375 
L 2300 1375 
Q 2700 750 3300 450 
Q 3800 750 4250 1375 
L 2150 1375 
Q 1525 1375 1125 1350 
L 1125 1825 
z
" transform="scale(0.015625)"/>
      <path id="SimHei-5316" d="M 3350 5075 
L 3900 5075 
Q 3850 4750 3850 4250 
L 3850 2425 
Q 4275 2800 4600 3262 
Q 4925 3725 5150 4175 
Q 5350 4025 5750 3850 
Q 5575 3700 5375 3450 
Q 5175 3200 4950 2912 
Q 4725 2625 4450 2337 
Q 4175 2050 3850 1800 
L 3850 400 
Q 3850 50 4175 50 
L 5075 50 
Q 5300 75 5337 262 
Q 5375 450 5400 825 
Q 5650 625 6000 575 
Q 5850 -100 5687 -250 
Q 5525 -400 5225 -400 
L 3900 -400 
Q 3375 -400 3375 50 
L 3375 1500 
Q 3150 1350 2950 1225 
Q 2750 1100 2450 900 
Q 2300 1175 2150 1350 
Q 2450 1475 2787 1662 
Q 3125 1850 3375 2075 
L 3375 4325 
Q 3375 4775 3350 5075 
z
M 1825 5175 
Q 2050 5025 2450 4900 
Q 2250 4625 2150 4362 
Q 2050 4100 1900 3750 
L 1900 650 
Q 1900 -125 1925 -525 
L 1375 -525 
Q 1425 -150 1425 625 
L 1425 3000 
Q 1250 2700 1100 2500 
Q 950 2300 825 2150 
Q 650 2350 425 2525 
Q 750 2850 987 3200 
Q 1225 3550 1375 3887 
Q 1525 4225 1637 4550 
Q 1750 4875 1825 5175 
z
" transform="scale(0.015625)"/>
      <path id="SimHei-8d8b" d="M 6125 125 
Q 5950 -150 5925 -450 
Q 4900 -475 4200 -450 
Q 3500 -425 2937 -300 
Q 2375 -175 1950 75 
Q 1525 325 1100 750 
Q 875 -100 650 -550 
Q 425 -250 250 -175 
Q 525 225 625 625 
Q 725 1025 762 1400 
Q 800 1775 800 2050 
Q 1025 1975 1325 1950 
Q 1200 1575 1200 1275 
Q 1200 975 1700 675 
L 1700 2600 
Q 850 2600 425 2575 
L 425 2975 
Q 875 2950 1575 2950 
L 1575 3925 
Q 1050 3925 625 3900 
L 625 4300 
Q 1050 4275 1575 4275 
Q 1575 4725 1550 5175 
L 2050 5175 
Q 2025 4775 2025 4275 
Q 2400 4275 2775 4300 
L 2775 3900 
Q 2375 3925 2025 3925 
L 2025 2950 
Q 2525 2950 2975 2975 
L 2975 2575 
Q 2525 2600 2150 2600 
L 2150 1800 
Q 2450 1800 2825 1825 
L 2825 1425 
Q 2475 1450 2150 1450 
L 2150 400 
Q 2900 0 4125 0 
Q 5350 0 6125 125 
z
M 5825 3225 
Q 5800 2775 5800 1825 
Q 5800 875 5825 500 
Q 3725 500 3250 475 
L 3250 875 
Q 3725 850 5350 850 
L 5350 1650 
Q 3825 1650 3450 1625 
L 3450 2025 
Q 3825 2000 5350 2000 
L 5350 2875 
L 4025 2875 
Q 3750 2875 3400 2850 
L 3400 3250 
L 3325 3125 
Q 3125 3300 2900 3375 
Q 3275 3825 3525 4337 
Q 3775 4850 3875 5225 
Q 4125 5125 4450 5050 
Q 4325 4950 4125 4475 
L 5675 4475 
Q 5200 3675 4975 3225 
L 5825 3225 
z
M 3950 4125 
Q 3600 3525 3400 3250 
Q 3750 3225 4050 3225 
L 4475 3225 
Q 4625 3525 4975 4125 
L 3950 4125 
z
" transform="scale(0.015625)"/>
      <path id="SimHei-52bf" d="M 2575 3700 
Q 2550 3525 2550 3300 
Q 2125 3200 1900 3125 
L 1900 2225 
Q 1875 1950 1662 1875 
Q 1450 1800 1050 1725 
Q 1025 2000 850 2275 
Q 1300 2250 1375 2300 
Q 1450 2350 1450 2600 
L 1450 3050 
Q 950 2925 600 2775 
Q 525 3050 400 3250 
Q 750 3300 1450 3450 
L 1450 4025 
Q 850 4025 475 4000 
L 475 4450 
Q 850 4425 1450 4425 
Q 1450 4875 1425 5150 
L 1950 5150 
Q 1900 4900 1900 4425 
Q 2225 4425 2600 4450 
L 2600 4000 
Q 2225 4025 1900 4025 
L 1900 3525 
Q 2175 3600 2575 3700 
z
M 700 1500 
Q 1150 1475 1600 1475 
L 2725 1475 
Q 2750 1675 2750 1900 
Q 3075 1825 3300 1800 
Q 3250 1675 3200 1475 
L 5275 1475 
Q 5225 1125 5200 800 
Q 5175 475 5075 62 
Q 4975 -350 4700 -437 
Q 4425 -525 3775 -575 
Q 3800 -350 3575 -25 
Q 4325 -75 4462 12 
Q 4600 100 4650 300 
Q 4700 500 4750 1075 
L 3125 1075 
Q 2800 275 2150 -87 
Q 1500 -450 825 -650 
Q 725 -375 450 -175 
Q 1000 -100 1650 175 
Q 2300 450 2625 1075 
L 1600 1075 
Q 1125 1075 700 1050 
L 700 1500 
z
M 2850 1925 
Q 2700 2100 2375 2225 
Q 3025 2475 3375 3025 
Q 3175 3150 2850 3325 
Q 3025 3475 3100 3625 
Q 3325 3500 3525 3375 
Q 3575 3625 3600 4075 
Q 3250 4075 2925 4025 
L 2875 4425 
Q 3200 4425 3600 4425 
Q 3600 4900 3575 5200 
Q 3775 5150 4100 5125 
Q 4025 4875 4025 4450 
L 5200 4475 
Q 5125 3975 5087 3437 
Q 5050 2900 5175 2625 
Q 5300 2350 5437 2312 
Q 5575 2275 5600 2850 
Q 5775 2650 6075 2600 
Q 5925 2050 5825 1912 
Q 5725 1775 5562 1737 
Q 5400 1700 5087 1975 
Q 4775 2250 4700 2787 
Q 4625 3325 4725 4100 
L 4025 4075 
Q 3975 3525 3925 3200 
Q 4150 3050 4425 2875 
Q 4225 2700 4100 2550 
Q 3925 2700 3750 2825 
Q 3425 2325 2850 1925 
z
" transform="scale(0.015625)"/>
      <path id="SimHei-ff08" d="M 4950 62 
Q 5375 -225 5425 -175 
Q 5475 -125 5087 175 
Q 4700 475 4375 937 
Q 4050 1400 4050 2225 
Q 4050 3050 4387 3575 
Q 4725 4100 5075 4387 
Q 5425 4675 5412 4737 
Q 5400 4800 4887 4437 
Q 4375 4075 4000 3462 
Q 3625 2850 3687 2075 
Q 3750 1300 4137 825 
Q 4525 350 4950 62 
z
" transform="scale(0.015625)"/>
      <path id="SimHei-539f" d="M 800 -600 
Q 575 -450 300 -350 
Q 575 -25 725 350 
Q 875 725 925 1025 
Q 975 1325 1000 1625 
Q 1025 1925 1025 2275 
L 1025 4100 
Q 1025 4625 1000 4900 
L 5025 4900 
Q 5550 4900 5775 4925 
L 5775 4475 
Q 5575 4500 5025 4500 
L 1525 4500 
L 1525 2350 
Q 1500 1650 1437 1225 
Q 1375 800 1287 500 
Q 1200 200 1075 -75 
Q 950 -350 800 -600 
z
M 3300 4400 
Q 3575 4325 3900 4250 
Q 3725 4000 3625 3700 
L 5425 3700 
Q 5400 3450 5400 2975 
L 5400 2200 
Q 5400 1800 5425 1450 
L 4050 1450 
L 4050 -75 
Q 4050 -450 3850 -512 
Q 3650 -575 3200 -650 
Q 3150 -350 3025 -75 
Q 3400 -100 3475 -62 
Q 3550 -25 3550 150 
L 3550 1450 
L 2125 1450 
Q 2150 1750 2150 2175 
L 2150 3000 
Q 2150 3400 2125 3700 
L 3200 3700 
Q 3225 3850 3250 4025 
Q 3275 4200 3300 4400 
z
M 2625 3300 
L 2625 2775 
L 4925 2775 
L 4925 3300 
L 2625 3300 
z
M 2625 2375 
L 2625 1850 
L 4925 1850 
L 4925 2375 
L 2625 2375 
z
M 1875 -350 
Q 1700 -175 1475 0 
Q 1750 175 2025 475 
Q 2300 775 2475 1125 
Q 2775 900 2975 775 
Q 2725 550 2475 262 
Q 2225 -25 1875 -350 
z
M 4475 775 
Q 4675 975 4850 1125 
Q 5250 800 5475 575 
Q 5700 350 5900 150 
Q 5700 0 5500 -225 
Q 5250 100 4987 350 
Q 4725 600 4475 775 
z
" transform="scale(0.015625)"/>
      <path id="SimHei-59cb" d="M 1225 5075 
Q 1600 4950 1875 4900 
Q 1725 4650 1662 4400 
Q 1600 4150 1525 3775 
L 2600 3775 
Q 2550 3425 2362 2512 
Q 2175 1600 1975 1125 
Q 2275 925 2700 500 
Q 2525 375 2350 125 
Q 2025 550 1775 700 
Q 1550 350 1287 25 
Q 1025 -300 750 -575 
Q 625 -400 300 -225 
Q 600 -25 875 275 
Q 1150 575 1425 1025 
Q 875 1425 575 1600 
Q 675 1950 800 2425 
Q 925 2900 1000 3350 
Q 700 3350 400 3325 
L 400 3800 
Q 725 3775 1075 3775 
Q 1250 4675 1225 5075 
z
M 1450 3350 
Q 1350 2900 1262 2550 
Q 1175 2200 1075 1800 
Q 1450 1550 1600 1400 
Q 1825 1975 1925 2437 
Q 2025 2900 2075 3350 
L 1450 3350 
z
M 4025 5125 
Q 4225 4975 4675 4875 
Q 4400 4650 4137 4250 
Q 3875 3850 3425 3175 
Q 3925 3175 4287 3187 
Q 4650 3200 5175 3225 
Q 4900 3650 4650 3875 
Q 4850 3975 5050 4175 
Q 5750 3300 6100 2875 
Q 5950 2800 5650 2550 
Q 5525 2775 5400 2875 
Q 4600 2850 3987 2787 
Q 3375 2725 2925 2600 
Q 2875 2825 2725 3100 
Q 2950 3225 3375 3825 
Q 3800 4425 4025 5125 
z
M 2950 2025 
L 5650 2025 
Q 5625 1650 5625 712 
Q 5625 -225 5650 -550 
L 5150 -550 
L 5150 -25 
L 3450 -25 
L 3450 -575 
L 2950 -575 
Q 2975 -200 2975 725 
Q 2975 1650 2950 2025 
z
M 3450 1600 
L 3450 400 
L 5150 400 
L 5150 1600 
L 3450 1600 
z
" transform="scale(0.015625)"/>
      <path id="SimHei-6570" d="M 700 4850 
Q 950 4925 1100 5025 
Q 1300 4700 1475 4375 
Q 1250 4275 1075 4175 
Q 925 4550 700 4850 
z
M 2875 5025 
Q 3150 4900 3400 4800 
Q 3250 4700 3150 4525 
Q 3050 4350 2925 4125 
Q 2725 4225 2525 4275 
Q 2725 4600 2875 5025 
z
M 2450 3175 
Q 2675 3275 2825 3425 
Q 3125 3000 3325 2650 
Q 3100 2550 2900 2400 
Q 2700 2875 2450 3175 
z
M 525 3950 
Q 925 3925 1800 3925 
Q 1800 4650 1775 5175 
L 2275 5175 
Q 2250 4650 2250 3925 
Q 3075 3925 3450 3950 
L 3450 3500 
Q 3075 3525 2250 3525 
Q 2250 2950 2275 2525 
L 1775 2525 
Q 1800 2900 1800 3325 
Q 1675 3075 1387 2787 
Q 1100 2500 750 2300 
Q 650 2525 425 2675 
Q 650 2750 987 3000 
Q 1325 3250 1475 3525 
Q 950 3525 525 3500 
L 525 3950 
z
M 1725 1550 
Q 1600 1300 1450 1050 
Q 1750 975 2250 850 
Q 2425 1075 2575 1550 
L 1725 1550 
z
M 1550 2450 
Q 1825 2350 2100 2275 
Q 2000 2175 1875 1950 
L 2850 1950 
L 3125 1950 
Q 2975 1300 2700 725 
Q 3125 600 3375 525 
Q 3175 250 3075 25 
Q 2850 175 2400 350 
Q 1800 -250 600 -650 
Q 500 -400 300 -250 
Q 1375 0 2000 525 
Q 1300 700 850 825 
Q 1000 1025 1250 1550 
Q 850 1550 300 1525 
L 300 1975 
Q 775 1950 1400 1950 
Q 1475 2150 1550 2450 
z
M 4075 5150 
Q 4375 5025 4700 4975 
Q 4575 4825 4512 4625 
Q 4450 4425 4350 4050 
L 5475 4050 
Q 5700 4050 6050 4075 
L 6050 3625 
Q 5775 3650 5600 3650 
Q 5575 3125 5475 2262 
Q 5375 1400 5000 750 
Q 5250 400 5575 175 
Q 5900 -50 6150 -150 
Q 5800 -375 5700 -600 
Q 5275 -300 5075 -87 
Q 4875 125 4700 375 
Q 4400 75 4137 -125 
Q 3875 -325 3300 -650 
Q 3175 -425 2900 -250 
Q 3375 -75 3775 200 
Q 4175 475 4450 775 
Q 4175 1325 4025 1862 
Q 3875 2400 3850 2625 
Q 3800 2450 3725 2225 
Q 3500 2325 3225 2425 
Q 3525 2975 3775 3750 
Q 4025 4525 4075 5150 
z
M 4250 3650 
Q 4150 3400 4100 3237 
Q 4050 3075 4287 2350 
Q 4525 1625 4750 1225 
Q 4975 1825 5062 2475 
Q 5150 3125 5150 3650 
L 4250 3650 
z
" transform="scale(0.015625)"/>
      <path id="SimHei-636e" d="M 375 3800 
Q 725 3775 1200 3775 
L 1200 4350 
Q 1200 4700 1175 5000 
L 1650 5000 
Q 1625 4725 1625 4350 
L 1625 3775 
Q 1875 3775 2275 3800 
L 2275 3375 
Q 1875 3400 1625 3400 
L 1625 2400 
Q 1850 2475 2200 2600 
Q 2200 2400 2225 2200 
Q 1900 2100 1625 2000 
L 1625 275 
Q 1625 -200 1387 -300 
Q 1150 -400 725 -475 
Q 675 -200 525 75 
Q 950 75 1075 112 
Q 1200 150 1200 450 
L 1200 1850 
Q 800 1725 500 1550 
Q 425 1750 300 2050 
Q 700 2125 1200 2275 
L 1200 3400 
Q 725 3400 375 3375 
L 375 3800 
z
M 3625 1150 
L 3625 250 
L 5125 250 
L 5125 1150 
L 3625 1150 
z
M 2525 4900 
L 5675 4900 
Q 5650 4675 5650 4325 
L 5650 4000 
Q 5650 3600 5675 3400 
L 2975 3400 
L 2975 2675 
L 4150 2675 
Q 4150 2875 4125 3325 
L 4600 3325 
Q 4575 2900 4575 2675 
L 5250 2675 
Q 5725 2675 6025 2700 
L 6025 2275 
Q 5725 2300 5275 2300 
L 4575 2300 
L 4575 1525 
L 5575 1525 
Q 5550 1025 5550 875 
L 5550 300 
Q 5550 -125 5575 -450 
L 5125 -450 
L 5125 -125 
L 3625 -125 
L 3625 -525 
L 3200 -525 
Q 3225 -225 3225 200 
L 3225 900 
Q 3225 1150 3200 1525 
L 4150 1525 
L 4150 2300 
L 2975 2300 
Q 2925 1725 2862 1350 
Q 2800 975 2712 687 
Q 2625 400 2512 162 
Q 2400 -75 2275 -375 
Q 2050 -250 1725 -175 
Q 2050 225 2225 675 
Q 2400 1125 2462 1637 
Q 2525 2150 2537 2725 
Q 2550 3300 2550 3687 
Q 2550 4075 2525 4900 
z
M 2975 4525 
L 2975 3775 
L 5225 3775 
L 5225 4525 
L 2975 4525 
z
" transform="scale(0.015625)"/>
      <path id="SimHei-ff09" d="M 937 -187 
Q 950 -250 1437 37 
Q 1925 325 2337 850 
Q 2750 1375 2762 2200 
Q 2775 3025 2325 3637 
Q 1875 4250 1412 4562 
Q 950 4875 937 4812 
Q 925 4750 1287 4450 
Q 1650 4150 1987 3637 
Q 2325 3125 2375 2350 
Q 2425 1575 2037 987 
Q 1650 400 1287 137 
Q 925 -125 937 -187 
z
" transform="scale(0.015625)"/>
     </defs>
     <use xlink:href="#SimHei-6e29"/>
     <use xlink:href="#SimHei-5ea6" x="100"/>
     <use xlink:href="#SimHei-548c" x="200"/>
     <use xlink:href="#SimHei-53f6" x="300"/>
     <use xlink:href="#SimHei-7eff" x="400"/>
     <use xlink:href="#SimHei-7d20" x="500"/>
     <use xlink:href="#SimHei-61" x="600"/>
     <use xlink:href="#SimHei-7684" x="650"/>
     <use xlink:href="#SimHei-53d8" x="750"/>
     <use xlink:href="#SimHei-5316" x="850"/>
     <use xlink:href="#SimHei-8d8b" x="950"/>
     <use xlink:href="#SimHei-52bf" x="1050"/>
     <use xlink:href="#SimHei-ff08" x="1150"/>
     <use xlink:href="#SimHei-539f" x="1250"/>
     <use xlink:href="#SimHei-59cb" x="1350"/>
     <use xlink:href="#SimHei-6570" x="1450"/>
     <use xlink:href="#SimHei-636e" x="1550"/>
     <use xlink:href="#SimHei-ff09" x="1650"/>
    </g>
   </g>
   <g id="legend_2">
    <g id="patch_12">
     <path d="M 448.07975 471.566675 
L 570.47975 471.566675 
Q 572.87975 471.566675 572.87975 469.166675 
L 572.87975 453.0698 
Q 572.87975 450.6698 570.47975 450.6698 
L 448.07975 450.6698 
Q 445.67975 450.6698 445.67975 453.0698 
L 445.67975 469.166675 
Q 445.67975 471.566675 448.07975 471.566675 
z
" style="fill: #ffffff; opacity: 0.8; stroke: #cccccc; stroke-width: 1.5; stroke-linejoin: miter"/>
    </g>
    <g id="line2d_37">
     <path d="M 450.47975 461.0198 
L 462.47975 461.0198 
L 474.47975 461.0198 
" style="fill: none; stroke: #ff7f0e; stroke-width: 2.5; stroke-linecap: round"/>
     <g>
      <use xlink:href="#m168bf2c3e3" x="462.47975" y="461.0198" style="fill: #ff7f0e; stroke: #ffffff; stroke-width: 0.75; stroke-linejoin: miter"/>
     </g>
    </g>
    <g id="text_31">
     <!-- 叶绿素a(mg/m3) -->
     <g style="fill: #262626" transform="translate(484.07975 465.2198) scale(0.12 -0.12)">
      <use xlink:href="#SimHei-53f6"/>
      <use xlink:href="#SimHei-7eff" x="100"/>
      <use xlink:href="#SimHei-7d20" x="200"/>
      <use xlink:href="#SimHei-61" x="300"/>
      <use xlink:href="#SimHei-28" x="350"/>
      <use xlink:href="#SimHei-6d" x="400"/>
      <use xlink:href="#SimHei-67" x="450"/>
      <use xlink:href="#SimHei-2f" x="500"/>
      <use xlink:href="#SimHei-6d" x="550"/>
      <use xlink:href="#SimHei-33" x="600"/>
      <use xlink:href="#SimHei-29" x="650"/>
     </g>
    </g>
   </g>
  </g>
 </g>
 <defs>
  <clipPath id="pe30793a4d5">
   <rect x="92.6825" y="55.6625" width="694.32875" height="324.17275"/>
  </clipPath>
 </defs>
</svg>
