<?xml version="1.0" encoding="utf-8" standalone="no"?>
<!DOCTYPE svg PUBLIC "-//W3C//DTD SVG 1.1//EN"
  "http://www.w3.org/Graphics/SVG/1.1/DTD/svg11.dtd">
<svg xmlns:xlink="http://www.w3.org/1999/xlink" width="864pt" height="504pt" viewBox="0 0 864 504" xmlns="http://www.w3.org/2000/svg" version="1.1">
 <metadata>
  <rdf:RDF xmlns:dc="http://purl.org/dc/elements/1.1/" xmlns:cc="http://creativecommons.org/ns#" xmlns:rdf="http://www.w3.org/1999/02/22-rdf-syntax-ns#">
   <cc:Work>
    <dc:type rdf:resource="http://purl.org/dc/dcmitype/StillImage"/>
    <dc:date>2024-09-05T19:45:11.967488</dc:date>
    <dc:format>image/svg+xml</dc:format>
    <dc:creator>
     <cc:Agent>
      <dc:title>Matplotlib v3.7.5, https://matplotlib.org/</dc:title>
     </cc:Agent>
    </dc:creator>
   </cc:Work>
  </rdf:RDF>
 </metadata>
 <defs>
  <style type="text/css">*{stroke-linejoin: round; stroke-linecap: butt}</style>
 </defs>
 <g id="figure_1">
  <g id="patch_1">
   <path d="M 0 504 
L 864 504 
L 864 0 
L 0 0 
z
" style="fill: #ffffff"/>
  </g>
  <g id="axes_1">
   <g id="patch_2">
    <path d="M 86.3825 417.593617 
L 844.56 417.593617 
L 844.56 57.395 
L 86.3825 57.395 
z
" style="fill: #ffffff"/>
   </g>
   <g id="matplotlib.axis_1">
    <g id="xtick_1">
     <g id="line2d_1">
      <path d="M 120.845114 417.593617 
L 120.845114 57.395 
" clip-path="url(#p9873aa5f7e)" style="fill: none; stroke-dasharray: 5.55,2.4; stroke-dashoffset: 0; stroke: #cccccc; stroke-opacity: 0.5; stroke-width: 1.5"/>
     </g>
     <g id="text_1">
      <!-- 19冬 -->
      <g style="fill: #262626" transform="translate(115.160638 453.759597) rotate(-45) scale(0.12 -0.12)">
       <defs>
        <path id="SimHei-31" d="M 1950 100 
L 1375 100 
L 1375 3425 
L 625 3425 
L 625 3725 
Q 1075 3725 1325 3900 
Q 1575 4075 1650 4425 
L 1950 4425 
L 1950 100 
z
" transform="scale(0.015625)"/>
        <path id="SimHei-39" d="M 2825 2300 
Q 2825 1275 2462 662 
Q 2100 50 1425 50 
Q 950 50 662 400 
Q 375 750 375 1175 
L 950 1175 
Q 950 925 1087 725 
Q 1225 525 1450 525 
Q 1825 525 2012 950 
Q 2200 1375 2250 2200 
Q 2125 1925 1900 1775 
Q 1675 1625 1400 1625 
Q 925 1625 625 1975 
Q 325 2325 325 2975 
Q 325 3625 625 4025 
Q 925 4425 1525 4425 
Q 2125 4425 2475 3925 
Q 2825 3425 2825 2300 
z
M 2200 2875 
Q 2200 3425 2012 3700 
Q 1825 3975 1500 3975 
Q 1275 3975 1100 3762 
Q 925 3550 925 2975 
Q 925 2550 1062 2312 
Q 1200 2075 1500 2075 
Q 1825 2075 2012 2300 
Q 2200 2525 2200 2875 
z
" transform="scale(0.015625)"/>
        <path id="SimHei-51ac" d="M 2550 4050 
Q 2950 3250 3325 2925 
Q 3825 3275 4375 4050 
L 2550 4050 
z
M 1275 2750 
Q 1075 2975 850 3100 
Q 1400 3575 1712 4112 
Q 2025 4650 2175 5175 
Q 2475 5025 2800 4925 
Q 2600 4725 2475 4450 
L 5150 4450 
Q 4900 4000 4512 3487 
Q 4125 2975 3675 2650 
Q 4800 2025 6025 2050 
Q 5850 1800 5775 1475 
Q 4175 1725 3275 2375 
Q 2175 1725 625 1400 
Q 550 1650 325 1900 
Q 1800 2075 2925 2675 
Q 2500 3125 2175 3875 
Q 1800 3275 1275 2750 
z
M 4425 1050 
Q 4275 800 4175 550 
Q 2925 1125 2400 1275 
Q 2525 1550 2600 1775 
Q 3025 1625 3475 1450 
Q 3925 1275 4425 1050 
z
M 1800 125 
Q 1950 375 2050 600 
Q 2450 500 3100 300 
Q 3750 100 4625 -200 
Q 4475 -425 4375 -700 
Q 3900 -450 1800 125 
z
" transform="scale(0.015625)"/>
       </defs>
       <use xlink:href="#SimHei-31"/>
       <use xlink:href="#SimHei-39" x="50"/>
       <use xlink:href="#SimHei-51ac" x="100"/>
      </g>
     </g>
    </g>
    <g id="xtick_2">
     <g id="line2d_2">
      <path d="M 183.504411 417.593617 
L 183.504411 57.395 
" clip-path="url(#p9873aa5f7e)" style="fill: none; stroke-dasharray: 5.55,2.4; stroke-dashoffset: 0; stroke: #cccccc; stroke-opacity: 0.5; stroke-width: 1.5"/>
     </g>
     <g id="text_2">
      <!-- 20春 -->
      <g style="fill: #262626" transform="translate(177.853081 453.825889) rotate(-45) scale(0.12 -0.12)">
       <defs>
        <path id="SimHei-32" d="M 2850 100 
L 300 100 
L 300 500 
Q 450 900 712 1237 
Q 975 1575 1475 2000 
Q 1850 2325 2012 2600 
Q 2175 2875 2175 3200 
Q 2175 3525 2037 3737 
Q 1900 3950 1600 3950 
Q 1350 3950 1162 3725 
Q 975 3500 975 2925 
L 400 2925 
Q 425 3650 737 4037 
Q 1050 4425 1625 4425 
Q 2175 4425 2475 4087 
Q 2775 3750 2775 3175 
Q 2775 2700 2500 2350 
Q 2225 2000 1825 1650 
Q 1375 1250 1200 1050 
Q 1025 850 875 575 
L 2850 575 
L 2850 100 
z
" transform="scale(0.015625)"/>
        <path id="SimHei-30" d="M 2975 2250 
Q 2975 1350 2650 700 
Q 2325 50 1600 50 
Q 875 50 537 700 
Q 200 1350 200 2250 
Q 200 3150 537 3787 
Q 875 4425 1600 4425 
Q 2325 4425 2650 3787 
Q 2975 3150 2975 2250 
z
M 2375 2250 
Q 2375 3050 2187 3500 
Q 2000 3950 1600 3950 
Q 1200 3950 1000 3500 
Q 800 3050 800 2250 
Q 800 1450 1000 987 
Q 1200 525 1600 525 
Q 2000 525 2187 987 
Q 2375 1450 2375 2250 
z
" transform="scale(0.015625)"/>
        <path id="SimHei-6625" d="M 3125 5275 
Q 3450 5175 3725 5150 
Q 3625 5100 3525 4650 
L 4725 4650 
Q 5175 4650 5675 4700 
L 5675 4250 
Q 5175 4275 4875 4275 
L 3450 4275 
Q 3400 4100 3325 3775 
L 4950 3775 
Q 5125 3775 5475 3800 
L 5475 3375 
Q 5025 3400 4875 3400 
L 3200 3400 
Q 3100 3125 2925 2850 
L 5050 2850 
Q 5475 2850 5925 2875 
L 5925 2450 
Q 5475 2475 4450 2475 
Q 4700 2125 5112 1862 
Q 5525 1600 6150 1450 
Q 5950 1275 5825 950 
Q 5325 1200 4900 1475 
L 4900 175 
Q 4900 -200 4925 -650 
L 4425 -650 
L 4425 -300 
L 2200 -300 
L 2200 -625 
L 1700 -625 
Q 1725 -175 1725 150 
L 1725 1550 
Q 1300 1225 750 875 
Q 600 1125 350 1300 
Q 825 1475 1287 1775 
Q 1750 2075 2125 2475 
L 1275 2475 
Q 1000 2475 575 2425 
L 575 2875 
Q 1000 2850 1325 2850 
L 2400 2850 
Q 2600 3125 2700 3400 
L 1850 3400 
Q 1600 3400 1125 3375 
L 1125 3800 
Q 1600 3775 1900 3775 
L 2850 3775 
Q 2925 4000 2975 4275 
L 1650 4275 
Q 1375 4275 900 4250 
L 900 4675 
Q 1375 4650 1800 4650 
L 3050 4650 
Q 3100 4900 3125 5275 
z
M 2700 2475 
Q 2375 2075 2100 1875 
L 4375 1875 
Q 4175 2075 3950 2475 
L 2700 2475 
z
M 2200 1500 
L 2200 1000 
L 4425 1000 
L 4425 1500 
L 2200 1500 
z
M 2200 625 
L 2200 75 
L 4425 75 
L 4425 625 
L 2200 625 
z
" transform="scale(0.015625)"/>
       </defs>
       <use xlink:href="#SimHei-32"/>
       <use xlink:href="#SimHei-30" x="50"/>
       <use xlink:href="#SimHei-6625" x="100"/>
      </g>
     </g>
    </g>
    <g id="xtick_3">
     <g id="line2d_3">
      <path d="M 246.163709 417.593617 
L 246.163709 57.395 
" clip-path="url(#p9873aa5f7e)" style="fill: none; stroke-dasharray: 5.55,2.4; stroke-dashoffset: 0; stroke: #cccccc; stroke-opacity: 0.5; stroke-width: 1.5"/>
     </g>
     <g id="text_3">
      <!-- 20夏 -->
      <g style="fill: #262626" transform="translate(240.263786 453.328704) rotate(-45) scale(0.12 -0.12)">
       <defs>
        <path id="SimHei-590f" d="M 1775 3850 
L 1775 3500 
L 4625 3500 
L 4625 3850 
L 1775 3850 
z
M 1775 3175 
L 1775 2850 
L 4625 2850 
L 4625 3175 
L 1775 3175 
z
M 1775 2550 
L 1775 2250 
L 4625 2250 
L 4625 2550 
L 1775 2550 
z
M 425 4900 
Q 850 4875 1350 4875 
L 4875 4875 
Q 5400 4875 5850 4900 
L 5850 4525 
Q 5400 4550 4900 4550 
L 3325 4550 
Q 3250 4350 3175 4125 
L 5150 4125 
Q 5125 3775 5125 3025 
Q 5125 2275 5150 1875 
L 2725 1875 
Q 2600 1700 2425 1525 
L 4775 1525 
Q 4575 1200 4350 900 
Q 4125 600 3725 300 
Q 4225 100 4712 25 
Q 5200 -50 5975 -100 
Q 5725 -375 5650 -625 
Q 4850 -525 4362 -400 
Q 3875 -275 3250 0 
Q 2650 -300 2137 -425 
Q 1625 -550 850 -650 
Q 700 -375 425 -150 
Q 900 -150 1562 -62 
Q 2225 25 2850 250 
Q 2425 475 1850 1000 
Q 1400 675 800 475 
Q 675 675 450 875 
Q 1075 1050 1487 1312 
Q 1900 1575 2150 1875 
L 1250 1875 
Q 1275 2250 1275 3012 
Q 1275 3775 1250 4125 
L 2700 4125 
Q 2750 4350 2800 4550 
L 1375 4550 
Q 850 4550 425 4525 
L 425 4900 
z
M 2250 1200 
Q 2750 675 3275 500 
Q 3775 850 4025 1200 
L 2250 1200 
z
" transform="scale(0.015625)"/>
       </defs>
       <use xlink:href="#SimHei-32"/>
       <use xlink:href="#SimHei-30" x="50"/>
       <use xlink:href="#SimHei-590f" x="100"/>
      </g>
     </g>
    </g>
    <g id="xtick_4">
     <g id="line2d_4">
      <path d="M 308.823006 417.593617 
L 308.823006 57.395 
" clip-path="url(#p9873aa5f7e)" style="fill: none; stroke-dasharray: 5.55,2.4; stroke-dashoffset: 0; stroke: #cccccc; stroke-opacity: 0.5; stroke-width: 1.5"/>
     </g>
     <g id="text_4">
      <!-- 20秋 -->
      <g style="fill: #262626" transform="translate(303.088812 453.660161) rotate(-45) scale(0.12 -0.12)">
       <defs>
        <path id="SimHei-79cb" d="M 3350 2350 
Q 3100 2400 2900 2425 
Q 3125 3175 3225 3975 
Q 3450 3900 3750 3875 
Q 3650 3700 3550 3212 
Q 3450 2725 3350 2350 
z
M 6150 -250 
Q 5825 -350 5675 -625 
Q 5125 -100 4825 425 
Q 4525 950 4275 1725 
Q 4050 875 3662 325 
Q 3275 -225 2775 -650 
Q 2600 -425 2300 -300 
Q 3075 225 3462 937 
Q 3850 1650 3937 2375 
Q 4025 3100 4025 3837 
Q 4025 4575 4000 5150 
Q 4200 5150 4600 5100 
Q 4525 4850 4500 4375 
Q 4475 3900 4487 3312 
Q 4500 2725 4612 2137 
Q 4725 1550 5087 925 
Q 5450 300 6150 -250 
z
M 5300 2275 
Q 5050 2375 4825 2400 
Q 5125 3175 5225 3925 
Q 5425 3875 5750 3800 
Q 5650 3625 5537 3187 
Q 5425 2750 5300 2275 
z
M 1950 225 
Q 1950 -250 1975 -600 
L 1475 -600 
Q 1500 -275 1500 225 
L 1500 1950 
Q 1075 1125 575 425 
Q 475 700 250 875 
Q 650 1275 937 1762 
Q 1225 2250 1400 2800 
Q 725 2800 400 2775 
L 400 3225 
Q 675 3200 1500 3200 
L 1500 4250 
Q 875 4150 600 4075 
Q 500 4350 375 4525 
Q 775 4550 1500 4712 
Q 2225 4875 2650 5100 
Q 2775 4825 3000 4600 
Q 2625 4525 1950 4350 
L 1950 3200 
Q 2325 3200 2675 3225 
L 2675 2775 
Q 2300 2800 1950 2800 
L 1950 225 
z
M 1975 1975 
Q 2125 2100 2325 2275 
Q 2675 1775 2925 1375 
Q 2700 1250 2525 1100 
Q 2350 1475 1975 1975 
z
" transform="scale(0.015625)"/>
       </defs>
       <use xlink:href="#SimHei-32"/>
       <use xlink:href="#SimHei-30" x="50"/>
       <use xlink:href="#SimHei-79cb" x="100"/>
      </g>
     </g>
    </g>
    <g id="xtick_5">
     <g id="line2d_5">
      <path d="M 371.482304 417.593617 
L 371.482304 57.395 
" clip-path="url(#p9873aa5f7e)" style="fill: none; stroke-dasharray: 5.55,2.4; stroke-dashoffset: 0; stroke: #cccccc; stroke-opacity: 0.5; stroke-width: 1.5"/>
     </g>
     <g id="text_5">
      <!-- 20冬 -->
      <g style="fill: #262626" transform="translate(365.797828 453.759597) rotate(-45) scale(0.12 -0.12)">
       <use xlink:href="#SimHei-32"/>
       <use xlink:href="#SimHei-30" x="50"/>
       <use xlink:href="#SimHei-51ac" x="100"/>
      </g>
     </g>
    </g>
    <g id="xtick_6">
     <g id="line2d_6">
      <path d="M 434.141601 417.593617 
L 434.141601 57.395 
" clip-path="url(#p9873aa5f7e)" style="fill: none; stroke-dasharray: 5.55,2.4; stroke-dashoffset: 0; stroke: #cccccc; stroke-opacity: 0.5; stroke-width: 1.5"/>
     </g>
     <g id="text_6">
      <!-- 21春 -->
      <g style="fill: #262626" transform="translate(428.490271 453.825889) rotate(-45) scale(0.12 -0.12)">
       <use xlink:href="#SimHei-32"/>
       <use xlink:href="#SimHei-31" x="50"/>
       <use xlink:href="#SimHei-6625" x="100"/>
      </g>
     </g>
    </g>
    <g id="xtick_7">
     <g id="line2d_7">
      <path d="M 496.800899 417.593617 
L 496.800899 57.395 
" clip-path="url(#p9873aa5f7e)" style="fill: none; stroke-dasharray: 5.55,2.4; stroke-dashoffset: 0; stroke: #cccccc; stroke-opacity: 0.5; stroke-width: 1.5"/>
     </g>
     <g id="text_7">
      <!-- 21夏 -->
      <g style="fill: #262626" transform="translate(490.900977 453.328704) rotate(-45) scale(0.12 -0.12)">
       <use xlink:href="#SimHei-32"/>
       <use xlink:href="#SimHei-31" x="50"/>
       <use xlink:href="#SimHei-590f" x="100"/>
      </g>
     </g>
    </g>
    <g id="xtick_8">
     <g id="line2d_8">
      <path d="M 559.460196 417.593617 
L 559.460196 57.395 
" clip-path="url(#p9873aa5f7e)" style="fill: none; stroke-dasharray: 5.55,2.4; stroke-dashoffset: 0; stroke: #cccccc; stroke-opacity: 0.5; stroke-width: 1.5"/>
     </g>
     <g id="text_8">
      <!-- 21秋 -->
      <g style="fill: #262626" transform="translate(553.726002 453.660161) rotate(-45) scale(0.12 -0.12)">
       <use xlink:href="#SimHei-32"/>
       <use xlink:href="#SimHei-31" x="50"/>
       <use xlink:href="#SimHei-79cb" x="100"/>
      </g>
     </g>
    </g>
    <g id="xtick_9">
     <g id="line2d_9">
      <path d="M 622.119494 417.593617 
L 622.119494 57.395 
" clip-path="url(#p9873aa5f7e)" style="fill: none; stroke-dasharray: 5.55,2.4; stroke-dashoffset: 0; stroke: #cccccc; stroke-opacity: 0.5; stroke-width: 1.5"/>
     </g>
     <g id="text_9">
      <!-- 22春 -->
      <g style="fill: #262626" transform="translate(616.468164 453.825889) rotate(-45) scale(0.12 -0.12)">
       <use xlink:href="#SimHei-32"/>
       <use xlink:href="#SimHei-32" x="50"/>
       <use xlink:href="#SimHei-6625" x="100"/>
      </g>
     </g>
    </g>
    <g id="xtick_10">
     <g id="line2d_10">
      <path d="M 684.778791 417.593617 
L 684.778791 57.395 
" clip-path="url(#p9873aa5f7e)" style="fill: none; stroke-dasharray: 5.55,2.4; stroke-dashoffset: 0; stroke: #cccccc; stroke-opacity: 0.5; stroke-width: 1.5"/>
     </g>
     <g id="text_10">
      <!-- 22夏 -->
      <g style="fill: #262626" transform="translate(678.878869 453.328704) rotate(-45) scale(0.12 -0.12)">
       <use xlink:href="#SimHei-32"/>
       <use xlink:href="#SimHei-32" x="50"/>
       <use xlink:href="#SimHei-590f" x="100"/>
      </g>
     </g>
    </g>
    <g id="xtick_11">
     <g id="line2d_11">
      <path d="M 747.438089 417.593617 
L 747.438089 57.395 
" clip-path="url(#p9873aa5f7e)" style="fill: none; stroke-dasharray: 5.55,2.4; stroke-dashoffset: 0; stroke: #cccccc; stroke-opacity: 0.5; stroke-width: 1.5"/>
     </g>
     <g id="text_11">
      <!-- 22秋 -->
      <g style="fill: #262626" transform="translate(741.703895 453.660161) rotate(-45) scale(0.12 -0.12)">
       <use xlink:href="#SimHei-32"/>
       <use xlink:href="#SimHei-32" x="50"/>
       <use xlink:href="#SimHei-79cb" x="100"/>
      </g>
     </g>
    </g>
    <g id="xtick_12">
     <g id="line2d_12">
      <path d="M 810.097386 417.593617 
L 810.097386 57.395 
" clip-path="url(#p9873aa5f7e)" style="fill: none; stroke-dasharray: 5.55,2.4; stroke-dashoffset: 0; stroke: #cccccc; stroke-opacity: 0.5; stroke-width: 1.5"/>
     </g>
     <g id="text_12">
      <!-- 22冬 -->
      <g style="fill: #262626" transform="translate(804.412911 453.759597) rotate(-45) scale(0.12 -0.12)">
       <use xlink:href="#SimHei-32"/>
       <use xlink:href="#SimHei-32" x="50"/>
       <use xlink:href="#SimHei-51ac" x="100"/>
      </g>
     </g>
    </g>
    <g id="text_13">
     <!-- 时间 -->
     <g style="fill: #262626" transform="translate(449.47125 482.419694) scale(0.16 -0.16)">
      <defs>
       <path id="SimHei-65f6" d="M 2800 3825 
Q 3550 3800 4775 3800 
Q 4775 4550 4750 5200 
L 5275 5200 
Q 5250 4550 5250 3800 
Q 5600 3800 6000 3825 
L 6000 3350 
Q 5600 3375 5250 3375 
L 5250 25 
Q 5250 -350 4962 -450 
Q 4675 -550 4225 -600 
Q 4225 -300 3975 -25 
Q 4425 -75 4600 -50 
Q 4775 -25 4775 275 
L 4775 3375 
Q 3600 3375 2800 3350 
L 2800 3825 
z
M 3075 2475 
Q 3300 2575 3525 2700 
Q 3825 2175 4125 1575 
Q 3875 1500 3625 1350 
Q 3425 1950 3075 2475 
z
M 625 4550 
L 2575 4550 
Q 2550 3650 2550 2375 
Q 2550 1100 2575 375 
L 2075 375 
L 2075 850 
L 1125 850 
L 1125 25 
L 625 25 
Q 650 1175 650 2337 
Q 650 3500 625 4550 
z
M 1125 4125 
L 1125 2950 
L 2075 2950 
L 2075 4125 
L 1125 4125 
z
M 1125 2525 
L 1125 1275 
L 2075 1275 
L 2075 2525 
L 1125 2525 
z
" transform="scale(0.015625)"/>
       <path id="SimHei-95f4" d="M 1225 4950 
Q 1500 5150 1650 5225 
Q 1875 4925 2300 4300 
Q 2050 4175 1825 4025 
Q 1575 4525 1225 4950 
z
M 1250 500 
Q 1250 0 1275 -500 
L 775 -500 
Q 800 -25 800 525 
L 800 3100 
Q 800 3625 775 3975 
L 1275 3975 
Q 1250 3600 1250 3250 
L 1250 500 
z
M 2725 4825 
Q 3175 4800 3700 4800 
L 5600 4800 
Q 5575 4350 5575 3875 
L 5575 250 
Q 5600 -300 5287 -425 
Q 4975 -550 4600 -600 
Q 4575 -300 4400 -25 
Q 4850 -50 4987 25 
Q 5125 100 5125 350 
L 5125 4400 
L 3725 4400 
Q 3175 4400 2725 4375 
L 2725 4825 
z
M 2500 3100 
L 2500 2325 
L 3875 2325 
L 3875 3100 
L 2500 3100 
z
M 2500 1925 
L 2500 1025 
L 3875 1025 
L 3875 1925 
L 2500 1925 
z
M 2025 3500 
L 4350 3500 
Q 4325 3050 4325 2700 
L 4325 1400 
Q 4325 1075 4350 625 
L 2025 625 
Q 2050 1075 2050 1425 
L 2050 2700 
Q 2050 3050 2025 3500 
z
" transform="scale(0.015625)"/>
      </defs>
      <use xlink:href="#SimHei-65f6"/>
      <use xlink:href="#SimHei-95f4" x="100"/>
     </g>
    </g>
   </g>
   <g id="matplotlib.axis_2">
    <g id="ytick_1">
     <g id="line2d_13">
      <path d="M 86.3825 401.220953 
L 844.56 401.220953 
" clip-path="url(#p9873aa5f7e)" style="fill: none; stroke-dasharray: 5.55,2.4; stroke-dashoffset: 0; stroke: #cccccc; stroke-opacity: 0.5; stroke-width: 1.5"/>
     </g>
     <g id="text_14">
      <!-- 0 -->
      <g style="fill: #262626" transform="translate(65.6325 406.860601) scale(0.165 -0.165)">
       <use xlink:href="#SimHei-30"/>
      </g>
     </g>
    </g>
    <g id="ytick_2">
     <g id="line2d_14">
      <path d="M 86.3825 324.474174 
L 844.56 324.474174 
" clip-path="url(#p9873aa5f7e)" style="fill: none; stroke-dasharray: 5.55,2.4; stroke-dashoffset: 0; stroke: #cccccc; stroke-opacity: 0.5; stroke-width: 1.5"/>
     </g>
     <g id="text_15">
      <!-- 50 -->
      <g style="fill: #262626" transform="translate(57.3825 330.113822) scale(0.165 -0.165)">
       <defs>
        <path id="SimHei-35" d="M 2825 1650 
Q 2825 900 2462 475 
Q 2100 50 1500 50 
Q 975 50 637 400 
Q 300 750 275 1350 
L 850 1350 
Q 850 975 1025 750 
Q 1200 525 1525 525 
Q 1850 525 2037 800 
Q 2225 1075 2225 1650 
Q 2225 2150 2062 2387 
Q 1900 2625 1625 2625 
Q 1400 2625 1237 2525 
Q 1075 2425 925 2175 
L 425 2175 
L 575 4375 
L 2725 4375 
L 2725 3900 
L 1050 3900 
L 950 2750 
Q 1100 2900 1275 2975 
Q 1450 3050 1750 3050 
Q 2225 3050 2525 2687 
Q 2825 2325 2825 1650 
z
" transform="scale(0.015625)"/>
       </defs>
       <use xlink:href="#SimHei-35"/>
       <use xlink:href="#SimHei-30" x="50"/>
      </g>
     </g>
    </g>
    <g id="ytick_3">
     <g id="line2d_15">
      <path d="M 86.3825 247.727395 
L 844.56 247.727395 
" clip-path="url(#p9873aa5f7e)" style="fill: none; stroke-dasharray: 5.55,2.4; stroke-dashoffset: 0; stroke: #cccccc; stroke-opacity: 0.5; stroke-width: 1.5"/>
     </g>
     <g id="text_16">
      <!-- 100 -->
      <g style="fill: #262626" transform="translate(49.1325 253.367044) scale(0.165 -0.165)">
       <use xlink:href="#SimHei-31"/>
       <use xlink:href="#SimHei-30" x="50"/>
       <use xlink:href="#SimHei-30" x="100"/>
      </g>
     </g>
    </g>
    <g id="ytick_4">
     <g id="line2d_16">
      <path d="M 86.3825 170.980616 
L 844.56 170.980616 
" clip-path="url(#p9873aa5f7e)" style="fill: none; stroke-dasharray: 5.55,2.4; stroke-dashoffset: 0; stroke: #cccccc; stroke-opacity: 0.5; stroke-width: 1.5"/>
     </g>
     <g id="text_17">
      <!-- 150 -->
      <g style="fill: #262626" transform="translate(49.1325 176.620265) scale(0.165 -0.165)">
       <use xlink:href="#SimHei-31"/>
       <use xlink:href="#SimHei-35" x="50"/>
       <use xlink:href="#SimHei-30" x="100"/>
      </g>
     </g>
    </g>
    <g id="ytick_5">
     <g id="line2d_17">
      <path d="M 86.3825 94.233838 
L 844.56 94.233838 
" clip-path="url(#p9873aa5f7e)" style="fill: none; stroke-dasharray: 5.55,2.4; stroke-dashoffset: 0; stroke: #cccccc; stroke-opacity: 0.5; stroke-width: 1.5"/>
     </g>
     <g id="text_18">
      <!-- 200 -->
      <g style="fill: #262626" transform="translate(49.1325 99.873486) scale(0.165 -0.165)">
       <use xlink:href="#SimHei-32"/>
       <use xlink:href="#SimHei-30" x="50"/>
       <use xlink:href="#SimHei-30" x="100"/>
      </g>
     </g>
    </g>
    <g id="text_19">
     <!-- 石油烃(μg/L) -->
     <g style="fill: #262626" transform="translate(32.07 289.494309) rotate(-90) scale(0.16 -0.16)">
      <defs>
       <path id="SimHei-77f3" d="M 2375 2275 
L 2375 475 
L 4750 475 
L 4750 2275 
L 2375 2275 
z
M 525 4800 
Q 975 4775 1825 4775 
L 5100 4775 
Q 5500 4775 5975 4800 
L 5975 4300 
Q 5525 4325 5100 4325 
L 3050 4325 
Q 2875 3525 2425 2725 
L 5275 2725 
Q 5250 1800 5250 925 
Q 5250 50 5275 -475 
L 4750 -475 
L 4750 25 
L 2375 25 
L 2375 -550 
L 1850 -550 
Q 1875 25 1875 1925 
Q 1625 1600 1337 1325 
Q 1050 1050 750 800 
Q 625 1100 350 1250 
Q 1400 2000 1900 2862 
Q 2400 3725 2500 4325 
L 1800 4325 
Q 975 4325 525 4300 
L 525 4800 
z
" transform="scale(0.015625)"/>
       <path id="SimHei-6cb9" d="M 2725 3400 
L 2725 2125 
L 3800 2125 
L 3800 3400 
L 2725 3400 
z
M 4275 3400 
L 4275 2125 
L 5350 2125 
L 5350 3400 
L 4275 3400 
z
M 2725 1725 
L 2725 400 
L 3800 400 
L 3800 1725 
L 2725 1725 
z
M 4275 1725 
L 4275 400 
L 5350 400 
L 5350 1725 
L 4275 1725 
z
M 2225 3800 
L 3800 3800 
L 3800 4300 
Q 3800 4625 3775 5100 
L 4300 5100 
Q 4275 4625 4275 4300 
L 4275 3800 
L 5850 3800 
Q 5825 3175 5825 2850 
L 5825 425 
Q 5825 150 5850 -525 
L 5350 -525 
L 5350 0 
L 2725 0 
L 2725 -525 
L 2225 -525 
Q 2250 125 2250 450 
L 2250 2825 
Q 2250 3150 2225 3800 
z
M 775 4500 
Q 950 4675 1100 4875 
Q 1600 4575 2175 4200 
Q 1950 4025 1825 3775 
Q 1325 4175 775 4500 
z
M 375 2900 
Q 500 3125 625 3350 
Q 1175 3075 1850 2750 
Q 1650 2500 1550 2275 
Q 975 2650 375 2900 
z
M 1425 1850 
Q 1700 1650 1950 1525 
Q 1750 1250 1450 512 
Q 1150 -225 1025 -600 
Q 725 -375 350 -250 
Q 675 125 975 750 
Q 1275 1375 1425 1850 
z
" transform="scale(0.015625)"/>
       <path id="SimHei-70c3" d="M 550 3700 
Q 775 3675 1025 3650 
Q 900 2425 825 1950 
Q 625 2025 350 2050 
Q 500 2525 550 3700 
z
M 1275 4975 
Q 1575 4950 1850 4925 
Q 1775 4675 1775 4137 
Q 1775 3600 1775 3200 
Q 2200 3550 2425 3900 
Q 2600 3750 2850 3550 
Q 2575 3375 1775 2750 
Q 1750 2225 1700 1650 
Q 2325 1200 2775 675 
Q 2550 550 2400 300 
Q 2050 825 1650 1200 
Q 1400 225 800 -650 
Q 600 -400 325 -350 
Q 950 425 1137 1275 
Q 1325 2125 1312 3100 
Q 1300 4075 1275 4975 
z
M 2775 4775 
Q 3175 4750 3625 4750 
L 5525 4750 
Q 5350 4450 5175 4162 
Q 5000 3875 4675 3500 
Q 5575 2975 6125 2575 
Q 5850 2450 5700 2225 
Q 5475 2500 4425 3175 
Q 4150 2950 3762 2687 
Q 3375 2425 2725 2125 
Q 2625 2350 2350 2550 
Q 3250 2850 3850 3350 
Q 4450 3850 4750 4350 
L 3625 4350 
Q 3175 4350 2775 4325 
L 2775 4775 
z
M 2875 1925 
Q 3275 1900 3675 1900 
L 4950 1900 
Q 5375 1900 5725 1925 
L 5725 1475 
Q 5400 1500 4975 1500 
L 4500 1500 
L 4500 50 
L 5375 50 
Q 5725 50 6075 75 
L 6075 -375 
Q 5725 -350 5375 -350 
L 3325 -350 
Q 2875 -350 2500 -375 
L 2500 75 
Q 2875 50 3325 50 
L 4050 50 
L 4050 1500 
L 3675 1500 
Q 3275 1500 2875 1475 
L 2875 1925 
z
" transform="scale(0.015625)"/>
       <path id="SimHei-28" d="M 3000 -225 
L 2725 -500 
Q 2100 100 1787 750 
Q 1475 1400 1475 2225 
Q 1475 3050 1787 3700 
Q 2100 4350 2725 4975 
L 3000 4700 
Q 2425 4150 2137 3562 
Q 1850 2975 1850 2225 
Q 1850 1475 2137 887 
Q 2425 300 3000 -225 
z
" transform="scale(0.015625)"/>
       <path id="SimHei-3bc" d="M 2250 875 
L 2250 225 
Q 2250 25 2625 50 
L 2625 -100 
L 1500 -100 
L 1500 50 
Q 1875 25 1875 225 
L 1875 2975 
Q 1900 3150 1625 3150 
L 1625 3275 
L 2250 3275 
L 2250 1275 
Q 2325 925 2787 925 
Q 3250 925 3525 1400 
L 3525 3000 
Q 3525 3150 3325 3150 
L 3325 3275 
L 3900 3275 
L 3900 1350 
Q 3875 975 4000 1000 
Q 4125 1025 4250 1125 
Q 4375 1225 4412 1200 
Q 4450 1175 4262 887 
Q 4075 600 3800 662 
Q 3525 725 3525 1050 
Q 3075 575 2712 625 
Q 2350 675 2250 875 
z
" transform="scale(0.015625)"/>
       <path id="SimHei-67" d="M 3000 2475 
Q 2825 2525 2662 2537 
Q 2500 2550 2325 2500 
Q 2400 2425 2450 2312 
Q 2500 2200 2500 1975 
Q 2500 1550 2212 1275 
Q 1925 1000 1500 1000 
Q 1400 1000 1237 1037 
Q 1075 1075 975 1125 
Q 900 1075 875 1025 
Q 850 975 850 900 
Q 850 775 1025 712 
Q 1200 650 1650 650 
Q 2375 650 2637 450 
Q 2900 250 2900 -50 
Q 2900 -450 2512 -637 
Q 2125 -825 1600 -825 
Q 925 -825 600 -650 
Q 275 -475 275 -175 
Q 275 -25 400 125 
Q 525 275 725 375 
Q 575 450 487 562 
Q 400 675 400 850 
Q 400 1000 512 1112 
Q 625 1225 775 1300 
Q 650 1425 575 1600 
Q 500 1775 500 1975 
Q 500 2400 787 2675 
Q 1075 2950 1500 2950 
Q 1725 2950 1887 2887 
Q 2050 2825 2175 2700 
Q 2375 2850 2575 2912 
Q 2775 2975 3000 2950 
L 3000 2475 
z
M 2000 1975 
Q 2000 2225 1875 2375 
Q 1750 2525 1500 2525 
Q 1250 2525 1125 2375 
Q 1000 2225 1000 1975 
Q 1000 1725 1125 1575 
Q 1250 1425 1500 1425 
Q 1750 1425 1875 1575 
Q 2000 1725 2000 1975 
z
M 2425 -100 
Q 2425 0 2312 100 
Q 2200 200 1750 200 
Q 1650 200 1475 212 
Q 1300 225 1075 250 
Q 875 175 800 75 
Q 725 -25 725 -125 
Q 725 -275 925 -375 
Q 1125 -475 1625 -475 
Q 2050 -475 2237 -362 
Q 2425 -250 2425 -100 
z
" transform="scale(0.015625)"/>
       <path id="SimHei-2f" d="M 3025 4525 
L 375 -200 
L 125 -50 
L 2775 4675 
L 3025 4525 
z
" transform="scale(0.015625)"/>
       <path id="SimHei-4c" d="M 2925 100 
L 325 100 
L 325 4375 
L 900 4375 
L 900 575 
L 2925 575 
L 2925 100 
z
" transform="scale(0.015625)"/>
       <path id="SimHei-29" d="M 1700 2225 
Q 1700 1400 1387 750 
Q 1075 100 450 -500 
L 175 -225 
Q 750 300 1037 887 
Q 1325 1475 1325 2225 
Q 1325 2975 1037 3562 
Q 750 4150 175 4700 
L 450 4975 
Q 1075 4350 1387 3700 
Q 1700 3050 1700 2225 
z
" transform="scale(0.015625)"/>
      </defs>
      <use xlink:href="#SimHei-77f3"/>
      <use xlink:href="#SimHei-6cb9" x="100"/>
      <use xlink:href="#SimHei-70c3" x="200"/>
      <use xlink:href="#SimHei-28" x="300"/>
      <use xlink:href="#SimHei-3bc" x="350"/>
      <use xlink:href="#SimHei-67" x="450"/>
      <use xlink:href="#SimHei-2f" x="500"/>
      <use xlink:href="#SimHei-4c" x="550"/>
      <use xlink:href="#SimHei-29" x="600"/>
     </g>
    </g>
   </g>
   <g id="PolyCollection_1"/>
   <g id="PolyCollection_2">
    <defs>
     <path id="m3de03f0377" d="M 120.845114 -102.779047 
L 120.845114 -116.310601 
L 183.504411 -104.517362 
L 246.163709 -117.369706 
L 308.823006 -167.142733 
L 371.482304 -140.950702 
L 434.141601 -430.232336 
L 496.800899 -131.156717 
L 559.460196 -142.770697 
L 622.119494 -117.045177 
L 684.778791 -119.228294 
L 747.438089 -114.844024 
L 810.097386 -111.790764 
L 810.097386 -102.779047 
L 810.097386 -102.779047 
L 747.438089 -102.779047 
L 684.778791 -102.779047 
L 622.119494 -102.779047 
L 559.460196 -102.779047 
L 496.800899 -102.779047 
L 434.141601 -102.779047 
L 371.482304 -102.779047 
L 308.823006 -102.779047 
L 246.163709 -102.779047 
L 183.504411 -102.779047 
L 120.845114 -102.779047 
z
" style="stroke: #4c72b0; stroke-opacity: 0.2; stroke-width: 1.5"/>
    </defs>
    <g clip-path="url(#p9873aa5f7e)">
     <use xlink:href="#m3de03f0377" x="0" y="504" style="fill: #4c72b0; fill-opacity: 0.2; stroke: #4c72b0; stroke-opacity: 0.2; stroke-width: 1.5"/>
    </g>
   </g>
   <g id="line2d_18">
    <path d="M 120.845114 387.689399 
L 183.504411 399.482638 
L 246.163709 386.630294 
L 308.823006 336.857267 
L 371.482304 363.049298 
L 434.141601 73.767664 
L 496.800899 372.843283 
L 559.460196 361.229303 
L 622.119494 386.954823 
L 684.778791 384.771706 
L 747.438089 389.155976 
L 810.097386 392.209236 
" clip-path="url(#p9873aa5f7e)" style="fill: none; stroke: #4c72b0; stroke-width: 2.5; stroke-linecap: round"/>
    <defs>
     <path id="mb25e663f9d" d="M 0 4.5 
C 1.193414 4.5 2.338109 4.025852 3.181981 3.181981 
C 4.025852 2.338109 4.5 1.193414 4.5 0 
C 4.5 -1.193414 4.025852 -2.338109 3.181981 -3.181981 
C 2.338109 -4.025852 1.193414 -4.5 0 -4.5 
C -1.193414 -4.5 -2.338109 -4.025852 -3.181981 -3.181981 
C -4.025852 -2.338109 -4.5 -1.193414 -4.5 0 
C -4.5 1.193414 -4.025852 2.338109 -3.181981 3.181981 
C -2.338109 4.025852 -1.193414 4.5 0 4.5 
z
" style="stroke: #ffffff; stroke-width: 0.75"/>
    </defs>
    <g clip-path="url(#p9873aa5f7e)">
     <use xlink:href="#mb25e663f9d" x="120.845114" y="387.689399" style="fill: #4c72b0; stroke: #ffffff; stroke-width: 0.75"/>
     <use xlink:href="#mb25e663f9d" x="183.504411" y="399.482638" style="fill: #4c72b0; stroke: #ffffff; stroke-width: 0.75"/>
     <use xlink:href="#mb25e663f9d" x="246.163709" y="386.630294" style="fill: #4c72b0; stroke: #ffffff; stroke-width: 0.75"/>
     <use xlink:href="#mb25e663f9d" x="308.823006" y="336.857267" style="fill: #4c72b0; stroke: #ffffff; stroke-width: 0.75"/>
     <use xlink:href="#mb25e663f9d" x="371.482304" y="363.049298" style="fill: #4c72b0; stroke: #ffffff; stroke-width: 0.75"/>
     <use xlink:href="#mb25e663f9d" x="434.141601" y="73.767664" style="fill: #4c72b0; stroke: #ffffff; stroke-width: 0.75"/>
     <use xlink:href="#mb25e663f9d" x="496.800899" y="372.843283" style="fill: #4c72b0; stroke: #ffffff; stroke-width: 0.75"/>
     <use xlink:href="#mb25e663f9d" x="559.460196" y="361.229303" style="fill: #4c72b0; stroke: #ffffff; stroke-width: 0.75"/>
     <use xlink:href="#mb25e663f9d" x="622.119494" y="386.954823" style="fill: #4c72b0; stroke: #ffffff; stroke-width: 0.75"/>
     <use xlink:href="#mb25e663f9d" x="684.778791" y="384.771706" style="fill: #4c72b0; stroke: #ffffff; stroke-width: 0.75"/>
     <use xlink:href="#mb25e663f9d" x="747.438089" y="389.155976" style="fill: #4c72b0; stroke: #ffffff; stroke-width: 0.75"/>
     <use xlink:href="#mb25e663f9d" x="810.097386" y="392.209236" style="fill: #4c72b0; stroke: #ffffff; stroke-width: 0.75"/>
    </g>
   </g>
   <g id="patch_3">
    <path d="M 86.3825 417.593617 
L 86.3825 57.395 
" style="fill: none; stroke: #cccccc; stroke-width: 1.875; stroke-linejoin: miter; stroke-linecap: square"/>
   </g>
   <g id="patch_4">
    <path d="M 86.3825 417.593617 
L 844.56 417.593617 
" style="fill: none; stroke: #cccccc; stroke-width: 1.875; stroke-linejoin: miter; stroke-linecap: square"/>
   </g>
   <g id="text_20">
    <!-- 8.816 -->
    <g style="fill: #4c72b0" transform="translate(107.095114 386.256081) scale(0.11 -0.11)">
     <defs>
      <path id="SimHei-38" d="M 2875 1325 
Q 2875 700 2525 375 
Q 2175 50 1575 50 
Q 975 50 625 375 
Q 275 700 275 1325 
Q 275 1650 475 1912 
Q 675 2175 1025 2300 
Q 725 2425 562 2650 
Q 400 2875 400 3225 
Q 400 3775 750 4100 
Q 1100 4425 1575 4425 
Q 2050 4425 2400 4100 
Q 2750 3775 2750 3225 
Q 2750 2875 2587 2650 
Q 2425 2425 2125 2300 
Q 2475 2175 2675 1912 
Q 2875 1650 2875 1325 
z
M 2200 3225 
Q 2200 3625 2025 3800 
Q 1850 3975 1575 3975 
Q 1300 3975 1125 3800 
Q 950 3625 950 3225 
Q 950 2825 1137 2662 
Q 1325 2500 1575 2500 
Q 1825 2500 2012 2662 
Q 2200 2825 2200 3225 
z
M 2300 1325 
Q 2300 1675 2112 1875 
Q 1925 2075 1575 2075 
Q 1225 2075 1037 1875 
Q 850 1675 850 1325 
Q 850 925 1050 712 
Q 1250 500 1575 500 
Q 1900 500 2100 712 
Q 2300 925 2300 1325 
z
" transform="scale(0.015625)"/>
      <path id="SimHei-2e" d="M 1100 100 
L 525 100 
L 525 650 
L 1100 650 
L 1100 100 
z
" transform="scale(0.015625)"/>
      <path id="SimHei-36" d="M 2850 1550 
Q 2850 850 2550 450 
Q 2250 50 1650 50 
Q 1050 50 700 550 
Q 350 1050 350 2175 
Q 350 3200 712 3812 
Q 1075 4425 1750 4425 
Q 2225 4425 2512 4075 
Q 2800 3725 2800 3300 
L 2225 3300 
Q 2225 3550 2087 3750 
Q 1950 3950 1725 3950 
Q 1350 3950 1150 3562 
Q 950 3175 925 2375 
Q 1100 2700 1300 2825 
Q 1500 2950 1775 2950 
Q 2250 2950 2550 2575 
Q 2850 2200 2850 1550 
z
M 2250 1550 
Q 2250 2000 2100 2250 
Q 1950 2500 1675 2500 
Q 1350 2500 1162 2250 
Q 975 2000 975 1650 
Q 975 1100 1162 800 
Q 1350 500 1675 500 
Q 1900 500 2075 725 
Q 2250 950 2250 1550 
z
" transform="scale(0.015625)"/>
     </defs>
     <use xlink:href="#SimHei-38"/>
     <use xlink:href="#SimHei-2e" x="50"/>
     <use xlink:href="#SimHei-38" x="100"/>
     <use xlink:href="#SimHei-31" x="150"/>
     <use xlink:href="#SimHei-36" x="200"/>
    </g>
   </g>
   <g id="text_21">
    <!-- 1.133 -->
    <g style="fill: #4c72b0" transform="translate(169.754411 398.04932) scale(0.11 -0.11)">
     <defs>
      <path id="SimHei-33" d="M 2825 1300 
Q 2825 725 2462 387 
Q 2100 50 1550 50 
Q 1000 50 637 387 
Q 275 725 275 1425 
L 850 1425 
Q 850 950 1037 737 
Q 1225 525 1550 525 
Q 1875 525 2050 725 
Q 2225 925 2225 1350 
Q 2225 1700 2037 1900 
Q 1850 2100 1375 2100 
L 1375 2525 
Q 1775 2525 1962 2725 
Q 2150 2925 2150 3325 
Q 2150 3625 2012 3800 
Q 1875 3975 1575 3975 
Q 1275 3975 1112 3762 
Q 950 3550 925 3150 
L 375 3150 
Q 425 3725 737 4075 
Q 1050 4425 1575 4425 
Q 2125 4425 2425 4112 
Q 2725 3800 2725 3350 
Q 2725 2925 2575 2687 
Q 2425 2450 2075 2325 
Q 2425 2250 2625 1975 
Q 2825 1700 2825 1300 
z
" transform="scale(0.015625)"/>
     </defs>
     <use xlink:href="#SimHei-31"/>
     <use xlink:href="#SimHei-2e" x="50"/>
     <use xlink:href="#SimHei-31" x="100"/>
     <use xlink:href="#SimHei-33" x="150"/>
     <use xlink:href="#SimHei-33" x="200"/>
    </g>
   </g>
   <g id="text_22">
    <!-- 9.506 -->
    <g style="fill: #4c72b0" transform="translate(232.413709 385.196976) scale(0.11 -0.11)">
     <use xlink:href="#SimHei-39"/>
     <use xlink:href="#SimHei-2e" x="50"/>
     <use xlink:href="#SimHei-35" x="100"/>
     <use xlink:href="#SimHei-30" x="150"/>
     <use xlink:href="#SimHei-36" x="200"/>
    </g>
   </g>
   <g id="text_23">
    <!-- 41.932 -->
    <g style="fill: #4c72b0" transform="translate(292.323006 335.423949) scale(0.11 -0.11)">
     <defs>
      <path id="SimHei-34" d="M 2975 1200 
L 2450 1200 
L 2450 100 
L 1875 100 
L 1875 1200 
L 200 1200 
L 200 1675 
L 1875 4425 
L 2450 4425 
L 2450 1675 
L 2975 1675 
L 2975 1200 
z
M 1875 1675 
L 1875 3525 
L 750 1675 
L 1875 1675 
z
" transform="scale(0.015625)"/>
     </defs>
     <use xlink:href="#SimHei-34"/>
     <use xlink:href="#SimHei-31" x="50"/>
     <use xlink:href="#SimHei-2e" x="100"/>
     <use xlink:href="#SimHei-39" x="150"/>
     <use xlink:href="#SimHei-33" x="200"/>
     <use xlink:href="#SimHei-32" x="250"/>
    </g>
   </g>
   <g id="text_24">
    <!-- 24.869 -->
    <g style="fill: #4c72b0" transform="translate(354.982304 361.61598) scale(0.11 -0.11)">
     <use xlink:href="#SimHei-32"/>
     <use xlink:href="#SimHei-34" x="50"/>
     <use xlink:href="#SimHei-2e" x="100"/>
     <use xlink:href="#SimHei-38" x="150"/>
     <use xlink:href="#SimHei-36" x="200"/>
     <use xlink:href="#SimHei-39" x="250"/>
    </g>
   </g>
   <g id="text_25">
    <!-- 213.334 -->
    <g style="fill: #4c72b0" transform="translate(414.891601 72.334346) scale(0.11 -0.11)">
     <use xlink:href="#SimHei-32"/>
     <use xlink:href="#SimHei-31" x="50"/>
     <use xlink:href="#SimHei-33" x="100"/>
     <use xlink:href="#SimHei-2e" x="150"/>
     <use xlink:href="#SimHei-33" x="200"/>
     <use xlink:href="#SimHei-33" x="250"/>
     <use xlink:href="#SimHei-34" x="300"/>
    </g>
   </g>
   <g id="text_26">
    <!-- 18.488 -->
    <g style="fill: #4c72b0" transform="translate(480.300899 371.409965) scale(0.11 -0.11)">
     <use xlink:href="#SimHei-31"/>
     <use xlink:href="#SimHei-38" x="50"/>
     <use xlink:href="#SimHei-2e" x="100"/>
     <use xlink:href="#SimHei-34" x="150"/>
     <use xlink:href="#SimHei-38" x="200"/>
     <use xlink:href="#SimHei-38" x="250"/>
    </g>
   </g>
   <g id="text_27">
    <!-- 26.054 -->
    <g style="fill: #4c72b0" transform="translate(542.960196 359.795985) scale(0.11 -0.11)">
     <use xlink:href="#SimHei-32"/>
     <use xlink:href="#SimHei-36" x="50"/>
     <use xlink:href="#SimHei-2e" x="100"/>
     <use xlink:href="#SimHei-30" x="150"/>
     <use xlink:href="#SimHei-35" x="200"/>
     <use xlink:href="#SimHei-34" x="250"/>
    </g>
   </g>
   <g id="text_28">
    <!-- 9.294 -->
    <g style="fill: #4c72b0" transform="translate(608.369494 385.521505) scale(0.11 -0.11)">
     <use xlink:href="#SimHei-39"/>
     <use xlink:href="#SimHei-2e" x="50"/>
     <use xlink:href="#SimHei-32" x="100"/>
     <use xlink:href="#SimHei-39" x="150"/>
     <use xlink:href="#SimHei-34" x="200"/>
    </g>
   </g>
   <g id="text_29">
    <!-- 10.717 -->
    <g style="fill: #4c72b0" transform="translate(668.278791 383.338388) scale(0.11 -0.11)">
     <defs>
      <path id="SimHei-37" d="M 2775 3850 
L 1600 100 
L 1025 100 
L 2225 3900 
L 400 3900 
L 400 4375 
L 2775 4375 
L 2775 3850 
z
" transform="scale(0.015625)"/>
     </defs>
     <use xlink:href="#SimHei-31"/>
     <use xlink:href="#SimHei-30" x="50"/>
     <use xlink:href="#SimHei-2e" x="100"/>
     <use xlink:href="#SimHei-37" x="150"/>
     <use xlink:href="#SimHei-31" x="200"/>
     <use xlink:href="#SimHei-37" x="250"/>
    </g>
   </g>
   <g id="text_30">
    <!-- 7.860 -->
    <g style="fill: #4c72b0" transform="translate(733.688089 387.722657) scale(0.11 -0.11)">
     <use xlink:href="#SimHei-37"/>
     <use xlink:href="#SimHei-2e" x="50"/>
     <use xlink:href="#SimHei-38" x="100"/>
     <use xlink:href="#SimHei-36" x="150"/>
     <use xlink:href="#SimHei-30" x="200"/>
    </g>
   </g>
   <g id="text_31">
    <!-- 5.871 -->
    <g style="fill: #4c72b0" transform="translate(796.347386 390.775918) scale(0.11 -0.11)">
     <use xlink:href="#SimHei-35"/>
     <use xlink:href="#SimHei-2e" x="50"/>
     <use xlink:href="#SimHei-38" x="100"/>
     <use xlink:href="#SimHei-37" x="150"/>
     <use xlink:href="#SimHei-31" x="200"/>
    </g>
   </g>
   <g id="text_32">
    <!-- 石油烃的变化趋势 -->
    <g style="fill: #262626" transform="translate(377.47125 37.395) scale(0.22 -0.22)">
     <defs>
      <path id="SimHei-7684" d="M 1525 5100 
Q 1850 5025 2200 4925 
Q 2100 4775 2025 4487 
Q 1950 4200 1900 3975 
L 2975 3975 
Q 2950 3525 2950 2900 
L 2950 700 
Q 2950 300 2975 -225 
L 2500 -225 
L 2500 300 
L 1200 300 
L 1200 -275 
L 725 -275 
Q 750 350 750 650 
L 750 2875 
Q 750 3525 725 3975 
L 1425 3975 
Q 1450 4225 1475 4462 
Q 1500 4700 1525 5100 
z
M 1200 3525 
L 1200 2425 
L 2500 2425 
L 2500 3525 
L 1200 3525 
z
M 1200 1950 
L 1200 775 
L 2500 775 
L 2500 1950 
L 1200 1950 
z
M 5850 3925 
Q 5800 3450 5775 3000 
L 5600 175 
Q 5525 -275 5150 -400 
Q 4775 -525 4350 -550 
Q 4350 -275 4175 25 
Q 4600 0 4850 37 
Q 5100 75 5150 350 
L 5350 3475 
L 4025 3475 
Q 3825 3050 3550 2525 
Q 3350 2675 3125 2775 
Q 3275 3000 3462 3400 
Q 3650 3800 3787 4262 
Q 3925 4725 3975 5025 
Q 4300 4875 4600 4800 
Q 4475 4600 4375 4387 
Q 4275 4175 4200 3925 
L 5850 3925 
z
M 3650 2300 
Q 3825 2400 4075 2550 
Q 4200 2325 4325 2050 
Q 4450 1775 4600 1375 
Q 4400 1300 4150 1150 
Q 4075 1425 3937 1750 
Q 3800 2075 3650 2300 
z
" transform="scale(0.015625)"/>
      <path id="SimHei-53d8" d="M 2825 5075 
Q 3125 5125 3425 5175 
Q 3500 4675 3525 4475 
L 4625 4475 
Q 5325 4475 5875 4500 
L 5875 4025 
Q 5300 4050 4625 4050 
L 4025 4050 
L 4025 2975 
Q 4025 2475 4050 2175 
L 3525 2175 
Q 3550 2475 3550 2975 
L 3550 4050 
L 2775 4050 
L 2775 2975 
Q 2775 2500 2800 2175 
L 2275 2175 
Q 2300 2500 2300 2975 
L 2300 4050 
L 1775 4050 
Q 1075 4050 550 4025 
L 550 4500 
Q 1050 4475 1775 4475 
L 2975 4475 
Q 2925 4775 2825 5075 
z
M 1375 3700 
Q 1600 3525 1900 3375 
Q 1750 3250 1487 2900 
Q 1225 2550 925 2175 
Q 675 2350 475 2475 
Q 1025 3000 1375 3700 
z
M 4450 3325 
Q 4675 3500 4850 3675 
Q 5350 3200 5900 2600 
Q 5675 2450 5450 2250 
Q 5050 2750 4450 3325 
z
M 1125 1825 
Q 1575 1800 2175 1800 
L 5100 1800 
Q 4775 1300 4450 900 
Q 4125 500 3750 225 
Q 4325 50 4762 -12 
Q 5200 -75 5900 -50 
Q 5700 -275 5625 -625 
Q 4800 -525 4225 -375 
Q 3650 -225 3275 -75 
Q 2650 -325 2100 -437 
Q 1550 -550 775 -650 
Q 675 -375 500 -125 
Q 1150 -125 1687 -50 
Q 2225 25 2825 200 
Q 2325 475 1750 1375 
L 2300 1375 
Q 2700 750 3300 450 
Q 3800 750 4250 1375 
L 2150 1375 
Q 1525 1375 1125 1350 
L 1125 1825 
z
" transform="scale(0.015625)"/>
      <path id="SimHei-5316" d="M 3350 5075 
L 3900 5075 
Q 3850 4750 3850 4250 
L 3850 2425 
Q 4275 2800 4600 3262 
Q 4925 3725 5150 4175 
Q 5350 4025 5750 3850 
Q 5575 3700 5375 3450 
Q 5175 3200 4950 2912 
Q 4725 2625 4450 2337 
Q 4175 2050 3850 1800 
L 3850 400 
Q 3850 50 4175 50 
L 5075 50 
Q 5300 75 5337 262 
Q 5375 450 5400 825 
Q 5650 625 6000 575 
Q 5850 -100 5687 -250 
Q 5525 -400 5225 -400 
L 3900 -400 
Q 3375 -400 3375 50 
L 3375 1500 
Q 3150 1350 2950 1225 
Q 2750 1100 2450 900 
Q 2300 1175 2150 1350 
Q 2450 1475 2787 1662 
Q 3125 1850 3375 2075 
L 3375 4325 
Q 3375 4775 3350 5075 
z
M 1825 5175 
Q 2050 5025 2450 4900 
Q 2250 4625 2150 4362 
Q 2050 4100 1900 3750 
L 1900 650 
Q 1900 -125 1925 -525 
L 1375 -525 
Q 1425 -150 1425 625 
L 1425 3000 
Q 1250 2700 1100 2500 
Q 950 2300 825 2150 
Q 650 2350 425 2525 
Q 750 2850 987 3200 
Q 1225 3550 1375 3887 
Q 1525 4225 1637 4550 
Q 1750 4875 1825 5175 
z
" transform="scale(0.015625)"/>
      <path id="SimHei-8d8b" d="M 6125 125 
Q 5950 -150 5925 -450 
Q 4900 -475 4200 -450 
Q 3500 -425 2937 -300 
Q 2375 -175 1950 75 
Q 1525 325 1100 750 
Q 875 -100 650 -550 
Q 425 -250 250 -175 
Q 525 225 625 625 
Q 725 1025 762 1400 
Q 800 1775 800 2050 
Q 1025 1975 1325 1950 
Q 1200 1575 1200 1275 
Q 1200 975 1700 675 
L 1700 2600 
Q 850 2600 425 2575 
L 425 2975 
Q 875 2950 1575 2950 
L 1575 3925 
Q 1050 3925 625 3900 
L 625 4300 
Q 1050 4275 1575 4275 
Q 1575 4725 1550 5175 
L 2050 5175 
Q 2025 4775 2025 4275 
Q 2400 4275 2775 4300 
L 2775 3900 
Q 2375 3925 2025 3925 
L 2025 2950 
Q 2525 2950 2975 2975 
L 2975 2575 
Q 2525 2600 2150 2600 
L 2150 1800 
Q 2450 1800 2825 1825 
L 2825 1425 
Q 2475 1450 2150 1450 
L 2150 400 
Q 2900 0 4125 0 
Q 5350 0 6125 125 
z
M 5825 3225 
Q 5800 2775 5800 1825 
Q 5800 875 5825 500 
Q 3725 500 3250 475 
L 3250 875 
Q 3725 850 5350 850 
L 5350 1650 
Q 3825 1650 3450 1625 
L 3450 2025 
Q 3825 2000 5350 2000 
L 5350 2875 
L 4025 2875 
Q 3750 2875 3400 2850 
L 3400 3250 
L 3325 3125 
Q 3125 3300 2900 3375 
Q 3275 3825 3525 4337 
Q 3775 4850 3875 5225 
Q 4125 5125 4450 5050 
Q 4325 4950 4125 4475 
L 5675 4475 
Q 5200 3675 4975 3225 
L 5825 3225 
z
M 3950 4125 
Q 3600 3525 3400 3250 
Q 3750 3225 4050 3225 
L 4475 3225 
Q 4625 3525 4975 4125 
L 3950 4125 
z
" transform="scale(0.015625)"/>
      <path id="SimHei-52bf" d="M 2575 3700 
Q 2550 3525 2550 3300 
Q 2125 3200 1900 3125 
L 1900 2225 
Q 1875 1950 1662 1875 
Q 1450 1800 1050 1725 
Q 1025 2000 850 2275 
Q 1300 2250 1375 2300 
Q 1450 2350 1450 2600 
L 1450 3050 
Q 950 2925 600 2775 
Q 525 3050 400 3250 
Q 750 3300 1450 3450 
L 1450 4025 
Q 850 4025 475 4000 
L 475 4450 
Q 850 4425 1450 4425 
Q 1450 4875 1425 5150 
L 1950 5150 
Q 1900 4900 1900 4425 
Q 2225 4425 2600 4450 
L 2600 4000 
Q 2225 4025 1900 4025 
L 1900 3525 
Q 2175 3600 2575 3700 
z
M 700 1500 
Q 1150 1475 1600 1475 
L 2725 1475 
Q 2750 1675 2750 1900 
Q 3075 1825 3300 1800 
Q 3250 1675 3200 1475 
L 5275 1475 
Q 5225 1125 5200 800 
Q 5175 475 5075 62 
Q 4975 -350 4700 -437 
Q 4425 -525 3775 -575 
Q 3800 -350 3575 -25 
Q 4325 -75 4462 12 
Q 4600 100 4650 300 
Q 4700 500 4750 1075 
L 3125 1075 
Q 2800 275 2150 -87 
Q 1500 -450 825 -650 
Q 725 -375 450 -175 
Q 1000 -100 1650 175 
Q 2300 450 2625 1075 
L 1600 1075 
Q 1125 1075 700 1050 
L 700 1500 
z
M 2850 1925 
Q 2700 2100 2375 2225 
Q 3025 2475 3375 3025 
Q 3175 3150 2850 3325 
Q 3025 3475 3100 3625 
Q 3325 3500 3525 3375 
Q 3575 3625 3600 4075 
Q 3250 4075 2925 4025 
L 2875 4425 
Q 3200 4425 3600 4425 
Q 3600 4900 3575 5200 
Q 3775 5150 4100 5125 
Q 4025 4875 4025 4450 
L 5200 4475 
Q 5125 3975 5087 3437 
Q 5050 2900 5175 2625 
Q 5300 2350 5437 2312 
Q 5575 2275 5600 2850 
Q 5775 2650 6075 2600 
Q 5925 2050 5825 1912 
Q 5725 1775 5562 1737 
Q 5400 1700 5087 1975 
Q 4775 2250 4700 2787 
Q 4625 3325 4725 4100 
L 4025 4075 
Q 3975 3525 3925 3200 
Q 4150 3050 4425 2875 
Q 4225 2700 4100 2550 
Q 3925 2700 3750 2825 
Q 3425 2325 2850 1925 
z
" transform="scale(0.015625)"/>
     </defs>
     <use xlink:href="#SimHei-77f3"/>
     <use xlink:href="#SimHei-6cb9" x="100"/>
     <use xlink:href="#SimHei-70c3" x="200"/>
     <use xlink:href="#SimHei-7684" x="300"/>
     <use xlink:href="#SimHei-53d8" x="400"/>
     <use xlink:href="#SimHei-5316" x="500"/>
     <use xlink:href="#SimHei-8d8b" x="600"/>
     <use xlink:href="#SimHei-52bf" x="700"/>
    </g>
   </g>
  </g>
 </g>
 <defs>
  <clipPath id="p9873aa5f7e">
   <rect x="86.3825" y="57.395" width="758.1775" height="360.198617"/>
  </clipPath>
 </defs>
</svg>
