<?xml version="1.0" encoding="utf-8" standalone="no"?>
<!DOCTYPE svg PUBLIC "-//W3C//DTD SVG 1.1//EN"
  "http://www.w3.org/Graphics/SVG/1.1/DTD/svg11.dtd">
<svg xmlns:xlink="http://www.w3.org/1999/xlink" width="864pt" height="504pt" viewBox="0 0 864 504" xmlns="http://www.w3.org/2000/svg" version="1.1">
 <metadata>
  <rdf:RDF xmlns:dc="http://purl.org/dc/elements/1.1/" xmlns:cc="http://creativecommons.org/ns#" xmlns:rdf="http://www.w3.org/1999/02/22-rdf-syntax-ns#">
   <cc:Work>
    <dc:type rdf:resource="http://purl.org/dc/dcmitype/StillImage"/>
    <dc:date>2024-09-06T01:33:58.028747</dc:date>
    <dc:format>image/svg+xml</dc:format>
    <dc:creator>
     <cc:Agent>
      <dc:title>Matplotlib v3.7.5, https://matplotlib.org/</dc:title>
     </cc:Agent>
    </dc:creator>
   </cc:Work>
  </rdf:RDF>
 </metadata>
 <defs>
  <style type="text/css">*{stroke-linejoin: round; stroke-linecap: butt}</style>
 </defs>
 <g id="figure_1">
  <g id="patch_1">
   <path d="M 0 504 
L 864 504 
L 864 0 
L 0 0 
z
" style="fill: #ffffff"/>
  </g>
  <g id="axes_1">
   <g id="patch_2">
    <path d="M 86.73125 427.585 
L 844.56 427.585 
L 844.56 57.81125 
L 86.73125 57.81125 
z
" style="fill: #ffffff"/>
   </g>
   <g id="matplotlib.axis_1">
    <g id="xtick_1">
     <g id="text_1">
      <!-- 20夏 -->
      <g style="fill: #262626" transform="translate(196.536042 452.266641) scale(0.165 -0.165)">
       <defs>
        <path id="SimHei-32" d="M 2850 100 
L 300 100 
L 300 500 
Q 450 900 712 1237 
Q 975 1575 1475 2000 
Q 1850 2325 2012 2600 
Q 2175 2875 2175 3200 
Q 2175 3525 2037 3737 
Q 1900 3950 1600 3950 
Q 1350 3950 1162 3725 
Q 975 3500 975 2925 
L 400 2925 
Q 425 3650 737 4037 
Q 1050 4425 1625 4425 
Q 2175 4425 2475 4087 
Q 2775 3750 2775 3175 
Q 2775 2700 2500 2350 
Q 2225 2000 1825 1650 
Q 1375 1250 1200 1050 
Q 1025 850 875 575 
L 2850 575 
L 2850 100 
z
" transform="scale(0.015625)"/>
        <path id="SimHei-30" d="M 2975 2250 
Q 2975 1350 2650 700 
Q 2325 50 1600 50 
Q 875 50 537 700 
Q 200 1350 200 2250 
Q 200 3150 537 3787 
Q 875 4425 1600 4425 
Q 2325 4425 2650 3787 
Q 2975 3150 2975 2250 
z
M 2375 2250 
Q 2375 3050 2187 3500 
Q 2000 3950 1600 3950 
Q 1200 3950 1000 3500 
Q 800 3050 800 2250 
Q 800 1450 1000 987 
Q 1200 525 1600 525 
Q 2000 525 2187 987 
Q 2375 1450 2375 2250 
z
" transform="scale(0.015625)"/>
        <path id="SimHei-590f" d="M 1775 3850 
L 1775 3500 
L 4625 3500 
L 4625 3850 
L 1775 3850 
z
M 1775 3175 
L 1775 2850 
L 4625 2850 
L 4625 3175 
L 1775 3175 
z
M 1775 2550 
L 1775 2250 
L 4625 2250 
L 4625 2550 
L 1775 2550 
z
M 425 4900 
Q 850 4875 1350 4875 
L 4875 4875 
Q 5400 4875 5850 4900 
L 5850 4525 
Q 5400 4550 4900 4550 
L 3325 4550 
Q 3250 4350 3175 4125 
L 5150 4125 
Q 5125 3775 5125 3025 
Q 5125 2275 5150 1875 
L 2725 1875 
Q 2600 1700 2425 1525 
L 4775 1525 
Q 4575 1200 4350 900 
Q 4125 600 3725 300 
Q 4225 100 4712 25 
Q 5200 -50 5975 -100 
Q 5725 -375 5650 -625 
Q 4850 -525 4362 -400 
Q 3875 -275 3250 0 
Q 2650 -300 2137 -425 
Q 1625 -550 850 -650 
Q 700 -375 425 -150 
Q 900 -150 1562 -62 
Q 2225 25 2850 250 
Q 2425 475 1850 1000 
Q 1400 675 800 475 
Q 675 675 450 875 
Q 1075 1050 1487 1312 
Q 1900 1575 2150 1875 
L 1250 1875 
Q 1275 2250 1275 3012 
Q 1275 3775 1250 4125 
L 2700 4125 
Q 2750 4350 2800 4550 
L 1375 4550 
Q 850 4550 425 4525 
L 425 4900 
z
M 2250 1200 
Q 2750 675 3275 500 
Q 3775 850 4025 1200 
L 2250 1200 
z
" transform="scale(0.015625)"/>
       </defs>
       <use xlink:href="#SimHei-32"/>
       <use xlink:href="#SimHei-30" x="50"/>
       <use xlink:href="#SimHei-590f" x="100"/>
      </g>
     </g>
    </g>
    <g id="xtick_2">
     <g id="text_2">
      <!-- 21春 -->
      <g style="fill: #262626" transform="translate(449.145625 453.233437) scale(0.165 -0.165)">
       <defs>
        <path id="SimHei-31" d="M 1950 100 
L 1375 100 
L 1375 3425 
L 625 3425 
L 625 3725 
Q 1075 3725 1325 3900 
Q 1575 4075 1650 4425 
L 1950 4425 
L 1950 100 
z
" transform="scale(0.015625)"/>
        <path id="SimHei-6625" d="M 3125 5275 
Q 3450 5175 3725 5150 
Q 3625 5100 3525 4650 
L 4725 4650 
Q 5175 4650 5675 4700 
L 5675 4250 
Q 5175 4275 4875 4275 
L 3450 4275 
Q 3400 4100 3325 3775 
L 4950 3775 
Q 5125 3775 5475 3800 
L 5475 3375 
Q 5025 3400 4875 3400 
L 3200 3400 
Q 3100 3125 2925 2850 
L 5050 2850 
Q 5475 2850 5925 2875 
L 5925 2450 
Q 5475 2475 4450 2475 
Q 4700 2125 5112 1862 
Q 5525 1600 6150 1450 
Q 5950 1275 5825 950 
Q 5325 1200 4900 1475 
L 4900 175 
Q 4900 -200 4925 -650 
L 4425 -650 
L 4425 -300 
L 2200 -300 
L 2200 -625 
L 1700 -625 
Q 1725 -175 1725 150 
L 1725 1550 
Q 1300 1225 750 875 
Q 600 1125 350 1300 
Q 825 1475 1287 1775 
Q 1750 2075 2125 2475 
L 1275 2475 
Q 1000 2475 575 2425 
L 575 2875 
Q 1000 2850 1325 2850 
L 2400 2850 
Q 2600 3125 2700 3400 
L 1850 3400 
Q 1600 3400 1125 3375 
L 1125 3800 
Q 1600 3775 1900 3775 
L 2850 3775 
Q 2925 4000 2975 4275 
L 1650 4275 
Q 1375 4275 900 4250 
L 900 4675 
Q 1375 4650 1800 4650 
L 3050 4650 
Q 3100 4900 3125 5275 
z
M 2700 2475 
Q 2375 2075 2100 1875 
L 4375 1875 
Q 4175 2075 3950 2475 
L 2700 2475 
z
M 2200 1500 
L 2200 1000 
L 4425 1000 
L 4425 1500 
L 2200 1500 
z
M 2200 625 
L 2200 75 
L 4425 75 
L 4425 625 
L 2200 625 
z
" transform="scale(0.015625)"/>
       </defs>
       <use xlink:href="#SimHei-32"/>
       <use xlink:href="#SimHei-31" x="50"/>
       <use xlink:href="#SimHei-6625" x="100"/>
      </g>
     </g>
    </g>
    <g id="xtick_3">
     <g id="text_3">
      <!-- 22夏 -->
      <g style="fill: #262626" transform="translate(701.755208 452.266641) scale(0.165 -0.165)">
       <use xlink:href="#SimHei-32"/>
       <use xlink:href="#SimHei-32" x="50"/>
       <use xlink:href="#SimHei-590f" x="100"/>
      </g>
     </g>
    </g>
    <g id="text_4">
     <!-- 时间 -->
     <g style="fill: #262626" transform="translate(449.645625 482.860391) scale(0.16 -0.16)">
      <defs>
       <path id="SimHei-65f6" d="M 2800 3825 
Q 3550 3800 4775 3800 
Q 4775 4550 4750 5200 
L 5275 5200 
Q 5250 4550 5250 3800 
Q 5600 3800 6000 3825 
L 6000 3350 
Q 5600 3375 5250 3375 
L 5250 25 
Q 5250 -350 4962 -450 
Q 4675 -550 4225 -600 
Q 4225 -300 3975 -25 
Q 4425 -75 4600 -50 
Q 4775 -25 4775 275 
L 4775 3375 
Q 3600 3375 2800 3350 
L 2800 3825 
z
M 3075 2475 
Q 3300 2575 3525 2700 
Q 3825 2175 4125 1575 
Q 3875 1500 3625 1350 
Q 3425 1950 3075 2475 
z
M 625 4550 
L 2575 4550 
Q 2550 3650 2550 2375 
Q 2550 1100 2575 375 
L 2075 375 
L 2075 850 
L 1125 850 
L 1125 25 
L 625 25 
Q 650 1175 650 2337 
Q 650 3500 625 4550 
z
M 1125 4125 
L 1125 2950 
L 2075 2950 
L 2075 4125 
L 1125 4125 
z
M 1125 2525 
L 1125 1275 
L 2075 1275 
L 2075 2525 
L 1125 2525 
z
" transform="scale(0.015625)"/>
       <path id="SimHei-95f4" d="M 1225 4950 
Q 1500 5150 1650 5225 
Q 1875 4925 2300 4300 
Q 2050 4175 1825 4025 
Q 1575 4525 1225 4950 
z
M 1250 500 
Q 1250 0 1275 -500 
L 775 -500 
Q 800 -25 800 525 
L 800 3100 
Q 800 3625 775 3975 
L 1275 3975 
Q 1250 3600 1250 3250 
L 1250 500 
z
M 2725 4825 
Q 3175 4800 3700 4800 
L 5600 4800 
Q 5575 4350 5575 3875 
L 5575 250 
Q 5600 -300 5287 -425 
Q 4975 -550 4600 -600 
Q 4575 -300 4400 -25 
Q 4850 -50 4987 25 
Q 5125 100 5125 350 
L 5125 4400 
L 3725 4400 
Q 3175 4400 2725 4375 
L 2725 4825 
z
M 2500 3100 
L 2500 2325 
L 3875 2325 
L 3875 3100 
L 2500 3100 
z
M 2500 1925 
L 2500 1025 
L 3875 1025 
L 3875 1925 
L 2500 1925 
z
M 2025 3500 
L 4350 3500 
Q 4325 3050 4325 2700 
L 4325 1400 
Q 4325 1075 4350 625 
L 2025 625 
Q 2050 1075 2050 1425 
L 2050 2700 
Q 2050 3050 2025 3500 
z
" transform="scale(0.015625)"/>
      </defs>
      <use xlink:href="#SimHei-65f6"/>
      <use xlink:href="#SimHei-95f4" x="100"/>
     </g>
    </g>
   </g>
   <g id="matplotlib.axis_2">
    <g id="ytick_1">
     <g id="line2d_1">
      <path d="M 86.73125 403.259193 
L 844.56 403.259193 
" clip-path="url(#p02c859b72c)" style="fill: none; stroke: #cccccc; stroke-width: 1.5; stroke-linecap: round"/>
     </g>
     <g id="text_5">
      <!-- 5.5 -->
      <g style="fill: #262626" transform="translate(49.48125 408.898841) scale(0.165 -0.165)">
       <defs>
        <path id="SimHei-35" d="M 2825 1650 
Q 2825 900 2462 475 
Q 2100 50 1500 50 
Q 975 50 637 400 
Q 300 750 275 1350 
L 850 1350 
Q 850 975 1025 750 
Q 1200 525 1525 525 
Q 1850 525 2037 800 
Q 2225 1075 2225 1650 
Q 2225 2150 2062 2387 
Q 1900 2625 1625 2625 
Q 1400 2625 1237 2525 
Q 1075 2425 925 2175 
L 425 2175 
L 575 4375 
L 2725 4375 
L 2725 3900 
L 1050 3900 
L 950 2750 
Q 1100 2900 1275 2975 
Q 1450 3050 1750 3050 
Q 2225 3050 2525 2687 
Q 2825 2325 2825 1650 
z
" transform="scale(0.015625)"/>
        <path id="SimHei-2e" d="M 1100 100 
L 525 100 
L 525 650 
L 1100 650 
L 1100 100 
z
" transform="scale(0.015625)"/>
       </defs>
       <use xlink:href="#SimHei-35"/>
       <use xlink:href="#SimHei-2e" x="50"/>
       <use xlink:href="#SimHei-35" x="100"/>
      </g>
     </g>
    </g>
    <g id="ytick_2">
     <g id="line2d_2">
      <path d="M 86.73125 349.559839 
L 844.56 349.559839 
" clip-path="url(#p02c859b72c)" style="fill: none; stroke: #cccccc; stroke-width: 1.5; stroke-linecap: round"/>
     </g>
     <g id="text_6">
      <!-- 6.0 -->
      <g style="fill: #262626" transform="translate(49.48125 355.199487) scale(0.165 -0.165)">
       <defs>
        <path id="SimHei-36" d="M 2850 1550 
Q 2850 850 2550 450 
Q 2250 50 1650 50 
Q 1050 50 700 550 
Q 350 1050 350 2175 
Q 350 3200 712 3812 
Q 1075 4425 1750 4425 
Q 2225 4425 2512 4075 
Q 2800 3725 2800 3300 
L 2225 3300 
Q 2225 3550 2087 3750 
Q 1950 3950 1725 3950 
Q 1350 3950 1150 3562 
Q 950 3175 925 2375 
Q 1100 2700 1300 2825 
Q 1500 2950 1775 2950 
Q 2250 2950 2550 2575 
Q 2850 2200 2850 1550 
z
M 2250 1550 
Q 2250 2000 2100 2250 
Q 1950 2500 1675 2500 
Q 1350 2500 1162 2250 
Q 975 2000 975 1650 
Q 975 1100 1162 800 
Q 1350 500 1675 500 
Q 1900 500 2075 725 
Q 2250 950 2250 1550 
z
" transform="scale(0.015625)"/>
       </defs>
       <use xlink:href="#SimHei-36"/>
       <use xlink:href="#SimHei-2e" x="50"/>
       <use xlink:href="#SimHei-30" x="100"/>
      </g>
     </g>
    </g>
    <g id="ytick_3">
     <g id="line2d_3">
      <path d="M 86.73125 295.860485 
L 844.56 295.860485 
" clip-path="url(#p02c859b72c)" style="fill: none; stroke: #cccccc; stroke-width: 1.5; stroke-linecap: round"/>
     </g>
     <g id="text_7">
      <!-- 6.5 -->
      <g style="fill: #262626" transform="translate(49.48125 301.500134) scale(0.165 -0.165)">
       <use xlink:href="#SimHei-36"/>
       <use xlink:href="#SimHei-2e" x="50"/>
       <use xlink:href="#SimHei-35" x="100"/>
      </g>
     </g>
    </g>
    <g id="ytick_4">
     <g id="line2d_4">
      <path d="M 86.73125 242.161131 
L 844.56 242.161131 
" clip-path="url(#p02c859b72c)" style="fill: none; stroke: #cccccc; stroke-width: 1.5; stroke-linecap: round"/>
     </g>
     <g id="text_8">
      <!-- 7.0 -->
      <g style="fill: #262626" transform="translate(49.48125 247.80078) scale(0.165 -0.165)">
       <defs>
        <path id="SimHei-37" d="M 2775 3850 
L 1600 100 
L 1025 100 
L 2225 3900 
L 400 3900 
L 400 4375 
L 2775 4375 
L 2775 3850 
z
" transform="scale(0.015625)"/>
       </defs>
       <use xlink:href="#SimHei-37"/>
       <use xlink:href="#SimHei-2e" x="50"/>
       <use xlink:href="#SimHei-30" x="100"/>
      </g>
     </g>
    </g>
    <g id="ytick_5">
     <g id="line2d_5">
      <path d="M 86.73125 188.461778 
L 844.56 188.461778 
" clip-path="url(#p02c859b72c)" style="fill: none; stroke: #cccccc; stroke-width: 1.5; stroke-linecap: round"/>
     </g>
     <g id="text_9">
      <!-- 7.5 -->
      <g style="fill: #262626" transform="translate(49.48125 194.101426) scale(0.165 -0.165)">
       <use xlink:href="#SimHei-37"/>
       <use xlink:href="#SimHei-2e" x="50"/>
       <use xlink:href="#SimHei-35" x="100"/>
      </g>
     </g>
    </g>
    <g id="ytick_6">
     <g id="line2d_6">
      <path d="M 86.73125 134.762424 
L 844.56 134.762424 
" clip-path="url(#p02c859b72c)" style="fill: none; stroke: #cccccc; stroke-width: 1.5; stroke-linecap: round"/>
     </g>
     <g id="text_10">
      <!-- 8.0 -->
      <g style="fill: #262626" transform="translate(49.48125 140.402072) scale(0.165 -0.165)">
       <defs>
        <path id="SimHei-38" d="M 2875 1325 
Q 2875 700 2525 375 
Q 2175 50 1575 50 
Q 975 50 625 375 
Q 275 700 275 1325 
Q 275 1650 475 1912 
Q 675 2175 1025 2300 
Q 725 2425 562 2650 
Q 400 2875 400 3225 
Q 400 3775 750 4100 
Q 1100 4425 1575 4425 
Q 2050 4425 2400 4100 
Q 2750 3775 2750 3225 
Q 2750 2875 2587 2650 
Q 2425 2425 2125 2300 
Q 2475 2175 2675 1912 
Q 2875 1650 2875 1325 
z
M 2200 3225 
Q 2200 3625 2025 3800 
Q 1850 3975 1575 3975 
Q 1300 3975 1125 3800 
Q 950 3625 950 3225 
Q 950 2825 1137 2662 
Q 1325 2500 1575 2500 
Q 1825 2500 2012 2662 
Q 2200 2825 2200 3225 
z
M 2300 1325 
Q 2300 1675 2112 1875 
Q 1925 2075 1575 2075 
Q 1225 2075 1037 1875 
Q 850 1675 850 1325 
Q 850 925 1050 712 
Q 1250 500 1575 500 
Q 1900 500 2100 712 
Q 2300 925 2300 1325 
z
" transform="scale(0.015625)"/>
       </defs>
       <use xlink:href="#SimHei-38"/>
       <use xlink:href="#SimHei-2e" x="50"/>
       <use xlink:href="#SimHei-30" x="100"/>
      </g>
     </g>
    </g>
    <g id="ytick_7">
     <g id="line2d_7">
      <path d="M 86.73125 81.06307 
L 844.56 81.06307 
" clip-path="url(#p02c859b72c)" style="fill: none; stroke: #cccccc; stroke-width: 1.5; stroke-linecap: round"/>
     </g>
     <g id="text_11">
      <!-- 8.5 -->
      <g style="fill: #262626" transform="translate(49.48125 86.702719) scale(0.165 -0.165)">
       <use xlink:href="#SimHei-38"/>
       <use xlink:href="#SimHei-2e" x="50"/>
       <use xlink:href="#SimHei-35" x="100"/>
      </g>
     </g>
    </g>
    <g id="text_12">
     <!-- 溶解氧 (mg/L) -->
     <g style="fill: #262626" transform="translate(32.41875 294.698125) rotate(-90) scale(0.16 -0.16)">
      <defs>
       <path id="SimHei-6eb6" d="M 3575 5075 
Q 3800 5100 4050 5150 
Q 4125 4850 4200 4425 
L 5825 4425 
Q 5800 4175 5800 3925 
Q 5800 3675 5825 3450 
L 5350 3450 
L 5350 4075 
L 2475 4075 
L 2475 3350 
L 2000 3350 
Q 2025 3625 2025 3875 
Q 2025 4125 2000 4425 
L 3725 4425 
Q 3700 4650 3575 5075 
z
M 2475 2325 
Q 2300 2500 2075 2625 
Q 2350 2800 2637 3112 
Q 2925 3425 3100 3750 
Q 3300 3600 3600 3450 
Q 3400 3350 3112 3012 
Q 2825 2675 2475 2325 
z
M 4400 3325 
Q 4600 3475 4700 3675 
Q 5350 3175 5750 2825 
Q 5525 2675 5400 2475 
Q 5125 2800 4400 3325 
z
M 3750 3175 
Q 3975 3025 4300 2925 
L 4150 2775 
Q 4425 2300 4987 1950 
Q 5550 1600 6150 1500 
Q 5900 1275 5800 1050 
Q 5375 1225 5200 1325 
Q 5200 -100 5225 -625 
L 4775 -625 
L 4775 -125 
L 3025 -125 
L 3025 -625 
L 2575 -625 
Q 2600 -100 2600 1300 
Q 2375 1150 2125 950 
Q 2000 1175 1750 1350 
Q 2450 1650 2937 2137 
Q 3425 2625 3750 3175 
z
M 3875 2550 
Q 3400 1925 2850 1475 
L 4900 1475 
Q 4325 1850 3875 2550 
z
M 3025 1125 
L 3025 225 
L 4775 225 
L 4775 1125 
L 3025 1125 
z
M 650 4450 
Q 825 4675 900 4850 
Q 1475 4550 1825 4250 
Q 1625 4075 1550 3875 
Q 1175 4200 650 4450 
z
M 475 3050 
Q 600 3250 700 3450 
Q 1275 3175 1675 2875 
Q 1500 2700 1425 2475 
Q 1150 2725 475 3050 
z
M 900 -475 
Q 650 -275 375 -175 
Q 675 300 875 950 
Q 1075 1600 1125 1950 
Q 1350 1800 1575 1675 
Q 1450 1425 1237 675 
Q 1025 -75 900 -475 
z
" transform="scale(0.015625)"/>
       <path id="SimHei-89e3" d="M 1375 4150 
Q 1150 3850 975 3600 
L 1825 3600 
Q 2025 3850 2175 4150 
L 1375 4150 
z
M 1325 3225 
L 1325 2575 
L 1800 2575 
L 1800 3225 
L 1325 3225 
z
M 2225 3225 
L 2225 2575 
L 2750 2575 
L 2750 3225 
L 2225 3225 
z
M 1325 2200 
L 1300 1525 
L 1800 1525 
L 1800 2200 
L 1325 2200 
z
M 2225 2200 
L 2225 1525 
L 2750 1525 
L 2750 2200 
L 2225 2200 
z
M 1400 5225 
Q 1600 5100 1925 4950 
Q 1725 4850 1625 4525 
L 2925 4525 
Q 2800 4350 2600 4050 
Q 2400 3750 2325 3600 
L 3225 3600 
Q 3175 3100 3175 2625 
L 3175 75 
Q 3175 -200 3012 -287 
Q 2850 -375 2500 -425 
Q 2450 -150 2350 75 
Q 2550 75 2650 87 
Q 2750 100 2750 325 
L 2750 1150 
L 2225 1150 
L 2225 -25 
L 1800 -25 
L 1800 1150 
L 1275 1150 
Q 1250 775 1150 375 
Q 1050 -25 825 -475 
Q 600 -350 350 -225 
Q 600 100 725 612 
Q 850 1125 875 1912 
Q 900 2700 875 3475 
Q 675 3250 550 3125 
Q 400 3325 200 3475 
Q 575 3775 887 4212 
Q 1200 4650 1400 5225 
z
M 5925 4850 
Q 5850 3650 5787 3400 
Q 5725 3150 5475 3062 
Q 5225 2975 4900 2950 
Q 4850 3200 4725 3450 
Q 5000 3450 5162 3475 
Q 5325 3500 5350 3625 
Q 5375 3750 5425 4475 
L 4525 4475 
Q 4375 3800 4225 3487 
Q 4075 3175 3750 2825 
Q 3600 3025 3350 3175 
Q 3625 3375 3800 3687 
Q 3975 4000 4050 4475 
Q 3750 4475 3325 4450 
L 3325 4875 
Q 3725 4850 4050 4850 
L 5925 4850 
z
M 3825 2650 
Q 4075 2525 4325 2400 
Q 4200 2300 4150 2100 
L 4575 2100 
Q 4575 2625 4550 2800 
L 5050 2800 
Q 5000 2575 5000 2100 
L 5350 2100 
Q 5725 2100 5950 2125 
L 5950 1675 
Q 5625 1725 5300 1725 
L 5000 1725 
L 5000 1025 
L 5175 1025 
Q 5650 1025 6150 1050 
L 6150 625 
Q 5675 650 5175 650 
L 5000 650 
L 5000 375 
Q 5000 25 5025 -475 
L 4550 -475 
Q 4575 25 4575 375 
L 4575 650 
L 4025 650 
Q 3750 650 3325 625 
L 3325 1050 
Q 3700 1025 4025 1025 
L 4575 1025 
L 4575 1725 
L 3950 1725 
Q 3875 1525 3725 1250 
Q 3550 1350 3325 1500 
Q 3500 1700 3625 2025 
Q 3750 2350 3825 2650 
z
" transform="scale(0.015625)"/>
       <path id="SimHei-6c27" d="M 1475 2400 
Q 1600 2500 1825 2650 
Q 2125 2350 2300 2075 
Q 2125 1950 1950 1850 
L 2900 1850 
Q 3150 2175 3325 2600 
Q 3525 2475 3825 2375 
Q 3650 2275 3375 1850 
L 3600 1850 
Q 3950 1850 4300 1875 
L 4300 1500 
Q 3825 1525 3525 1525 
L 2825 1525 
L 2825 1075 
L 3400 1075 
Q 3675 1075 4050 1100 
L 4050 725 
Q 3675 750 3400 750 
L 2825 750 
L 2825 325 
L 3775 325 
Q 4075 325 4450 350 
L 4450 -25 
Q 4075 0 3775 0 
L 2825 0 
Q 2825 -325 2850 -650 
L 2375 -650 
Q 2400 -325 2400 0 
L 1325 0 
Q 975 0 600 -25 
L 600 350 
Q 975 350 1325 325 
L 2400 325 
L 2400 750 
L 1700 750 
Q 1300 750 925 725 
L 925 1100 
Q 1300 1100 1675 1075 
L 2400 1075 
L 2400 1525 
L 1525 1525 
Q 1200 1525 750 1500 
L 750 1875 
Q 1200 1875 1525 1850 
L 1925 1850 
Q 1725 2150 1475 2400 
z
M 1675 5200 
Q 1925 5075 2225 4950 
Q 2025 4825 1875 4650 
L 4725 4650 
Q 5050 4650 5625 4675 
L 5625 4300 
Q 5175 4325 4725 4325 
L 1650 4325 
Q 1425 4100 1175 3812 
Q 925 3525 600 3225 
Q 450 3375 200 3550 
Q 575 3775 950 4175 
Q 1325 4575 1675 5200 
z
M 1425 3800 
Q 2025 3775 2500 3775 
L 4250 3775 
Q 4625 3800 5050 3825 
L 5050 3425 
Q 4625 3450 4250 3450 
L 2500 3450 
Q 2025 3450 1425 3425 
L 1425 3800 
z
M 6125 225 
Q 5850 -300 5600 -562 
Q 5350 -825 5062 -337 
Q 4775 150 4725 1037 
Q 4675 1925 4725 2725 
L 1775 2725 
Q 1375 2725 750 2675 
L 750 3075 
Q 1375 3050 1775 3050 
L 5200 3050 
Q 5100 2225 5125 1525 
Q 5150 825 5300 262 
Q 5450 -300 5650 550 
Q 5800 325 6125 225 
z
" transform="scale(0.015625)"/>
       <path id="SimHei-20" transform="scale(0.015625)"/>
       <path id="SimHei-28" d="M 3000 -225 
L 2725 -500 
Q 2100 100 1787 750 
Q 1475 1400 1475 2225 
Q 1475 3050 1787 3700 
Q 2100 4350 2725 4975 
L 3000 4700 
Q 2425 4150 2137 3562 
Q 1850 2975 1850 2225 
Q 1850 1475 2137 887 
Q 2425 300 3000 -225 
z
" transform="scale(0.015625)"/>
       <path id="SimHei-6d" d="M 3075 100 
L 2575 100 
L 2575 2125 
Q 2575 2275 2525 2375 
Q 2475 2475 2325 2475 
Q 2150 2475 2000 2287 
Q 1850 2100 1850 1800 
L 1850 100 
L 1350 100 
L 1350 2125 
Q 1350 2275 1300 2375 
Q 1250 2475 1100 2475 
Q 925 2475 775 2287 
Q 625 2100 625 1800 
L 625 100 
L 125 100 
L 125 2900 
L 625 2900 
L 625 2525 
Q 750 2725 925 2837 
Q 1100 2950 1300 2950 
Q 1500 2950 1637 2837 
Q 1775 2725 1825 2525 
Q 1950 2725 2112 2837 
Q 2275 2950 2475 2950 
Q 2775 2950 2925 2787 
Q 3075 2625 3075 2325 
L 3075 100 
z
" transform="scale(0.015625)"/>
       <path id="SimHei-67" d="M 3000 2475 
Q 2825 2525 2662 2537 
Q 2500 2550 2325 2500 
Q 2400 2425 2450 2312 
Q 2500 2200 2500 1975 
Q 2500 1550 2212 1275 
Q 1925 1000 1500 1000 
Q 1400 1000 1237 1037 
Q 1075 1075 975 1125 
Q 900 1075 875 1025 
Q 850 975 850 900 
Q 850 775 1025 712 
Q 1200 650 1650 650 
Q 2375 650 2637 450 
Q 2900 250 2900 -50 
Q 2900 -450 2512 -637 
Q 2125 -825 1600 -825 
Q 925 -825 600 -650 
Q 275 -475 275 -175 
Q 275 -25 400 125 
Q 525 275 725 375 
Q 575 450 487 562 
Q 400 675 400 850 
Q 400 1000 512 1112 
Q 625 1225 775 1300 
Q 650 1425 575 1600 
Q 500 1775 500 1975 
Q 500 2400 787 2675 
Q 1075 2950 1500 2950 
Q 1725 2950 1887 2887 
Q 2050 2825 2175 2700 
Q 2375 2850 2575 2912 
Q 2775 2975 3000 2950 
L 3000 2475 
z
M 2000 1975 
Q 2000 2225 1875 2375 
Q 1750 2525 1500 2525 
Q 1250 2525 1125 2375 
Q 1000 2225 1000 1975 
Q 1000 1725 1125 1575 
Q 1250 1425 1500 1425 
Q 1750 1425 1875 1575 
Q 2000 1725 2000 1975 
z
M 2425 -100 
Q 2425 0 2312 100 
Q 2200 200 1750 200 
Q 1650 200 1475 212 
Q 1300 225 1075 250 
Q 875 175 800 75 
Q 725 -25 725 -125 
Q 725 -275 925 -375 
Q 1125 -475 1625 -475 
Q 2050 -475 2237 -362 
Q 2425 -250 2425 -100 
z
" transform="scale(0.015625)"/>
       <path id="SimHei-2f" d="M 3025 4525 
L 375 -200 
L 125 -50 
L 2775 4675 
L 3025 4525 
z
" transform="scale(0.015625)"/>
       <path id="SimHei-4c" d="M 2925 100 
L 325 100 
L 325 4375 
L 900 4375 
L 900 575 
L 2925 575 
L 2925 100 
z
" transform="scale(0.015625)"/>
       <path id="SimHei-29" d="M 1700 2225 
Q 1700 1400 1387 750 
Q 1075 100 450 -500 
L 175 -225 
Q 750 300 1037 887 
Q 1325 1475 1325 2225 
Q 1325 2975 1037 3562 
Q 750 4150 175 4700 
L 450 4975 
Q 1075 4350 1387 3700 
Q 1700 3050 1700 2225 
z
" transform="scale(0.015625)"/>
      </defs>
      <use xlink:href="#SimHei-6eb6"/>
      <use xlink:href="#SimHei-89e3" x="100"/>
      <use xlink:href="#SimHei-6c27" x="200"/>
      <use xlink:href="#SimHei-20" x="300"/>
      <use xlink:href="#SimHei-28" x="350"/>
      <use xlink:href="#SimHei-6d" x="400"/>
      <use xlink:href="#SimHei-67" x="450"/>
      <use xlink:href="#SimHei-2f" x="500"/>
      <use xlink:href="#SimHei-4c" x="550"/>
      <use xlink:href="#SimHei-29" x="600"/>
     </g>
    </g>
   </g>
   <g id="patch_3">
    <path d="M 111.992208 400.574225 
L 314.079875 400.574225 
L 314.079875 365.669645 
L 111.992208 365.669645 
L 111.992208 400.574225 
z
" clip-path="url(#p02c859b72c)" style="fill: #72b6a1; stroke: #595959; stroke-linejoin: miter"/>
   </g>
   <g id="line2d_8">
    <path d="M 213.036042 400.574225 
L 213.036042 410.777102 
" clip-path="url(#p02c859b72c)" style="fill: none; stroke: #595959"/>
   </g>
   <g id="line2d_9">
    <path d="M 213.036042 365.669645 
L 213.036042 335.598007 
" clip-path="url(#p02c859b72c)" style="fill: none; stroke: #595959"/>
   </g>
   <g id="line2d_10">
    <path d="M 162.514125 410.777102 
L 263.557958 410.777102 
" clip-path="url(#p02c859b72c)" style="fill: none; stroke: #595959; stroke-linecap: round"/>
   </g>
   <g id="line2d_11">
    <path d="M 162.514125 335.598007 
L 263.557958 335.598007 
" clip-path="url(#p02c859b72c)" style="fill: none; stroke: #595959; stroke-linecap: round"/>
   </g>
   <g id="line2d_12"/>
   <g id="patch_4">
    <path d="M 364.601792 254.243486 
L 566.689458 254.243486 
L 566.689458 201.081126 
L 364.601792 201.081126 
L 364.601792 254.243486 
z
" clip-path="url(#p02c859b72c)" style="fill: #e99675; stroke: #595959; stroke-linejoin: miter"/>
   </g>
   <g id="line2d_13">
    <path d="M 465.645625 254.243486 
L 465.645625 331.302059 
" clip-path="url(#p02c859b72c)" style="fill: none; stroke: #595959"/>
   </g>
   <g id="line2d_14">
    <path d="M 465.645625 201.081126 
L 465.645625 153.020204 
" clip-path="url(#p02c859b72c)" style="fill: none; stroke: #595959"/>
   </g>
   <g id="line2d_15">
    <path d="M 415.123708 331.302059 
L 516.167542 331.302059 
" clip-path="url(#p02c859b72c)" style="fill: none; stroke: #595959; stroke-linecap: round"/>
   </g>
   <g id="line2d_16">
    <path d="M 415.123708 153.020204 
L 516.167542 153.020204 
" clip-path="url(#p02c859b72c)" style="fill: none; stroke: #595959; stroke-linecap: round"/>
   </g>
   <g id="line2d_17">
    <defs>
     <path id="meb99228215" d="M 0 4.5 
C 1.193414 4.5 2.338109 4.025852 3.181981 3.181981 
C 4.025852 2.338109 4.5 1.193414 4.5 0 
C 4.5 -1.193414 4.025852 -2.338109 3.181981 -3.181981 
C 2.338109 -4.025852 1.193414 -4.5 0 -4.5 
C -1.193414 -4.5 -2.338109 -4.025852 -3.181981 -3.181981 
C -4.025852 -2.338109 -4.5 -1.193414 -4.5 0 
C -4.5 1.193414 -4.025852 2.338109 -3.181981 3.181981 
C -2.338109 4.025852 -1.193414 4.5 0 4.5 
z
" style="stroke: #595959"/>
    </defs>
    <g clip-path="url(#p02c859b72c)">
     <use xlink:href="#meb99228215" x="465.645625" y="378.55749" style="fill-opacity: 0; stroke: #595959"/>
    </g>
   </g>
   <g id="patch_5">
    <path d="M 617.211375 255.854467 
L 819.299042 255.854467 
L 819.299042 191.146745 
L 617.211375 191.146745 
L 617.211375 255.854467 
z
" clip-path="url(#p02c859b72c)" style="fill: #95a3c3; stroke: #595959; stroke-linejoin: miter"/>
   </g>
   <g id="line2d_18">
    <path d="M 718.255208 255.854467 
L 718.255208 274.380744 
" clip-path="url(#p02c859b72c)" style="fill: none; stroke: #595959"/>
   </g>
   <g id="line2d_19">
    <path d="M 718.255208 191.146745 
L 718.255208 105.764773 
" clip-path="url(#p02c859b72c)" style="fill: none; stroke: #595959"/>
   </g>
   <g id="line2d_20">
    <path d="M 667.733292 274.380744 
L 768.777125 274.380744 
" clip-path="url(#p02c859b72c)" style="fill: none; stroke: #595959; stroke-linecap: round"/>
   </g>
   <g id="line2d_21">
    <path d="M 667.733292 105.764773 
L 768.777125 105.764773 
" clip-path="url(#p02c859b72c)" style="fill: none; stroke: #595959; stroke-linecap: round"/>
   </g>
   <g id="line2d_22">
    <g clip-path="url(#p02c859b72c)">
     <use xlink:href="#meb99228215" x="718.255208" y="74.619148" style="fill-opacity: 0; stroke: #595959"/>
    </g>
   </g>
   <g id="line2d_23">
    <path d="M 111.992208 382.316445 
L 314.079875 382.316445 
" clip-path="url(#p02c859b72c)" style="fill: none; stroke: #595959"/>
   </g>
   <g id="line2d_24">
    <defs>
     <path id="m952cf81a94" d="M -2.5 5 
L 0 2.5 
L 2.5 5 
L 5 2.5 
L 2.5 0 
L 5 -2.5 
L 2.5 -5 
L 0 -2.5 
L -2.5 -5 
L -5 -2.5 
L -2.5 0 
L -5 2.5 
z
" style="stroke: #ff0000; stroke-linejoin: miter"/>
    </defs>
    <g clip-path="url(#p02c859b72c)">
     <use xlink:href="#m952cf81a94" x="213.036042" y="380.628751" style="fill: #ff0000; stroke: #ff0000; stroke-linejoin: miter"/>
    </g>
   </g>
   <g id="line2d_25">
    <path d="M 364.601792 217.996422 
L 566.689458 217.996422 
" clip-path="url(#p02c859b72c)" style="fill: none; stroke: #595959"/>
   </g>
   <g id="line2d_26">
    <g clip-path="url(#p02c859b72c)">
     <use xlink:href="#m952cf81a94" x="465.645625" y="231.037694" style="fill: #ff0000; stroke: #ff0000; stroke-linejoin: miter"/>
    </g>
   </g>
   <g id="line2d_27">
    <path d="M 617.211375 244.309106 
L 819.299042 244.309106 
" clip-path="url(#p02c859b72c)" style="fill: none; stroke: #595959"/>
   </g>
   <g id="line2d_28">
    <g clip-path="url(#p02c859b72c)">
     <use xlink:href="#m952cf81a94" x="718.255208" y="217.421072" style="fill: #ff0000; stroke: #ff0000; stroke-linejoin: miter"/>
    </g>
   </g>
   <g id="patch_6">
    <path d="M 86.73125 427.585 
L 86.73125 57.81125 
" style="fill: none; stroke: #cccccc; stroke-width: 1.875; stroke-linejoin: miter; stroke-linecap: square"/>
   </g>
   <g id="patch_7">
    <path d="M 844.56 427.585 
L 844.56 57.81125 
" style="fill: none; stroke: #cccccc; stroke-width: 1.875; stroke-linejoin: miter; stroke-linecap: square"/>
   </g>
   <g id="patch_8">
    <path d="M 86.73125 427.585 
L 844.56 427.585 
" style="fill: none; stroke: #cccccc; stroke-width: 1.875; stroke-linejoin: miter; stroke-linecap: square"/>
   </g>
   <g id="patch_9">
    <path d="M 86.73125 57.81125 
L 844.56 57.81125 
" style="fill: none; stroke: #cccccc; stroke-width: 1.875; stroke-linejoin: miter; stroke-linecap: square"/>
   </g>
   <g id="text_13">
    <!-- 不同时间的溶解氧 (DO) 含量的箱型图 -->
    <g style="fill: #262626" transform="translate(278.645625 37.81125) scale(0.22 -0.22)">
     <defs>
      <path id="SimHei-4e0d" d="M 5225 4750 
Q 5550 4750 5925 4800 
L 5925 4250 
Q 5575 4300 5250 4300 
L 3950 4300 
Q 3700 3675 3400 3175 
L 3400 300 
Q 3400 -100 3450 -475 
L 2850 -475 
Q 2900 -125 2900 300 
L 2900 2625 
Q 1875 1550 850 925 
Q 625 1275 400 1400 
Q 1025 1600 1900 2325 
Q 2775 3050 3350 4300 
L 1425 4300 
Q 950 4300 525 4275 
L 525 4800 
Q 1175 4750 1575 4750 
L 5225 4750 
z
M 6000 1400 
Q 5650 1175 5500 975 
Q 5100 1475 3825 2700 
Q 4075 2850 4250 3075 
Q 4925 2475 5212 2175 
Q 5500 1875 6000 1400 
z
" transform="scale(0.015625)"/>
      <path id="SimHei-540c" d="M 1700 3675 
Q 1950 3650 2500 3650 
L 4025 3650 
Q 4475 3650 4675 3675 
L 4675 3200 
Q 4450 3225 4000 3225 
L 2475 3225 
Q 1925 3225 1700 3200 
L 1700 3675 
z
M 2075 2525 
L 4275 2525 
Q 4250 2225 4250 1687 
Q 4250 1150 4275 800 
L 2075 800 
Q 2075 1175 2075 1725 
Q 2075 2275 2075 2525 
z
M 2550 2100 
L 2550 1225 
L 3775 1225 
L 3775 2100 
L 2550 2100 
z
M 750 4800 
L 5625 4800 
Q 5600 4450 5600 3875 
L 5600 -25 
Q 5600 -350 5362 -437 
Q 5125 -525 4600 -575 
Q 4600 -350 4400 -25 
Q 4800 -50 4937 -37 
Q 5075 -25 5100 225 
L 5100 4350 
L 1275 4350 
L 1275 -550 
L 725 -550 
Q 750 -200 775 225 
L 775 3875 
Q 775 4475 750 4800 
z
" transform="scale(0.015625)"/>
      <path id="SimHei-7684" d="M 1525 5100 
Q 1850 5025 2200 4925 
Q 2100 4775 2025 4487 
Q 1950 4200 1900 3975 
L 2975 3975 
Q 2950 3525 2950 2900 
L 2950 700 
Q 2950 300 2975 -225 
L 2500 -225 
L 2500 300 
L 1200 300 
L 1200 -275 
L 725 -275 
Q 750 350 750 650 
L 750 2875 
Q 750 3525 725 3975 
L 1425 3975 
Q 1450 4225 1475 4462 
Q 1500 4700 1525 5100 
z
M 1200 3525 
L 1200 2425 
L 2500 2425 
L 2500 3525 
L 1200 3525 
z
M 1200 1950 
L 1200 775 
L 2500 775 
L 2500 1950 
L 1200 1950 
z
M 5850 3925 
Q 5800 3450 5775 3000 
L 5600 175 
Q 5525 -275 5150 -400 
Q 4775 -525 4350 -550 
Q 4350 -275 4175 25 
Q 4600 0 4850 37 
Q 5100 75 5150 350 
L 5350 3475 
L 4025 3475 
Q 3825 3050 3550 2525 
Q 3350 2675 3125 2775 
Q 3275 3000 3462 3400 
Q 3650 3800 3787 4262 
Q 3925 4725 3975 5025 
Q 4300 4875 4600 4800 
Q 4475 4600 4375 4387 
Q 4275 4175 4200 3925 
L 5850 3925 
z
M 3650 2300 
Q 3825 2400 4075 2550 
Q 4200 2325 4325 2050 
Q 4450 1775 4600 1375 
Q 4400 1300 4150 1150 
Q 4075 1425 3937 1750 
Q 3800 2075 3650 2300 
z
" transform="scale(0.015625)"/>
      <path id="SimHei-44" d="M 2950 2225 
Q 2950 1075 2462 587 
Q 1975 100 1150 100 
L 300 100 
L 300 4375 
L 1150 4375 
Q 2075 4375 2512 3875 
Q 2950 3375 2950 2225 
z
M 2350 2225 
Q 2350 3150 2050 3525 
Q 1750 3900 1150 3900 
L 875 3900 
L 875 575 
L 1150 575 
Q 1750 575 2050 937 
Q 2350 1300 2350 2225 
z
" transform="scale(0.015625)"/>
      <path id="SimHei-4f" d="M 2975 2250 
Q 2975 1075 2612 562 
Q 2250 50 1600 50 
Q 950 50 575 562 
Q 200 1075 200 2250 
Q 200 3425 575 3925 
Q 950 4425 1600 4425 
Q 2250 4425 2612 3925 
Q 2975 3425 2975 2250 
z
M 2375 2250 
Q 2375 3300 2150 3625 
Q 1925 3950 1600 3950 
Q 1275 3950 1037 3625 
Q 800 3300 800 2250 
Q 800 1200 1037 862 
Q 1275 525 1600 525 
Q 1925 525 2150 862 
Q 2375 1200 2375 2250 
z
" transform="scale(0.015625)"/>
      <path id="SimHei-542b" d="M 2825 3800 
Q 3125 3825 3325 3875 
Q 3425 3400 3450 3250 
Q 3350 3250 2950 3175 
Q 2875 3650 2825 3800 
z
M 1375 2900 
Q 1750 2875 1975 2875 
L 4750 2875 
Q 4500 2575 4175 2212 
Q 3850 1850 3600 1500 
Q 3450 1650 3200 1775 
Q 3525 2075 3850 2475 
L 1975 2475 
Q 1750 2475 1375 2450 
L 1375 2900 
z
M 5025 1425 
Q 5000 1150 5000 412 
Q 5000 -325 5025 -625 
L 4525 -625 
L 4525 -225 
L 1825 -225 
L 1825 -675 
L 1325 -675 
Q 1350 -300 1350 262 
Q 1350 825 1325 1425 
L 5025 1425 
z
M 1825 1025 
L 1825 175 
L 4525 175 
L 4525 1025 
L 1825 1025 
z
M 2875 5250 
Q 3200 5150 3525 5075 
L 3425 4950 
Q 3675 4575 4312 4062 
Q 4950 3550 6125 3250 
Q 5925 3025 5750 2700 
Q 5025 2975 4375 3412 
Q 3725 3850 3125 4650 
Q 2425 3800 1850 3400 
Q 1275 3000 700 2675 
Q 575 2900 325 3150 
Q 1025 3375 1787 3975 
Q 2550 4575 2875 5250 
z
" transform="scale(0.015625)"/>
      <path id="SimHei-91cf" d="M 3450 2175 
L 3450 1800 
L 4750 1800 
L 4750 2175 
L 3450 2175 
z
M 3450 1525 
L 3450 1175 
L 4750 1175 
L 4750 1525 
L 3450 1525 
z
M 1675 2175 
L 1675 1800 
L 3000 1800 
L 3000 2175 
L 1675 2175 
z
M 1675 1525 
L 1675 1175 
L 3000 1175 
L 3000 1525 
L 1675 1525 
z
M 1200 2450 
L 5250 2450 
Q 5200 2150 5200 1737 
Q 5200 1325 5250 900 
L 3450 900 
L 3450 500 
L 4600 500 
Q 5000 525 5375 525 
L 5375 175 
Q 5000 225 4600 225 
L 3450 225 
L 3450 -225 
L 5125 -225 
Q 5550 -200 5950 -200 
L 5950 -525 
Q 5550 -500 5125 -500 
L 1300 -500 
Q 900 -500 475 -525 
L 475 -200 
Q 925 -200 1300 -225 
L 3000 -225 
L 3000 225 
L 1750 225 
Q 1375 225 1000 175 
L 1000 525 
Q 1400 525 1750 500 
L 3000 500 
L 3000 900 
L 1200 900 
Q 1225 1300 1225 1712 
Q 1225 2125 1200 2450 
z
M 1675 4775 
L 1675 4350 
L 4750 4350 
L 4750 4775 
L 1675 4775 
z
M 1675 4075 
L 1675 3675 
L 4750 3675 
L 4750 4075 
L 1675 4075 
z
M 1200 5050 
L 5250 5050 
Q 5200 4650 5200 4300 
Q 5200 3950 5250 3400 
L 1200 3400 
Q 1225 3950 1212 4300 
Q 1200 4650 1200 5050 
z
M 475 3150 
Q 1100 3125 1750 3100 
L 4825 3100 
Q 5400 3125 5900 3150 
L 5900 2800 
Q 5400 2825 4850 2825 
L 1750 2825 
Q 1100 2825 475 2800 
L 475 3150 
z
" transform="scale(0.015625)"/>
      <path id="SimHei-7bb1" d="M 3525 2750 
L 3525 2175 
L 5175 2175 
L 5175 2750 
L 3525 2750 
z
M 3525 1825 
L 3525 1250 
L 5175 1250 
L 5175 1825 
L 3525 1825 
z
M 3525 900 
L 3525 225 
L 5175 225 
L 5175 900 
L 3525 900 
z
M 525 2600 
Q 950 2575 1500 2575 
Q 1500 2950 1475 3350 
L 1975 3350 
Q 1950 3025 1950 2575 
Q 2325 2575 2725 2600 
L 2725 2200 
Q 2375 2225 1950 2225 
L 1950 1575 
Q 2150 1700 2325 1850 
Q 2725 1375 2925 1050 
Q 2725 950 2550 775 
Q 2375 1100 1950 1575 
L 1950 500 
Q 1950 -25 1975 -650 
L 1475 -650 
Q 1500 -25 1500 500 
L 1500 1400 
Q 1400 1150 1237 837 
Q 1075 525 675 0 
Q 525 275 325 425 
Q 650 725 937 1200 
Q 1225 1675 1375 2225 
Q 950 2225 525 2200 
L 525 2600 
z
M 3050 3100 
L 5650 3100 
Q 5625 2700 5625 2400 
L 5625 625 
Q 5625 150 5650 -575 
L 5175 -575 
L 5175 -125 
L 3525 -125 
L 3525 -650 
L 3050 -650 
Q 3075 75 3075 525 
L 3075 2350 
Q 3075 2675 3050 3100 
z
M 2600 4625 
Q 3025 4625 3325 4650 
L 3325 4225 
Q 2825 4250 2325 4250 
Q 2400 3975 2525 3700 
Q 2250 3625 2050 3525 
Q 2000 3825 1875 4250 
L 1600 4250 
Q 1375 3925 1175 3725 
Q 975 3525 775 3350 
Q 600 3550 325 3700 
Q 875 4050 1162 4487 
Q 1450 4925 1550 5200 
Q 1800 5100 2150 5000 
Q 2000 4850 1850 4625 
L 2600 4625 
z
M 5025 4200 
Q 5100 3975 5275 3625 
Q 5025 3525 4800 3425 
Q 4725 3775 4600 4200 
L 4125 4200 
Q 3800 3800 3625 3600 
Q 3375 3750 3175 3850 
Q 3500 4150 3700 4450 
Q 3900 4750 4075 5175 
Q 4325 5100 4625 5000 
Q 4450 4825 4350 4575 
L 5275 4575 
Q 5475 4575 5950 4600 
L 5950 4175 
Q 5275 4200 5025 4200 
z
" transform="scale(0.015625)"/>
      <path id="SimHei-578b" d="M 1125 1200 
Q 1550 1175 2050 1175 
L 3025 1175 
Q 3025 1400 3000 1725 
L 3500 1725 
Q 3475 1400 3475 1175 
L 4550 1175 
Q 4975 1175 5350 1200 
L 5350 775 
Q 4975 800 4550 800 
L 3475 800 
L 3475 0 
L 5250 0 
Q 5700 0 6075 25 
L 6075 -400 
Q 5725 -375 5275 -375 
L 1300 -375 
Q 825 -375 450 -400 
L 450 25 
Q 825 0 1300 0 
L 3025 0 
L 3025 800 
L 2050 800 
Q 1550 800 1125 775 
L 1125 1200 
z
M 3000 2625 
Q 3000 2200 3025 1875 
L 2550 1875 
Q 2575 2300 2575 2650 
L 2575 2950 
L 1750 2950 
Q 1650 2350 1362 2012 
Q 1075 1675 725 1425 
Q 550 1625 300 1775 
Q 775 2050 987 2300 
Q 1200 2550 1275 2950 
Q 800 2950 375 2925 
L 375 3350 
Q 825 3325 1325 3325 
Q 1350 3850 1350 4350 
Q 1000 4350 625 4325 
L 625 4750 
Q 1000 4725 1450 4725 
L 2900 4725 
Q 3175 4725 3550 4750 
L 3550 4325 
Q 3225 4350 3000 4350 
L 3000 3325 
Q 3350 3325 3700 3350 
L 3700 2925 
Q 3350 2950 3000 2950 
L 3000 2625 
z
M 1800 4350 
Q 1775 3650 1775 3325 
L 2575 3325 
L 2575 4350 
L 1800 4350 
z
M 4000 4625 
L 4475 4625 
Q 4450 4325 4450 3875 
L 4450 3125 
Q 4450 2775 4475 2400 
L 4000 2400 
Q 4025 2775 4025 3125 
L 4025 3875 
Q 4025 4325 4000 4625 
z
M 5150 5050 
L 5625 5050 
Q 5600 4650 5600 4200 
L 5600 2375 
Q 5625 1950 5462 1775 
Q 5300 1600 4775 1525 
Q 4675 1775 4550 2025 
Q 5050 2000 5112 2100 
Q 5175 2200 5175 2500 
L 5175 4200 
Q 5175 4650 5150 5050 
z
" transform="scale(0.015625)"/>
      <path id="SimHei-56fe" d="M 2675 3425 
L 2625 3350 
Q 2950 2925 3250 2750 
Q 3600 3050 3825 3425 
L 2675 3425 
z
M 2675 1575 
Q 2800 1775 2900 1975 
Q 3700 1650 4025 1550 
Q 3875 1350 3800 1125 
Q 2950 1500 2675 1575 
z
M 2250 800 
Q 2375 1025 2450 1225 
Q 3500 925 4050 700 
Q 3900 500 3800 275 
Q 2800 675 2250 800 
z
M 2625 4325 
Q 2900 4225 3200 4125 
Q 3025 3975 2925 3825 
L 4575 3825 
Q 4400 3550 4225 3262 
Q 4050 2975 3575 2525 
Q 4350 2125 5000 2075 
Q 4825 1875 4700 1625 
Q 3850 1850 3200 2275 
Q 2500 1825 1700 1600 
Q 1625 1800 1400 2000 
Q 2075 2100 2850 2525 
Q 2500 2825 2350 3050 
Q 2175 2800 1950 2575 
Q 1750 2750 1550 2850 
Q 1925 3175 2225 3612 
Q 2525 4050 2625 4325 
z
M 1200 4425 
L 1200 150 
L 5175 150 
L 5175 4425 
L 1200 4425 
z
M 675 4875 
L 5700 4875 
Q 5675 4225 5675 3475 
L 5675 900 
Q 5675 150 5700 -575 
L 5175 -575 
L 5175 -300 
L 1200 -300 
L 1200 -625 
L 675 -625 
Q 700 125 700 925 
L 700 3475 
Q 700 4200 675 4875 
z
" transform="scale(0.015625)"/>
     </defs>
     <use xlink:href="#SimHei-4e0d"/>
     <use xlink:href="#SimHei-540c" x="100"/>
     <use xlink:href="#SimHei-65f6" x="200"/>
     <use xlink:href="#SimHei-95f4" x="300"/>
     <use xlink:href="#SimHei-7684" x="400"/>
     <use xlink:href="#SimHei-6eb6" x="500"/>
     <use xlink:href="#SimHei-89e3" x="600"/>
     <use xlink:href="#SimHei-6c27" x="700"/>
     <use xlink:href="#SimHei-20" x="800"/>
     <use xlink:href="#SimHei-28" x="850"/>
     <use xlink:href="#SimHei-44" x="900"/>
     <use xlink:href="#SimHei-4f" x="950"/>
     <use xlink:href="#SimHei-29" x="1000"/>
     <use xlink:href="#SimHei-20" x="1050"/>
     <use xlink:href="#SimHei-542b" x="1100"/>
     <use xlink:href="#SimHei-91cf" x="1200"/>
     <use xlink:href="#SimHei-7684" x="1300"/>
     <use xlink:href="#SimHei-7bb1" x="1400"/>
     <use xlink:href="#SimHei-578b" x="1500"/>
     <use xlink:href="#SimHei-56fe" x="1600"/>
    </g>
   </g>
   <g id="legend_1">
    <g id="patch_10">
     <path d="M 352.845625 477.051063 
L 578.445625 477.051063 
Q 580.845625 477.051063 580.845625 474.651062 
L 580.845625 436.358875 
Q 580.845625 433.958875 578.445625 433.958875 
L 352.845625 433.958875 
Q 350.445625 433.958875 350.445625 436.358875 
L 350.445625 474.651062 
Q 350.445625 477.051063 352.845625 477.051063 
z
" style="fill: #ffffff; opacity: 0.8; stroke: #cccccc; stroke-width: 1.5; stroke-linejoin: miter"/>
    </g>
    <g id="text_14">
     <!-- 时间 -->
     <g style="fill: #262626" transform="translate(447.645625 452.821375) scale(0.18 -0.18)">
      <use xlink:href="#SimHei-65f6"/>
      <use xlink:href="#SimHei-95f4" x="100"/>
     </g>
    </g>
    <g id="line2d_29">
     <path d="M 355.245625 466.504188 
L 367.245625 466.504188 
L 379.245625 466.504188 
" style="fill: none; stroke: #0000ff; stroke-width: 3; stroke-linecap: round"/>
    </g>
    <g id="text_15">
     <!-- 20夏 -->
     <g style="fill: #262626" transform="translate(388.845625 470.704187) scale(0.12 -0.12)">
      <use xlink:href="#SimHei-32"/>
      <use xlink:href="#SimHei-30" x="50"/>
      <use xlink:href="#SimHei-590f" x="100"/>
     </g>
    </g>
    <g id="line2d_30">
     <path d="M 436.845625 466.504188 
L 448.845625 466.504188 
L 460.845625 466.504188 
" style="fill: none; stroke: #a52a2a; stroke-width: 3; stroke-linecap: round"/>
    </g>
    <g id="text_16">
     <!-- 21春 -->
     <g style="fill: #262626" transform="translate(470.445625 470.704187) scale(0.12 -0.12)">
      <use xlink:href="#SimHei-32"/>
      <use xlink:href="#SimHei-31" x="50"/>
      <use xlink:href="#SimHei-6625" x="100"/>
     </g>
    </g>
    <g id="line2d_31">
     <path d="M 518.445625 466.504188 
L 530.445625 466.504188 
L 542.445625 466.504188 
" style="fill: none; stroke: #008000; stroke-width: 3; stroke-linecap: round"/>
    </g>
    <g id="text_17">
     <!-- 22夏 -->
     <g style="fill: #262626" transform="translate(552.045625 470.704187) scale(0.12 -0.12)">
      <use xlink:href="#SimHei-32"/>
      <use xlink:href="#SimHei-32" x="50"/>
      <use xlink:href="#SimHei-590f" x="100"/>
     </g>
    </g>
   </g>
  </g>
 </g>
 <defs>
  <clipPath id="p02c859b72c">
   <rect x="86.73125" y="57.81125" width="757.82875" height="369.77375"/>
  </clipPath>
 </defs>
</svg>
